G04 start of page 10 for group -4078 idx -4078 *
G04 Title: (unknown), bottomsilk *
G04 Creator: pcb 1.99z *
G04 CreationDate: Thu 09 Sep 2010 15:44:30 GMT UTC *
G04 For: rbarlow *
G04 Format: Gerber/RS-274X *
G04 PCB-Dimensions: 236220 263780 *
G04 PCB-Coordinate-Origin: lower left *
%MOIN*%
%FSLAX25Y25*%
%LNBACKSILK*%
%ADD11C,0.0200*%
%ADD12C,0.0100*%
%ADD13C,0.0079*%
%ADD69C,0.0080*%
G54D13*X62599Y140946D02*Y130514D01*
X67914Y142128D02*Y148822D01*
X68111Y130514D02*Y140946D01*
X56693Y130514D02*X68111D01*
X75000Y158270D02*Y145079D01*
X67914Y148822D02*X68504Y149412D01*
X69685Y145079D02*Y158270D01*
X80315Y145079D02*X69685D01*
X80315Y158270D02*Y145079D01*
X56693Y140946D02*Y130514D01*
X13780Y133663D02*X12795Y132680D01*
X13780Y136419D02*Y133663D01*
X18111Y140750D02*X13780Y136419D01*
X25985Y140750D02*X18111D01*
X13386Y141735D02*X11024Y139373D01*
X68111Y140946D02*X56693Y140947D01*
X69685Y158272D02*X80315Y158268D01*
X70079Y178742D02*Y159648D01*
X83071Y159451D02*Y178742D01*
X70079Y159451D02*X83071D01*
X75985Y219293D02*Y178939D01*
X56693Y219293D02*X75985D01*
X56693Y178939D02*Y219293D01*
X77756Y179727D02*Y180514D01*
X77757Y180513D02*X76970Y181300D01*
X75985Y178939D02*X56693D01*
X83071Y178742D02*X70079D01*
G54D12*X67913Y92323D02*X68504Y91733D01*
G54D13*X164173Y114567D02*X159448D01*
X168110Y119292D02*Y118504D01*
X164173Y114567D01*
X159448D02*X159055Y114174D01*
X136417Y157285D02*Y157286D01*
X135630Y158073D01*
Y166538D01*
X136220Y167128D01*
X146457Y152364D02*Y152365D01*
X147047Y152955D01*
Y161814D01*
X146654Y162207D01*
X179724Y81892D02*Y78940D01*
X183465Y75199D01*
X187008D01*
X179528Y70868D02*Y68703D01*
X179724Y81892D02*X179134Y82482D01*
X179528Y70868D02*X179134Y71262D01*
X179528Y68703D02*X183268Y64963D01*
X212598Y52561D02*X233071D01*
Y77758D02*X212598D01*
Y52561D01*
X216142Y101577D02*X230906D01*
Y120868D01*
X233071Y52561D02*Y77758D01*
X230118Y100592D02*Y78939D01*
X230906Y120868D02*X216142D01*
Y101577D01*
X183268Y64963D02*X188188D01*
X193307Y59844D01*
X197047D01*
X200984Y55907D01*
Y50396D01*
X201575Y49805D01*
X187008Y75199D02*X192323Y69884D01*
X201378D01*
X167390Y179690D02*Y178116D01*
X170406Y179690D02*Y178116D01*
G54D69*X138780Y177756D02*Y176970D01*
X144290Y177756D02*Y176970D01*
G54D12*X173069Y192789D02*X186069D01*
X191069D02*X204069D01*
X173069D02*Y173789D01*
X204069D01*
Y192789D02*Y173789D01*
X186069Y192789D02*G75*G03X191069Y192789I2500J0D01*G01*
X129415Y210918D02*X142415D01*
X147415D02*X160415D01*
X129415D02*Y191918D01*
X160415D01*
Y210918D02*Y191918D01*
X142415Y210918D02*G75*G03X147415Y210918I2500J0D01*G01*
X169784Y228419D02*X162784Y230119D01*
X138484D02*X162784D01*
X138484D02*Y218307D01*
X162784D01*
X169784Y220007D02*X162784Y218307D01*
G54D11*X169784Y228419D02*Y220007D01*
G54D13*X123980Y180250D02*X125554D01*
X123980Y177234D02*X125554D01*
X126445Y109808D02*Y108234D01*
X129461Y109808D02*Y108234D01*
X135271Y104659D02*X136845D01*
X135271Y101643D02*X136845D01*
X121493Y126117D02*X123067D01*
X121493Y123101D02*X123067D01*
X121493Y119620D02*X123067D01*
X121493Y116604D02*X123067D01*
X153186Y110502D02*X154760D01*
X153186Y113518D02*X154760D01*
X135201Y119620D02*X136775D01*
X135201Y116604D02*X136775D01*
X153186Y104203D02*X154760D01*
X153186Y107219D02*X154760D01*
X135201Y113516D02*X136775D01*
X135201Y110500D02*X136775D01*
X54886Y102494D02*X56460D01*
X54886Y99478D02*X56460D01*
X54886Y108398D02*X56460D01*
X54886Y105382D02*X56460D01*
G54D69*X9645Y166142D02*Y165356D01*
X4135Y166142D02*Y165356D01*
G54D12*X2741Y210905D02*Y189693D01*
Y210905D02*X33873D01*
Y189693D01*
X2741D02*X15807D01*
X20807D02*X33873D01*
X20807D02*G75*G03X15807Y189693I-2500J0D01*G01*
G54D13*X7517Y142784D02*X9091D01*
X7517Y145800D02*X9091D01*
X7641Y128612D02*X9215D01*
X7641Y131628D02*X9215D01*
X6854Y138320D02*X8428D01*
X6854Y135304D02*X8428D01*
G54D12*X22612Y150566D02*X64012D01*
X22612Y179066D02*Y150566D01*
Y179066D02*X64012D01*
Y150566D01*
G54D13*X61154Y136453D02*Y134879D01*
X58138Y136453D02*Y134879D01*
X60988Y142587D02*X62562D01*
X60988Y145603D02*X62562D01*
X66862Y136453D02*Y134879D01*
X63846Y136453D02*Y134879D01*
X113422Y186746D02*X114996D01*
X113422Y183730D02*X114996D01*
X113422Y180250D02*X114996D01*
X113422Y177234D02*X114996D01*
G54D12*X76474Y201926D02*Y215826D01*
X89274D01*
Y201926D01*
X76474D01*
G54D69*X63976Y218112D02*X68700D01*
X63976Y210632D02*X68700D01*
X63976Y208270D02*X68700D01*
X63976Y200790D02*X68700D01*
G54D13*X4398Y217949D02*Y216375D01*
X7414Y217949D02*Y216375D01*
X31532Y185957D02*X33106D01*
X31532Y182941D02*X33106D01*
G54D12*X89274Y198865D02*Y184965D01*
X76474D02*X89274D01*
X76474Y198865D02*Y184965D01*
Y198865D02*X89274D01*
G54D69*X63976Y196851D02*X68700D01*
X63976Y189371D02*X68700D01*
X63976Y187600D02*X68700D01*
X63976Y180120D02*X68700D01*
G54D12*X144811Y129181D02*Y116181D01*
Y147181D02*Y134181D01*
Y116181D02*X163811D01*
Y147181D02*Y116181D01*
X144811Y147181D02*X163811D01*
X144811Y129181D02*G75*G03X144811Y134181I0J2500D01*G01*
X173069Y148301D02*X186069D01*
X191069D02*X204069D01*
X173069D02*Y129301D01*
X204069D01*
Y148301D02*Y129301D01*
X186069Y148301D02*G75*G03X191069Y148301I2500J0D01*G01*
X138756Y144628D02*Y131828D01*
X124856Y144628D02*X138756D01*
X124856D02*Y131828D01*
X138756D01*
G54D69*X149018Y175888D02*Y158566D01*
X162792Y175888D02*Y158566D01*
G54D12*X120963Y174061D02*X133763D01*
X120963D02*Y160161D01*
X133763D01*
Y174061D02*Y160161D01*
G54D13*X140712Y160895D02*X142286D01*
X140712Y163911D02*X142286D01*
X140713Y166014D02*X142287D01*
X140713Y169030D02*X142287D01*
X120634Y150919D02*X122208D01*
X120634Y147903D02*X122208D01*
X115587Y141667D02*X117161D01*
X115587Y138651D02*X117161D01*
X114800Y157415D02*X116374D01*
X114800Y154399D02*X116374D01*
X176808Y105250D02*X178382D01*
X176808Y102234D02*X178382D01*
X194256D02*X195830D01*
X194256Y105250D02*X195830D01*
G54D12*X204069Y108435D02*X191069D01*
X173069D02*X186069D01*
X204069Y127435D02*Y108435D01*
X173069Y127435D02*X204069D01*
X173069Y108435D02*Y127435D01*
X191069Y108435D02*G75*G03X186069Y108435I-2500J0D01*G01*
G54D13*X164303Y109682D02*Y108108D01*
X161287Y109682D02*Y108108D01*
G54D12*X204069Y152923D02*X191069D01*
X173069D02*X186069D01*
X204069Y171923D02*Y152923D01*
X173069Y171923D02*X204069D01*
X173069Y152923D02*Y171923D01*
X191069Y152923D02*G75*G03X186069Y152923I-2500J0D01*G01*
G54D13*X216996Y161059D02*Y159485D01*
X220012Y161059D02*Y159485D01*
X223886Y160988D02*Y159414D01*
X226902Y160988D02*Y159414D01*
X157153Y41376D02*Y39802D01*
X160169Y41376D02*Y39802D01*
G54D69*X173623Y60238D02*Y59452D01*
X179133Y60238D02*Y59452D01*
G54D13*X145634Y75659D02*X147208D01*
X145634Y78675D02*X147208D01*
X167453Y88155D02*Y86581D01*
X164437Y88155D02*Y86581D01*
X159185Y90517D02*Y88943D01*
X156169Y90517D02*Y88943D01*
X197374Y32911D02*Y31337D01*
X194358Y32911D02*Y31337D01*
G54D69*X199802Y97443D02*X204526D01*
X199802Y89963D02*X204526D01*
X199804Y87797D02*X204528D01*
X199804Y80317D02*X204528D01*
X179921Y45278D02*X184645D01*
X179921Y37798D02*X184645D01*
X179921Y36026D02*X184645D01*
X179921Y28546D02*X184645D01*
G54D13*X218862Y76116D02*X220436D01*
X218862Y73100D02*X220436D01*
X218862Y51313D02*X220436D01*
X218862Y48297D02*X220436D01*
G54D69*X220275Y70277D02*X224999D01*
X220275Y62797D02*X224999D01*
X220275Y53348D02*X224999D01*
X220275Y60828D02*X224999D01*
X210236Y70867D02*Y66143D01*
X202756Y70867D02*Y66143D01*
X210236Y51577D02*Y46853D01*
X202756Y51577D02*Y46853D01*
G54D12*X138324Y80634D02*X151390D01*
X120258D02*X133324D01*
X151390Y99286D02*Y80634D01*
X120258Y99286D02*X151390D01*
X120258D02*Y80634D01*
X138324D02*G75*G03X133324Y80634I-2500J0D01*G01*
X152967Y49190D02*Y27978D01*
X121835D02*X152967D01*
X121835Y49190D02*Y27978D01*
X139901Y49190D02*X152967D01*
X121835D02*X134901D01*
G75*G03X139901Y49190I2500J0D01*G01*
G54D13*X111185Y72179D02*X112759D01*
X111185Y69163D02*X112759D01*
X107547Y79887D02*Y78313D01*
X110563Y79887D02*Y78313D01*
X123658Y78675D02*X125232D01*
X123658Y75659D02*X125232D01*
X134879Y78675D02*X136453D01*
X134879Y75659D02*X136453D01*
X117059Y85470D02*Y83896D01*
X114043Y85470D02*Y83896D01*
Y95903D02*Y94329D01*
X117059Y95903D02*Y94329D01*
G54D11*X24728Y98261D02*Y106861D01*
G54D12*X27328Y108061D01*
X44928D01*
Y97061D01*
X27328D01*
X24728Y98261D01*
G54D11*X22517Y124971D02*Y116371D01*
G54D12*X19917Y115171D01*
X2317D02*X19917D01*
X2317Y126171D02*Y115171D01*
Y126171D02*X19917D01*
X22517Y124971D01*
X18542Y139495D02*X23942D01*
X27042D02*X32442D01*
Y127695D01*
X18542D02*X32442D01*
X18542Y139495D02*Y127695D01*
X23942Y139495D02*G75*G03X26942Y139495I1500J0D01*G01*
X51598Y91674D02*X65498D01*
Y78874D01*
X51598D02*X65498D01*
X51598Y91674D02*Y78874D01*
X68132Y128478D02*Y114578D01*
X55332D02*X68132D01*
X55332Y128478D02*Y114578D01*
Y128478D02*X68132D01*
X69227Y130144D02*Y144044D01*
X82027D01*
Y130144D01*
X69227D01*
G54D13*X72705Y87437D02*Y85863D01*
X75721Y87437D02*Y85863D01*
X67193Y87437D02*Y85863D01*
X70209Y87437D02*Y85863D01*
X164275Y168988D02*Y170768D01*
Y168988D02*X164720Y168543D01*
X165610D01*
X166055Y168988D02*X165610Y168543D01*
X166055Y168988D02*Y170323D01*
X164275D02*X167835D01*
X166055D02*X167835Y168543D01*
X164720Y167475D02*X164275Y167030D01*
Y166140D02*Y167030D01*
Y166140D02*X164720Y165695D01*
X167390D01*
X167835Y166140D02*X167390Y165695D01*
X167835Y166140D02*Y167030D01*
X167390Y167475D02*X167835Y167030D01*
X166055Y165695D02*Y167030D01*
X167390Y164626D02*X167835Y164181D01*
X164720Y164626D02*X167390D01*
X164720D02*X164275Y164181D01*
Y163291D02*Y164181D01*
Y163291D02*X164720Y162846D01*
X167390D01*
X167835Y163291D02*X167390Y162846D01*
X167835Y163291D02*Y164181D01*
X166945Y164626D02*X165165Y162846D01*
X166945Y192061D02*Y194061D01*
Y192061D02*X167445Y191561D01*
X168445D01*
X168945Y192061D02*X168445Y191561D01*
X168945Y192061D02*Y193561D01*
X166945D02*X170945D01*
X168945D02*X170945Y191561D01*
X167445Y190360D02*X166945Y189860D01*
Y188360D02*Y189860D01*
Y188360D02*X167445Y187860D01*
X168445D01*
X170945Y190360D02*X168445Y187860D01*
X170945D02*Y190360D01*
X166945Y184659D02*Y186659D01*
X168945D01*
X168445Y186159D01*
Y185159D02*Y186159D01*
Y185159D02*X168945Y184659D01*
X170445D01*
X170945Y185159D02*X170445Y184659D01*
X170945Y185159D02*Y186159D01*
X170445Y186659D02*X170945Y186159D01*
X205690Y188821D02*Y191491D01*
Y188821D02*X206135Y188376D01*
X207025D01*
X207470Y188821D01*
Y191491D01*
X207025Y191936D02*X207470Y191491D01*
X206135Y191936D02*X207025D01*
X205690Y191491D02*X206135Y191936D01*
X206580Y191046D02*X207470Y191936D01*
X208538Y188821D02*X208983Y188376D01*
X209873D01*
X210318Y188821D01*
Y191491D01*
X209873Y191936D02*X210318Y191491D01*
X208983Y191936D02*X209873D01*
X208538Y191491D02*X208983Y191936D01*
Y190156D02*X210318D01*
X219503Y173037D02*Y175037D01*
Y173037D02*X220003Y172537D01*
X221003D01*
X221503Y173037D02*X221003Y172537D01*
X221503Y173037D02*Y174537D01*
X219503D02*X223503D01*
X221503D02*X223503Y172537D01*
X220003Y171336D02*X219503Y170836D01*
Y169836D02*Y170836D01*
Y169836D02*X220003Y169336D01*
X223003D01*
X223503Y169836D02*X223003Y169336D01*
X223503Y169836D02*Y170836D01*
X223003Y171336D02*X223503Y170836D01*
X221503Y169336D02*Y170836D01*
X219503Y166135D02*Y168135D01*
X221503D01*
X221003Y167635D01*
Y166635D02*Y167635D01*
Y166635D02*X221503Y166135D01*
X223003D01*
X223503Y166635D02*X223003Y166135D01*
X223503Y166635D02*Y167635D01*
X223003Y168135D02*X223503Y167635D01*
X230001Y172338D02*Y173838D01*
X229501Y174338D02*X230001Y173838D01*
X226501Y174338D02*X229501D01*
X226501D02*X226001Y173838D01*
Y172338D02*Y173838D01*
X230001Y169637D02*Y170637D01*
X226001Y170137D02*X230001D01*
X227001Y171137D02*X226001Y170137D01*
Y166436D02*Y168436D01*
X228001D01*
X227501Y167936D01*
Y166936D02*Y167936D01*
Y166936D02*X228001Y166436D01*
X229501D01*
X230001Y166936D02*X229501Y166436D01*
X230001Y166936D02*Y167936D01*
X229501Y168436D02*X230001Y167936D01*
X141783Y213042D02*Y216602D01*
X143118Y213042D02*X143563Y213487D01*
Y216157D01*
X143118Y216602D02*X143563Y216157D01*
X141338Y216602D02*X143118D01*
X141338Y213042D02*X143118D01*
X145076Y216602D02*X145966D01*
X145521Y213042D02*Y216602D01*
X144631Y213932D02*X145521Y213042D01*
X138241Y188111D02*X139576D01*
X137796Y187666D02*X138241Y188111D01*
X137796Y184996D02*Y187666D01*
Y184996D02*X138241Y184551D01*
X139576D01*
X141089Y188111D02*X141979D01*
X141534Y184551D02*Y188111D01*
X140644Y185441D02*X141534Y184551D01*
X143048Y184996D02*X143493Y184551D01*
X144383D01*
X144828Y184996D01*
Y187666D01*
X144383Y188111D02*X144828Y187666D01*
X143493Y188111D02*X144383D01*
X143048Y187666D02*X143493Y188111D01*
Y186331D02*X144828D01*
X111292Y192601D02*X112792D01*
X110792Y192101D02*X111292Y192601D01*
X110792Y189101D02*Y192101D01*
Y189101D02*X111292Y188601D01*
X112792D01*
X113993Y190601D02*X115993Y188601D01*
X113993Y190601D02*X116493D01*
X115993Y188601D02*Y192601D01*
X90608Y196123D02*X90998Y195733D01*
X90608Y196123D02*Y197293D01*
X90998Y197683D02*X90608Y197293D01*
X90998Y197683D02*X91778D01*
X92168Y197293D01*
Y196123D02*Y197293D01*
Y196123D02*X92558Y195733D01*
X93338D01*
X93728Y196123D02*X93338Y195733D01*
X93728Y196123D02*Y197293D01*
X93338Y197683D02*X93728Y197293D01*
X93338Y194797D02*X90998Y192457D01*
X90608Y191130D02*X93728D01*
X90608Y189960D02*X90998Y189570D01*
X93338D01*
X93728Y189960D02*X93338Y189570D01*
X93728Y189960D02*Y191520D01*
X90608Y189960D02*Y191520D01*
X92168Y188633D02*X90608Y187073D01*
X92168Y186683D02*Y188633D01*
X90608Y187073D02*X93728D01*
X90610Y213053D02*X91000Y212663D01*
X90610Y213053D02*Y214223D01*
X91000Y214613D02*X90610Y214223D01*
X91000Y214613D02*X91780D01*
X92170Y214223D01*
Y213053D02*Y214223D01*
Y213053D02*X92560Y212663D01*
X93340D01*
X93730Y213053D02*X93340Y212663D01*
X93730Y213053D02*Y214223D01*
X93340Y214613D02*X93730Y214223D01*
X93340Y211727D02*X91000Y209387D01*
X90610Y208060D02*X93730D01*
X90610Y206890D02*X91000Y206500D01*
X93340D01*
X93730Y206890D02*X93340Y206500D01*
X93730Y206890D02*Y208450D01*
X90610Y206890D02*Y208450D01*
Y204003D02*Y205563D01*
X92170D01*
X91780Y205173D01*
Y204393D02*Y205173D01*
Y204393D02*X92170Y204003D01*
X93340D01*
X93730Y204393D02*X93340Y204003D01*
X93730Y204393D02*Y205173D01*
X93340Y205563D02*X93730Y205173D01*
X122180Y206913D02*Y209583D01*
Y206913D02*X122625Y206468D01*
X123515D01*
X123960Y206913D01*
Y209583D01*
X123515Y210028D02*X123960Y209583D01*
X122625Y210028D02*X123515D01*
X122180Y209583D02*X122625Y210028D01*
X123070Y209138D02*X123960Y210028D01*
X125028D02*X127253Y207803D01*
Y206468D02*Y207803D01*
X125028Y206468D02*X127253D01*
X121600Y185710D02*X123100D01*
X121100Y185210D02*X121600Y185710D01*
X121100Y182210D02*Y185210D01*
Y182210D02*X121600Y181710D01*
X123100D01*
X124801Y185710D02*X125801D01*
X125301Y181710D02*Y185710D01*
X124301Y182710D02*X125301Y181710D01*
X127002Y185210D02*X127502Y185710D01*
X127002Y182210D02*Y185210D01*
Y182210D02*X127502Y181710D01*
X128502D01*
X129002Y182210D01*
Y185210D01*
X128502Y185710D02*X129002Y185210D01*
X127502Y185710D02*X128502D01*
X127002Y184710D02*X129002Y182710D01*
X205664Y163074D02*Y165744D01*
Y163074D02*X206109Y162629D01*
X206999D01*
X207444Y163074D01*
Y165744D01*
X206999Y166189D02*X207444Y165744D01*
X206109Y166189D02*X206999D01*
X205664Y165744D02*X206109Y166189D01*
X206554Y165299D02*X207444Y166189D01*
X208512Y162629D02*X210292D01*
X208512D02*Y164409D01*
X208957Y163964D01*
X209847D01*
X210292Y164409D01*
Y165744D01*
X209847Y166189D02*X210292Y165744D01*
X208957Y166189D02*X209847D01*
X208512Y165744D02*X208957Y166189D01*
X165962Y126309D02*Y128309D01*
Y126309D02*X166462Y125809D01*
X167462D01*
X167962Y126309D02*X167462Y125809D01*
X167962Y126309D02*Y127809D01*
X165962D02*X169962D01*
X167962D02*X169962Y125809D01*
Y123108D02*Y124108D01*
X165962Y123608D02*X169962D01*
X166962Y124608D02*X165962Y123608D01*
X169962Y120407D02*Y121407D01*
X165962Y120907D02*X169962D01*
X166962Y121907D02*X165962Y120907D01*
X111882Y126853D02*X113382D01*
X111382Y126353D02*X111882Y126853D01*
X111382Y123353D02*Y126353D01*
Y123353D02*X111882Y122853D01*
X113382D01*
X114583Y126853D02*X116583Y124853D01*
Y123353D02*Y124853D01*
X116083Y122853D02*X116583Y123353D01*
X115083Y122853D02*X116083D01*
X114583Y123353D02*X115083Y122853D01*
X114583Y123353D02*Y124353D01*
X115083Y124853D01*
X116583D01*
X110987Y116159D02*X112987D01*
X113487Y116659D01*
Y117659D01*
X112987Y118159D02*X113487Y117659D01*
X111487Y118159D02*X112987D01*
X111487Y116159D02*Y120159D01*
Y118159D02*X113487Y120159D01*
X114688Y116659D02*X115188Y116159D01*
X116188D01*
X116688Y116659D01*
Y119659D01*
X116188Y120159D02*X116688Y119659D01*
X115188Y120159D02*X116188D01*
X114688Y119659D02*X115188Y120159D01*
Y118159D02*X116688D01*
X134878Y121080D02*X136878D01*
X137378Y121580D01*
Y122580D01*
X136878Y123080D02*X137378Y122580D01*
X135378Y123080D02*X136878D01*
X135378Y121080D02*Y125080D01*
Y123080D02*X137378Y125080D01*
X138579Y124580D02*X139079Y125080D01*
X138579Y123580D02*Y124580D01*
Y123580D02*X139079Y123080D01*
X140079D01*
X140579Y123580D01*
Y124580D01*
X140079Y125080D02*X140579Y124580D01*
X139079Y125080D02*X140079D01*
X138579Y122580D02*X139079Y123080D01*
X138579Y121580D02*Y122580D01*
Y121580D02*X139079Y121080D01*
X140079D01*
X140579Y121580D01*
Y122580D01*
X140079Y123080D02*X140579Y122580D01*
X152792Y97853D02*X154792D01*
X155292Y98353D01*
Y99353D01*
X154792Y99853D02*X155292Y99353D01*
X153292Y99853D02*X154792D01*
X153292Y97853D02*Y101853D01*
Y99853D02*X155292Y101853D01*
X156993D02*X157993D01*
X157493Y97853D02*Y101853D01*
X156493Y98853D02*X157493Y97853D01*
X159194Y101853D02*X161694Y99353D01*
Y97853D02*Y99353D01*
X159194Y97853D02*X161694D01*
X120438Y100489D02*Y103219D01*
X120828Y103609D01*
X121608D01*
X121998Y103219D01*
Y100489D02*Y103219D01*
X123324Y103609D02*X124104D01*
X123714Y100489D02*Y103609D01*
X122934Y101269D02*X123714Y100489D01*
X120239Y69900D02*X122239D01*
X122739Y70400D01*
Y71400D01*
X122239Y71900D02*X122739Y71400D01*
X120739Y71900D02*X122239D01*
X120739Y69900D02*Y73900D01*
Y71900D02*X122739Y73900D01*
X124440D02*X125440D01*
X124940Y69900D02*Y73900D01*
X123940Y70900D02*X124940Y69900D01*
X126641D02*X128641D01*
X126641D02*Y71900D01*
X127141Y71400D01*
X128141D01*
X128641Y71900D01*
Y73400D01*
X128141Y73900D02*X128641Y73400D01*
X127141Y73900D02*X128141D01*
X126641Y73400D02*X127141Y73900D01*
X145354Y113178D02*Y114678D01*
X144854Y115178D02*X145354Y114678D01*
X141854Y115178D02*X144854D01*
X141854D02*X141354Y114678D01*
Y113178D02*Y114678D01*
X145354Y110477D02*Y111477D01*
X141354Y110977D02*X145354D01*
X142354Y111977D02*X141354Y110977D01*
X143354Y109276D02*X141354Y107276D01*
X143354Y106776D02*Y109276D01*
X141354Y107276D02*X145354D01*
X166157Y111546D02*Y113546D01*
Y111546D02*X166657Y111046D01*
X167657D01*
X168157Y111546D02*X167657Y111046D01*
X168157Y111546D02*Y113046D01*
X166157D02*X170157D01*
X168157D02*X170157Y111046D01*
X166657Y109845D02*X166157Y109345D01*
Y108345D02*Y109345D01*
Y108345D02*X166657Y107845D01*
X169657D01*
X170157Y108345D02*X169657Y107845D01*
X170157Y108345D02*Y109345D01*
X169657Y109845D02*X170157Y109345D01*
X168157Y107845D02*Y109345D01*
Y106644D02*X166157Y104644D01*
X168157Y104144D02*Y106644D01*
X166157Y104644D02*X170157D01*
X172799Y96671D02*X174799D01*
X175299Y97171D01*
Y98171D01*
X174799Y98671D02*X175299Y98171D01*
X173299Y98671D02*X174799D01*
X173299Y96671D02*Y100671D01*
Y98671D02*X175299Y100671D01*
X176500Y97171D02*X177000Y96671D01*
X178500D01*
X179000Y97171D01*
Y98171D01*
X176500Y100671D02*X179000Y98171D01*
X176500Y100671D02*X179000D01*
X180201Y98671D02*X182201Y96671D01*
X180201Y98671D02*X182701D01*
X182201Y96671D02*Y100671D01*
X200753Y101789D02*X202753D01*
X203253Y102289D01*
Y103289D01*
X202753Y103789D02*X203253Y103289D01*
X201253Y103789D02*X202753D01*
X201253Y101789D02*Y105789D01*
Y103789D02*X203253Y105789D01*
X204454Y102289D02*X204954Y101789D01*
X206454D01*
X206954Y102289D01*
Y103289D01*
X204454Y105789D02*X206954Y103289D01*
X204454Y105789D02*X206954D01*
X208655D02*X209655D01*
X209155Y101789D02*Y105789D01*
X208155Y102789D02*X209155Y101789D01*
X217950Y115175D02*X219950D01*
X220450Y115675D01*
Y116675D01*
X219950Y117175D02*X220450Y116675D01*
X218450Y117175D02*X219950D01*
X218450Y115175D02*Y119175D01*
Y117175D02*X220450Y119175D01*
X222151D02*X223151D01*
X222651Y115175D02*Y119175D01*
X221651Y116175D02*X222651Y115175D01*
X224352Y118675D02*X224852Y119175D01*
X224352Y115675D02*Y118675D01*
Y115675D02*X224852Y115175D01*
X225852D01*
X226352Y115675D01*
Y118675D01*
X225852Y119175D02*X226352Y118675D01*
X224852Y119175D02*X225852D01*
X224352Y118175D02*X226352Y116175D01*
X227553Y118675D02*X228053Y119175D01*
X227553Y117675D02*Y118675D01*
Y117675D02*X228053Y117175D01*
X229053D01*
X229553Y117675D01*
Y118675D01*
X229053Y119175D02*X229553Y118675D01*
X228053Y119175D02*X229053D01*
X227553Y116675D02*X228053Y117175D01*
X227553Y115675D02*Y116675D01*
Y115675D02*X228053Y115175D01*
X229053D01*
X229553Y115675D01*
Y116675D01*
X229053Y117175D02*X229553Y116675D01*
X205664Y109925D02*Y112595D01*
Y109925D02*X206109Y109480D01*
X206999D01*
X207444Y109925D01*
Y112595D01*
X206999Y113040D02*X207444Y112595D01*
X206109Y113040D02*X206999D01*
X205664Y112595D02*X206109Y113040D01*
X206554Y112150D02*X207444Y113040D01*
X208512Y111260D02*X210292Y109480D01*
X208512Y111260D02*X210737D01*
X210292Y109480D02*Y113040D01*
X217913Y102970D02*X219913D01*
X220413Y103470D01*
Y104470D01*
X219913Y104970D02*X220413Y104470D01*
X218413Y104970D02*X219913D01*
X218413Y102970D02*Y106970D01*
Y104970D02*X220413Y106970D01*
X222114D02*X223114D01*
X222614Y102970D02*Y106970D01*
X221614Y103970D02*X222614Y102970D01*
X224815Y106970D02*X225815D01*
X225315Y102970D02*Y106970D01*
X224315Y103970D02*X225315Y102970D01*
X227016Y106470D02*X227516Y106970D01*
X227016Y103470D02*Y106470D01*
Y103470D02*X227516Y102970D01*
X228516D01*
X229016Y103470D01*
Y106470D01*
X228516Y106970D02*X229016Y106470D01*
X227516Y106970D02*X228516D01*
X227016Y105970D02*X229016Y103970D01*
X199032Y36154D02*Y38154D01*
Y36154D02*X199532Y35654D01*
X200532D01*
X201032Y36154D02*X200532Y35654D01*
X201032Y36154D02*Y37654D01*
X199032D02*X203032D01*
X201032D02*X203032Y35654D01*
Y32953D02*Y33953D01*
X199032Y33453D02*X203032D01*
X200032Y34453D02*X199032Y33453D01*
X202532Y31752D02*X203032Y31252D01*
X199532Y31752D02*X202532D01*
X199532D02*X199032Y31252D01*
Y30252D02*Y31252D01*
Y30252D02*X199532Y29752D01*
X202532D01*
X203032Y30252D02*X202532Y29752D01*
X203032Y30252D02*Y31252D01*
X202032Y31752D02*X200032Y29752D01*
X203032Y28551D02*X201032Y26551D01*
X199532D02*X201032D01*
X199032Y27051D02*X199532Y26551D01*
X199032Y27051D02*Y28051D01*
X199532Y28551D02*X199032Y28051D01*
X199532Y28551D02*X200532D01*
X201032Y28051D01*
Y26551D02*Y28051D01*
X165826Y44692D02*Y46192D01*
X165326Y46692D02*X165826Y46192D01*
X162326Y46692D02*X165326D01*
X162326D02*X161826Y46192D01*
Y44692D02*Y46192D01*
X165826Y41991D02*Y42991D01*
X161826Y42491D02*X165826D01*
X162826Y43491D02*X161826Y42491D01*
X165326Y40790D02*X165826Y40290D01*
X162326Y40790D02*X165326D01*
X162326D02*X161826Y40290D01*
Y39290D02*Y40290D01*
Y39290D02*X162326Y38790D01*
X165326D01*
X165826Y39290D02*X165326Y38790D01*
X165826Y39290D02*Y40290D01*
X164826Y40790D02*X162826Y38790D01*
X162326Y37589D02*X161826Y37089D01*
Y35589D02*Y37089D01*
Y35589D02*X162326Y35089D01*
X163326D01*
X165826Y37589D02*X163326Y35089D01*
X165826D02*Y37589D01*
X217985Y109072D02*X219985D01*
X220485Y109572D01*
Y110572D01*
X219985Y111072D02*X220485Y110572D01*
X218485Y111072D02*X219985D01*
X218485Y109072D02*Y113072D01*
Y111072D02*X220485Y113072D01*
X222186D02*X223186D01*
X222686Y109072D02*Y113072D01*
X221686Y110072D02*X222686Y109072D01*
X224887Y113072D02*X225887D01*
X225387Y109072D02*Y113072D01*
X224387Y110072D02*X225387Y109072D01*
X227088Y109572D02*X227588Y109072D01*
X229088D01*
X229588Y109572D01*
Y110572D01*
X227088Y113072D02*X229588Y110572D01*
X227088Y113072D02*X229588D01*
X177165Y23640D02*Y27640D01*
Y23640D02*X179165D01*
X177165Y25640D02*X178665D01*
X180866Y27640D02*X181866D01*
X181366Y23640D02*Y27640D01*
X180366Y24640D02*X181366Y23640D01*
X183067Y27140D02*X183567Y27640D01*
X183067Y24140D02*Y27140D01*
Y24140D02*X183567Y23640D01*
X184567D01*
X185067Y24140D01*
Y27140D01*
X184567Y27640D02*X185067Y27140D01*
X183567Y27640D02*X184567D01*
X183067Y26640D02*X185067Y24640D01*
X186768Y27640D02*X187768D01*
X187268Y23640D02*Y27640D01*
X186268Y24640D02*X187268Y23640D01*
X205690Y130947D02*Y133617D01*
Y130947D02*X206135Y130502D01*
X207025D01*
X207470Y130947D01*
Y133617D01*
X207025Y134062D02*X207470Y133617D01*
X206135Y134062D02*X207025D01*
X205690Y133617D02*X206135Y134062D01*
X206580Y133172D02*X207470Y134062D01*
X208538Y130947D02*X208983Y130502D01*
X210318D01*
X210763Y130947D01*
Y131837D01*
X208538Y134062D02*X210763Y131837D01*
X208538Y134062D02*X210763D01*
X225036Y48025D02*X226596D01*
X226986Y48415D01*
Y49195D01*
X226596Y49585D02*X226986Y49195D01*
X225426Y49585D02*X226596D01*
X225426Y48025D02*Y51145D01*
Y49585D02*X226986Y51145D01*
X228312D02*X229092D01*
X228702Y48025D02*Y51145D01*
X227922Y48805D02*X228702Y48025D01*
X230029Y50755D02*X230419Y51145D01*
X230029Y48415D02*Y50755D01*
Y48415D02*X230419Y48025D01*
X231199D01*
X231589Y48415D01*
Y50755D01*
X231199Y51145D02*X231589Y50755D01*
X230419Y51145D02*X231199D01*
X230029Y50365D02*X231589Y48805D01*
X232526Y50755D02*X232916Y51145D01*
X232526Y48415D02*Y50755D01*
Y48415D02*X232916Y48025D01*
X233696D01*
X234086Y48415D01*
Y50755D01*
X233696Y51145D02*X234086Y50755D01*
X232916Y51145D02*X233696D01*
X232526Y50365D02*X234086Y48805D01*
X54188Y73346D02*X54688Y73846D01*
X52688Y73346D02*X54188D01*
X52188Y73846D02*X52688Y73346D01*
X52188Y73846D02*Y74846D01*
X52688Y75346D01*
X54188D01*
X54688Y75846D01*
Y76846D01*
X54188Y77346D02*X54688Y76846D01*
X52688Y77346D02*X54188D01*
X52188Y76846D02*X52688Y77346D01*
X55889Y76846D02*X58889Y73846D01*
X60090D02*Y76846D01*
Y73846D02*X60590Y73346D01*
X61590D01*
X62090Y73846D01*
Y76846D01*
X61590Y77346D02*X62090Y76846D01*
X60590Y77346D02*X61590D01*
X60090Y76846D02*X60590Y77346D01*
X61090Y76346D02*X62090Y77346D01*
X63791D02*X64791D01*
X64291Y73346D02*Y77346D01*
X63291Y74346D02*X64291Y73346D01*
X77181Y91344D02*X77681Y90844D01*
X77181Y91344D02*Y92844D01*
X77681Y93344D02*X77181Y92844D01*
X77681Y93344D02*X78681D01*
X79181Y92844D01*
Y91344D02*Y92844D01*
Y91344D02*X79681Y90844D01*
X80681D01*
X81181Y91344D02*X80681Y90844D01*
X81181Y91344D02*Y92844D01*
X80681Y93344D02*X81181Y92844D01*
X80681Y89643D02*X77681Y86643D01*
X77181Y83442D02*Y85442D01*
Y83442D02*X77681Y82942D01*
X78681D01*
X79181Y83442D02*X78681Y82942D01*
X79181Y83442D02*Y84942D01*
X77181D02*X81181D01*
X79181D02*X81181Y82942D01*
X77181Y79741D02*Y81741D01*
X79181D01*
X78681Y81241D01*
Y80241D02*Y81241D01*
Y80241D02*X79181Y79741D01*
X80681D01*
X81181Y80241D02*X80681Y79741D01*
X81181Y80241D02*Y81241D01*
X80681Y81741D02*X81181Y81241D01*
X56689Y93324D02*X57189Y93824D01*
X55189Y93324D02*X56689D01*
X54689Y93824D02*X55189Y93324D01*
X54689Y93824D02*Y94824D01*
X55189Y95324D01*
X56689D01*
X57189Y95824D01*
Y96824D01*
X56689Y97324D02*X57189Y96824D01*
X55189Y97324D02*X56689D01*
X54689Y96824D02*X55189Y97324D01*
X58390Y96824D02*X61390Y93824D01*
X62591Y93324D02*X64591D01*
X65091Y93824D01*
Y94824D01*
X64591Y95324D02*X65091Y94824D01*
X63091Y95324D02*X64591D01*
X63091Y93324D02*Y97324D01*
Y95324D02*X65091Y97324D01*
X67792Y93324D02*X68292Y93824D01*
X66792Y93324D02*X67792D01*
X66292Y93824D02*X66792Y93324D01*
X66292Y93824D02*Y96824D01*
X66792Y97324D01*
X67792Y95324D02*X68292Y95824D01*
X66292Y95324D02*X67792D01*
X66792Y97324D02*X67792D01*
X68292Y96824D01*
Y95824D02*Y96824D01*
X109788Y67207D02*X111288D01*
X109288Y66707D02*X109788Y67207D01*
X109288Y63707D02*Y66707D01*
Y63707D02*X109788Y63207D01*
X111288D01*
X112489Y67207D02*X114989Y64707D01*
Y63207D02*Y64707D01*
X112489Y63207D02*X114989D01*
X108085Y89107D02*Y91107D01*
Y89107D02*X108585Y88607D01*
X109585D01*
X110085Y89107D02*X109585Y88607D01*
X110085Y89107D02*Y90607D01*
X108085D02*X112085D01*
X110085D02*X112085Y88607D01*
X108085Y85906D02*X108585Y85406D01*
X108085Y85906D02*Y86906D01*
X108585Y87406D02*X108085Y86906D01*
X108585Y87406D02*X111585D01*
X112085Y86906D01*
X110085Y85906D02*X110585Y85406D01*
X110085Y85906D02*Y87406D01*
X112085Y85906D02*Y86906D01*
Y85906D02*X111585Y85406D01*
X110585D02*X111585D01*
X101787Y81430D02*Y83430D01*
Y81430D02*X102287Y80930D01*
X103287D01*
X103787Y81430D02*X103287Y80930D01*
X103787Y81430D02*Y82930D01*
X101787D02*X105787D01*
X103787D02*X105787Y80930D01*
Y78229D02*Y79229D01*
X101787Y78729D02*X105787D01*
X102787Y79729D02*X101787Y78729D01*
X105287Y77028D02*X105787Y76528D01*
X102287Y77028D02*X105287D01*
X102287D02*X101787Y76528D01*
Y75528D02*Y76528D01*
Y75528D02*X102287Y75028D01*
X105287D01*
X105787Y75528D02*X105287Y75028D01*
X105787Y75528D02*Y76528D01*
X104787Y77028D02*X102787Y75028D01*
X108087Y98627D02*Y100627D01*
Y98627D02*X108587Y98127D01*
X109587D01*
X110087Y98627D02*X109587Y98127D01*
X110087Y98627D02*Y100127D01*
X108087D02*X112087D01*
X110087D02*X112087Y98127D01*
X110087Y96926D02*X108087Y94926D01*
X110087Y94426D02*Y96926D01*
X108087Y94926D02*X112087D01*
X62864Y99032D02*X63364Y99532D01*
X61364Y99032D02*X62864D01*
X60864Y99532D02*X61364Y99032D01*
X60864Y99532D02*Y100532D01*
X61364Y101032D01*
X62864D01*
X63364Y101532D01*
Y102532D01*
X62864Y103032D02*X63364Y102532D01*
X61364Y103032D02*X62864D01*
X60864Y102532D02*X61364Y103032D01*
X64565Y102532D02*X67565Y99532D01*
X68766Y99032D02*X70766D01*
X71266Y99532D01*
Y100532D01*
X70766Y101032D02*X71266Y100532D01*
X69266Y101032D02*X70766D01*
X69266Y99032D02*Y103032D01*
Y101032D02*X71266Y103032D01*
X72967D02*X73967D01*
X73467Y99032D02*Y103032D01*
X72467Y100032D02*X73467Y99032D01*
X62862Y105134D02*X63362Y105634D01*
X61362Y105134D02*X62862D01*
X60862Y105634D02*X61362Y105134D01*
X60862Y105634D02*Y106634D01*
X61362Y107134D01*
X62862D01*
X63362Y107634D01*
Y108634D01*
X62862Y109134D02*X63362Y108634D01*
X61362Y109134D02*X62862D01*
X60862Y108634D02*X61362Y109134D01*
X64563Y108634D02*X67563Y105634D01*
X68764Y105134D02*X70764D01*
X71264Y105634D01*
Y106634D01*
X70764Y107134D02*X71264Y106634D01*
X69264Y107134D02*X70764D01*
X69264Y105134D02*Y109134D01*
Y107134D02*X71264Y109134D01*
X72465Y105634D02*X72965Y105134D01*
X74465D01*
X74965Y105634D01*
Y106634D01*
X72465Y109134D02*X74965Y106634D01*
X72465Y109134D02*X74965D01*
X171691Y63728D02*Y65393D01*
X171136Y65948D02*X171691Y65393D01*
X167806Y65948D02*X171136D01*
X167806D02*X167251Y65393D01*
Y63728D02*Y65393D01*
X171691Y60730D02*Y61840D01*
X167251Y61285D02*X171691D01*
X168361Y62395D02*X167251Y61285D01*
X171136Y59397D02*X171691Y58842D01*
X167806Y59397D02*X171136D01*
X167806D02*X167251Y58842D01*
Y57732D02*Y58842D01*
Y57732D02*X167806Y57177D01*
X171136D01*
X171691Y57732D02*X171136Y57177D01*
X171691Y57732D02*Y58842D01*
X170581Y59397D02*X168361Y57177D01*
X167806Y55844D02*X167251Y55289D01*
Y54179D02*Y55289D01*
Y54179D02*X167806Y53624D01*
X171136D01*
X171691Y54179D02*X171136Y53624D01*
X171691Y54179D02*Y55289D01*
X171136Y55844D02*X171691Y55289D01*
X169471Y53624D02*Y55289D01*
X169687Y46672D02*Y50672D01*
Y46672D02*X171687D01*
X169687Y48672D02*X171187D01*
X173388Y50672D02*X174388D01*
X173888Y46672D02*Y50672D01*
X172888Y47672D02*X173888Y46672D01*
X175589Y50172D02*X176089Y50672D01*
X175589Y47172D02*Y50172D01*
Y47172D02*X176089Y46672D01*
X177089D01*
X177589Y47172D01*
Y50172D01*
X177089Y50672D02*X177589Y50172D01*
X176089Y50672D02*X177089D01*
X175589Y49672D02*X177589Y47672D01*
X178790Y47172D02*X179290Y46672D01*
X180790D01*
X181290Y47172D01*
Y48172D01*
X178790Y50672D02*X181290Y48172D01*
X178790Y50672D02*X181290D01*
X141505Y50514D02*Y54014D01*
X142005Y54514D01*
X143005D01*
X143505Y54014D01*
Y50514D02*Y54014D01*
X145206Y54514D02*X146206D01*
X145706Y50514D02*Y54514D01*
X144706Y51514D02*X145706Y50514D01*
X147407Y54014D02*X147907Y54514D01*
X147407Y51014D02*Y54014D01*
Y51014D02*X147907Y50514D01*
X148907D01*
X149407Y51014D01*
Y54014D01*
X148907Y54514D02*X149407Y54014D01*
X147907Y54514D02*X148907D01*
X147407Y53514D02*X149407Y51514D01*
X150608Y54014D02*X151108Y54514D01*
X150608Y51014D02*Y54014D01*
Y51014D02*X151108Y50514D01*
X152108D01*
X152608Y51014D01*
Y54014D01*
X152108Y54514D02*X152608Y54014D01*
X151108Y54514D02*X152108D01*
X150608Y53514D02*X152608Y51514D01*
X144059Y69900D02*X146059D01*
X146559Y70400D01*
Y71400D01*
X146059Y71900D02*X146559Y71400D01*
X144559Y71900D02*X146059D01*
X144559Y69900D02*Y73900D01*
Y71900D02*X146559Y73900D01*
X147760D02*X149760Y71900D01*
Y70400D02*Y71900D01*
X149260Y69900D02*X149760Y70400D01*
X148260Y69900D02*X149260D01*
X147760Y70400D02*X148260Y69900D01*
X147760Y70400D02*Y71400D01*
X148260Y71900D01*
X149760D01*
X131066Y69899D02*X133066D01*
X133566Y70399D01*
Y71399D01*
X133066Y71899D02*X133566Y71399D01*
X131566Y71899D02*X133066D01*
X131566Y69899D02*Y73899D01*
Y71899D02*X133566Y73899D01*
X135267D02*X136267D01*
X135767Y69899D02*Y73899D01*
X134767Y70899D02*X135767Y69899D01*
X137468Y70399D02*X137968Y69899D01*
X139468D01*
X139968Y70399D01*
Y71399D01*
X137468Y73899D02*X139968Y71399D01*
X137468Y73899D02*X139968D01*
X174794Y86633D02*Y88193D01*
Y86633D02*X175184Y86243D01*
X175964D01*
X176354Y86633D02*X175964Y86243D01*
X176354Y86633D02*Y87803D01*
X174794D02*X177914D01*
X176354D02*X177914Y86243D01*
Y84137D02*Y84917D01*
X174794Y84527D02*X177914D01*
X175574Y85307D02*X174794Y84527D01*
X177914Y82030D02*Y82810D01*
X174794Y82420D02*X177914D01*
X175574Y83200D02*X174794Y82420D01*
X177914Y79923D02*Y80703D01*
X174794Y80313D02*X177914D01*
X175574Y81093D02*X174794Y80313D01*
X174993Y75411D02*Y76971D01*
Y75411D02*X175383Y75021D01*
X176163D01*
X176553Y75411D02*X176163Y75021D01*
X176553Y75411D02*Y76581D01*
X174993D02*X178113D01*
X176553D02*X178113Y75021D01*
Y72915D02*Y73695D01*
X174993Y73305D02*X178113D01*
X175773Y74085D02*X174993Y73305D01*
X177723Y71978D02*X178113Y71588D01*
X175383Y71978D02*X177723D01*
X175383D02*X174993Y71588D01*
Y70808D02*Y71588D01*
Y70808D02*X175383Y70418D01*
X177723D01*
X178113Y70808D02*X177723Y70418D01*
X178113Y70808D02*Y71588D01*
X177333Y71978D02*X175773Y70418D01*
X176553Y69481D02*X174993Y67921D01*
X176553Y67531D02*Y69481D01*
X174993Y67921D02*X178113D01*
X164189Y79531D02*Y81531D01*
Y79531D02*X164689Y79031D01*
X165689D01*
X166189Y79531D02*X165689Y79031D01*
X166189Y79531D02*Y81031D01*
X164189D02*X168189D01*
X166189D02*X168189Y79031D01*
X164189Y75830D02*Y77830D01*
X166189D01*
X165689Y77330D01*
Y76330D02*Y77330D01*
Y76330D02*X166189Y75830D01*
X167689D01*
X168189Y76330D02*X167689Y75830D01*
X168189Y76330D02*Y77330D01*
X167689Y77830D02*X168189Y77330D01*
X155924Y81697D02*Y83697D01*
Y81697D02*X156424Y81197D01*
X157424D01*
X157924Y81697D02*X157424Y81197D01*
X157924Y81697D02*Y83197D01*
X155924D02*X159924D01*
X157924D02*X159924Y81197D01*
Y78496D02*Y79496D01*
X155924Y78996D02*X159924D01*
X156924Y79996D02*X155924Y78996D01*
Y75795D02*X156424Y75295D01*
X155924Y75795D02*Y76795D01*
X156424Y77295D02*X155924Y76795D01*
X156424Y77295D02*X159424D01*
X159924Y76795D01*
X157924Y75795D02*X158424Y75295D01*
X157924Y75795D02*Y77295D01*
X159924Y75795D02*Y76795D01*
Y75795D02*X159424Y75295D01*
X158424D02*X159424D01*
X212008Y92339D02*Y96339D01*
Y92339D02*X214008D01*
X212008Y94339D02*X213508D01*
X215709Y96339D02*X216709D01*
X216209Y92339D02*Y96339D01*
X215209Y93339D02*X216209Y92339D01*
X217910Y95839D02*X218410Y96339D01*
X217910Y92839D02*Y95839D01*
Y92839D02*X218410Y92339D01*
X219410D01*
X219910Y92839D01*
Y95839D01*
X219410Y96339D02*X219910Y95839D01*
X218410Y96339D02*X219410D01*
X217910Y95339D02*X219910Y93339D01*
X221111Y94339D02*X223111Y92339D01*
X221111Y94339D02*X223611D01*
X223111Y92339D02*Y96339D01*
X181101Y85253D02*Y89253D01*
Y85253D02*X183101D01*
X181101Y87253D02*X182601D01*
X184802Y89253D02*X185802D01*
X185302Y85253D02*Y89253D01*
X184302Y86253D02*X185302Y85253D01*
X187003Y88753D02*X187503Y89253D01*
X187003Y85753D02*Y88753D01*
Y85753D02*X187503Y85253D01*
X188503D01*
X189003Y85753D01*
Y88753D01*
X188503Y89253D02*X189003Y88753D01*
X187503Y89253D02*X188503D01*
X187003Y88253D02*X189003Y86253D01*
X190204Y85753D02*X190704Y85253D01*
X191704D01*
X192204Y85753D01*
Y88753D01*
X191704Y89253D02*X192204Y88753D01*
X190704Y89253D02*X191704D01*
X190204Y88753D02*X190704Y89253D01*
Y87253D02*X192204D01*
X14160Y95389D02*X14550Y95779D01*
X12990Y95389D02*X14160D01*
X12600Y95779D02*X12990Y95389D01*
X12600Y95779D02*Y96559D01*
X12990Y96949D01*
X14160D01*
X14550Y97339D01*
Y98119D01*
X14160Y98509D02*X14550Y98119D01*
X12990Y98509D02*X14160D01*
X12600Y98119D02*X12990Y98509D01*
X15486Y98119D02*X17826Y95779D01*
X19153Y95389D02*Y98509D01*
X20323Y95389D02*X20713Y95779D01*
Y98119D01*
X20323Y98509D02*X20713Y98119D01*
X18763Y98509D02*X20323D01*
X18763Y95389D02*X20323D01*
X21650Y95779D02*X22040Y95389D01*
X23210D01*
X23600Y95779D01*
Y96559D01*
X21650Y98509D02*X23600Y96559D01*
X21650Y98509D02*X23600D01*
X24396Y111138D02*X24786Y111528D01*
X23226Y111138D02*X24396D01*
X22836Y111528D02*X23226Y111138D01*
X22836Y111528D02*Y112308D01*
X23226Y112698D01*
X24396D01*
X24786Y113088D01*
Y113868D01*
X24396Y114258D02*X24786Y113868D01*
X23226Y114258D02*X24396D01*
X22836Y113868D02*X23226Y114258D01*
X25722Y113868D02*X28062Y111528D01*
X29389Y111138D02*Y114258D01*
X30559Y111138D02*X30949Y111528D01*
Y113868D01*
X30559Y114258D02*X30949Y113868D01*
X28999Y114258D02*X30559D01*
X28999Y111138D02*X30559D01*
X32276Y114258D02*X33056D01*
X32666Y111138D02*Y114258D01*
X31886Y111918D02*X32666Y111138D01*
X10819Y169309D02*X11209Y168919D01*
X10819Y169309D02*Y170479D01*
X11209Y170869D02*X10819Y170479D01*
X11209Y170869D02*X11989D01*
X12379Y170479D01*
Y169309D02*Y170479D01*
Y169309D02*X12769Y168919D01*
X13549D01*
X13939Y169309D02*X13549Y168919D01*
X13939Y169309D02*Y170479D01*
X13549Y170869D02*X13939Y170479D01*
X13549Y167983D02*X11209Y165643D01*
X13939Y163146D02*Y164316D01*
X13549Y164706D02*X13939Y164316D01*
X11209Y164706D02*X13549D01*
X11209D02*X10819Y164316D01*
Y163146D02*Y164316D01*
X11209Y162209D02*X10819Y161819D01*
Y160649D02*Y161819D01*
Y160649D02*X11209Y160259D01*
X11989D01*
X13939Y162209D02*X11989Y160259D01*
X13939D02*Y162209D01*
X24560Y212402D02*X24950Y212792D01*
X23390Y212402D02*X24560D01*
X23000Y212792D02*X23390Y212402D01*
X23000Y212792D02*Y213572D01*
X23390Y213962D01*
X24560D01*
X24950Y214352D01*
Y215132D01*
X24560Y215522D02*X24950Y215132D01*
X23390Y215522D02*X24560D01*
X23000Y215132D02*X23390Y215522D01*
X25886Y215132D02*X28226Y212792D01*
X29163Y212402D02*Y215132D01*
X29553Y215522D01*
X30333D01*
X30723Y215132D01*
Y212402D02*Y215132D01*
X31660Y212792D02*X32050Y212402D01*
X33220D01*
X33610Y212792D01*
Y213572D01*
X31660Y215522D02*X33610Y213572D01*
X31660Y215522D02*X33610D01*
X27409Y123042D02*X27854Y123487D01*
X26074Y123042D02*X27409D01*
X25629Y123487D02*X26074Y123042D01*
X25629Y123487D02*Y124377D01*
X26074Y124822D01*
X27409D01*
X27854Y125267D01*
Y126157D01*
X27409Y126602D02*X27854Y126157D01*
X26074Y126602D02*X27409D01*
X25629Y126157D02*X26074Y126602D01*
X28922Y126157D02*X31592Y123487D01*
X32661Y123042D02*Y126157D01*
X33106Y126602D01*
X33996D01*
X34441Y126157D01*
Y123042D02*Y126157D01*
X35510Y124822D02*X37290Y123042D01*
X35510Y124822D02*X37735D01*
X37290Y123042D02*Y126602D01*
X17689Y184158D02*X18134Y184603D01*
X16354Y184158D02*X17689D01*
X15909Y184603D02*X16354Y184158D01*
X15909Y184603D02*Y185493D01*
X16354Y185938D01*
X17689D01*
X18134Y186383D01*
Y187273D01*
X17689Y187718D02*X18134Y187273D01*
X16354Y187718D02*X17689D01*
X15909Y187273D02*X16354Y187718D01*
X19202Y187273D02*X21872Y184603D01*
X23386Y187718D02*X24721D01*
X22941Y187273D02*X23386Y187718D01*
X22941Y184603D02*Y187273D01*
Y184603D02*X23386Y184158D01*
X24721D01*
X26235Y187718D02*X27125D01*
X26680Y184158D02*Y187718D01*
X25790Y185048D02*X26680Y184158D01*
X28515Y140852D02*X28960Y141297D01*
X27180Y140852D02*X28515D01*
X26735Y141297D02*X27180Y140852D01*
X26735Y141297D02*Y142187D01*
X27180Y142632D01*
X28515D01*
X28960Y143077D01*
Y143967D01*
X28515Y144412D02*X28960Y143967D01*
X27180Y144412D02*X28515D01*
X26735Y143967D02*X27180Y144412D01*
X30028Y143967D02*X32698Y141297D01*
X34212Y144412D02*X35547D01*
X33767Y143967D02*X34212Y144412D01*
X33767Y141297D02*Y143967D01*
Y141297D02*X34212Y140852D01*
X35547D01*
X37951D02*X38396Y141297D01*
X37061Y140852D02*X37951D01*
X36616Y141297D02*X37061Y140852D01*
X36616Y141297D02*Y143967D01*
X37061Y144412D01*
X37951Y142632D02*X38396Y143077D01*
X36616Y142632D02*X37951D01*
X37061Y144412D02*X37951D01*
X38396Y143967D01*
Y143077D02*Y143967D01*
X15770Y142119D02*X16160Y142509D01*
X14600Y142119D02*X15770D01*
X14210Y142509D02*X14600Y142119D01*
X14210Y142509D02*Y143289D01*
X14600Y143679D01*
X15770D01*
X16160Y144069D01*
Y144849D01*
X15770Y145239D02*X16160Y144849D01*
X14600Y145239D02*X15770D01*
X14210Y144849D02*X14600Y145239D01*
X17096Y144849D02*X19436Y142509D01*
X20763Y145239D02*X21933D01*
X20373Y144849D02*X20763Y145239D01*
X20373Y142509D02*Y144849D01*
Y142509D02*X20763Y142119D01*
X21933D01*
X22870Y143679D02*X24430Y142119D01*
X22870Y143679D02*X24820D01*
X24430Y142119D02*Y145239D01*
X54868Y146452D02*X55258Y146842D01*
X53698Y146452D02*X54868D01*
X53308Y146842D02*X53698Y146452D01*
X53308Y146842D02*Y147622D01*
X53698Y148012D01*
X54868D01*
X55258Y148402D01*
Y149182D01*
X54868Y149572D02*X55258Y149182D01*
X53698Y149572D02*X54868D01*
X53308Y149182D02*X53698Y149572D01*
X56194Y149182D02*X58534Y146842D01*
X59471Y146452D02*X61031D01*
X61421Y146842D01*
Y147622D01*
X61031Y148012D02*X61421Y147622D01*
X59861Y148012D02*X61031D01*
X59861Y146452D02*Y149572D01*
Y148012D02*X61421Y149572D01*
X62358D02*X64308Y147622D01*
Y146452D02*Y147622D01*
X62358Y146452D02*X64308D01*
X70858Y155492D02*X71248Y155102D01*
X70858Y155492D02*Y156662D01*
X71248Y157052D02*X70858Y156662D01*
X71248Y157052D02*X72028D01*
X72418Y156662D01*
Y155492D02*Y156662D01*
Y155492D02*X72808Y155102D01*
X73588D01*
X73978Y155492D02*X73588Y155102D01*
X73978Y155492D02*Y156662D01*
X73588Y157052D02*X73978Y156662D01*
X73588Y154166D02*X71248Y151826D01*
X70858Y149329D02*Y150889D01*
Y149329D02*X71248Y148939D01*
X72028D01*
X72418Y149329D02*X72028Y148939D01*
X72418Y149329D02*Y150499D01*
X70858D02*X73978D01*
X72418D02*X73978Y148939D01*
X73588Y148002D02*X73978Y147612D01*
X72808Y148002D02*X73588D01*
X72808D02*X72418Y147612D01*
Y146832D02*Y147612D01*
Y146832D02*X72808Y146442D01*
X73588D01*
X73978Y146832D02*X73588Y146442D01*
X73978Y146832D02*Y147612D01*
X72028Y148002D02*X72418Y147612D01*
X71248Y148002D02*X72028D01*
X71248D02*X70858Y147612D01*
Y146832D02*Y147612D01*
Y146832D02*X71248Y146442D01*
X72028D01*
X72418Y146832D02*X72028Y146442D01*
X3953Y233666D02*X4453Y233166D01*
X3953Y233666D02*Y235166D01*
X4453Y235666D02*X3953Y235166D01*
X4453Y235666D02*X5453D01*
X5953Y235166D01*
Y233666D02*Y235166D01*
Y233666D02*X6453Y233166D01*
X7453D01*
X7953Y233666D02*X7453Y233166D01*
X7953Y233666D02*Y235166D01*
X7453Y235666D02*X7953Y235166D01*
X7453Y231965D02*X4453Y228965D01*
X7953Y225764D02*Y227264D01*
X7453Y227764D02*X7953Y227264D01*
X4453Y227764D02*X7453D01*
X4453D02*X3953Y227264D01*
Y225764D02*Y227264D01*
X4453Y224563D02*X3953Y224063D01*
Y223063D02*Y224063D01*
Y223063D02*X4453Y222563D01*
X7453D01*
X7953Y223063D02*X7453Y222563D01*
X7953Y223063D02*Y224063D01*
X7453Y224563D02*X7953Y224063D01*
X5953Y222563D02*Y224063D01*
X4914Y155886D02*X5304Y155496D01*
X4914Y155886D02*Y157056D01*
X5304Y157446D02*X4914Y157056D01*
X5304Y157446D02*X6084D01*
X6474Y157056D01*
Y155886D02*Y157056D01*
Y155886D02*X6864Y155496D01*
X7644D01*
X8034Y155886D02*X7644Y155496D01*
X8034Y155886D02*Y157056D01*
X7644Y157446D02*X8034Y157056D01*
X7644Y154560D02*X5304Y152220D01*
X4914Y149723D02*Y151283D01*
Y149723D02*X5304Y149333D01*
X6084D01*
X6474Y149723D02*X6084Y149333D01*
X6474Y149723D02*Y150893D01*
X4914D02*X8034D01*
X6474D02*X8034Y149333D01*
X5304Y148396D02*X4914Y148006D01*
Y147226D02*Y148006D01*
Y147226D02*X5304Y146836D01*
X7644D01*
X8034Y147226D02*X7644Y146836D01*
X8034Y147226D02*Y148006D01*
X7644Y148396D02*X8034Y148006D01*
X6474Y146836D02*Y148006D01*
X69465Y126919D02*X69855Y126529D01*
X69465Y126919D02*Y128089D01*
X69855Y128479D02*X69465Y128089D01*
X69855Y128479D02*X70635D01*
X71025Y128089D01*
Y126919D02*Y128089D01*
Y126919D02*X71415Y126529D01*
X72195D01*
X72585Y126919D02*X72195Y126529D01*
X72585Y126919D02*Y128089D01*
X72195Y128479D02*X72585Y128089D01*
X72195Y125593D02*X69855Y123253D01*
X69465Y121926D02*X72585D01*
X69465Y120756D02*X69855Y120366D01*
X72195D01*
X72585Y120756D02*X72195Y120366D01*
X72585Y120756D02*Y122316D01*
X69465Y120756D02*Y122316D01*
Y118259D02*X69855Y117869D01*
X69465Y118259D02*Y119039D01*
X69855Y119429D02*X69465Y119039D01*
X69855Y119429D02*X72195D01*
X72585Y119039D01*
X71025Y118259D02*X71415Y117869D01*
X71025Y118259D02*Y119429D01*
X72585Y118259D02*Y119039D01*
Y118259D02*X72195Y117869D01*
X71415D02*X72195D01*
X83286Y142316D02*X83676Y141926D01*
X83286Y142316D02*Y143486D01*
X83676Y143876D02*X83286Y143486D01*
X83676Y143876D02*X84456D01*
X84846Y143486D01*
Y142316D02*Y143486D01*
Y142316D02*X85236Y141926D01*
X86016D01*
X86406Y142316D02*X86016Y141926D01*
X86406Y142316D02*Y143486D01*
X86016Y143876D02*X86406Y143486D01*
X86016Y140990D02*X83676Y138650D01*
X83286Y137323D02*X86406D01*
X83286Y136153D02*X83676Y135763D01*
X86016D01*
X86406Y136153D02*X86016Y135763D01*
X86406Y136153D02*Y137713D01*
X83286Y136153D02*Y137713D01*
X83676Y134826D02*X83286Y134436D01*
Y133656D02*Y134436D01*
Y133656D02*X83676Y133266D01*
X86016D01*
X86406Y133656D02*X86016Y133266D01*
X86406Y133656D02*Y134436D01*
X86016Y134826D02*X86406Y134436D01*
X84846Y133266D02*Y134436D01*
X65387Y160878D02*X65777Y160488D01*
X65387Y160878D02*Y162048D01*
X65777Y162438D02*X65387Y162048D01*
X65777Y162438D02*X66557D01*
X66947Y162048D01*
Y160878D02*Y162048D01*
Y160878D02*X67337Y160488D01*
X68117D01*
X68507Y160878D02*X68117Y160488D01*
X68507Y160878D02*Y162048D01*
X68117Y162438D02*X68507Y162048D01*
X68117Y159552D02*X65777Y157212D01*
X65387Y156275D02*X68117D01*
X68507Y155885D01*
Y155105D02*Y155885D01*
Y155105D02*X68117Y154715D01*
X65387D02*X68117D01*
X68507Y152608D02*Y153388D01*
X65387Y152998D02*X68507D01*
X66167Y153778D02*X65387Y152998D01*
X72818Y165151D02*X73208Y165541D01*
X71648Y165151D02*X72818D01*
X71258Y165541D02*X71648Y165151D01*
X71258Y165541D02*Y166321D01*
X71648Y166711D01*
X72818D01*
X73208Y167101D01*
Y167881D01*
X72818Y168271D02*X73208Y167881D01*
X71648Y168271D02*X72818D01*
X71258Y167881D02*X71648Y168271D01*
X74144Y167881D02*X76484Y165541D01*
X77421Y165151D02*Y168271D01*
Y165151D02*X78981D01*
X77421Y166711D02*X78591D01*
X80308Y168271D02*X81088D01*
X80698Y165151D02*Y168271D01*
X79918Y165931D02*X80698Y165151D01*
X72820Y160624D02*X73210Y161014D01*
X71650Y160624D02*X72820D01*
X71260Y161014D02*X71650Y160624D01*
X71260Y161014D02*Y161794D01*
X71650Y162184D01*
X72820D01*
X73210Y162574D01*
Y163354D01*
X72820Y163744D02*X73210Y163354D01*
X71650Y163744D02*X72820D01*
X71260Y163354D02*X71650Y163744D01*
X74146Y163354D02*X76486Y161014D01*
X77423Y160624D02*Y163744D01*
Y160624D02*X78983D01*
X77423Y162184D02*X78593D01*
X79920Y161014D02*X80310Y160624D01*
X81480D01*
X81870Y161014D01*
Y161794D01*
X79920Y163744D02*X81870Y161794D01*
X79920Y163744D02*X81870D01*
X72819Y174404D02*X73209Y174794D01*
X71649Y174404D02*X72819D01*
X71259Y174794D02*X71649Y174404D01*
X71259Y174794D02*Y175574D01*
X71649Y175964D01*
X72819D01*
X73209Y176354D01*
Y177134D01*
X72819Y177524D02*X73209Y177134D01*
X71649Y177524D02*X72819D01*
X71259Y177134D02*X71649Y177524D01*
X74145Y177134D02*X76485Y174794D01*
X77422Y174404D02*Y177524D01*
Y174404D02*X78982D01*
X77422Y175964D02*X78592D01*
X79919Y174794D02*X80309Y174404D01*
X81089D01*
X81479Y174794D01*
Y177134D01*
X81089Y177524D02*X81479Y177134D01*
X80309Y177524D02*X81089D01*
X79919Y177134D02*X80309Y177524D01*
Y175964D02*X81479D01*
X72819Y169876D02*X73209Y170266D01*
X71649Y169876D02*X72819D01*
X71259Y170266D02*X71649Y169876D01*
X71259Y170266D02*Y171046D01*
X71649Y171436D01*
X72819D01*
X73209Y171826D01*
Y172606D01*
X72819Y172996D02*X73209Y172606D01*
X71649Y172996D02*X72819D01*
X71259Y172606D02*X71649Y172996D01*
X74145Y172606D02*X76485Y170266D01*
X77422Y169876D02*Y172996D01*
Y169876D02*X78982D01*
X77422Y171436D02*X78592D01*
X79919D02*X81479Y169876D01*
X79919Y171436D02*X81869D01*
X81479Y169876D02*Y172996D01*
X76174Y155491D02*X76564Y155101D01*
X76174Y155491D02*Y156661D01*
X76564Y157051D02*X76174Y156661D01*
X76564Y157051D02*X77344D01*
X77734Y156661D01*
Y155491D02*Y156661D01*
Y155491D02*X78124Y155101D01*
X78904D01*
X79294Y155491D02*X78904Y155101D01*
X79294Y155491D02*Y156661D01*
X78904Y157051D02*X79294Y156661D01*
X78904Y154165D02*X76564Y151825D01*
X76174Y149328D02*Y150888D01*
Y149328D02*X76564Y148938D01*
X77344D01*
X77734Y149328D02*X77344Y148938D01*
X77734Y149328D02*Y150498D01*
X76174D02*X79294D01*
X77734D02*X79294Y148938D01*
X77734Y148001D02*X76174Y146441D01*
X77734Y146051D02*Y148001D01*
X76174Y146441D02*X79294D01*
X140394Y146673D02*X143064D01*
X140394D02*X139949Y146228D01*
Y145338D02*Y146228D01*
Y145338D02*X140394Y144893D01*
X143064D01*
X143509Y145338D02*X143064Y144893D01*
X143509Y145338D02*Y146228D01*
X143064Y146673D02*X143509Y146228D01*
X142619Y145783D02*X143509Y144893D01*
X139949Y142490D02*X140394Y142045D01*
X139949Y142490D02*Y143380D01*
X140394Y143825D02*X139949Y143380D01*
X140394Y143825D02*X143064D01*
X143509Y143380D01*
X141729Y142490D02*X142174Y142045D01*
X141729Y142490D02*Y143825D01*
X143509Y142490D02*Y143380D01*
Y142490D02*X143064Y142045D01*
X142174D02*X143064D01*
X137167Y150300D02*X138947D01*
X139392Y150745D01*
Y151635D01*
X138947Y152080D02*X139392Y151635D01*
X137612Y152080D02*X138947D01*
X137612Y150300D02*Y153860D01*
Y152080D02*X139392Y153860D01*
X140460Y150745D02*X140905Y150300D01*
X142240D01*
X142685Y150745D01*
Y151635D01*
X140460Y153860D02*X142685Y151635D01*
X140460Y153860D02*X142685D01*
X143754D02*X145534Y152080D01*
Y150745D02*Y152080D01*
X145089Y150300D02*X145534Y150745D01*
X144199Y150300D02*X145089D01*
X143754Y150745D02*X144199Y150300D01*
X143754Y150745D02*Y151635D01*
X144199Y152080D01*
X145534D01*
X137169Y155420D02*X138949D01*
X139394Y155865D01*
Y156755D01*
X138949Y157200D02*X139394Y156755D01*
X137614Y157200D02*X138949D01*
X137614Y155420D02*Y158980D01*
Y157200D02*X139394Y158980D01*
X140462Y155865D02*X140907Y155420D01*
X141797D01*
X142242Y155865D01*
Y158535D01*
X141797Y158980D02*X142242Y158535D01*
X140907Y158980D02*X141797D01*
X140462Y158535D02*X140907Y158980D01*
Y157200D02*X142242D01*
X143311Y155865D02*X143756Y155420D01*
X145091D01*
X145536Y155865D01*
Y156755D01*
X143311Y158980D02*X145536Y156755D01*
X143311Y158980D02*X145536D01*
X115540Y165202D02*X118540D01*
X115540D02*X115040Y164702D01*
Y163702D02*Y164702D01*
Y163702D02*X115540Y163202D01*
X118540D01*
X119040Y163702D02*X118540Y163202D01*
X119040Y163702D02*Y164702D01*
X118540Y165202D02*X119040Y164702D01*
X118040Y164202D02*X119040Y163202D01*
Y160501D02*Y161501D01*
X115040Y161001D02*X119040D01*
X116040Y162001D02*X115040Y161001D01*
X100160Y176789D02*X102160D01*
X102660Y177289D01*
Y178289D01*
X102160Y178789D02*X102660Y178289D01*
X100660Y178789D02*X102160D01*
X100660Y176789D02*Y180789D01*
Y178789D02*X102660Y180789D01*
X104361D02*X105361D01*
X104861Y176789D02*Y180789D01*
X103861Y177789D02*X104861Y176789D01*
X106562Y177289D02*X107062Y176789D01*
X108062D01*
X108562Y177289D01*
Y180289D01*
X108062Y180789D02*X108562Y180289D01*
X107062Y180789D02*X108062D01*
X106562Y180289D02*X107062Y180789D01*
Y178789D02*X108562D01*
X101146Y153758D02*X103146D01*
X103646Y154258D01*
Y155258D01*
X103146Y155758D02*X103646Y155258D01*
X101646Y155758D02*X103146D01*
X101646Y153758D02*Y157758D01*
Y155758D02*X103646Y157758D01*
X105347D02*X106347D01*
X105847Y153758D02*Y157758D01*
X104847Y154758D02*X105847Y153758D01*
X107548Y155758D02*X109548Y153758D01*
X107548Y155758D02*X110048D01*
X109548Y153758D02*Y157758D01*
X107319Y147459D02*X109319D01*
X109819Y147959D01*
Y148959D01*
X109319Y149459D02*X109819Y148959D01*
X107819Y149459D02*X109319D01*
X107819Y147459D02*Y151459D01*
Y149459D02*X109819Y151459D01*
X111520D02*X112520D01*
X112020Y147459D02*Y151459D01*
X111020Y148459D02*X112020Y147459D01*
X113721Y150959D02*X114221Y151459D01*
X113721Y149959D02*Y150959D01*
Y149959D02*X114221Y149459D01*
X115221D01*
X115721Y149959D01*
Y150959D01*
X115221Y151459D02*X115721Y150959D01*
X114221Y151459D02*X115221D01*
X113721Y148959D02*X114221Y149459D01*
X113721Y147959D02*Y148959D01*
Y147959D02*X114221Y147459D01*
X115221D01*
X115721Y147959D01*
Y148959D01*
X115221Y149459D02*X115721Y148959D01*
X124686Y109777D02*Y111277D01*
X124186Y111777D02*X124686Y111277D01*
X121186Y111777D02*X124186D01*
X121186D02*X120686Y111277D01*
Y109777D02*Y111277D01*
X124186Y108576D02*X124686Y108076D01*
X123186Y108576D02*X124186D01*
X123186D02*X122686Y108076D01*
Y107076D02*Y108076D01*
Y107076D02*X123186Y106576D01*
X124186D01*
X124686Y107076D02*X124186Y106576D01*
X124686Y107076D02*Y108076D01*
X122186Y108576D02*X122686Y108076D01*
X121186Y108576D02*X122186D01*
X121186D02*X120686Y108076D01*
Y107076D02*Y108076D01*
Y107076D02*X121186Y106576D01*
X122186D01*
X122686Y107076D02*X122186Y106576D01*
X141502Y101003D02*X143502D01*
X144002Y101503D01*
Y102503D01*
X143502Y103003D02*X144002Y102503D01*
X142002Y103003D02*X143502D01*
X142002Y101003D02*Y105003D01*
Y103003D02*X144002Y105003D01*
X145203D02*X147703Y102503D01*
Y101003D02*Y102503D01*
X145203Y101003D02*X147703D01*
X132753Y126706D02*Y130266D01*
X134088Y126706D02*X134533Y127151D01*
Y129821D01*
X134088Y130266D02*X134533Y129821D01*
X132308Y130266D02*X134088D01*
X132308Y126706D02*X134088D01*
X135601Y127151D02*X136046Y126706D01*
X137381D01*
X137826Y127151D01*
Y128041D01*
X135601Y130266D02*X137826Y128041D01*
X135601Y130266D02*X137826D01*
X112760Y132892D02*X114760D01*
X115260Y133392D01*
Y134392D01*
X114760Y134892D02*X115260Y134392D01*
X113260Y134892D02*X114760D01*
X113260Y132892D02*Y136892D01*
Y134892D02*X115260Y136892D01*
X116461Y133392D02*X116961Y132892D01*
X118461D01*
X118961Y133392D01*
Y134392D01*
X116461Y136892D02*X118961Y134392D01*
X116461Y136892D02*X118961D01*
M02*
