M48
INCH
T11C0.020
T19C0.060
T34C0.035
%
T11
X010871Y004980
X011371Y004980
X007562Y012747
X007303Y012342
X008031Y013622
X006948Y013563
X007066Y010551
X008011Y012500
X008169Y010551
X008169Y003189
X008503Y004153
X009350Y003346
X009507Y004960
X009074Y007421
X006673Y003248
X006673Y003760
X006673Y004527
X006023Y017106
X006023Y017578
X005551Y017578
X005551Y017106
X005078Y017578
X004606Y017106
X005078Y017106
X001456Y013897
X002106Y014153
X006023Y016161
X006023Y016634
X006023Y015689
X005787Y011279
X001259Y016122
X001850Y016181
X004133Y015689
X004133Y016161
X004133Y016634
X004606Y015689
X004606Y016161
X004606Y016634
X005078Y015689
X005078Y016161
X005078Y016634
X005551Y015689
X005551Y016161
X005551Y016634
X002834Y017972
X001378Y018799
X002244Y018641
X000669Y018248
X000393Y018701
X001614Y021043
X001417Y020256
X001063Y021397
X001850Y019626
X001850Y020098
X002322Y019508
X002322Y019980
X002933Y022086
X005570Y022913
X005885Y022598
X006200Y022283
X003031Y021476
X003405Y022027
X007677Y019901
X007795Y020807
X008740Y020807
X008937Y020059
X007795Y019271
X008740Y019271
X006850Y009409
X006299Y009409
X006574Y012578
X001456Y013425
X002401Y012342
X000433Y011358
X002401Y011673
X004409Y012303
X003405Y012421
X002283Y008602
X008011Y006653
X008011Y006201
X008011Y005748
X006692Y005787
X006692Y005334
X009547Y006634
X009724Y012992
X009094Y005748
X009547Y005748
X022696Y004980
X022696Y007460
X022500Y009921
X017126Y010610
X014192Y013248
X013543Y012401
X020157Y010531
X020629Y018267
X017106Y018523
X018582Y016870
X018582Y013956
X016673Y010610
X014192Y015157
X018582Y008681
X016437Y007519
X018582Y009271
X017263Y004862
X016437Y005827
X015590Y005374
X015590Y006260
X015078Y006771
X015570Y006929
X011811Y006260
X012342Y006397
X017066Y003189
X016437Y004055
X016437Y003110
X020354Y003543
X013011Y008169
X013523Y008917
X013051Y007047
X013149Y009212
X013366Y004586
X013444Y005827
X015590Y003307
X013523Y003681
X014232Y003641
X010748Y003386
X012007Y003386
X011791Y005216
X012775Y005216
X011988Y004055
X011515Y004527
T34
X018586Y007972
X019586Y007472
X018586Y005972
X019586Y006472
X018586Y006972
X019586Y005472
X019586Y004472
X018586Y004972
X022315Y021634
X020315Y021634
X001771Y007500
X002771Y007500
X003771Y007500
X003779Y009035
X004771Y007500
X004779Y009035
X005114Y011295
X004114Y011795
X005114Y012295
X000779Y009035
X001779Y009035
X002779Y009035
X005114Y018185
X005114Y020185
X005114Y021185
X005114Y019185
X004114Y018685
X004114Y020685
X004114Y019685
X004114Y021685
X005114Y013295
X004114Y013795
X004114Y012795
X004114Y014795
X005114Y014295
X004055Y017736
X002716Y014823
T19
X021200Y014622
X021200Y017574
X015866Y023956
X012913Y023956
M30
