G04 start of page 13 for group -3984 idx -3984 *
G04 Title: (unknown), fab *
G04 Creator: pcb 20110918 *
G04 CreationDate: Wed 12 Sep 2012 14:20:39 GMT UTC *
G04 For: rob *
G04 Format: Gerber/RS-274X *
G04 PCB-Dimensions: 236220 263780 *
G04 PCB-Coordinate-Origin: lower left *
%MOIN*%
%FSLAX25Y25*%
%LNFAB*%
%ADD144C,0.0100*%
%ADD143C,0.0060*%
%ADD142R,0.0080X0.0080*%
G54D142*X220065Y39727D02*G75*G03X221665Y39727I800J0D01*G01*
G75*G03X220065Y39727I-800J0D01*G01*
Y84727D02*G75*G03X221665Y84727I800J0D01*G01*
G75*G03X220065Y84727I-800J0D01*G01*
X15342Y221852D02*G75*G03X16942Y221852I800J0D01*G01*
G75*G03X15342Y221852I-800J0D01*G01*
Y176852D02*G75*G03X16942Y176852I800J0D01*G01*
G75*G03X15342Y176852I-800J0D01*G01*
Y152955D02*G75*G03X16942Y152955I800J0D01*G01*
G75*G03X15342Y152955I-800J0D01*G01*
Y107955D02*G75*G03X16942Y107955I800J0D01*G01*
G75*G03X15342Y107955I-800J0D01*G01*
X13964Y249016D02*G75*G03X15564Y249016I800J0D01*G01*
G75*G03X13964Y249016I-800J0D01*G01*
X220657D02*G75*G03X222257Y249016I800J0D01*G01*
G75*G03X220657Y249016I-800J0D01*G01*
X13964Y14764D02*G75*G03X15564Y14764I800J0D01*G01*
G75*G03X13964Y14764I-800J0D01*G01*
X220657D02*G75*G03X222257Y14764I800J0D01*G01*
G75*G03X220657Y14764I-800J0D01*G01*
X14200Y275030D02*G75*G03X15800Y275030I800J0D01*G01*
G75*G03X14200Y275030I-800J0D01*G01*
G54D143*X140000Y277280D02*Y271280D01*
Y277280D02*Y276530D01*
X143750Y272780D01*
Y277280D02*Y271280D01*
X145550Y276530D02*Y272030D01*
Y276530D02*X146300Y277280D01*
X147800D01*
X148550Y276530D01*
Y272030D01*
X147800Y271280D02*X148550Y272030D01*
X146300Y271280D02*X147800D01*
X145550Y272030D02*X146300Y271280D01*
X98750D02*X100250D01*
X99500Y277280D02*Y271280D01*
X98000Y275780D02*X99500Y277280D01*
X102050Y272030D02*X102800Y271280D01*
X102050Y276530D02*Y272030D01*
Y276530D02*X102800Y277280D01*
X104300D01*
X105050Y276530D01*
Y272030D01*
X104300Y271280D02*X105050Y272030D01*
X102800Y271280D02*X104300D01*
X102050Y272780D02*X105050Y275780D01*
X45000Y272030D02*X45750Y271280D01*
X45000Y276530D02*Y272030D01*
Y276530D02*X45750Y277280D01*
X47250D01*
X48000Y276530D01*
Y272030D01*
X47250Y271280D02*X48000Y272030D01*
X45750Y271280D02*X47250D01*
X45000Y272780D02*X48000Y275780D01*
X49800Y271280D02*X50550D01*
X53100D02*X54600D01*
X53850Y277280D02*Y271280D01*
X52350Y275780D02*X53850Y277280D01*
X56400Y276530D02*X57150Y277280D01*
X59400D01*
X60150Y276530D01*
Y275030D01*
X56400Y271280D02*X60150Y275030D01*
X56400Y271280D02*X60150D01*
X61950Y272030D02*X62700Y271280D01*
X61950Y273530D02*Y272030D01*
Y273530D02*X62700Y274280D01*
X64200D01*
X64950Y273530D01*
Y272030D01*
X64200Y271280D02*X64950Y272030D01*
X62700Y271280D02*X64200D01*
X61950Y275030D02*X62700Y274280D01*
X61950Y276530D02*Y275030D01*
Y276530D02*X62700Y277280D01*
X64200D01*
X64950Y276530D01*
Y275030D01*
X64200Y274280D02*X64950Y275030D01*
X210805Y147420D02*X213205Y145020D01*
X210805D02*X213205Y147420D01*
X210805Y176948D02*X213205Y174548D01*
X210805D02*X213205Y176948D01*
X157462Y240767D02*X159862Y238367D01*
X157462D02*X159862Y240767D01*
X127934D02*X130334Y238367D01*
X127934D02*X130334Y240767D01*
X13800Y291230D02*X16200Y288830D01*
X13800D02*X16200Y291230D01*
X135000Y292280D02*Y291530D01*
X136500Y290030D01*
X138000Y291530D01*
Y292280D02*Y291530D01*
X136500Y290030D02*Y286280D01*
X139800Y289280D02*X142050D01*
X139800Y286280D02*X142800D01*
X139800Y292280D02*Y286280D01*
Y292280D02*X142800D01*
X147600D02*X148350Y291530D01*
X145350Y292280D02*X147600D01*
X144600Y291530D02*X145350Y292280D01*
X144600Y291530D02*Y290030D01*
X145350Y289280D01*
X147600D01*
X148350Y288530D01*
Y287030D01*
X147600Y286280D02*X148350Y287030D01*
X145350Y286280D02*X147600D01*
X144600Y287030D02*X145350Y286280D01*
X98000Y289280D02*X101000Y292280D01*
X98000Y289280D02*X101750D01*
X101000Y292280D02*Y286280D01*
X45000Y287030D02*X45750Y286280D01*
X45000Y291530D02*Y287030D01*
Y291530D02*X45750Y292280D01*
X47250D01*
X48000Y291530D01*
Y287030D01*
X47250Y286280D02*X48000Y287030D01*
X45750Y286280D02*X47250D01*
X45000Y287780D02*X48000Y290780D01*
X49800Y286280D02*X50550D01*
X52350Y287030D02*X53100Y286280D01*
X52350Y291530D02*Y287030D01*
Y291530D02*X53100Y292280D01*
X54600D01*
X55350Y291530D01*
Y287030D01*
X54600Y286280D02*X55350Y287030D01*
X53100Y286280D02*X54600D01*
X52350Y287780D02*X55350Y290780D01*
X59400Y292280D02*X60150Y291530D01*
X57900Y292280D02*X59400D01*
X57150Y291530D02*X57900Y292280D01*
X57150Y291530D02*Y287030D01*
X57900Y286280D01*
X59400Y289280D02*X60150Y288530D01*
X57150Y289280D02*X59400D01*
X57900Y286280D02*X59400D01*
X60150Y287030D01*
Y288530D02*Y287030D01*
X61950D02*X62700Y286280D01*
X61950Y291530D02*Y287030D01*
Y291530D02*X62700Y292280D01*
X64200D01*
X64950Y291530D01*
Y287030D01*
X64200Y286280D02*X64950Y287030D01*
X62700Y286280D02*X64200D01*
X61950Y287780D02*X64950Y290780D01*
X185865Y81327D02*Y78127D01*
X184265Y79727D02*X187465D01*
X195865Y76327D02*Y73127D01*
X194265Y74727D02*X197465D01*
X185865Y61327D02*Y58127D01*
X184265Y59727D02*X187465D01*
X195865Y56327D02*Y53127D01*
X194265Y54727D02*X197465D01*
X195865Y66327D02*Y63127D01*
X194265Y64727D02*X197465D01*
X195865Y46327D02*Y43127D01*
X194265Y44727D02*X197465D01*
X185865Y51327D02*Y48127D01*
X184265Y49727D02*X187465D01*
X185865Y71327D02*Y68127D01*
X184265Y69727D02*X187465D01*
X223150Y217940D02*Y214740D01*
X221550Y216340D02*X224750D01*
X203150Y217940D02*Y214740D01*
X201550Y216340D02*X204750D01*
X17717Y76602D02*Y73402D01*
X16117Y75002D02*X19317D01*
X27717Y76602D02*Y73402D01*
X26117Y75002D02*X29317D01*
X37717Y76602D02*Y73402D01*
X36117Y75002D02*X39317D01*
X47717Y76602D02*Y73402D01*
X46117Y75002D02*X49317D01*
X51142Y183452D02*Y180252D01*
X49542Y181852D02*X52742D01*
X41142Y188452D02*Y185252D01*
X39542Y186852D02*X42742D01*
X51142Y203452D02*Y200252D01*
X49542Y201852D02*X52742D01*
X41142Y208452D02*Y205252D01*
X39542Y206852D02*X42742D01*
X41142Y198452D02*Y195252D01*
X39542Y196852D02*X42742D01*
X41142Y218452D02*Y215252D01*
X39542Y216852D02*X42742D01*
X51142Y213452D02*Y210252D01*
X49542Y211852D02*X52742D01*
X51142Y193452D02*Y190252D01*
X49542Y191852D02*X52742D01*
X51142Y114555D02*Y111355D01*
X49542Y112955D02*X52742D01*
X41142Y119555D02*Y116355D01*
X39542Y117955D02*X42742D01*
X51142Y134555D02*Y131355D01*
X49542Y132955D02*X52742D01*
X41142Y139555D02*Y136355D01*
X39542Y137955D02*X42742D01*
X41142Y129555D02*Y126355D01*
X39542Y127955D02*X42742D01*
X41142Y149555D02*Y146355D01*
X39542Y147955D02*X42742D01*
X51142Y144555D02*Y141355D01*
X49542Y142955D02*X52742D01*
X51142Y124555D02*Y121355D01*
X49542Y122955D02*X52742D01*
X7797Y91956D02*Y88756D01*
X6197Y90356D02*X9397D01*
X17797Y91956D02*Y88756D01*
X16197Y90356D02*X19397D01*
X27797Y91956D02*Y88756D01*
X26197Y90356D02*X29397D01*
X37797Y91956D02*Y88756D01*
X36197Y90356D02*X39397D01*
X47797Y91956D02*Y88756D01*
X46197Y90356D02*X49397D01*
X40551Y178964D02*Y175764D01*
X38951Y177364D02*X42151D01*
X27166Y149830D02*Y146630D01*
X25566Y148230D02*X28766D01*
X15000Y306630D02*Y303430D01*
X13400Y305030D02*X16600D01*
X135000Y307280D02*Y306530D01*
X136500Y305030D01*
X138000Y306530D01*
Y307280D02*Y306530D01*
X136500Y305030D02*Y301280D01*
X139800Y304280D02*X142050D01*
X139800Y301280D02*X142800D01*
X139800Y307280D02*Y301280D01*
Y307280D02*X142800D01*
X147600D02*X148350Y306530D01*
X145350Y307280D02*X147600D01*
X144600Y306530D02*X145350Y307280D01*
X144600Y306530D02*Y305030D01*
X145350Y304280D01*
X147600D01*
X148350Y303530D01*
Y302030D01*
X147600Y301280D02*X148350Y302030D01*
X145350Y301280D02*X147600D01*
X144600Y302030D02*X145350Y301280D01*
X98000Y306530D02*X98750Y307280D01*
X100250D01*
X101000Y306530D01*
Y302030D01*
X100250Y301280D02*X101000Y302030D01*
X98750Y301280D02*X100250D01*
X98000Y302030D02*X98750Y301280D01*
Y304280D02*X101000D01*
X102800Y301280D02*X106550Y305030D01*
Y307280D02*Y305030D01*
X102800Y307280D02*X106550D01*
X45000Y302030D02*X45750Y301280D01*
X45000Y306530D02*Y302030D01*
Y306530D02*X45750Y307280D01*
X47250D01*
X48000Y306530D01*
Y302030D01*
X47250Y301280D02*X48000Y302030D01*
X45750Y301280D02*X47250D01*
X45000Y302780D02*X48000Y305780D01*
X49800Y301280D02*X50550D01*
X52350Y302030D02*X53100Y301280D01*
X52350Y306530D02*Y302030D01*
Y306530D02*X53100Y307280D01*
X54600D01*
X55350Y306530D01*
Y302030D01*
X54600Y301280D02*X55350Y302030D01*
X53100Y301280D02*X54600D01*
X52350Y302780D02*X55350Y305780D01*
X57150Y306530D02*X57900Y307280D01*
X59400D01*
X60150Y306530D01*
Y302030D01*
X59400Y301280D02*X60150Y302030D01*
X57900Y301280D02*X59400D01*
X57150Y302030D02*X57900Y301280D01*
Y304280D02*X60150D01*
X61950Y307280D02*X64950D01*
X61950D02*Y304280D01*
X62700Y305030D01*
X64200D01*
X64950Y304280D01*
Y302030D01*
X64200Y301280D02*X64950Y302030D01*
X62700Y301280D02*X64200D01*
X61950Y302030D02*X62700Y301280D01*
X108719Y49805D02*Y48205D01*
Y49805D02*X110106Y50605D01*
X108719Y49805D02*X107332Y50605D01*
X113719Y49805D02*Y48205D01*
Y49805D02*X115106Y50605D01*
X113719Y49805D02*X112332Y50605D01*
X135236Y89175D02*Y87575D01*
Y89175D02*X136622Y89975D01*
X135236Y89175D02*X133849Y89975D01*
X130512Y70474D02*Y68874D01*
Y70474D02*X131898Y71274D01*
X130512Y70474D02*X129125Y71274D01*
X131496Y92128D02*Y90528D01*
Y92128D02*X132883Y92928D01*
X131496Y92128D02*X130109Y92928D01*
X134449Y58270D02*Y56670D01*
Y58270D02*X135835Y59070D01*
X134449Y58270D02*X133062Y59070D01*
X201575Y105317D02*Y103717D01*
Y105317D02*X202961Y106117D01*
X201575Y105317D02*X200188Y106117D01*
X206299Y182679D02*Y181079D01*
Y182679D02*X207685Y183479D01*
X206299Y182679D02*X204912Y183479D01*
X171260Y106103D02*Y104503D01*
Y106103D02*X172647Y106903D01*
X171260Y106103D02*X169873Y106903D01*
X141929Y132482D02*Y130882D01*
Y132482D02*X143316Y133282D01*
X141929Y132482D02*X140542Y133282D01*
X171063Y185238D02*Y183638D01*
Y185238D02*X172450Y186038D01*
X171063Y185238D02*X169676Y186038D01*
X141929Y151575D02*Y149975D01*
Y151575D02*X143316Y152375D01*
X141929Y151575D02*X140542Y152375D01*
X135433Y124018D02*Y122418D01*
Y124018D02*X136820Y124818D01*
X135433Y124018D02*X134046Y124818D01*
X226968Y49805D02*Y48205D01*
Y49805D02*X228355Y50605D01*
X226968Y49805D02*X225581Y50605D01*
X226968Y74608D02*Y73008D01*
Y74608D02*X228355Y75408D01*
X226968Y74608D02*X225581Y75408D01*
X185827Y86813D02*Y85213D01*
Y86813D02*X187214Y87613D01*
X185827Y86813D02*X184440Y87613D01*
X185827Y92718D02*Y91118D01*
Y92718D02*X187214Y93518D01*
X185827Y92718D02*X184440Y93518D01*
X170669Y31892D02*Y30292D01*
Y31892D02*X172056Y32692D01*
X170669Y31892D02*X169282Y32692D01*
X172638Y48624D02*Y47024D01*
Y48624D02*X174025Y49424D01*
X172638Y48624D02*X171252Y49424D01*
X164370Y75199D02*Y73599D01*
Y75199D02*X165757Y75999D01*
X164370Y75199D02*X162983Y75999D01*
X164370Y58270D02*Y56670D01*
Y58270D02*X165757Y59070D01*
X164370Y58270D02*X162983Y59070D01*
X164370Y40553D02*Y38953D01*
Y40553D02*X165757Y41353D01*
X164370Y40553D02*X162983Y41353D01*
X225000Y99214D02*Y97614D01*
Y99214D02*X226387Y100014D01*
X225000Y99214D02*X223613Y100014D01*
X155906Y33073D02*Y31473D01*
Y33073D02*X157293Y33873D01*
X155906Y33073D02*X154519Y33873D01*
X155906Y62600D02*Y61000D01*
Y62600D02*X157293Y63400D01*
X155906Y62600D02*X154519Y63400D01*
X155906Y53742D02*Y52142D01*
Y53742D02*X157293Y54542D01*
X155906Y53742D02*X154519Y54542D01*
X150787Y67718D02*Y66118D01*
Y67718D02*X152174Y68518D01*
X150787Y67718D02*X149400Y68518D01*
X155709Y69293D02*Y67693D01*
Y69293D02*X157096Y70093D01*
X155709Y69293D02*X154322Y70093D01*
X164370Y31104D02*Y29504D01*
Y31104D02*X165757Y31904D01*
X164370Y31104D02*X162983Y31904D01*
X130118Y81695D02*Y80095D01*
Y81695D02*X131505Y82495D01*
X130118Y81695D02*X128731Y82495D01*
X203543Y35435D02*Y33835D01*
Y35435D02*X204930Y36235D01*
X203543Y35435D02*X202156Y36235D01*
X135236Y36813D02*Y35213D01*
Y36813D02*X136622Y37613D01*
X135236Y36813D02*X133849Y37613D01*
X133661Y45868D02*Y44268D01*
Y45868D02*X135048Y46668D01*
X133661Y45868D02*X132274Y46668D01*
X28347Y179726D02*Y178126D01*
Y179726D02*X29734Y180526D01*
X28347Y179726D02*X26960Y180526D01*
X107480Y33860D02*Y32260D01*
Y33860D02*X108867Y34660D01*
X107480Y33860D02*X106093Y34660D01*
X90748Y74213D02*Y72613D01*
Y74213D02*X92135Y75013D01*
X90748Y74213D02*X89361Y75013D01*
X81693Y105514D02*Y103914D01*
Y105514D02*X83080Y106314D01*
X81693Y105514D02*X80306Y106314D01*
X95472Y57482D02*Y55882D01*
Y57482D02*X96859Y58282D01*
X95472Y57482D02*X94085Y58282D01*
X85039Y41537D02*Y39937D01*
Y41537D02*X86426Y42337D01*
X85039Y41537D02*X83652Y42337D01*
X16142Y210435D02*Y208835D01*
Y210435D02*X17529Y211235D01*
X16142Y210435D02*X14755Y211235D01*
X66732Y37600D02*Y36000D01*
Y37600D02*X68119Y38400D01*
X66732Y37600D02*X65345Y38400D01*
X14174Y202561D02*Y200961D01*
Y202561D02*X15561Y203361D01*
X14174Y202561D02*X12787Y203361D01*
X10630Y213978D02*Y212378D01*
Y213978D02*X12017Y214778D01*
X10630Y213978D02*X9243Y214778D01*
X18504Y196262D02*Y194662D01*
Y196262D02*X19891Y197062D01*
X18504Y196262D02*X17117Y197062D01*
X18504Y200986D02*Y199386D01*
Y200986D02*X19891Y201786D01*
X18504Y200986D02*X17117Y201786D01*
X66732Y45277D02*Y43677D01*
Y45277D02*X68119Y46077D01*
X66732Y45277D02*X65345Y46077D01*
X68504Y94095D02*Y92495D01*
Y94095D02*X69891Y94895D01*
X68504Y94095D02*X67117Y94895D01*
X14567Y134252D02*Y132652D01*
Y134252D02*X15954Y135052D01*
X14567Y134252D02*X13180Y135052D01*
X24016Y123427D02*Y121827D01*
Y123427D02*X25403Y124227D01*
X24016Y123427D02*X22629Y124227D01*
X4331Y113585D02*Y111985D01*
Y113585D02*X5718Y114385D01*
X4331Y113585D02*X2944Y114385D01*
X22835Y86026D02*Y84426D01*
Y86026D02*X24222Y86826D01*
X22835Y86026D02*X21448Y86826D01*
X57874Y112797D02*Y111197D01*
Y112797D02*X59261Y113597D01*
X57874Y112797D02*X56487Y113597D01*
X13780Y187994D02*Y186394D01*
Y187994D02*X15167Y188794D01*
X13780Y187994D02*X12393Y188794D01*
X22441Y186419D02*Y184819D01*
Y186419D02*X23828Y187219D01*
X22441Y186419D02*X21054Y187219D01*
X12599Y161223D02*Y159623D01*
Y161223D02*X13986Y162023D01*
X12599Y161223D02*X11212Y162023D01*
X14567Y138977D02*Y137377D01*
Y138977D02*X15954Y139777D01*
X14567Y138977D02*X13180Y139777D01*
X24016Y116734D02*Y115134D01*
Y116734D02*X25403Y117534D01*
X24016Y116734D02*X22629Y117534D01*
X18504Y161813D02*Y160213D01*
Y161813D02*X19891Y162613D01*
X18504Y161813D02*X17117Y162613D01*
X21063Y141538D02*Y139938D01*
Y141538D02*X22450Y142338D01*
X21063Y141538D02*X19676Y142338D01*
X29331Y220868D02*Y219268D01*
Y220868D02*X30718Y221668D01*
X29331Y220868D02*X27944Y221668D01*
X62992Y94095D02*Y92495D01*
Y94095D02*X64379Y94895D01*
X62992Y94095D02*X61605Y94895D01*
X166732Y106103D02*Y104503D01*
Y106103D02*X168119Y106903D01*
X166732Y106103D02*X165345Y106903D01*
X44095Y123034D02*Y121434D01*
Y123034D02*X45482Y123834D01*
X44095Y123034D02*X42708Y123834D01*
X80118Y66537D02*Y64937D01*
Y66537D02*X81505Y67337D01*
X80118Y66537D02*X78731Y67337D01*
X80118Y62010D02*Y60410D01*
Y62010D02*X81505Y62810D01*
X80118Y62010D02*X78731Y62810D01*
X41339Y156892D02*Y155292D01*
Y156892D02*X42726Y157692D01*
X41339Y156892D02*X39952Y157692D01*
X41339Y161616D02*Y160016D01*
Y161616D02*X42726Y162416D01*
X41339Y161616D02*X39952Y162416D01*
X41339Y166341D02*Y164741D01*
Y166341D02*X42726Y167141D01*
X41339Y166341D02*X39952Y167141D01*
X46063Y156892D02*Y155292D01*
Y156892D02*X47450Y157692D01*
X46063Y156892D02*X44676Y157692D01*
X46063Y161616D02*Y160016D01*
Y161616D02*X47450Y162416D01*
X46063Y161616D02*X44676Y162416D01*
X46063Y166341D02*Y164741D01*
Y166341D02*X47450Y167141D01*
X46063Y166341D02*X44676Y167141D01*
X46063Y171065D02*Y169465D01*
Y171065D02*X47450Y171865D01*
X46063Y171065D02*X44676Y171865D01*
X70669Y105514D02*Y103914D01*
Y105514D02*X72056Y106314D01*
X70669Y105514D02*X69282Y106314D01*
X115157Y45277D02*Y43677D01*
Y45277D02*X116544Y46077D01*
X115157Y45277D02*X113770Y46077D01*
X95079Y49608D02*Y48008D01*
Y49608D02*X96466Y50408D01*
X95079Y49608D02*X93692Y50408D01*
X93504Y33466D02*Y31866D01*
Y33466D02*X94891Y34266D01*
X93504Y33466D02*X92117Y34266D01*
X66732Y32482D02*Y30882D01*
Y32482D02*X68119Y33282D01*
X66732Y32482D02*X65345Y33282D01*
X65748Y125789D02*Y124189D01*
Y125789D02*X67135Y126589D01*
X65748Y125789D02*X64361Y126589D01*
X120079Y33860D02*Y32260D01*
Y33860D02*X121466Y34660D01*
X120079Y33860D02*X118692Y34660D01*
X97244Y129923D02*Y128323D01*
Y129923D02*X98631Y130723D01*
X97244Y129923D02*X95857Y130723D01*
X6693Y182482D02*Y180882D01*
Y182482D02*X8080Y183282D01*
X6693Y182482D02*X5306Y183282D01*
X3937Y187010D02*Y185410D01*
Y187010D02*X5324Y187810D01*
X3937Y187010D02*X2550Y187810D01*
X34055Y124215D02*Y122615D01*
Y124215D02*X35442Y125015D01*
X34055Y124215D02*X32668Y125015D01*
X55709Y229136D02*Y227536D01*
Y229136D02*X57096Y229936D01*
X55709Y229136D02*X54322Y229936D01*
X58859Y225986D02*Y224386D01*
Y225986D02*X60246Y226786D01*
X58859Y225986D02*X57472Y226786D01*
X62008Y222837D02*Y221237D01*
Y222837D02*X63395Y223637D01*
X62008Y222837D02*X60621Y223637D01*
X23229Y195081D02*Y193481D01*
Y195081D02*X24616Y195881D01*
X23229Y195081D02*X21842Y195881D01*
X23229Y199805D02*Y198205D01*
Y199805D02*X24616Y200605D01*
X23229Y199805D02*X21842Y200605D01*
X30315Y214766D02*Y213166D01*
Y214766D02*X31702Y215566D01*
X30315Y214766D02*X28928Y215566D01*
X34055Y220278D02*Y218678D01*
Y220278D02*X35442Y221078D01*
X34055Y220278D02*X32668Y221078D01*
X76772Y199018D02*Y197418D01*
Y199018D02*X78159Y199818D01*
X76772Y199018D02*X75385Y199818D01*
X77953Y208073D02*Y206473D01*
Y208073D02*X79340Y208873D01*
X77953Y208073D02*X76566Y208873D01*
X87402Y208073D02*Y206473D01*
Y208073D02*X88789Y208873D01*
X87402Y208073D02*X86015Y208873D01*
X77953Y192719D02*Y191119D01*
Y192719D02*X79340Y193519D01*
X77953Y192719D02*X76566Y193519D01*
X87402Y192719D02*Y191119D01*
Y192719D02*X88789Y193519D01*
X87402Y192719D02*X86015Y193519D01*
X75627Y127473D02*Y125873D01*
Y127473D02*X77014Y128273D01*
X75627Y127473D02*X74240Y128273D01*
X80315Y136223D02*Y134623D01*
Y136223D02*X81702Y137023D01*
X80315Y136223D02*X78928Y137023D01*
X69488Y135632D02*Y134032D01*
Y135632D02*X70875Y136432D01*
X69488Y135632D02*X68102Y136432D01*
X89370Y200593D02*Y198993D01*
Y200593D02*X90757Y201393D01*
X89370Y200593D02*X87983Y201393D01*
X80118Y125002D02*Y123402D01*
Y125002D02*X81505Y125802D01*
X80118Y125002D02*X78731Y125802D01*
X73032Y123427D02*Y121827D01*
Y123427D02*X74419Y124227D01*
X73032Y123427D02*X71645Y124227D01*
X80118Y57482D02*Y55882D01*
Y57482D02*X81505Y58282D01*
X80118Y57482D02*X78731Y58282D01*
X66929Y57876D02*Y56276D01*
Y57876D02*X68316Y58676D01*
X66929Y57876D02*X65542Y58676D01*
X66929Y53348D02*Y51748D01*
Y53348D02*X68316Y54148D01*
X66929Y53348D02*X65542Y54148D01*
X95472Y66340D02*Y64740D01*
Y66340D02*X96859Y67140D01*
X95472Y66340D02*X94085Y67140D01*
X118110Y62600D02*Y61000D01*
Y62600D02*X119497Y63400D01*
X118110Y62600D02*X116723Y63400D01*
X142323Y36419D02*Y34819D01*
Y36419D02*X143710Y37219D01*
X142323Y36419D02*X140936Y37219D01*
X117913Y52167D02*Y50567D01*
Y52167D02*X119300Y52967D01*
X117913Y52167D02*X116526Y52967D01*
X127756Y52167D02*Y50567D01*
Y52167D02*X129143Y52967D01*
X127756Y52167D02*X126369Y52967D01*
X119882Y40553D02*Y38953D01*
Y40553D02*X121269Y41353D01*
X119882Y40553D02*X118495Y41353D01*
X123425Y63978D02*Y62378D01*
Y63978D02*X124811Y64778D01*
X123425Y63978D02*X122038Y64778D01*
X90945Y57482D02*Y55882D01*
Y57482D02*X92332Y58282D01*
X90945Y57482D02*X89558Y58282D01*
X81693Y31892D02*Y30292D01*
Y31892D02*X83080Y32692D01*
X81693Y31892D02*X80306Y32692D01*
X67126Y165552D02*Y163952D01*
Y165552D02*X68513Y166352D01*
X67126Y165552D02*X65739Y166352D01*
X67126Y170867D02*Y169267D01*
Y170867D02*X68513Y171667D01*
X67126Y170867D02*X65739Y171667D01*
X67126Y176182D02*Y174582D01*
Y176182D02*X68513Y176982D01*
X67126Y176182D02*X65739Y176982D01*
X15000Y320030D02*Y318430D01*
Y320030D02*X16387Y320830D01*
X15000Y320030D02*X13613Y320830D01*
X135000Y322280D02*Y321530D01*
X136500Y320030D01*
X138000Y321530D01*
Y322280D02*Y321530D01*
X136500Y320030D02*Y316280D01*
X139800Y319280D02*X142050D01*
X139800Y316280D02*X142800D01*
X139800Y322280D02*Y316280D01*
Y322280D02*X142800D01*
X147600D02*X148350Y321530D01*
X145350Y322280D02*X147600D01*
X144600Y321530D02*X145350Y322280D01*
X144600Y321530D02*Y320030D01*
X145350Y319280D01*
X147600D01*
X148350Y318530D01*
Y317030D01*
X147600Y316280D02*X148350Y317030D01*
X145350Y316280D02*X147600D01*
X144600Y317030D02*X145350Y316280D01*
X98750D02*X100250D01*
X99500Y322280D02*Y316280D01*
X98000Y320780D02*X99500Y322280D01*
X102800Y316280D02*X104300D01*
X103550Y322280D02*Y316280D01*
X102050Y320780D02*X103550Y322280D01*
X108350D02*X109100Y321530D01*
X106850Y322280D02*X108350D01*
X106100Y321530D02*X106850Y322280D01*
X106100Y321530D02*Y317030D01*
X106850Y316280D01*
X108350Y319280D02*X109100Y318530D01*
X106100Y319280D02*X108350D01*
X106850Y316280D02*X108350D01*
X109100Y317030D01*
Y318530D02*Y317030D01*
X45000D02*X45750Y316280D01*
X45000Y321530D02*Y317030D01*
Y321530D02*X45750Y322280D01*
X47250D01*
X48000Y321530D01*
Y317030D01*
X47250Y316280D02*X48000Y317030D01*
X45750Y316280D02*X47250D01*
X45000Y317780D02*X48000Y320780D01*
X49800Y316280D02*X50550D01*
X52350Y317030D02*X53100Y316280D01*
X52350Y321530D02*Y317030D01*
Y321530D02*X53100Y322280D01*
X54600D01*
X55350Y321530D01*
Y317030D01*
X54600Y316280D02*X55350Y317030D01*
X53100Y316280D02*X54600D01*
X52350Y317780D02*X55350Y320780D01*
X57150Y321530D02*X57900Y322280D01*
X60150D01*
X60900Y321530D01*
Y320030D01*
X57150Y316280D02*X60900Y320030D01*
X57150Y316280D02*X60900D01*
X62700Y317030D02*X63450Y316280D01*
X62700Y321530D02*Y317030D01*
Y321530D02*X63450Y322280D01*
X64950D01*
X65700Y321530D01*
Y317030D01*
X64950Y316280D02*X65700Y317030D01*
X63450Y316280D02*X64950D01*
X62700Y317780D02*X65700Y320780D01*
X3000Y337280D02*X3750Y336530D01*
X750Y337280D02*X3000D01*
X0Y336530D02*X750Y337280D01*
X0Y336530D02*Y335030D01*
X750Y334280D01*
X3000D01*
X3750Y333530D01*
Y332030D01*
X3000Y331280D02*X3750Y332030D01*
X750Y331280D02*X3000D01*
X0Y332030D02*X750Y331280D01*
X5550Y334280D02*Y332030D01*
X6300Y331280D01*
X8550Y334280D02*Y329780D01*
X7800Y329030D02*X8550Y329780D01*
X6300Y329030D02*X7800D01*
X5550Y329780D02*X6300Y329030D01*
Y331280D02*X7800D01*
X8550Y332030D01*
X11100Y333530D02*Y331280D01*
Y333530D02*X11850Y334280D01*
X12600D01*
X13350Y333530D01*
Y331280D01*
Y333530D02*X14100Y334280D01*
X14850D01*
X15600Y333530D01*
Y331280D01*
X10350Y334280D02*X11100Y333530D01*
X17400Y337280D02*Y331280D01*
Y332030D02*X18150Y331280D01*
X19650D01*
X20400Y332030D01*
Y333530D02*Y332030D01*
X19650Y334280D02*X20400Y333530D01*
X18150Y334280D02*X19650D01*
X17400Y333530D02*X18150Y334280D01*
X22200Y333530D02*Y332030D01*
Y333530D02*X22950Y334280D01*
X24450D01*
X25200Y333530D01*
Y332030D01*
X24450Y331280D02*X25200Y332030D01*
X22950Y331280D02*X24450D01*
X22200Y332030D02*X22950Y331280D01*
X27000Y337280D02*Y332030D01*
X27750Y331280D01*
X0Y328030D02*X29250D01*
X41750Y337280D02*Y331280D01*
X44000Y337280D02*X44750Y336530D01*
Y332030D01*
X44000Y331280D02*X44750Y332030D01*
X41000Y331280D02*X44000D01*
X41000Y337280D02*X44000D01*
X46550Y335780D02*Y335030D01*
Y333530D02*Y331280D01*
X50300Y334280D02*X51050Y333530D01*
X48800Y334280D02*X50300D01*
X48050Y333530D02*X48800Y334280D01*
X48050Y333530D02*Y332030D01*
X48800Y331280D01*
X51050Y334280D02*Y332030D01*
X51800Y331280D01*
X48800D02*X50300D01*
X51050Y332030D01*
X54350Y333530D02*Y331280D01*
Y333530D02*X55100Y334280D01*
X55850D01*
X56600Y333530D01*
Y331280D01*
Y333530D02*X57350Y334280D01*
X58100D01*
X58850Y333530D01*
Y331280D01*
X53600Y334280D02*X54350Y333530D01*
X60650Y331280D02*X61400D01*
X65900Y332030D02*X66650Y331280D01*
X65900Y336530D02*X66650Y337280D01*
X65900Y336530D02*Y332030D01*
X68450Y337280D02*X69950D01*
X69200D02*Y331280D01*
X68450D02*X69950D01*
X72500Y333530D02*Y331280D01*
Y333530D02*X73250Y334280D01*
X74000D01*
X74750Y333530D01*
Y331280D01*
X71750Y334280D02*X72500Y333530D01*
X77300Y334280D02*X79550D01*
X76550Y333530D02*X77300Y334280D01*
X76550Y333530D02*Y332030D01*
X77300Y331280D01*
X79550D01*
X81350Y337280D02*Y331280D01*
Y333530D02*X82100Y334280D01*
X83600D01*
X84350Y333530D01*
Y331280D01*
X86150Y337280D02*X86900Y336530D01*
Y332030D01*
X86150Y331280D02*X86900Y332030D01*
X41000Y328030D02*X88700D01*
X95750Y331280D02*X98000D01*
X95000Y332030D02*X95750Y331280D01*
X95000Y336530D02*Y332030D01*
Y336530D02*X95750Y337280D01*
X98000D01*
X99800Y333530D02*Y332030D01*
Y333530D02*X100550Y334280D01*
X102050D01*
X102800Y333530D01*
Y332030D01*
X102050Y331280D02*X102800Y332030D01*
X100550Y331280D02*X102050D01*
X99800Y332030D02*X100550Y331280D01*
X104600Y334280D02*Y332030D01*
X105350Y331280D01*
X106850D01*
X107600Y332030D01*
Y334280D02*Y332030D01*
X110150Y333530D02*Y331280D01*
Y333530D02*X110900Y334280D01*
X111650D01*
X112400Y333530D01*
Y331280D01*
X109400Y334280D02*X110150Y333530D01*
X114950Y337280D02*Y332030D01*
X115700Y331280D01*
X114200Y335030D02*X115700D01*
X95000Y328030D02*X117200D01*
X130750Y337280D02*Y331280D01*
X130000Y337280D02*X133000D01*
X133750Y336530D01*
Y335030D01*
X133000Y334280D02*X133750Y335030D01*
X130750Y334280D02*X133000D01*
X135550Y337280D02*Y332030D01*
X136300Y331280D01*
X140050Y334280D02*X140800Y333530D01*
X138550Y334280D02*X140050D01*
X137800Y333530D02*X138550Y334280D01*
X137800Y333530D02*Y332030D01*
X138550Y331280D01*
X140800Y334280D02*Y332030D01*
X141550Y331280D01*
X138550D02*X140050D01*
X140800Y332030D01*
X144100Y337280D02*Y332030D01*
X144850Y331280D01*
X143350Y335030D02*X144850D01*
X147100Y331280D02*X149350D01*
X146350Y332030D02*X147100Y331280D01*
X146350Y333530D02*Y332030D01*
Y333530D02*X147100Y334280D01*
X148600D01*
X149350Y333530D01*
X146350Y332780D02*X149350D01*
Y333530D02*Y332780D01*
X154150Y337280D02*Y331280D01*
X153400D02*X154150Y332030D01*
X151900Y331280D02*X153400D01*
X151150Y332030D02*X151900Y331280D01*
X151150Y333530D02*Y332030D01*
Y333530D02*X151900Y334280D01*
X153400D01*
X154150Y333530D01*
X157450Y334280D02*Y333530D01*
Y332030D02*Y331280D01*
X155950Y336530D02*Y335780D01*
Y336530D02*X156700Y337280D01*
X158200D01*
X158950Y336530D01*
Y335780D01*
X157450Y334280D02*X158950Y335780D01*
X130000Y328030D02*X160750D01*
X0Y352280D02*X3000D01*
X1500D02*Y346280D01*
X4800Y352280D02*Y346280D01*
Y348530D02*X5550Y349280D01*
X7050D01*
X7800Y348530D01*
Y346280D01*
X10350D02*X12600D01*
X9600Y347030D02*X10350Y346280D01*
X9600Y348530D02*Y347030D01*
Y348530D02*X10350Y349280D01*
X11850D01*
X12600Y348530D01*
X9600Y347780D02*X12600D01*
Y348530D02*Y347780D01*
X15150Y348530D02*Y346280D01*
Y348530D02*X15900Y349280D01*
X17400D01*
X14400D02*X15150Y348530D01*
X19950Y346280D02*X22200D01*
X19200Y347030D02*X19950Y346280D01*
X19200Y348530D02*Y347030D01*
Y348530D02*X19950Y349280D01*
X21450D01*
X22200Y348530D01*
X19200Y347780D02*X22200D01*
Y348530D02*Y347780D01*
X28950Y349280D02*X29700Y348530D01*
X27450Y349280D02*X28950D01*
X26700Y348530D02*X27450Y349280D01*
X26700Y348530D02*Y347030D01*
X27450Y346280D01*
X29700Y349280D02*Y347030D01*
X30450Y346280D01*
X27450D02*X28950D01*
X29700Y347030D01*
X33000Y348530D02*Y346280D01*
Y348530D02*X33750Y349280D01*
X35250D01*
X32250D02*X33000Y348530D01*
X37800Y346280D02*X40050D01*
X37050Y347030D02*X37800Y346280D01*
X37050Y348530D02*Y347030D01*
Y348530D02*X37800Y349280D01*
X39300D01*
X40050Y348530D01*
X37050Y347780D02*X40050D01*
Y348530D02*Y347780D01*
X44550Y349280D02*X47550Y352280D01*
X44550Y349280D02*X48300D01*
X47550Y352280D02*Y346280D01*
X55800Y352280D02*Y346280D01*
X55050D02*X55800Y347030D01*
X53550Y346280D02*X55050D01*
X52800Y347030D02*X53550Y346280D01*
X52800Y348530D02*Y347030D01*
Y348530D02*X53550Y349280D01*
X55050D01*
X55800Y348530D01*
X57600Y350780D02*Y350030D01*
Y348530D02*Y346280D01*
X59850Y351530D02*Y346280D01*
Y351530D02*X60600Y352280D01*
X61350D01*
X59100Y349280D02*X60600D01*
X63600Y351530D02*Y346280D01*
Y351530D02*X64350Y352280D01*
X65100D01*
X62850Y349280D02*X64350D01*
X67350Y346280D02*X69600D01*
X66600Y347030D02*X67350Y346280D01*
X66600Y348530D02*Y347030D01*
Y348530D02*X67350Y349280D01*
X68850D01*
X69600Y348530D01*
X66600Y347780D02*X69600D01*
Y348530D02*Y347780D01*
X72150Y348530D02*Y346280D01*
Y348530D02*X72900Y349280D01*
X74400D01*
X71400D02*X72150Y348530D01*
X76950Y346280D02*X79200D01*
X76200Y347030D02*X76950Y346280D01*
X76200Y348530D02*Y347030D01*
Y348530D02*X76950Y349280D01*
X78450D01*
X79200Y348530D01*
X76200Y347780D02*X79200D01*
Y348530D02*Y347780D01*
X81750Y348530D02*Y346280D01*
Y348530D02*X82500Y349280D01*
X83250D01*
X84000Y348530D01*
Y346280D01*
X81000Y349280D02*X81750Y348530D01*
X86550Y352280D02*Y347030D01*
X87300Y346280D01*
X85800Y350030D02*X87300D01*
X94500Y352280D02*Y346280D01*
X93750D02*X94500Y347030D01*
X92250Y346280D02*X93750D01*
X91500Y347030D02*X92250Y346280D01*
X91500Y348530D02*Y347030D01*
Y348530D02*X92250Y349280D01*
X93750D01*
X94500Y348530D01*
X97050D02*Y346280D01*
Y348530D02*X97800Y349280D01*
X99300D01*
X96300D02*X97050Y348530D01*
X101100Y350780D02*Y350030D01*
Y348530D02*Y346280D01*
X102600Y352280D02*Y347030D01*
X103350Y346280D01*
X104850Y352280D02*Y347030D01*
X105600Y346280D01*
X110550D02*X112800D01*
X113550Y347030D01*
X112800Y347780D02*X113550Y347030D01*
X110550Y347780D02*X112800D01*
X109800Y348530D02*X110550Y347780D01*
X109800Y348530D02*X110550Y349280D01*
X112800D01*
X113550Y348530D01*
X109800Y347030D02*X110550Y346280D01*
X115350Y350780D02*Y350030D01*
Y348530D02*Y346280D01*
X116850Y349280D02*X119850D01*
X116850Y346280D02*X119850Y349280D01*
X116850Y346280D02*X119850D01*
X122400D02*X124650D01*
X121650Y347030D02*X122400Y346280D01*
X121650Y348530D02*Y347030D01*
Y348530D02*X122400Y349280D01*
X123900D01*
X124650Y348530D01*
X121650Y347780D02*X124650D01*
Y348530D02*Y347780D01*
X127200Y346280D02*X129450D01*
X130200Y347030D01*
X129450Y347780D02*X130200Y347030D01*
X127200Y347780D02*X129450D01*
X126450Y348530D02*X127200Y347780D01*
X126450Y348530D02*X127200Y349280D01*
X129450D01*
X130200Y348530D01*
X126450Y347030D02*X127200Y346280D01*
X134700Y349280D02*Y347030D01*
X135450Y346280D01*
X136950D01*
X137700Y347030D01*
Y349280D02*Y347030D01*
X140250Y346280D02*X142500D01*
X143250Y347030D01*
X142500Y347780D02*X143250Y347030D01*
X140250Y347780D02*X142500D01*
X139500Y348530D02*X140250Y347780D01*
X139500Y348530D02*X140250Y349280D01*
X142500D01*
X143250Y348530D01*
X139500Y347030D02*X140250Y346280D01*
X145800D02*X148050D01*
X145050Y347030D02*X145800Y346280D01*
X145050Y348530D02*Y347030D01*
Y348530D02*X145800Y349280D01*
X147300D01*
X148050Y348530D01*
X145050Y347780D02*X148050D01*
Y348530D02*Y347780D01*
X152850Y352280D02*Y346280D01*
X152100D02*X152850Y347030D01*
X150600Y346280D02*X152100D01*
X149850Y347030D02*X150600Y346280D01*
X149850Y348530D02*Y347030D01*
Y348530D02*X150600Y349280D01*
X152100D01*
X152850Y348530D01*
X157350Y350780D02*Y350030D01*
Y348530D02*Y346280D01*
X159600Y348530D02*Y346280D01*
Y348530D02*X160350Y349280D01*
X161100D01*
X161850Y348530D01*
Y346280D01*
X158850Y349280D02*X159600Y348530D01*
X167100Y352280D02*Y347030D01*
X167850Y346280D01*
X166350Y350030D02*X167850D01*
X169350Y352280D02*Y346280D01*
Y348530D02*X170100Y349280D01*
X171600D01*
X172350Y348530D01*
Y346280D01*
X174150Y350780D02*Y350030D01*
Y348530D02*Y346280D01*
X176400D02*X178650D01*
X179400Y347030D01*
X178650Y347780D02*X179400Y347030D01*
X176400Y347780D02*X178650D01*
X175650Y348530D02*X176400Y347780D01*
X175650Y348530D02*X176400Y349280D01*
X178650D01*
X179400Y348530D01*
X175650Y347030D02*X176400Y346280D01*
X183900Y352280D02*Y347030D01*
X184650Y346280D01*
X188400Y349280D02*X189150Y348530D01*
X186900Y349280D02*X188400D01*
X186150Y348530D02*X186900Y349280D01*
X186150Y348530D02*Y347030D01*
X186900Y346280D01*
X189150Y349280D02*Y347030D01*
X189900Y346280D01*
X186900D02*X188400D01*
X189150Y347030D01*
X191700Y349280D02*Y347030D01*
X192450Y346280D01*
X194700Y349280D02*Y344780D01*
X193950Y344030D02*X194700Y344780D01*
X192450Y344030D02*X193950D01*
X191700Y344780D02*X192450Y344030D01*
Y346280D02*X193950D01*
X194700Y347030D01*
X196500Y348530D02*Y347030D01*
Y348530D02*X197250Y349280D01*
X198750D01*
X199500Y348530D01*
Y347030D01*
X198750Y346280D02*X199500Y347030D01*
X197250Y346280D02*X198750D01*
X196500Y347030D02*X197250Y346280D01*
X201300Y349280D02*Y347030D01*
X202050Y346280D01*
X203550D01*
X204300Y347030D01*
Y349280D02*Y347030D01*
X206850Y352280D02*Y347030D01*
X207600Y346280D01*
X206100Y350030D02*X207600D01*
X209100Y344780D02*X210600Y346280D01*
X215850D02*X217350D01*
X216600Y352280D02*Y346280D01*
X215100Y350780D02*X216600Y352280D01*
X221400D02*X222150Y351530D01*
X219900Y352280D02*X221400D01*
X219150Y351530D02*X219900Y352280D01*
X219150Y351530D02*Y347030D01*
X219900Y346280D01*
X221400Y349280D02*X222150Y348530D01*
X219150Y349280D02*X221400D01*
X219900Y346280D02*X221400D01*
X222150Y347030D01*
Y348530D02*Y347030D01*
X223950Y346280D02*X227700Y350030D01*
Y352280D02*Y350030D01*
X223950Y352280D02*X227700D01*
X232200D02*Y346280D01*
Y348530D02*X232950Y349280D01*
X234450D01*
X235200Y348530D01*
Y346280D01*
X237000Y348530D02*Y347030D01*
Y348530D02*X237750Y349280D01*
X239250D01*
X240000Y348530D01*
Y347030D01*
X239250Y346280D02*X240000Y347030D01*
X237750Y346280D02*X239250D01*
X237000Y347030D02*X237750Y346280D01*
X241800Y352280D02*Y347030D01*
X242550Y346280D01*
X244800D02*X247050D01*
X244050Y347030D02*X244800Y346280D01*
X244050Y348530D02*Y347030D01*
Y348530D02*X244800Y349280D01*
X246300D01*
X247050Y348530D01*
X244050Y347780D02*X247050D01*
Y348530D02*Y347780D01*
X249600Y346280D02*X251850D01*
X252600Y347030D01*
X251850Y347780D02*X252600Y347030D01*
X249600Y347780D02*X251850D01*
X248850Y348530D02*X249600Y347780D01*
X248850Y348530D02*X249600Y349280D01*
X251850D01*
X252600Y348530D01*
X248850Y347030D02*X249600Y346280D01*
X257850Y352280D02*Y347030D01*
X258600Y346280D01*
X257100Y350030D02*X258600D01*
X260100Y348530D02*Y347030D01*
Y348530D02*X260850Y349280D01*
X262350D01*
X263100Y348530D01*
Y347030D01*
X262350Y346280D02*X263100Y347030D01*
X260850Y346280D02*X262350D01*
X260100Y347030D02*X260850Y346280D01*
X265650Y352280D02*Y347030D01*
X266400Y346280D01*
X264900Y350030D02*X266400D01*
X270150Y349280D02*X270900Y348530D01*
X268650Y349280D02*X270150D01*
X267900Y348530D02*X268650Y349280D01*
X267900Y348530D02*Y347030D01*
X268650Y346280D01*
X270900Y349280D02*Y347030D01*
X271650Y346280D01*
X268650D02*X270150D01*
X270900Y347030D01*
X273450Y352280D02*Y347030D01*
X274200Y346280D01*
G54D144*X0Y263780D02*X47244D01*
X55118Y255906D01*
X62992D01*
X70866Y263780D01*
X236220D01*
Y238188D01*
X228346Y230315D01*
Y222441D01*
X236220Y214567D01*
Y0D01*
X129922D01*
X122047Y7874D01*
X114173D01*
X106299Y0D01*
X0D01*
Y41338D01*
X7874Y49213D01*
Y57087D01*
X0Y64961D01*
Y263780D01*
G54D143*X31785Y-9500D02*X34785D01*
X35535Y-8750D01*
Y-7250D02*Y-8750D01*
X34785Y-6500D02*X35535Y-7250D01*
X32535Y-6500D02*X34785D01*
X32535Y-3500D02*Y-9500D01*
X31785Y-3500D02*X34785D01*
X35535Y-4250D01*
Y-5750D01*
X34785Y-6500D02*X35535Y-5750D01*
X37335Y-7250D02*Y-8750D01*
Y-7250D02*X38085Y-6500D01*
X39585D01*
X40335Y-7250D01*
Y-8750D01*
X39585Y-9500D02*X40335Y-8750D01*
X38085Y-9500D02*X39585D01*
X37335Y-8750D02*X38085Y-9500D01*
X44385Y-6500D02*X45135Y-7250D01*
X42885Y-6500D02*X44385D01*
X42135Y-7250D02*X42885Y-6500D01*
X42135Y-7250D02*Y-8750D01*
X42885Y-9500D01*
X45135Y-6500D02*Y-8750D01*
X45885Y-9500D01*
X42885D02*X44385D01*
X45135Y-8750D01*
X48435Y-7250D02*Y-9500D01*
Y-7250D02*X49185Y-6500D01*
X50685D01*
X47685D02*X48435Y-7250D01*
X55485Y-3500D02*Y-9500D01*
X54735D02*X55485Y-8750D01*
X53235Y-9500D02*X54735D01*
X52485Y-8750D02*X53235Y-9500D01*
X52485Y-7250D02*Y-8750D01*
Y-7250D02*X53235Y-6500D01*
X54735D01*
X55485Y-7250D01*
X59985D02*Y-8750D01*
Y-7250D02*X60735Y-6500D01*
X62235D01*
X62985Y-7250D01*
Y-8750D01*
X62235Y-9500D02*X62985Y-8750D01*
X60735Y-9500D02*X62235D01*
X59985Y-8750D02*X60735Y-9500D01*
X64785Y-6500D02*Y-8750D01*
X65535Y-9500D01*
X67035D01*
X67785Y-8750D01*
Y-6500D02*Y-8750D01*
X70335Y-3500D02*Y-8750D01*
X71085Y-9500D01*
X69585Y-5750D02*X71085D01*
X72585Y-3500D02*Y-8750D01*
X73335Y-9500D01*
X74835Y-5000D02*Y-5750D01*
Y-7250D02*Y-9500D01*
X77085Y-7250D02*Y-9500D01*
Y-7250D02*X77835Y-6500D01*
X78585D01*
X79335Y-7250D01*
Y-9500D01*
X76335Y-6500D02*X77085Y-7250D01*
X81885Y-9500D02*X84135D01*
X81135Y-8750D02*X81885Y-9500D01*
X81135Y-7250D02*Y-8750D01*
Y-7250D02*X81885Y-6500D01*
X83385D01*
X84135Y-7250D01*
X81135Y-8000D02*X84135D01*
Y-7250D02*Y-8000D01*
X88635Y-5000D02*Y-5750D01*
Y-7250D02*Y-9500D01*
X90885D02*X93135D01*
X93885Y-8750D01*
X93135Y-8000D02*X93885Y-8750D01*
X90885Y-8000D02*X93135D01*
X90135Y-7250D02*X90885Y-8000D01*
X90135Y-7250D02*X90885Y-6500D01*
X93135D01*
X93885Y-7250D01*
X90135Y-8750D02*X90885Y-9500D01*
X99135Y-3500D02*Y-8750D01*
X99885Y-9500D01*
X98385Y-5750D02*X99885D01*
X101385Y-3500D02*Y-9500D01*
Y-7250D02*X102135Y-6500D01*
X103635D01*
X104385Y-7250D01*
Y-9500D01*
X106935D02*X109185D01*
X106185Y-8750D02*X106935Y-9500D01*
X106185Y-7250D02*Y-8750D01*
Y-7250D02*X106935Y-6500D01*
X108435D01*
X109185Y-7250D01*
X106185Y-8000D02*X109185D01*
Y-7250D02*Y-8000D01*
X114435Y-6500D02*X116685D01*
X113685Y-7250D02*X114435Y-6500D01*
X113685Y-7250D02*Y-8750D01*
X114435Y-9500D01*
X116685D01*
X119235D02*X121485D01*
X118485Y-8750D02*X119235Y-9500D01*
X118485Y-7250D02*Y-8750D01*
Y-7250D02*X119235Y-6500D01*
X120735D01*
X121485Y-7250D01*
X118485Y-8000D02*X121485D01*
Y-7250D02*Y-8000D01*
X124035Y-7250D02*Y-9500D01*
Y-7250D02*X124785Y-6500D01*
X125535D01*
X126285Y-7250D01*
Y-9500D01*
X123285Y-6500D02*X124035Y-7250D01*
X128835Y-3500D02*Y-8750D01*
X129585Y-9500D01*
X128085Y-5750D02*X129585D01*
X131835Y-9500D02*X134085D01*
X131085Y-8750D02*X131835Y-9500D01*
X131085Y-7250D02*Y-8750D01*
Y-7250D02*X131835Y-6500D01*
X133335D01*
X134085Y-7250D01*
X131085Y-8000D02*X134085D01*
Y-7250D02*Y-8000D01*
X136635Y-7250D02*Y-9500D01*
Y-7250D02*X137385Y-6500D01*
X138885D01*
X135885D02*X136635Y-7250D01*
X140685Y-3500D02*Y-8750D01*
X141435Y-9500D01*
X142935Y-5000D02*Y-5750D01*
Y-7250D02*Y-9500D01*
X145185Y-7250D02*Y-9500D01*
Y-7250D02*X145935Y-6500D01*
X146685D01*
X147435Y-7250D01*
Y-9500D01*
X144435Y-6500D02*X145185Y-7250D01*
X149985Y-9500D02*X152235D01*
X149235Y-8750D02*X149985Y-9500D01*
X149235Y-7250D02*Y-8750D01*
Y-7250D02*X149985Y-6500D01*
X151485D01*
X152235Y-7250D01*
X149235Y-8000D02*X152235D01*
Y-7250D02*Y-8000D01*
X156735Y-7250D02*Y-8750D01*
Y-7250D02*X157485Y-6500D01*
X158985D01*
X159735Y-7250D01*
Y-8750D01*
X158985Y-9500D02*X159735Y-8750D01*
X157485Y-9500D02*X158985D01*
X156735Y-8750D02*X157485Y-9500D01*
X162285Y-4250D02*Y-9500D01*
Y-4250D02*X163035Y-3500D01*
X163785D01*
X161535Y-6500D02*X163035D01*
X168735Y-3500D02*Y-8750D01*
X169485Y-9500D01*
X167985Y-5750D02*X169485D01*
X170985Y-3500D02*Y-9500D01*
Y-7250D02*X171735Y-6500D01*
X173235D01*
X173985Y-7250D01*
Y-9500D01*
X175785Y-5000D02*Y-5750D01*
Y-7250D02*Y-9500D01*
X178035D02*X180285D01*
X181035Y-8750D01*
X180285Y-8000D02*X181035Y-8750D01*
X178035Y-8000D02*X180285D01*
X177285Y-7250D02*X178035Y-8000D01*
X177285Y-7250D02*X178035Y-6500D01*
X180285D01*
X181035Y-7250D01*
X177285Y-8750D02*X178035Y-9500D01*
X186285Y-7250D02*Y-11750D01*
X185535Y-6500D02*X186285Y-7250D01*
X187035Y-6500D01*
X188535D01*
X189285Y-7250D01*
Y-8750D01*
X188535Y-9500D02*X189285Y-8750D01*
X187035Y-9500D02*X188535D01*
X186285Y-8750D02*X187035Y-9500D01*
X193335Y-6500D02*X194085Y-7250D01*
X191835Y-6500D02*X193335D01*
X191085Y-7250D02*X191835Y-6500D01*
X191085Y-7250D02*Y-8750D01*
X191835Y-9500D01*
X194085Y-6500D02*Y-8750D01*
X194835Y-9500D01*
X191835D02*X193335D01*
X194085Y-8750D01*
X197385Y-3500D02*Y-8750D01*
X198135Y-9500D01*
X196635Y-5750D02*X198135D01*
X199635Y-3500D02*Y-9500D01*
Y-7250D02*X200385Y-6500D01*
X201885D01*
X202635Y-7250D01*
Y-9500D01*
X200750Y292280D02*Y286280D01*
X203000Y292280D02*X203750Y291530D01*
Y287030D01*
X203000Y286280D02*X203750Y287030D01*
X200000Y286280D02*X203000D01*
X200000Y292280D02*X203000D01*
X207800Y289280D02*X208550Y288530D01*
X206300Y289280D02*X207800D01*
X205550Y288530D02*X206300Y289280D01*
X205550Y288530D02*Y287030D01*
X206300Y286280D01*
X208550Y289280D02*Y287030D01*
X209300Y286280D01*
X206300D02*X207800D01*
X208550Y287030D01*
X211850Y292280D02*Y287030D01*
X212600Y286280D01*
X211100Y290030D02*X212600D01*
X214850Y286280D02*X217100D01*
X214100Y287030D02*X214850Y286280D01*
X214100Y288530D02*Y287030D01*
Y288530D02*X214850Y289280D01*
X216350D01*
X217100Y288530D01*
X214100Y287780D02*X217100D01*
Y288530D02*Y287780D01*
X218900Y290030D02*X219650D01*
X218900Y288530D02*X219650D01*
X224150Y292280D02*Y286280D01*
X226400Y288530D01*
X228650Y286280D01*
Y292280D02*Y286280D01*
X231200D02*X233450D01*
X230450Y287030D02*X231200Y286280D01*
X230450Y288530D02*Y287030D01*
Y288530D02*X231200Y289280D01*
X232700D01*
X233450Y288530D01*
X230450Y287780D02*X233450D01*
Y288530D02*Y287780D01*
X238250Y292280D02*Y286280D01*
X237500D02*X238250Y287030D01*
X236000Y286280D02*X237500D01*
X235250Y287030D02*X236000Y286280D01*
X235250Y288530D02*Y287030D01*
Y288530D02*X236000Y289280D01*
X237500D01*
X238250Y288530D01*
X243500Y286280D02*X245000D01*
X244250Y292280D02*Y286280D01*
X242750Y290780D02*X244250Y292280D01*
X246800Y291530D02*X247550Y292280D01*
X249800D01*
X250550Y291530D01*
Y290030D01*
X246800Y286280D02*X250550Y290030D01*
X246800Y286280D02*X250550D01*
X258050Y292280D02*X258800Y291530D01*
X255800Y292280D02*X258050D01*
X255050Y291530D02*X255800Y292280D01*
X255050Y291530D02*Y290030D01*
X255800Y289280D01*
X258050D01*
X258800Y288530D01*
Y287030D01*
X258050Y286280D02*X258800Y287030D01*
X255800Y286280D02*X258050D01*
X255050Y287030D02*X255800Y286280D01*
X261350D02*X263600D01*
X260600Y287030D02*X261350Y286280D01*
X260600Y288530D02*Y287030D01*
Y288530D02*X261350Y289280D01*
X262850D01*
X263600Y288530D01*
X260600Y287780D02*X263600D01*
Y288530D02*Y287780D01*
X266150Y288530D02*Y284030D01*
X265400Y289280D02*X266150Y288530D01*
X266900Y289280D01*
X268400D01*
X269150Y288530D01*
Y287030D01*
X268400Y286280D02*X269150Y287030D01*
X266900Y286280D02*X268400D01*
X266150Y287030D02*X266900Y286280D01*
X273650Y291530D02*X274400Y292280D01*
X276650D01*
X277400Y291530D01*
Y290030D01*
X273650Y286280D02*X277400Y290030D01*
X273650Y286280D02*X277400D01*
X279200Y287030D02*X279950Y286280D01*
X279200Y291530D02*Y287030D01*
Y291530D02*X279950Y292280D01*
X281450D01*
X282200Y291530D01*
Y287030D01*
X281450Y286280D02*X282200Y287030D01*
X279950Y286280D02*X281450D01*
X279200Y287780D02*X282200Y290780D01*
X284750Y286280D02*X286250D01*
X285500Y292280D02*Y286280D01*
X284000Y290780D02*X285500Y292280D01*
X288050Y291530D02*X288800Y292280D01*
X291050D01*
X291800Y291530D01*
Y290030D01*
X288050Y286280D02*X291800Y290030D01*
X288050Y286280D02*X291800D01*
X297050D02*X298550D01*
X297800Y292280D02*Y286280D01*
X296300Y290780D02*X297800Y292280D01*
X300350Y289280D02*X303350Y292280D01*
X300350Y289280D02*X304100D01*
X303350Y292280D02*Y286280D01*
X305900Y290030D02*X306650D01*
X305900Y288530D02*X306650D01*
X308450Y291530D02*X309200Y292280D01*
X311450D01*
X312200Y291530D01*
Y290030D01*
X308450Y286280D02*X312200Y290030D01*
X308450Y286280D02*X312200D01*
X314000Y287030D02*X314750Y286280D01*
X314000Y291530D02*Y287030D01*
Y291530D02*X314750Y292280D01*
X316250D01*
X317000Y291530D01*
Y287030D01*
X316250Y286280D02*X317000Y287030D01*
X314750Y286280D02*X316250D01*
X314000Y287780D02*X317000Y290780D01*
X318800Y290030D02*X319550D01*
X318800Y288530D02*X319550D01*
X321350Y291530D02*X322100Y292280D01*
X323600D01*
X324350Y291530D01*
Y287030D01*
X323600Y286280D02*X324350Y287030D01*
X322100Y286280D02*X323600D01*
X321350Y287030D02*X322100Y286280D01*
Y289280D02*X324350D01*
X326150Y286280D02*X329150Y289280D01*
Y291530D02*Y289280D01*
X328400Y292280D02*X329150Y291530D01*
X326900Y292280D02*X328400D01*
X326150Y291530D02*X326900Y292280D01*
X326150Y291530D02*Y290030D01*
X326900Y289280D01*
X329150D01*
X336650Y292280D02*X337400Y291530D01*
X334400Y292280D02*X336650D01*
X333650Y291530D02*X334400Y292280D01*
X333650Y291530D02*Y287030D01*
X334400Y286280D01*
X336650D01*
X337400Y287030D01*
Y288530D02*Y287030D01*
X336650Y289280D02*X337400Y288530D01*
X335150Y289280D02*X336650D01*
X339200Y292280D02*Y286280D01*
Y292280D02*X341450Y290030D01*
X343700Y292280D01*
Y286280D01*
X345500Y292280D02*X348500D01*
X347000D02*Y286280D01*
X353000Y292280D02*Y287030D01*
X353750Y286280D01*
X355250D01*
X356000Y287030D01*
Y292280D02*Y287030D01*
X357800Y292280D02*X360800D01*
X359300D02*Y286280D01*
X363350D02*X365600D01*
X362600Y287030D02*X363350Y286280D01*
X362600Y291530D02*Y287030D01*
Y291530D02*X363350Y292280D01*
X365600D01*
X200000Y306530D02*Y301280D01*
Y306530D02*X200750Y307280D01*
X203000D01*
X203750Y306530D01*
Y301280D01*
X200000Y304280D02*X203750D01*
X205550D02*Y302030D01*
X206300Y301280D01*
X207800D01*
X208550Y302030D01*
Y304280D02*Y302030D01*
X211100Y307280D02*Y302030D01*
X211850Y301280D01*
X210350Y305030D02*X211850D01*
X213350Y307280D02*Y301280D01*
Y303530D02*X214100Y304280D01*
X215600D01*
X216350Y303530D01*
Y301280D01*
X218150Y303530D02*Y302030D01*
Y303530D02*X218900Y304280D01*
X220400D01*
X221150Y303530D01*
Y302030D01*
X220400Y301280D02*X221150Y302030D01*
X218900Y301280D02*X220400D01*
X218150Y302030D02*X218900Y301280D01*
X223700Y303530D02*Y301280D01*
Y303530D02*X224450Y304280D01*
X225950D01*
X222950D02*X223700Y303530D01*
X227750Y305030D02*X228500D01*
X227750Y303530D02*X228500D01*
X233000Y307280D02*X236000D01*
X236750Y306530D01*
Y305030D01*
X236000Y304280D02*X236750Y305030D01*
X233750Y304280D02*X236000D01*
X233750Y307280D02*Y301280D01*
Y304280D02*X236750Y301280D01*
X238550Y303530D02*Y302030D01*
Y303530D02*X239300Y304280D01*
X240800D01*
X241550Y303530D01*
Y302030D01*
X240800Y301280D02*X241550Y302030D01*
X239300Y301280D02*X240800D01*
X238550Y302030D02*X239300Y301280D01*
X243350Y307280D02*Y301280D01*
Y302030D02*X244100Y301280D01*
X245600D01*
X246350Y302030D01*
Y303530D02*Y302030D01*
X245600Y304280D02*X246350Y303530D01*
X244100Y304280D02*X245600D01*
X243350Y303530D02*X244100Y304280D01*
X248900Y301280D02*X251150D01*
X248150Y302030D02*X248900Y301280D01*
X248150Y303530D02*Y302030D01*
Y303530D02*X248900Y304280D01*
X250400D01*
X251150Y303530D01*
X248150Y302780D02*X251150D01*
Y303530D02*Y302780D01*
X253700Y303530D02*Y301280D01*
Y303530D02*X254450Y304280D01*
X255950D01*
X252950D02*X253700Y303530D01*
X258500Y307280D02*Y302030D01*
X259250Y301280D01*
X257750Y305030D02*X259250D01*
X266450Y307280D02*X267200Y306530D01*
X264200Y307280D02*X266450D01*
X263450Y306530D02*X264200Y307280D01*
X263450Y306530D02*Y305030D01*
X264200Y304280D01*
X266450D01*
X267200Y303530D01*
Y302030D01*
X266450Y301280D02*X267200Y302030D01*
X264200Y301280D02*X266450D01*
X263450Y302030D02*X264200Y301280D01*
X269750Y303530D02*Y299030D01*
X269000Y304280D02*X269750Y303530D01*
X270500Y304280D01*
X272000D01*
X272750Y303530D01*
Y302030D01*
X272000Y301280D02*X272750Y302030D01*
X270500Y301280D02*X272000D01*
X269750Y302030D02*X270500Y301280D01*
X276800Y304280D02*X277550Y303530D01*
X275300Y304280D02*X276800D01*
X274550Y303530D02*X275300Y304280D01*
X274550Y303530D02*Y302030D01*
X275300Y301280D01*
X277550Y304280D02*Y302030D01*
X278300Y301280D01*
X275300D02*X276800D01*
X277550Y302030D01*
X280850Y303530D02*Y301280D01*
Y303530D02*X281600Y304280D01*
X282350D01*
X283100Y303530D01*
Y301280D01*
X280100Y304280D02*X280850Y303530D01*
X285650Y307280D02*Y302030D01*
X286400Y301280D01*
X284900Y305030D02*X286400D01*
X287900Y303530D02*Y302030D01*
Y303530D02*X288650Y304280D01*
X290150D01*
X290900Y303530D01*
Y302030D01*
X290150Y301280D02*X290900Y302030D01*
X288650Y301280D02*X290150D01*
X287900Y302030D02*X288650Y301280D01*
X293450Y303530D02*Y301280D01*
Y303530D02*X294200Y304280D01*
X294950D01*
X295700Y303530D01*
Y301280D01*
X292700Y304280D02*X293450Y303530D01*
X200000Y322280D02*X203000D01*
X201500D02*Y316280D01*
X204800Y320780D02*Y320030D01*
Y318530D02*Y316280D01*
X207050Y322280D02*Y317030D01*
X207800Y316280D01*
X206300Y320030D02*X207800D01*
X209300Y322280D02*Y317030D01*
X210050Y316280D01*
X212300D02*X214550D01*
X211550Y317030D02*X212300Y316280D01*
X211550Y318530D02*Y317030D01*
Y318530D02*X212300Y319280D01*
X213800D01*
X214550Y318530D01*
X211550Y317780D02*X214550D01*
Y318530D02*Y317780D01*
X216350Y320030D02*X217100D01*
X216350Y318530D02*X217100D01*
X221600Y317030D02*X222350Y316280D01*
X221600Y321530D02*X222350Y322280D01*
X221600Y321530D02*Y317030D01*
X224150Y319280D02*Y317030D01*
X224900Y316280D01*
X226400D01*
X227150Y317030D01*
Y319280D02*Y317030D01*
X229700Y318530D02*Y316280D01*
Y318530D02*X230450Y319280D01*
X231200D01*
X231950Y318530D01*
Y316280D01*
X228950Y319280D02*X229700Y318530D01*
X233750Y322280D02*Y316280D01*
Y318530D02*X236000Y316280D01*
X233750Y318530D02*X235250Y320030D01*
X238550Y318530D02*Y316280D01*
Y318530D02*X239300Y319280D01*
X240050D01*
X240800Y318530D01*
Y316280D01*
X237800Y319280D02*X238550Y318530D01*
X242600D02*Y317030D01*
Y318530D02*X243350Y319280D01*
X244850D01*
X245600Y318530D01*
Y317030D01*
X244850Y316280D02*X245600Y317030D01*
X243350Y316280D02*X244850D01*
X242600Y317030D02*X243350Y316280D01*
X247400Y319280D02*Y317030D01*
X248150Y316280D01*
X248900D01*
X249650Y317030D01*
Y319280D02*Y317030D01*
X250400Y316280D01*
X251150D01*
X251900Y317030D01*
Y319280D02*Y317030D01*
X254450Y318530D02*Y316280D01*
Y318530D02*X255200Y319280D01*
X255950D01*
X256700Y318530D01*
Y316280D01*
X253700Y319280D02*X254450Y318530D01*
X258500Y322280D02*X259250Y321530D01*
Y317030D01*
X258500Y316280D02*X259250Y317030D01*
X263750Y319280D02*X266750D01*
X271250Y322280D02*Y316280D01*
Y322280D02*X274250D01*
X271250Y319280D02*X273500D01*
X278300D02*X279050Y318530D01*
X276800Y319280D02*X278300D01*
X276050Y318530D02*X276800Y319280D01*
X276050Y318530D02*Y317030D01*
X276800Y316280D01*
X279050Y319280D02*Y317030D01*
X279800Y316280D01*
X276800D02*X278300D01*
X279050Y317030D01*
X281600Y322280D02*Y316280D01*
Y317030D02*X282350Y316280D01*
X283850D01*
X284600Y317030D01*
Y318530D02*Y317030D01*
X283850Y319280D02*X284600Y318530D01*
X282350Y319280D02*X283850D01*
X281600Y318530D02*X282350Y319280D01*
X287150Y318530D02*Y316280D01*
Y318530D02*X287900Y319280D01*
X289400D01*
X286400D02*X287150Y318530D01*
X291200Y320780D02*Y320030D01*
Y318530D02*Y316280D01*
X293450Y319280D02*X295700D01*
X292700Y318530D02*X293450Y319280D01*
X292700Y318530D02*Y317030D01*
X293450Y316280D01*
X295700D01*
X299750Y319280D02*X300500Y318530D01*
X298250Y319280D02*X299750D01*
X297500Y318530D02*X298250Y319280D01*
X297500Y318530D02*Y317030D01*
X298250Y316280D01*
X300500Y319280D02*Y317030D01*
X301250Y316280D01*
X298250D02*X299750D01*
X300500Y317030D01*
X303800Y322280D02*Y317030D01*
X304550Y316280D01*
X303050Y320030D02*X304550D01*
X306050Y320780D02*Y320030D01*
Y318530D02*Y316280D01*
X307550Y318530D02*Y317030D01*
Y318530D02*X308300Y319280D01*
X309800D01*
X310550Y318530D01*
Y317030D01*
X309800Y316280D02*X310550Y317030D01*
X308300Y316280D02*X309800D01*
X307550Y317030D02*X308300Y316280D01*
X313100Y318530D02*Y316280D01*
Y318530D02*X313850Y319280D01*
X314600D01*
X315350Y318530D01*
Y316280D01*
X312350Y319280D02*X313100Y318530D01*
X320600Y322280D02*Y316280D01*
X322850Y322280D02*X323600Y321530D01*
Y317030D01*
X322850Y316280D02*X323600Y317030D01*
X319850Y316280D02*X322850D01*
X319850Y322280D02*X322850D01*
X326150Y318530D02*Y316280D01*
Y318530D02*X326900Y319280D01*
X328400D01*
X325400D02*X326150Y318530D01*
X332450Y319280D02*X333200Y318530D01*
X330950Y319280D02*X332450D01*
X330200Y318530D02*X330950Y319280D01*
X330200Y318530D02*Y317030D01*
X330950Y316280D01*
X333200Y319280D02*Y317030D01*
X333950Y316280D01*
X330950D02*X332450D01*
X333200Y317030D01*
X335750Y319280D02*Y317030D01*
X336500Y316280D01*
X337250D01*
X338000Y317030D01*
Y319280D02*Y317030D01*
X338750Y316280D01*
X339500D01*
X340250Y317030D01*
Y319280D02*Y317030D01*
X342050Y320780D02*Y320030D01*
Y318530D02*Y316280D01*
X344300Y318530D02*Y316280D01*
Y318530D02*X345050Y319280D01*
X345800D01*
X346550Y318530D01*
Y316280D01*
X343550Y319280D02*X344300Y318530D01*
X350600Y319280D02*X351350Y318530D01*
X349100Y319280D02*X350600D01*
X348350Y318530D02*X349100Y319280D01*
X348350Y318530D02*Y317030D01*
X349100Y316280D01*
X350600D01*
X351350Y317030D01*
X348350Y314780D02*X349100Y314030D01*
X350600D01*
X351350Y314780D01*
Y319280D02*Y314780D01*
M02*
