G04 start of page 9 for group -4079 idx -4079 *
G04 Title: (unknown), topsilk *
G04 Creator: pcb 1.99z *
G04 CreationDate: Thu 09 Sep 2010 15:44:30 GMT UTC *
G04 For: rbarlow *
G04 Format: Gerber/RS-274X *
G04 PCB-Dimensions: 236220 263780 *
G04 PCB-Coordinate-Origin: lower left *
%MOIN*%
%FSLAX25Y25*%
%LNFRONTSILK*%
%ADD11C,0.0200*%
%ADD12C,0.0100*%
%ADD13C,0.0079*%
%ADD69C,0.0080*%
G54D13*X57874Y102955D02*Y99412D01*
X167520Y131301D02*X168307Y132088D01*
Y149018D01*
X167323Y150002D01*
X162008Y118898D02*Y137994D01*
X162598Y138584D01*
X187401Y188192D02*X189961Y185632D01*
X161811Y171262D02*X162205Y170868D01*
X187401Y200396D02*Y188192D01*
X167913Y183072D02*X167323Y182482D01*
X161811Y191340D02*Y171262D01*
X167913Y187207D02*Y183072D01*
X178150Y118309D02*Y123822D01*
X57874Y99412D02*X53937Y95475D01*
X178150Y123820D02*X177362Y124607D01*
G54D12*X209252Y193506D02*X202559D01*
G54D13*X60972Y202167D02*X65592D01*
X60972D02*X60202Y202937D01*
Y204477D02*Y202937D01*
Y204477D02*X60972Y205247D01*
X65592D01*
X66362Y204477D02*X65592Y205247D01*
X66362Y204477D02*Y202937D01*
X65592Y202167D02*X66362Y202937D01*
X60202Y207096D02*X65592D01*
X66362Y207866D01*
Y209406D02*Y207866D01*
Y209406D02*X65592Y210176D01*
X60202D02*X65592D01*
X60202Y215106D02*Y212026D01*
Y213566D02*X66362D01*
X60399Y143275D02*Y141735D01*
Y142505D02*X66559D01*
Y143275D02*Y141735D01*
X60399Y145124D02*X66559D01*
X60399D02*X61169D01*
X65019Y148974D01*
X60399D02*X66559D01*
X166469Y183037D02*Y181463D01*
X163453Y183037D02*Y181463D01*
X166469Y171226D02*Y169652D01*
X163453Y171226D02*Y169652D01*
X194524Y183730D02*X196098D01*
X194524Y186746D02*X196098D01*
G54D12*X174421Y186399D02*X175621Y183799D01*
X174421Y203999D02*Y186399D01*
Y203999D02*X185421D01*
Y186399D01*
X184221Y183799D02*X185421Y186399D01*
G54D11*X175621Y183799D02*X184221D01*
G54D69*X194489Y190160D02*X195275D01*
X194489Y195670D02*X195275D01*
G54D13*X181431Y213618D02*Y212044D01*
X178415Y213618D02*Y212044D01*
G54D12*X227150Y198340D02*X231150D01*
X229150Y200340D02*Y196340D01*
X196150Y198340D02*X200150D01*
X233150Y216340D02*G75*G03X233150Y216340I-20000J0D01*G01*
X209457Y249016D02*G75*G03X209457Y249016I12000J0D01*G01*
X214657D02*G75*G03X214657Y249016I6800J0D01*G01*
X114370Y231693D02*X173426D01*
Y263189D02*Y231693D01*
X114370Y263189D02*Y231693D01*
X160137Y196931D02*X138637D01*
X112137D02*X133637D01*
X160137Y176931D02*Y196931D01*
X112137Y176931D02*X160137D01*
X112137Y196931D02*Y176931D01*
X133637Y196931D02*G75*G03X138637Y196931I2500J0D01*G01*
X137056Y226538D02*X139056Y228538D01*
X150436D01*
Y216738D01*
X137056D02*X150436D01*
X137056Y226538D02*Y216738D01*
X139746Y222638D02*G75*G03X139746Y222638I4000J0D01*G01*
G54D13*X145799Y106926D02*Y105352D01*
X142783Y106926D02*Y105352D01*
X137925Y106927D02*Y105353D01*
X134909Y106927D02*Y105353D01*
X129658Y106926D02*Y105352D01*
X126642Y106926D02*Y105352D01*
X118240Y106926D02*Y105352D01*
X115224Y106926D02*Y105352D01*
G54D12*X112137Y131970D02*Y111970D01*
X160137D01*
Y131970D01*
X112137D02*X133637D01*
X160137D02*X138637D01*
X133637D02*G75*G03X138637Y131970I2500J0D01*G01*
G54D13*X158106Y109253D02*Y106891D01*
X156532Y108072D02*X158106Y106891D01*
X156532Y108072D02*X158106Y109253D01*
X156532Y108072D02*X158106D01*
G54D12*X76474Y201926D02*X89274D01*
X76474Y215826D02*Y201926D01*
Y215826D02*X89274D01*
Y201926D01*
X1367Y167352D02*X56142D01*
Y231352D01*
X1367D02*X56142D01*
X2764Y249016D02*G75*G03X2764Y249016I12000J0D01*G01*
X7964D02*G75*G03X7964Y249016I6800J0D01*G01*
X89274Y198865D02*X76474D01*
X89274Y184965D02*Y198865D01*
X76474Y184965D02*X89274D01*
X76474Y198865D02*Y184965D01*
G54D13*X175430Y158006D02*X177004D01*
X175430Y154990D02*X177004D01*
X171493Y125855D02*X173067D01*
X171493Y128871D02*X173067D01*
X166469Y151541D02*Y149967D01*
X163453Y151541D02*Y149967D01*
X166469Y139729D02*Y138155D01*
X163453Y139729D02*Y138155D01*
G54D69*X170080Y123425D02*X170866D01*
X170080Y117915D02*X170866D01*
G54D12*X160137Y175277D02*X138637D01*
X112137D02*X133637D01*
X160137Y155277D02*Y175277D01*
X112137Y155277D02*X160137D01*
X112137Y175277D02*Y155277D01*
X133637Y175277D02*G75*G03X138637Y175277I2500J0D01*G01*
X160137Y153624D02*X138637D01*
X112137D02*X133637D01*
X160137Y133624D02*Y153624D01*
X112137Y133624D02*X160137D01*
X112137Y153624D02*Y133624D01*
X133637Y153624D02*G75*G03X138637Y153624I2500J0D01*G01*
G54D13*X159682Y96723D02*X161256D01*
X159682Y99739D02*X161256D01*
G54D12*X216301Y127013D02*X218301Y125013D01*
Y113633D01*
X206501D02*X218301D01*
X206501Y127013D02*Y113633D01*
Y127013D02*X216301D01*
X212401Y124323D02*G75*G03X212401Y124323I0J-4000D01*G01*
X231262Y127013D02*X233262Y125013D01*
Y113633D01*
X221462D02*X233262D01*
X221462Y127013D02*Y113633D01*
Y127013D02*X231262D01*
X227362Y124323D02*G75*G03X227362Y124323I0J-4000D01*G01*
X184625Y122628D02*X182025Y121428D01*
X202225Y122628D02*X184625D01*
X202225Y111628D02*Y122628D01*
X184625Y111628D02*X202225D01*
X182025Y112828D02*X184625Y111628D01*
G54D11*X182025Y121428D02*Y112828D01*
G54D69*X185040Y124215D02*X185826D01*
X185040Y129725D02*X185826D01*
G54D12*X200919Y180545D02*X187919D01*
X169919D02*X182919D01*
X200919Y161545D02*Y180545D01*
X169919Y161545D02*X200919D01*
X169919Y180545D02*Y161545D01*
X182919Y180545D02*G75*G03X187919Y180545I2500J0D01*G01*
X200919Y151411D02*X187919D01*
X169919D02*X182919D01*
X200919Y132411D02*Y151411D01*
X169919Y132411D02*X200919D01*
X169919Y151411D02*Y132411D01*
X182919Y151411D02*G75*G03X187919Y151411I2500J0D01*G01*
G54D69*X189174Y153742D02*X189960D01*
X189174Y159252D02*X189960D01*
G54D12*X204131Y190512D02*Y131456D01*
X235627D01*
X204131Y190512D02*X235627D01*
X149827Y34190D02*X163727D01*
Y46990D02*Y34190D01*
X149827Y46990D02*X163727D01*
X149827D02*Y34190D01*
G54D13*X159485Y87864D02*X161059D01*
X159485Y90880D02*X161059D01*
G54D12*X165210Y64633D02*X179110D01*
X165210D02*Y51833D01*
X179110D01*
Y64633D02*Y51833D01*
X165210Y81562D02*X179110D01*
X165210D02*Y68762D01*
X179110D01*
Y81562D02*Y68762D01*
X165210Y46990D02*X179110D01*
X165210D02*Y34190D01*
X179110D01*
Y46990D02*Y34190D01*
X149827Y51833D02*X163727D01*
Y64633D02*Y51833D01*
X149827Y64633D02*X163727D01*
X149827D02*Y51833D01*
Y68762D02*X163727D01*
Y81562D02*Y68762D01*
X149827Y81562D02*X163727D01*
X149827D02*Y68762D01*
X138029Y62361D02*X136029Y64361D01*
Y75741D02*Y64361D01*
Y75741D02*X147829D01*
Y62361D01*
X138029D02*X147829D01*
X141929Y65051D02*G75*G03X141929Y65051I0J4000D01*G01*
G54D13*X55775Y54958D02*Y53384D01*
X58791Y54958D02*Y53384D01*
X56102Y44060D02*X58464D01*
X57283Y42486D02*X58464Y44060D01*
X57283Y42486D02*X56102Y44060D01*
X57283D02*Y42486D01*
X33799Y44675D02*Y38249D01*
X46515Y44675D02*Y38249D01*
G54D12*X2764Y14764D02*G75*G03X2764Y14764I12000J0D01*G01*
X7964D02*G75*G03X7964Y14764I6800J0D01*G01*
X209457D02*G75*G03X209457Y14764I12000J0D01*G01*
X214657D02*G75*G03X214657Y14764I6800J0D01*G01*
X180865Y30227D02*X235640D01*
X180865Y94227D02*Y30227D01*
Y94227D02*X235640D01*
G54D13*X140784Y80187D02*X142358D01*
X140784Y83203D02*X142358D01*
G54D69*X107875Y65751D02*Y66537D01*
X113385Y65751D02*Y66537D01*
G54D12*X75393Y79137D02*Y29531D01*
Y79137D02*X99803D01*
Y29531D01*
X75393D02*X99803D01*
X99192Y32011D02*G75*G03X99192Y32011I-610J0D01*G01*
G54D13*X142359Y30384D02*X143933D01*
X142359Y33400D02*X143933D01*
X113910Y37242D02*Y35668D01*
X110894Y37242D02*Y35668D01*
G54D12*X106219Y49805D02*G75*G03X106219Y49805I5000J0D01*G01*
X145829Y54572D02*X147829Y52572D01*
Y41192D01*
X136029D02*X147829D01*
X136029Y54572D02*Y41192D01*
Y54572D02*X145829D01*
X141929Y51882D02*G75*G03X141929Y51882I0J-4000D01*G01*
G54D13*X19721Y66076D02*X21295D01*
X19721Y63060D02*X21295D01*
G54D12*X2797Y85356D02*X52797D01*
Y95356D02*Y85356D01*
X2797Y95356D02*X52797D01*
X2797D02*Y85356D01*
X12797Y95356D02*Y85356D01*
X2797Y95356D02*X12797D01*
X12717Y70002D02*X52717D01*
Y80002D02*Y70002D01*
X12717Y80002D02*X52717D01*
X12717D02*Y70002D01*
X22717Y80002D02*Y70002D01*
X12717Y80002D02*X22717D01*
X1367Y98455D02*X56142D01*
Y162455D01*
X1367D02*X56142D01*
X58480Y98628D02*X69080D01*
X58480D02*Y86028D01*
X69080D01*
Y98628D02*Y86028D01*
X58480Y92328D02*X69080D01*
X63780D02*Y89328D01*
X69227Y130144D02*X82027D01*
X69227Y144044D02*Y130144D01*
Y144044D02*X82027D01*
Y130144D01*
G54D13*X167158Y156732D02*X168328D01*
X166768Y157122D02*X167158Y156732D01*
X166768Y159462D02*Y157122D01*
Y159462D02*X167158Y159852D01*
X168328D01*
X170434D02*X170824Y159462D01*
X169654Y159852D02*X170434D01*
X169264Y159462D02*X169654Y159852D01*
X169264Y159462D02*Y157122D01*
X169654Y156732D01*
X170434Y158292D02*X170824Y157902D01*
X169264Y158292D02*X170434D01*
X169654Y156732D02*X170434D01*
X170824Y157122D01*
Y157902D02*Y157122D01*
X197045Y157125D02*X198215D01*
X196655Y157515D02*X197045Y157125D01*
X196655Y159855D02*Y157515D01*
Y159855D02*X197045Y160245D01*
X198215D01*
X199151Y159855D02*X199541Y160245D01*
X200711D01*
X201101Y159855D01*
Y159075D01*
X199151Y157125D02*X201101Y159075D01*
X199151Y157125D02*X201101D01*
X161256Y195876D02*X162816D01*
X163206Y195486D01*
Y194706D01*
X162816Y194316D02*X163206Y194706D01*
X161646Y194316D02*X162816D01*
X161646Y195876D02*Y192756D01*
Y194316D02*X163206Y192756D01*
X164142Y195486D02*X164532Y195876D01*
X165702D01*
X166092Y195486D01*
Y194706D01*
X164142Y192756D02*X166092Y194706D01*
X164142Y192756D02*X166092D01*
X167029D02*X168979Y194706D01*
Y195876D02*Y194706D01*
X167029Y195876D02*X168979D01*
X186972Y205127D02*X188532D01*
X188922Y204737D01*
Y203957D01*
X188532Y203567D02*X188922Y203957D01*
X187362Y203567D02*X188532D01*
X187362Y205127D02*Y202007D01*
Y203567D02*X188922Y202007D01*
X189858Y204737D02*X190248Y205127D01*
X191418D01*
X191808Y204737D01*
Y203957D01*
X189858Y202007D02*X191808Y203957D01*
X189858Y202007D02*X191808D01*
X192745Y204737D02*X193135Y205127D01*
X194305D01*
X194695Y204737D01*
Y203957D01*
X192745Y202007D02*X194695Y203957D01*
X192745Y202007D02*X194695D01*
X169499Y197690D02*X173059D01*
X169499Y199025D02*X169944Y199470D01*
X172614D01*
X173059Y199025D02*X172614Y199470D01*
X173059Y199025D02*Y197245D01*
X169499Y199025D02*Y197245D01*
X171279Y200538D02*X169499Y202318D01*
X171279Y202763D02*Y200538D01*
X169499Y202318D02*X173059D01*
X169246Y184926D02*Y182196D01*
X169636Y181806D01*
X170416D01*
X170806Y182196D01*
Y184926D02*Y182196D01*
X171742Y181806D02*X173692Y183756D01*
Y184926D02*Y183756D01*
X171742Y184926D02*X173692D01*
X171028Y214554D02*X173028D01*
X173528Y214054D01*
Y213054D01*
X173028Y212554D02*X173528Y213054D01*
X171528Y212554D02*X173028D01*
X171528Y214554D02*Y210554D01*
Y212554D02*X173528Y210554D01*
X175229D02*X176229D01*
X175729Y214554D02*Y210554D01*
X174729Y213554D02*X175729Y214554D01*
X194751Y233308D02*X196251D01*
X194251Y233808D02*X194751Y233308D01*
X194251Y236808D02*Y233808D01*
Y236808D02*X194751Y237308D01*
X196251D01*
X197952Y233308D02*X198952D01*
X198452Y237308D02*Y233308D01*
X197452Y236308D02*X198452Y237308D01*
X222597Y195766D02*X223932D01*
Y192651D01*
X223487Y192206D02*X223932Y192651D01*
X223042Y192206D02*X223487D01*
X222597Y192651D02*X223042Y192206D01*
X225000Y195321D02*X225445Y195766D01*
X226780D01*
X227225Y195321D01*
Y194431D01*
X225000Y192206D02*X227225Y194431D01*
X225000Y192206D02*X227225D01*
X211075Y191614D02*X212410D01*
X210630Y192059D02*X211075Y191614D01*
X210630Y194729D02*Y192059D01*
Y194729D02*X211075Y195174D01*
X212410D01*
X213923Y191614D02*X214813D01*
X214368Y195174D02*Y191614D01*
X213478Y194284D02*X214368Y195174D01*
X215882Y194729D02*X216327Y195174D01*
X217662D01*
X218107Y194729D01*
Y193839D01*
X215882Y191614D02*X218107Y193839D01*
X215882Y191614D02*X218107D01*
X163225Y191349D02*X164785D01*
X165175Y190959D01*
Y190179D01*
X164785Y189789D02*X165175Y190179D01*
X163615Y189789D02*X164785D01*
X163615Y191349D02*Y188229D01*
Y189789D02*X165175Y188229D01*
X166111Y190959D02*X166501Y191349D01*
X167671D01*
X168061Y190959D01*
Y190179D01*
X166111Y188229D02*X168061Y190179D01*
X166111Y188229D02*X168061D01*
X168998Y188619D02*X169388Y188229D01*
X168998Y189399D02*Y188619D01*
Y189399D02*X169388Y189789D01*
X170168D01*
X170558Y189399D01*
Y188619D01*
X170168Y188229D02*X170558Y188619D01*
X169388Y188229D02*X170168D01*
X168998Y190179D02*X169388Y189789D01*
X168998Y190959D02*Y190179D01*
Y190959D02*X169388Y191349D01*
X170168D01*
X170558Y190959D01*
Y190179D01*
X170168Y189789D02*X170558Y190179D01*
X138296Y215342D02*Y211342D01*
X140296D01*
X141497Y213342D02*X142997D01*
X141497Y211342D02*X143497D01*
X141497Y215342D02*Y211342D01*
Y215342D02*X143497D01*
X145198D02*Y211342D01*
X146698Y215342D02*X147198Y214842D01*
Y211842D01*
X146698Y211342D02*X147198Y211842D01*
X144698Y211342D02*X146698D01*
X144698Y215342D02*X146698D01*
X148899Y211342D02*X149899D01*
X149399Y215342D02*Y211342D01*
X148399Y214342D02*X149399Y215342D01*
X106889Y191028D02*X110389D01*
X110889Y191528D01*
Y192528D02*Y191528D01*
Y192528D02*X110389Y193028D01*
X106889D02*X110389D01*
X106889Y195729D02*X107389Y196229D01*
X106889Y195729D02*Y194729D01*
X107389Y194229D02*X106889Y194729D01*
X107389Y194229D02*X110389D01*
X110889Y194729D01*
X108889Y195729D02*X109389Y196229D01*
X108889Y195729D02*Y194229D01*
X110889Y195729D02*Y194729D01*
Y195729D02*X110389Y196229D01*
X109389D02*X110389D01*
X109072Y234101D02*Y232601D01*
Y234101D02*X112572D01*
X113072Y233601D02*X112572Y234101D01*
X113072Y233601D02*Y233101D01*
X112572Y232601D02*X113072Y233101D01*
Y236802D02*Y235802D01*
X109072Y236302D02*X113072D01*
X110072Y235302D02*X109072Y236302D01*
X197789Y155596D02*Y152866D01*
X198179Y152476D01*
X198959D01*
X199349Y152866D01*
Y155596D02*Y152866D01*
X200285Y154036D02*X201845Y155596D01*
X200285Y154036D02*X202235D01*
X201845Y155596D02*Y152476D01*
X180078Y114517D02*Y113347D01*
X179688Y112957D02*X180078Y113347D01*
X177348Y112957D02*X179688D01*
X177348D02*X176958Y113347D01*
Y114517D02*Y113347D01*
Y117013D02*Y115453D01*
X178518D01*
X178128Y115843D01*
Y116623D02*Y115843D01*
Y116623D02*X178518Y117013D01*
X179688D01*
X180078Y116623D02*X179688Y117013D01*
X180078Y116623D02*Y115843D01*
X179688Y115453D02*X180078Y115843D01*
X163378Y126795D02*Y125235D01*
Y126795D02*X163768Y127185D01*
X164548D01*
X164938Y126795D02*X164548Y127185D01*
X164938Y126795D02*Y125625D01*
X163378D02*X166498D01*
X164938D02*X166498Y127185D01*
X163768Y128121D02*X163378Y128511D01*
Y129681D02*Y128511D01*
Y129681D02*X163768Y130071D01*
X164548D01*
X166498Y128121D02*X164548Y130071D01*
X166498D02*Y128121D01*
X166108Y131008D02*X166498Y131398D01*
X163768Y131008D02*X166108D01*
X163768D02*X163378Y131398D01*
Y132178D02*Y131398D01*
Y132178D02*X163768Y132568D01*
X166108D01*
X166498Y132178D02*X166108Y132568D01*
X166498Y132178D02*Y131398D01*
X165718Y131008D02*X164158Y132568D01*
X185539Y110329D02*Y106329D01*
X187039Y110329D02*X187539Y109829D01*
Y106829D01*
X187039Y106329D02*X187539Y106829D01*
X185039Y106329D02*X187039D01*
X185039Y110329D02*X187039D01*
X188740Y109829D02*X189240Y110329D01*
X190240D01*
X190740Y109829D01*
Y106829D01*
X190240Y106329D02*X190740Y106829D01*
X189240Y106329D02*X190240D01*
X188740Y106829D02*X189240Y106329D01*
Y108329D02*X190740D01*
X193437Y125276D02*X194772D01*
X192992Y125721D02*X193437Y125276D01*
X192992Y128391D02*Y125721D01*
Y128391D02*X193437Y128836D01*
X194772D01*
X196285Y125276D02*X197175D01*
X196730Y128836D02*Y125276D01*
X195840Y127946D02*X196730Y128836D01*
X198689Y125276D02*X199579D01*
X199134Y128836D02*Y125276D01*
X198244Y127946D02*X199134Y128836D01*
X168755Y112875D02*X170090D01*
X168310Y113320D02*X168755Y112875D01*
X168310Y115990D02*Y113320D01*
Y115990D02*X168755Y116435D01*
X170090D01*
X171158Y115990D02*X171603Y116435D01*
X172493D01*
X172938Y115990D01*
Y113320D01*
X172493Y112875D02*X172938Y113320D01*
X171603Y112875D02*X172493D01*
X171158Y113320D02*X171603Y112875D01*
Y114655D02*X172938D01*
X142342Y93302D02*Y91302D01*
Y93302D02*X142842Y93802D01*
X143842D01*
X144342Y93302D02*X143842Y93802D01*
X144342Y93302D02*Y91802D01*
X142342D02*X146342D01*
X144342D02*X146342Y93802D01*
X142842Y95003D02*X142342Y95503D01*
Y96503D02*Y95503D01*
Y96503D02*X142842Y97003D01*
X145842D01*
X146342Y96503D02*X145842Y97003D01*
X146342Y96503D02*Y95503D01*
X145842Y95003D02*X146342Y95503D01*
X144342Y97003D02*Y95503D01*
X142842Y98204D02*X142342Y98704D01*
Y99704D02*Y98704D01*
Y99704D02*X142842Y100204D01*
X145842D01*
X146342Y99704D02*X145842Y100204D01*
X146342Y99704D02*Y98704D01*
X145842Y98204D02*X146342Y98704D01*
X144342Y100204D02*Y98704D01*
X134265Y93698D02*Y91698D01*
Y93698D02*X134765Y94198D01*
X135765D01*
X136265Y93698D02*X135765Y94198D01*
X136265Y93698D02*Y92198D01*
X134265D02*X138265D01*
X136265D02*X138265Y94198D01*
X134765Y95399D02*X134265Y95899D01*
Y96899D02*Y95899D01*
Y96899D02*X134765Y97399D01*
X137765D01*
X138265Y96899D02*X137765Y97399D01*
X138265Y96899D02*Y95899D01*
X137765Y95399D02*X138265Y95899D01*
X136265Y97399D02*Y95899D01*
X138265Y100100D02*Y99100D01*
X134265Y99600D02*X138265D01*
X135265Y98600D02*X134265Y99600D01*
X125927Y92786D02*Y90786D01*
Y92786D02*X126427Y93286D01*
X127427D01*
X127927Y92786D02*X127427Y93286D01*
X127927Y92786D02*Y91286D01*
X125927D02*X129927D01*
X127927D02*X129927Y93286D01*
X126427Y94487D02*X125927Y94987D01*
Y96487D02*Y94987D01*
Y96487D02*X126427Y96987D01*
X127427D01*
X129927Y94487D02*X127427Y96987D01*
X129927D02*Y94487D01*
X125927Y99688D02*X126427Y100188D01*
X125927Y99688D02*Y98688D01*
X126427Y98188D02*X125927Y98688D01*
X126427Y98188D02*X129427D01*
X129927Y98688D01*
X127927Y99688D02*X128427Y100188D01*
X127927Y99688D02*Y98188D01*
X129927Y99688D02*Y98688D01*
Y99688D02*X129427Y100188D01*
X128427D02*X129427D01*
X114707Y92982D02*Y90982D01*
Y92982D02*X115207Y93482D01*
X116207D01*
X116707Y92982D02*X116207Y93482D01*
X116707Y92982D02*Y91482D01*
X114707D02*X118707D01*
X116707D02*X118707Y93482D01*
X115207Y94683D02*X114707Y95183D01*
Y96683D02*Y95183D01*
Y96683D02*X115207Y97183D01*
X116207D01*
X118707Y94683D02*X116207Y97183D01*
X118707D02*Y94683D01*
X115207Y98384D02*X114707Y98884D01*
Y99884D02*Y98884D01*
Y99884D02*X115207Y100384D01*
X118207D01*
X118707Y99884D02*X118207Y100384D01*
X118707Y99884D02*Y98884D01*
X118207Y98384D02*X118707Y98884D01*
X116707Y100384D02*Y98884D01*
X135987Y88767D02*X137987D01*
X138487Y88267D01*
Y87267D01*
X137987Y86767D02*X138487Y87267D01*
X136487Y86767D02*X137987D01*
X136487Y88767D02*Y84767D01*
Y86767D02*X138487Y84767D01*
X140188D02*X141188D01*
X140688Y88767D02*Y84767D01*
X139688Y87767D02*X140688Y88767D01*
X142389Y85267D02*X142889Y84767D01*
X142389Y88267D02*Y85267D01*
Y88267D02*X142889Y88767D01*
X143889D01*
X144389Y88267D01*
Y85267D01*
X143889Y84767D02*X144389Y85267D01*
X142889Y84767D02*X143889D01*
X142389Y85767D02*X144389Y87767D01*
X146090Y84767D02*X147090D01*
X146590Y88767D02*Y84767D01*
X145590Y87767D02*X146590Y88767D01*
X153618Y86412D02*Y82852D01*
X154953Y86412D02*X155398Y85967D01*
Y83297D01*
X154953Y82852D02*X155398Y83297D01*
X153173Y82852D02*X154953D01*
X153173Y86412D02*X154953D01*
X156911Y82852D02*X157801D01*
X157356Y86412D02*Y82852D01*
X156466Y85522D02*X157356Y86412D01*
X158870Y83297D02*X159315Y82852D01*
X158870Y85967D02*Y83297D01*
Y85967D02*X159315Y86412D01*
X160205D01*
X160650Y85967D01*
Y83297D01*
X160205Y82852D02*X160650Y83297D01*
X159315Y82852D02*X160205D01*
X158870Y83742D02*X160650Y85522D01*
X161719Y86412D02*X163499D01*
X161719D02*Y84632D01*
X162164Y85077D01*
X163054D01*
X163499Y84632D01*
Y83297D01*
X163054Y82852D02*X163499Y83297D01*
X162164Y82852D02*X163054D01*
X161719Y83297D02*X162164Y82852D01*
X152595Y105323D02*Y102203D01*
X154155D01*
X155091Y103763D02*X156261D01*
X155091Y102203D02*X156651D01*
X155091Y105323D02*Y102203D01*
Y105323D02*X156651D01*
X157978D02*Y102203D01*
X159148Y105323D02*X159538Y104933D01*
Y102593D01*
X159148Y102203D02*X159538Y102593D01*
X157588Y102203D02*X159148D01*
X157588Y105323D02*X159148D01*
X160475Y104933D02*X160865Y105323D01*
X162035D01*
X162425Y104933D01*
Y104153D01*
X160475Y102203D02*X162425Y104153D01*
X160475Y102203D02*X162425D01*
X131214Y39766D02*X134774D01*
Y41546D02*Y39766D01*
X132994Y43949D02*Y42614D01*
X134774Y44394D02*Y42614D01*
X131214D02*X134774D01*
X131214Y44394D02*Y42614D01*
Y45908D02*X134774D01*
X131214Y47243D02*X131659Y47688D01*
X134329D01*
X134774Y47243D02*X134329Y47688D01*
X134774Y47243D02*Y45463D01*
X131214Y47243D02*Y45463D01*
X134774Y50092D02*Y49202D01*
X131214Y49647D02*X134774D01*
X132104Y48757D02*X131214Y49647D01*
X134329Y51161D02*X134774Y51606D01*
X131659Y51161D02*X134329D01*
X131659D02*X131214Y51606D01*
Y52496D02*Y51606D01*
Y52496D02*X131659Y52941D01*
X134329D01*
X134774Y52496D02*X134329Y52941D01*
X134774Y52496D02*Y51606D01*
X133884Y51161D02*X132104Y52941D01*
X131659Y54010D02*X131214Y54455D01*
Y55790D02*Y54455D01*
Y55790D02*X131659Y56235D01*
X132549D01*
X134774Y54010D02*X132549Y56235D01*
X134774D02*Y54010D01*
X131199Y61828D02*X134759D01*
Y63608D02*Y61828D01*
X132979Y66011D02*Y64676D01*
X134759Y66456D02*Y64676D01*
X131199D02*X134759D01*
X131199Y66456D02*Y64676D01*
Y67970D02*X134759D01*
X131199Y69305D02*X131644Y69750D01*
X134314D01*
X134759Y69305D02*X134314Y69750D01*
X134759Y69305D02*Y67525D01*
X131199Y69305D02*Y67525D01*
X134759Y72154D02*Y71264D01*
X131199Y71709D02*X134759D01*
X132089Y70819D02*X131199Y71709D01*
X134314Y73223D02*X134759Y73668D01*
X131644Y73223D02*X134314D01*
X131644D02*X131199Y73668D01*
Y74558D02*Y73668D01*
Y74558D02*X131644Y75003D01*
X134314D01*
X134759Y74558D02*X134314Y75003D01*
X134759Y74558D02*Y73668D01*
X133869Y73223D02*X132089Y75003D01*
X134759Y77407D02*Y76517D01*
X131199Y76962D02*X134759D01*
X132089Y76072D02*X131199Y76962D01*
X161409Y112620D02*Y111060D01*
Y112620D02*X161799Y113010D01*
X162579D01*
X162969Y112620D02*X162579Y113010D01*
X162969Y112620D02*Y111450D01*
X161409D02*X164529D01*
X162969D02*X164529Y113010D01*
Y115116D02*Y114336D01*
X161409Y114726D02*X164529D01*
X162189Y113946D02*X161409Y114726D01*
X164529Y116053D02*X162969Y117613D01*
X161799D02*X162969D01*
X161409Y117223D02*X161799Y117613D01*
X161409Y117223D02*Y116443D01*
X161799Y116053D02*X161409Y116443D01*
X161799Y116053D02*X162579D01*
X162969Y116443D01*
Y117613D02*Y116443D01*
X166104Y101867D02*X167884D01*
X168329Y101422D01*
Y100532D01*
X167884Y100087D02*X168329Y100532D01*
X166549Y100087D02*X167884D01*
X166549Y101867D02*Y98307D01*
Y100087D02*X168329Y98307D01*
X169842D02*X170732D01*
X170287Y101867D02*Y98307D01*
X169397Y100977D02*X170287Y101867D01*
X171801Y98752D02*X172246Y98307D01*
X171801Y101422D02*Y98752D01*
Y101422D02*X172246Y101867D01*
X173136D01*
X173581Y101422D01*
Y98752D01*
X173136Y98307D02*X173581Y98752D01*
X172246Y98307D02*X173136D01*
X171801Y99197D02*X173581Y100977D01*
X174650Y98307D02*X176875Y100532D01*
Y101867D02*Y100532D01*
X174650Y101867D02*X176875D01*
X165713Y93600D02*X167493D01*
X167938Y93155D01*
Y92265D01*
X167493Y91820D02*X167938Y92265D01*
X166158Y91820D02*X167493D01*
X166158Y93600D02*Y90040D01*
Y91820D02*X167938Y90040D01*
X169451D02*X170341D01*
X169896Y93600D02*Y90040D01*
X169006Y92710D02*X169896Y93600D01*
X171410Y90485D02*X171855Y90040D01*
X171410Y93155D02*Y90485D01*
Y93155D02*X171855Y93600D01*
X172745D01*
X173190Y93155D01*
Y90485D01*
X172745Y90040D02*X173190Y90485D01*
X171855Y90040D02*X172745D01*
X171410Y90930D02*X173190Y92710D01*
X175594Y93600D02*X176039Y93155D01*
X174704Y93600D02*X175594D01*
X174259Y93155D02*X174704Y93600D01*
X174259Y93155D02*Y90485D01*
X174704Y90040D01*
X175594Y91820D02*X176039Y91375D01*
X174259Y91820D02*X175594D01*
X174704Y90040D02*X175594D01*
X176039Y90485D01*
Y91375D02*Y90485D01*
X167257Y86768D02*Y82768D01*
X168757Y86768D02*X169257Y86268D01*
Y83268D01*
X168757Y82768D02*X169257Y83268D01*
X166757Y82768D02*X168757D01*
X166757Y86768D02*X168757D01*
X170958Y82768D02*X171958D01*
X171458Y86768D02*Y82768D01*
X170458Y85768D02*X171458Y86768D01*
X173159Y83268D02*X173659Y82768D01*
X173159Y86268D02*Y83268D01*
Y86268D02*X173659Y86768D01*
X174659D01*
X175159Y86268D01*
Y83268D01*
X174659Y82768D02*X175159Y83268D01*
X173659Y82768D02*X174659D01*
X173159Y83768D02*X175159Y85768D01*
X176360Y84768D02*X178360Y86768D01*
X176360Y84768D02*X178860D01*
X178360Y86768D02*Y82768D01*
X202753Y109860D02*Y106740D01*
X204313D01*
X205249Y108300D02*X206419D01*
X205249Y106740D02*X206809D01*
X205249Y109860D02*Y106740D01*
Y109860D02*X206809D01*
X208136D02*Y106740D01*
X209306Y109860D02*X209696Y109470D01*
Y107130D01*
X209306Y106740D02*X209696Y107130D01*
X207746Y106740D02*X209306D01*
X207746Y109860D02*X209306D01*
X211023Y106740D02*X211803D01*
X211413Y109860D02*Y106740D01*
X210633Y109080D02*X211413Y109860D01*
X212740Y107130D02*X213130Y106740D01*
X212740Y109470D02*Y107130D01*
Y109470D02*X213130Y109860D01*
X213910D01*
X214300Y109470D01*
Y107130D01*
X213910Y106740D02*X214300Y107130D01*
X213130Y106740D02*X213910D01*
X212740Y107520D02*X214300Y109080D01*
X215236Y108300D02*X216796Y109860D01*
X215236Y108300D02*X217186D01*
X216796Y109860D02*Y106740D01*
X171083Y51162D02*Y48042D01*
X172253Y51162D02*X172643Y50772D01*
Y48432D01*
X172253Y48042D02*X172643Y48432D01*
X170693Y48042D02*X172253D01*
X170693Y51162D02*X172253D01*
X173969Y48042D02*X174749D01*
X174359Y51162D02*Y48042D01*
X173579Y50382D02*X174359Y51162D01*
X175686Y48432D02*X176076Y48042D01*
X175686Y50772D02*Y48432D01*
Y50772D02*X176076Y51162D01*
X176856D01*
X177246Y50772D01*
Y48432D01*
X176856Y48042D02*X177246Y48432D01*
X176076Y48042D02*X176856D01*
X175686Y48822D02*X177246Y50382D01*
X178573Y48042D02*X179353D01*
X178963Y51162D02*Y48042D01*
X178183Y50382D02*X178963Y51162D01*
X220470Y109858D02*Y106738D01*
X222030D01*
X222966Y108298D02*X224136D01*
X222966Y106738D02*X224526D01*
X222966Y109858D02*Y106738D01*
Y109858D02*X224526D01*
X225853D02*Y106738D01*
X227023Y109858D02*X227413Y109468D01*
Y107128D01*
X227023Y106738D02*X227413Y107128D01*
X225463Y106738D02*X227023D01*
X225463Y109858D02*X227023D01*
X228740Y106738D02*X229520D01*
X229130Y109858D02*Y106738D01*
X228350Y109078D02*X229130Y109858D01*
X230457Y107128D02*X230847Y106738D01*
X230457Y109468D02*Y107128D01*
Y109468D02*X230847Y109858D01*
X231627D01*
X232017Y109468D01*
Y107128D01*
X231627Y106738D02*X232017Y107128D01*
X230847Y106738D02*X231627D01*
X230457Y107518D02*X232017Y109078D01*
X232953Y109858D02*X234513D01*
X232953D02*Y108298D01*
X233343Y108688D01*
X234123D01*
X234513Y108298D01*
Y107128D01*
X234123Y106738D02*X234513Y107128D01*
X233343Y106738D02*X234123D01*
X232953Y107128D02*X233343Y106738D01*
X60646Y53612D02*Y51612D01*
Y53612D02*X61146Y54112D01*
X62146D01*
X62646Y53612D02*X62146Y54112D01*
X62646Y53612D02*Y52112D01*
X60646D02*X64646D01*
X62646D02*X64646Y54112D01*
Y56813D02*Y55813D01*
X60646Y56313D02*X64646D01*
X61646Y55313D02*X60646Y56313D01*
X64146Y58014D02*X64646Y58514D01*
X61146Y58014D02*X64146D01*
X61146D02*X60646Y58514D01*
Y59514D02*Y58514D01*
Y59514D02*X61146Y60014D01*
X64146D01*
X64646Y59514D02*X64146Y60014D01*
X64646Y59514D02*Y58514D01*
X63646Y58014D02*X61646Y60014D01*
X60646Y63215D02*Y61215D01*
X62646D01*
X62146Y61715D01*
Y62715D02*Y61715D01*
Y62715D02*X62646Y63215D01*
X64146D01*
X64646Y62715D02*X64146Y63215D01*
X64646Y62715D02*Y61715D01*
X64146Y61215D02*X64646Y61715D01*
X14799Y61599D02*X16799D01*
X17299Y61099D01*
Y60099D01*
X16799Y59599D02*X17299Y60099D01*
X15299Y59599D02*X16799D01*
X15299Y61599D02*Y57599D01*
Y59599D02*X17299Y57599D01*
X19000D02*X20000D01*
X19500Y61599D02*Y57599D01*
X18500Y60599D02*X19500Y61599D01*
X21201Y58099D02*X21701Y57599D01*
X21201Y61099D02*Y58099D01*
Y61099D02*X21701Y61599D01*
X22701D01*
X23201Y61099D01*
Y58099D01*
X22701Y57599D02*X23201Y58099D01*
X21701Y57599D02*X22701D01*
X21201Y58599D02*X23201Y60599D01*
X24402Y61099D02*X24902Y61599D01*
X25902D01*
X26402Y61099D01*
Y58099D01*
X25902Y57599D02*X26402Y58099D01*
X24902Y57599D02*X25902D01*
X24402Y58099D02*X24902Y57599D01*
Y59599D02*X26402D01*
X154942Y51089D02*Y47969D01*
X156112Y51089D02*X156502Y50699D01*
Y48359D01*
X156112Y47969D02*X156502Y48359D01*
X154552Y47969D02*X156112D01*
X154552Y51089D02*X156112D01*
X157828Y47969D02*X158608D01*
X158218Y51089D02*Y47969D01*
X157438Y50309D02*X158218Y51089D01*
X159545Y48359D02*X159935Y47969D01*
X159545Y50699D02*Y48359D01*
Y50699D02*X159935Y51089D01*
X160715D01*
X161105Y50699D01*
Y48359D01*
X160715Y47969D02*X161105Y48359D01*
X159935Y47969D02*X160715D01*
X159545Y48749D02*X161105Y50309D01*
X162042Y48359D02*X162432Y47969D01*
X162042Y50699D02*Y48359D01*
Y50699D02*X162432Y51089D01*
X163212D01*
X163602Y50699D01*
Y48359D01*
X163212Y47969D02*X163602Y48359D01*
X162432Y47969D02*X163212D01*
X162042Y48749D02*X163602Y50309D01*
X34768Y58254D02*Y54254D01*
Y58254D02*X36768D01*
X34768Y56254D02*X36268D01*
X38469Y54254D02*X39469D01*
X38969Y58254D02*Y54254D01*
X37969Y57254D02*X38969Y58254D01*
X40670Y54754D02*X41170Y54254D01*
X40670Y57754D02*Y54754D01*
Y57754D02*X41170Y58254D01*
X42170D01*
X42670Y57754D01*
Y54754D01*
X42170Y54254D02*X42670Y54754D01*
X41170Y54254D02*X42170D01*
X40670Y55254D02*X42670Y57254D01*
X43871Y54754D02*X44371Y54254D01*
X43871Y57754D02*Y54754D01*
Y57754D02*X44371Y58254D01*
X45371D01*
X45871Y57754D01*
Y54754D01*
X45371Y54254D02*X45871Y54754D01*
X44371Y54254D02*X45371D01*
X43871Y55254D02*X45871Y57254D01*
X137169Y28725D02*X139169D01*
X139669Y28225D01*
Y27225D01*
X139169Y26725D02*X139669Y27225D01*
X137669Y26725D02*X139169D01*
X137669Y28725D02*Y24725D01*
Y26725D02*X139669Y24725D01*
X141370D02*X142370D01*
X141870Y28725D02*Y24725D01*
X140870Y27725D02*X141870Y28725D01*
X143571Y25225D02*X144071Y24725D01*
X143571Y28225D02*Y25225D01*
Y28225D02*X144071Y28725D01*
X145071D01*
X145571Y28225D01*
Y25225D01*
X145071Y24725D02*X145571Y25225D01*
X144071Y24725D02*X145071D01*
X143571Y25725D02*X145571Y27725D01*
X146772Y28225D02*X147272Y28725D01*
X148772D01*
X149272Y28225D01*
Y27225D01*
X146772Y24725D02*X149272Y27225D01*
X146772Y24725D02*X149272D01*
X119568Y32673D02*Y31173D01*
X119068Y30673D02*X119568Y31173D01*
X116068Y30673D02*X119068D01*
X116068D02*X115568Y31173D01*
Y32673D02*Y31173D01*
X119568Y35374D02*Y34374D01*
X115568Y34874D02*X119568D01*
X116568Y33874D02*X115568Y34874D01*
X119068Y36575D02*X119568Y37075D01*
X116068Y36575D02*X119068D01*
X116068D02*X115568Y37075D01*
Y38075D02*Y37075D01*
Y38075D02*X116068Y38575D01*
X119068D01*
X119568Y38075D02*X119068Y38575D01*
X119568Y38075D02*Y37075D01*
X118568Y36575D02*X116568Y38575D01*
X119568Y41276D02*Y40276D01*
X115568Y40776D02*X119568D01*
X116568Y39776D02*X115568Y40776D01*
X117127Y47624D02*Y47124D01*
X119627Y44624D01*
Y43624D01*
X117127Y44624D02*Y43624D01*
Y44624D02*X119627Y47124D01*
Y47624D02*Y47124D01*
X121328Y43624D02*X122328D01*
X121828Y47624D02*Y43624D01*
X120828Y46624D02*X121828Y47624D01*
X123529Y44124D02*X124029Y43624D01*
X123529Y47124D02*Y44124D01*
Y47124D02*X124029Y47624D01*
X125029D01*
X125529Y47124D01*
Y44124D01*
X125029Y43624D02*X125529Y44124D01*
X124029Y43624D02*X125029D01*
X123529Y44624D02*X125529Y46624D01*
X126730Y44124D02*X127230Y43624D01*
X126730Y47124D02*Y44124D01*
Y47124D02*X127230Y47624D01*
X128230D01*
X128730Y47124D01*
Y44124D01*
X128230Y43624D02*X128730Y44124D01*
X127230Y43624D02*X128230D01*
X126730Y44624D02*X128730Y46624D01*
X60645Y29297D02*X64645D01*
Y31297D02*Y29297D01*
X62645Y33998D02*Y32498D01*
X64645Y34498D02*Y32498D01*
X60645D02*X64645D01*
X60645Y34498D02*Y32498D01*
Y36199D02*X64645D01*
X60645Y37699D02*X61145Y38199D01*
X64145D01*
X64645Y37699D02*X64145Y38199D01*
X64645Y37699D02*Y35699D01*
X60645Y37699D02*Y35699D01*
X64645Y40900D02*Y39900D01*
X60645Y40400D02*X64645D01*
X61645Y39400D02*X60645Y40400D01*
X64145Y42101D02*X64645Y42601D01*
X61145Y42101D02*X64145D01*
X61145D02*X60645Y42601D01*
Y43601D02*Y42601D01*
Y43601D02*X61145Y44101D01*
X64145D01*
X64645Y43601D02*X64145Y44101D01*
X64645Y43601D02*Y42601D01*
X63645Y42101D02*X61645Y44101D01*
X61145Y45302D02*X60645Y45802D01*
Y46802D02*Y45802D01*
Y46802D02*X61145Y47302D01*
X64145D01*
X64645Y46802D02*X64145Y47302D01*
X64645Y46802D02*Y45802D01*
X64145Y45302D02*X64645Y45802D01*
X62645Y47302D02*Y45802D01*
X75590Y28159D02*Y25429D01*
X75980Y25039D01*
X76760D01*
X77150Y25429D01*
Y28159D02*Y25429D01*
X78476Y25039D02*X79256D01*
X78866Y28159D02*Y25039D01*
X78086Y27379D02*X78866Y28159D01*
X80193Y25429D02*X80583Y25039D01*
X80193Y27769D02*Y25429D01*
Y27769D02*X80583Y28159D01*
X81363D01*
X81753Y27769D01*
Y25429D01*
X81363Y25039D02*X81753Y25429D01*
X80583Y25039D02*X81363D01*
X80193Y25819D02*X81753Y27379D01*
X83080Y25039D02*X83860D01*
X83470Y28159D02*Y25039D01*
X82690Y27379D02*X83470Y28159D01*
X70373Y86764D02*X70763Y87154D01*
X70373Y86764D02*Y85594D01*
X70763Y85204D02*X70373Y85594D01*
X70763Y85204D02*X71543D01*
X71933Y85594D01*
Y86764D02*Y85594D01*
Y86764D02*X72323Y87154D01*
X73103D01*
X73493Y86764D02*X73103Y87154D01*
X73493Y86764D02*Y85594D01*
X73103Y85204D02*X73493Y85594D01*
X73103Y88090D02*X70763Y90430D01*
X70373Y91367D02*X73493D01*
Y92927D02*Y91367D01*
X71933Y95034D02*Y93864D01*
X73493Y95424D02*Y93864D01*
X70373D02*X73493D01*
X70373Y95424D02*Y93864D01*
Y96751D02*X73493D01*
X70373Y97921D02*X70763Y98311D01*
X73103D01*
X73493Y97921D02*X73103Y98311D01*
X73493Y97921D02*Y96361D01*
X70373Y97921D02*Y96361D01*
X73493Y100417D02*Y99637D01*
X70373Y100027D02*X73493D01*
X71153Y99247D02*X70373Y100027D01*
X58025Y79687D02*Y78352D01*
X54910D02*X58025D01*
X54465Y78797D02*X54910Y78352D01*
X54465Y79242D02*Y78797D01*
X54910Y79687D02*X54465Y79242D01*
Y76839D02*Y75949D01*
Y76394D02*X58025D01*
X57135Y77284D02*X58025Y76394D01*
X54910Y74880D02*X54465Y74435D01*
X54910Y74880D02*X57580D01*
X58025Y74435D01*
Y73545D01*
X57580Y73100D01*
X54910D02*X57580D01*
X54465Y73545D02*X54910Y73100D01*
X54465Y74435D02*Y73545D01*
X55355Y74880D02*X57135Y73100D01*
X54910Y72031D02*X54465Y71586D01*
X54910Y72031D02*X57580D01*
X58025Y71586D01*
Y70696D01*
X57580Y70251D01*
X54910D02*X57580D01*
X54465Y70696D02*X54910Y70251D01*
X54465Y71586D02*Y70696D01*
X55355Y72031D02*X57135Y70251D01*
X118622Y62609D02*Y61274D01*
X118177Y60829D02*X118622Y61274D01*
X115507Y60829D02*X118177D01*
X115507D02*X115062Y61274D01*
Y62609D02*Y61274D01*
X118622Y65012D02*Y64122D01*
X115062Y64567D02*X118622D01*
X115952Y63677D02*X115062Y64567D01*
X118177Y66081D02*X118622Y66526D01*
X115507Y66081D02*X118177D01*
X115507D02*X115062Y66526D01*
Y67416D02*Y66526D01*
Y67416D02*X115507Y67861D01*
X118177D01*
X118622Y67416D02*X118177Y67861D01*
X118622Y67416D02*Y66526D01*
X117732Y66081D02*X115952Y67861D01*
X118177Y68930D02*X118622Y69375D01*
X115507Y68930D02*X118177D01*
X115507D02*X115062Y69375D01*
Y70265D02*Y69375D01*
Y70265D02*X115507Y70710D01*
X118177D01*
X118622Y70265D02*X118177Y70710D01*
X118622Y70265D02*Y69375D01*
X117732Y68930D02*X115952Y70710D01*
X152492Y32440D02*Y28440D01*
X153992Y32440D02*X154492Y31940D01*
Y28940D01*
X153992Y28440D02*X154492Y28940D01*
X151992Y28440D02*X153992D01*
X151992Y32440D02*X153992D01*
X156193Y28440D02*X157193D01*
X156693Y32440D02*Y28440D01*
X155693Y31440D02*X156693Y32440D01*
X158394Y28940D02*X158894Y28440D01*
X158394Y31940D02*Y28940D01*
Y31940D02*X158894Y32440D01*
X159894D01*
X160394Y31940D01*
Y28940D01*
X159894Y28440D02*X160394Y28940D01*
X158894Y28440D02*X159894D01*
X158394Y29440D02*X160394Y31440D01*
X161595Y31940D02*X162095Y32440D01*
X163095D01*
X163595Y31940D01*
Y28940D01*
X163095Y28440D02*X163595Y28940D01*
X162095Y28440D02*X163095D01*
X161595Y28940D02*X162095Y28440D01*
Y30440D02*X163595D01*
X167454Y32562D02*Y28562D01*
X168954Y32562D02*X169454Y32062D01*
Y29062D01*
X168954Y28562D02*X169454Y29062D01*
X166954Y28562D02*X168954D01*
X166954Y32562D02*X168954D01*
X171155Y28562D02*X172155D01*
X171655Y32562D02*Y28562D01*
X170655Y31562D02*X171655Y32562D01*
X173356Y29062D02*X173856Y28562D01*
X173356Y32062D02*Y29062D01*
Y32062D02*X173856Y32562D01*
X174856D01*
X175356Y32062D01*
Y29062D01*
X174856Y28562D02*X175356Y29062D01*
X173856Y28562D02*X174856D01*
X173356Y29562D02*X175356Y31562D01*
X176557Y32062D02*X177057Y32562D01*
X178557D01*
X179057Y32062D01*
Y31062D01*
X176557Y28562D02*X179057Y31062D01*
X176557Y28562D02*X179057D01*
X181222Y99553D02*X182722D01*
Y96053D01*
X182222Y95553D02*X182722Y96053D01*
X181722Y95553D02*X182222D01*
X181222Y96053D02*X181722Y95553D01*
X184423D02*X185423D01*
X184923Y99553D02*Y95553D01*
X183923Y98553D02*X184923Y99553D01*
X186624Y96053D02*X187124Y95553D01*
X186624Y99053D02*Y96053D01*
Y99053D02*X187124Y99553D01*
X188124D01*
X188624Y99053D01*
Y96053D01*
X188124Y95553D02*X188624Y96053D01*
X187124Y95553D02*X188124D01*
X186624Y96553D02*X188624Y98553D01*
X190325Y95553D02*X191325D01*
X190825Y99553D02*Y95553D01*
X189825Y98553D02*X190825Y99553D01*
X58284Y105343D02*X58674Y105733D01*
X58284Y105343D02*Y104173D01*
X58674Y103783D02*X58284Y104173D01*
X58674Y103783D02*X59454D01*
X59844Y104173D01*
Y105343D02*Y104173D01*
Y105343D02*X60234Y105733D01*
X61014D01*
X61404Y105343D02*X61014Y105733D01*
X61404Y105343D02*Y104173D01*
X61014Y103783D02*X61404Y104173D01*
X61014Y106669D02*X58674Y109009D01*
X58284Y111116D02*Y109946D01*
Y111116D02*X61014D01*
X61404Y110726D02*X61014Y111116D01*
X61404Y110726D02*Y110336D01*
X61014Y109946D02*X61404Y110336D01*
X58674Y112053D02*X58284Y112443D01*
Y113223D02*Y112443D01*
Y113223D02*X58674Y113613D01*
X61014D01*
X61404Y113223D02*X61014Y113613D01*
X61404Y113223D02*Y112443D01*
X61014Y112053D02*X61404Y112443D01*
X59844Y113613D02*Y112443D01*
X57859Y181428D02*X58304Y181873D01*
X57859Y181428D02*Y180093D01*
X58304Y179648D02*X57859Y180093D01*
X58304Y179648D02*X59194D01*
X59639Y180093D01*
Y181428D02*Y180093D01*
Y181428D02*X60084Y181873D01*
X60974D01*
X61419Y181428D02*X60974Y181873D01*
X61419Y181428D02*Y180093D01*
X60974Y179648D02*X61419Y180093D01*
X60974Y182941D02*X58304Y185611D01*
X57859Y188460D02*X58304Y188905D01*
X57859Y188460D02*Y187125D01*
X58304Y186680D02*X57859Y187125D01*
X58304Y186680D02*X59194D01*
X59639Y187125D01*
Y188460D02*Y187125D01*
Y188460D02*X60084Y188905D01*
X60974D01*
X61419Y188460D02*X60974Y188905D01*
X61419Y188460D02*Y187125D01*
X60974Y186680D02*X61419Y187125D01*
X60974Y189974D02*X58304Y192644D01*
X57859Y195048D02*Y193713D01*
Y195048D02*X60974D01*
X61419Y194603D02*X60974Y195048D01*
X61419Y194603D02*Y194158D01*
X60974Y193713D02*X61419Y194158D01*
X58304Y196117D02*X57859Y196562D01*
Y197897D02*Y196562D01*
Y197897D02*X58304Y198342D01*
X59194D01*
X61419Y196117D02*X59194Y198342D01*
X61419D02*Y196117D01*
X70947Y187193D02*X71447Y187693D01*
X70947Y187193D02*Y185693D01*
X71447Y185193D02*X70947Y185693D01*
X71447Y185193D02*X72447D01*
X72947Y185693D01*
Y187193D02*Y185693D01*
Y187193D02*X73447Y187693D01*
X74447D01*
X74947Y187193D02*X74447Y187693D01*
X74947Y187193D02*Y185693D01*
X74447Y185193D02*X74947Y185693D01*
X74447Y188894D02*X71447Y191894D01*
X70947Y193595D02*X74947D01*
X70947Y195095D02*X71447Y195595D01*
X74447D01*
X74947Y195095D02*X74447Y195595D01*
X74947Y195095D02*Y193095D01*
X70947Y195095D02*Y193095D01*
X74947Y196796D02*X72447Y199296D01*
X70947D02*X72447D01*
X70947D02*Y196796D01*
X70946Y204123D02*X71446Y204623D01*
X70946Y204123D02*Y202623D01*
X71446Y202123D02*X70946Y202623D01*
X71446Y202123D02*X72446D01*
X72946Y202623D01*
Y204123D02*Y202623D01*
Y204123D02*X73446Y204623D01*
X74446D01*
X74946Y204123D02*X74446Y204623D01*
X74946Y204123D02*Y202623D01*
X74446Y202123D02*X74946Y202623D01*
X74446Y205824D02*X71446Y208824D01*
X70946Y210525D02*X74946D01*
X70946Y212025D02*X71446Y212525D01*
X74446D01*
X74946Y212025D02*X74446Y212525D01*
X74946Y212025D02*Y210025D01*
X70946Y212025D02*Y210025D01*
X74446Y213726D02*X74946Y214226D01*
X73446Y213726D02*X74446D01*
X73446D02*X72946Y214226D01*
Y215226D02*Y214226D01*
Y215226D02*X73446Y215726D01*
X74446D01*
X74946Y215226D02*X74446Y215726D01*
X74946Y215226D02*Y214226D01*
X72446Y213726D02*X72946Y214226D01*
X71446Y213726D02*X72446D01*
X71446D02*X70946Y214226D01*
Y215226D02*Y214226D01*
Y215226D02*X71446Y215726D01*
X72446D01*
X72946Y215226D02*X72446Y215726D01*
X57860Y118434D02*X58305Y118879D01*
X57860Y118434D02*Y117099D01*
X58305Y116654D02*X57860Y117099D01*
X58305Y116654D02*X59195D01*
X59640Y117099D01*
Y118434D02*Y117099D01*
Y118434D02*X60085Y118879D01*
X60975D01*
X61420Y118434D02*X60975Y118879D01*
X61420Y118434D02*Y117099D01*
X60975Y116654D02*X61420Y117099D01*
X60975Y119947D02*X58305Y122617D01*
X57860Y125466D02*X58305Y125911D01*
X57860Y125466D02*Y124131D01*
X58305Y123686D02*X57860Y124131D01*
X58305Y123686D02*X59195D01*
X59640Y124131D01*
Y125466D02*Y124131D01*
Y125466D02*X60085Y125911D01*
X60975D01*
X61420Y125466D02*X60975Y125911D01*
X61420Y125466D02*Y124131D01*
X60975Y123686D02*X61420Y124131D01*
X60975Y126980D02*X58305Y129650D01*
X57860Y132054D02*Y130719D01*
Y132054D02*X60975D01*
X61420Y131609D02*X60975Y132054D01*
X61420Y131609D02*Y131164D01*
X60975Y130719D02*X61420Y131164D01*
Y134458D02*Y133568D01*
X57860Y134013D02*X61420D01*
X58750Y133123D02*X57860Y134013D01*
X64377Y129365D02*X64822Y129810D01*
X64377Y129365D02*Y128030D01*
X64822Y127585D02*X64377Y128030D01*
X64822Y127585D02*X65712D01*
X66157Y128030D01*
Y129365D02*Y128030D01*
Y129365D02*X66602Y129810D01*
X67492D01*
X67937Y129365D02*X67492Y129810D01*
X67937Y129365D02*Y128030D01*
X67492Y127585D02*X67937Y128030D01*
X67492Y130878D02*X64822Y133548D01*
X64377Y135062D02*X67937D01*
X64377Y136397D02*X64822Y136842D01*
X67492D01*
X67937Y136397D02*X67492Y136842D01*
X67937Y136397D02*Y134617D01*
X64377Y136397D02*Y134617D01*
X67937Y137911D02*X66157Y139691D01*
X64822D02*X66157D01*
X64377Y139246D02*X64822Y139691D01*
X64377Y139246D02*Y138356D01*
X64822Y137911D02*X64377Y138356D01*
X64822Y137911D02*X65712D01*
X66157Y138356D01*
Y139691D02*Y138356D01*
X106890Y169572D02*X110390D01*
X110890Y170072D01*
Y171072D02*Y170072D01*
Y171072D02*X110390Y171572D01*
X106890D02*X110390D01*
X106890Y174773D02*Y172773D01*
X108890D01*
X108390Y173273D01*
Y174273D02*Y173273D01*
Y174273D02*X108890Y174773D01*
X110390D01*
X110890Y174273D02*X110390Y174773D01*
X110890Y174273D02*Y173273D01*
X110390Y172773D02*X110890Y173273D01*
X106889Y148116D02*X110389D01*
X110889Y148616D01*
Y149616D02*Y148616D01*
Y149616D02*X110389Y150116D01*
X106889D02*X110389D01*
X107389Y151317D02*X106889Y151817D01*
Y152817D02*Y151817D01*
Y152817D02*X107389Y153317D01*
X110389D01*
X110889Y152817D02*X110389Y153317D01*
X110889Y152817D02*Y151817D01*
X110389Y151317D02*X110889Y151817D01*
X108889Y153317D02*Y151817D01*
X106693Y125872D02*X110193D01*
X110693Y126372D01*
Y127372D02*Y126372D01*
Y127372D02*X110193Y127872D01*
X106693D02*X110193D01*
X107193Y129073D02*X106693Y129573D01*
Y131073D02*Y129573D01*
Y131073D02*X107193Y131573D01*
X108193D01*
X110693Y129073D02*X108193Y131573D01*
X110693D02*Y129073D01*
M02*
