G04 start of page 9 for group -4079 idx -4079 *
G04 Title: (unknown), topsilk *
G04 Creator: pcb 20110918 *
G04 CreationDate: Wed 12 Sep 2012 14:20:39 GMT UTC *
G04 For: rob *
G04 Format: Gerber/RS-274X *
G04 PCB-Dimensions: 236220 263780 *
G04 PCB-Coordinate-Origin: lower left *
%MOIN*%
%FSLAX25Y25*%
%LNTOPSILK*%
%ADD115C,0.0200*%
%ADD114C,0.0080*%
%ADD113C,0.0082*%
%ADD112C,0.0100*%
%ADD111C,0.0079*%
G54D111*X187401Y188192D02*X189961Y185632D01*
X187401Y200396D02*Y188192D01*
X178150Y123820D02*X177362Y124607D01*
G54D112*X209252Y193506D02*X202559D01*
G54D111*X161811Y171262D02*X162205Y170868D01*
X167913Y183072D02*X167323Y182482D01*
X161811Y191340D02*Y171262D01*
X167913Y187207D02*Y183072D01*
G54D112*X155624Y204392D02*X162288D01*
X166012Y200668D01*
Y204196D01*
Y200668D02*X162484D01*
G54D111*X57874Y102955D02*Y99412D01*
X167520Y131301D02*X168307Y132088D01*
Y149018D01*
X167323Y150002D01*
X162008Y118898D02*Y137994D01*
X162598Y138584D01*
X178150Y118309D02*Y123822D01*
X57874Y99412D02*X53937Y95475D01*
X60972Y202167D02*X65592D01*
X60972D02*X60202Y202937D01*
Y204477D02*Y202937D01*
Y204477D02*X60972Y205247D01*
X65592D01*
X66362Y204477D02*X65592Y205247D01*
X66362Y204477D02*Y202937D01*
X65592Y202167D02*X66362Y202937D01*
X60202Y207095D02*X65592D01*
X66362Y207865D01*
Y209405D02*Y207865D01*
Y209405D02*X65592Y210175D01*
X60202D02*X65592D01*
X60202Y215103D02*Y212023D01*
Y213563D02*X66362D01*
X60399Y143275D02*Y141735D01*
Y142505D02*X66559D01*
Y143275D02*Y141735D01*
X60399Y145123D02*X66559D01*
X60399D02*X61169D01*
X65019Y148973D01*
X60399D02*X66559D01*
X176230Y232335D02*X183390D01*
X176230Y235020D02*Y231440D01*
Y235020D02*X177125Y235915D01*
X178915D01*
X179810Y235020D02*X178915Y235915D01*
X179810Y235020D02*Y232335D01*
X180705Y238063D02*X182495D01*
X180705D02*X179810Y238958D01*
Y240748D02*Y238958D01*
Y240748D02*X180705Y241643D01*
X182495D01*
X183390Y240748D02*X182495Y241643D01*
X183390Y240748D02*Y238958D01*
X182495Y238063D02*X183390Y238958D01*
X179810Y243791D02*X182495D01*
X183390Y244686D01*
Y245581D02*Y244686D01*
Y245581D02*X182495Y246476D01*
X179810D02*X182495D01*
X183390Y247371D01*
Y248266D02*Y247371D01*
Y248266D02*X182495Y249161D01*
X179810D02*X182495D01*
X183390Y254889D02*Y252204D01*
X182495Y251309D02*X183390Y252204D01*
X180705Y251309D02*X182495D01*
X180705D02*X179810Y252204D01*
Y253994D02*Y252204D01*
Y253994D02*X180705Y254889D01*
X181600D02*Y251309D01*
X180705Y254889D02*X181600D01*
X180705Y257932D02*X183390D01*
X180705D02*X179810Y258827D01*
Y260617D02*Y258827D01*
Y257037D02*X180705Y257932D01*
G54D113*X123676Y208428D02*Y200268D01*
Y208428D02*X126736Y205368D01*
X129796Y208428D01*
Y200268D01*
X132244Y203328D02*Y201288D01*
Y203328D02*X133264Y204348D01*
X135304D01*
X136324Y203328D01*
Y201288D01*
X135304Y200268D02*X136324Y201288D01*
X133264Y200268D02*X135304D01*
X132244Y201288D02*X133264Y200268D01*
X139792Y208428D02*Y201288D01*
X140812Y200268D01*
X138772Y205368D02*X140812D01*
X142852Y203328D02*Y201288D01*
Y203328D02*X143872Y204348D01*
X145912D01*
X146932Y203328D01*
Y201288D01*
X145912Y200268D02*X146932Y201288D01*
X143872Y200268D02*X145912D01*
X142852Y201288D02*X143872Y200268D01*
X150400Y203328D02*Y200268D01*
Y203328D02*X151420Y204348D01*
X153460D01*
X149380D02*X150400Y203328D01*
G54D114*X185040Y129725D02*X185826D01*
X185040Y124215D02*X185826D01*
G54D115*X182025Y121428D02*Y112828D01*
G54D112*X184625Y111628D01*
X202225D01*
Y122628D01*
X184625D01*
X182025Y121428D01*
X112137Y153624D02*Y133624D01*
X160137D01*
Y153624D01*
X112137D02*X133637D01*
X160137D02*X138637D01*
X133637D02*G75*G03X138637Y153624I2500J0D01*G01*
X112137Y175277D02*Y155277D01*
X160137D01*
Y175277D01*
X112137D02*X133637D01*
X160137D02*X138637D01*
X133637D02*G75*G03X138637Y175277I2500J0D01*G01*
X160137Y131970D02*X138637D01*
X112137D02*X133637D01*
X160137Y111970D02*Y131970D01*
X112137Y111970D02*X160137D01*
X112137Y131970D02*Y111970D01*
X133637Y131970D02*G75*G03X138637Y131970I2500J0D01*G01*
G54D111*X115224Y106926D02*Y105352D01*
X118240Y106926D02*Y105352D01*
X126642Y106926D02*Y105352D01*
X129658Y106926D02*Y105352D01*
X134909Y106927D02*Y105353D01*
X137925Y106927D02*Y105353D01*
X142783Y106926D02*Y105352D01*
X145799Y106926D02*Y105352D01*
X156532Y108072D02*X158106D01*
X156532D02*X158106Y109253D01*
X156532Y108072D02*X158106Y106891D01*
Y109253D02*Y106891D01*
G54D114*X194489Y195670D02*X195275D01*
X194489Y190160D02*X195275D01*
G54D115*X175621Y183799D02*X184221D01*
G54D112*X185421Y186399D01*
Y203999D02*Y186399D01*
X174421Y203999D02*X185421D01*
X174421D02*Y186399D01*
X175621Y183799D01*
G54D111*X163453Y171226D02*Y169652D01*
X166469Y171226D02*Y169652D01*
X163453Y183037D02*Y181463D01*
X166469Y183037D02*Y181463D01*
X163453Y139729D02*Y138155D01*
X166469Y139729D02*Y138155D01*
X163453Y151541D02*Y149967D01*
X166469Y151541D02*Y149967D01*
X171493Y128871D02*X173067D01*
X171493Y125855D02*X173067D01*
G54D114*X170080Y117915D02*X170866D01*
X170080Y123425D02*X170866D01*
X189174Y159252D02*X189960D01*
X189174Y153742D02*X189960D01*
G54D112*X221462Y127013D02*X231262D01*
X221462D02*Y113633D01*
X233262D01*
Y125013D02*Y113633D01*
X231262Y127013D02*X233262Y125013D01*
X227362Y124323D02*G75*G03X227362Y124323I0J-4000D01*G01*
X204131Y190512D02*X235627D01*
X204131Y131456D02*X235627D01*
X204131Y190512D02*Y131456D01*
X206501Y127013D02*X216301D01*
X206501D02*Y113633D01*
X218301D01*
Y125013D02*Y113633D01*
X216301Y127013D02*X218301Y125013D01*
X212401Y124323D02*G75*G03X212401Y124323I0J-4000D01*G01*
G54D111*X194524Y186746D02*X196098D01*
X194524Y183730D02*X196098D01*
G54D112*X196150Y198340D02*X200150D01*
X229150Y200340D02*Y196340D01*
X227150Y198340D02*X231150D01*
X233150Y216340D02*G75*G03X233150Y216340I-20000J0D01*G01*
X214657Y249016D02*G75*G03X214657Y249016I6800J0D01*G01*
X209457Y249016D02*G75*G03X209457Y249016I12000J0D01*G01*
X169919Y151411D02*Y132411D01*
X200919D01*
Y151411D01*
X169919D02*X182919D01*
X200919D02*X187919D01*
X182919D02*G75*G03X187919Y151411I2500J0D01*G01*
X169919Y180545D02*Y161545D01*
X200919D01*
Y180545D01*
X169919D02*X182919D01*
X200919D02*X187919D01*
X182919D02*G75*G03X187919Y180545I2500J0D01*G01*
G54D111*X175430Y154990D02*X177004D01*
X175430Y158006D02*X177004D01*
X178415Y213618D02*Y212044D01*
X181431Y213618D02*Y212044D01*
X46515Y44675D02*Y38249D01*
X33799Y44675D02*Y38249D01*
X57283Y44060D02*Y42486D01*
X56102Y44060D01*
X57283Y42486D02*X58464Y44060D01*
X56102D02*X58464D01*
X58791Y54958D02*Y53384D01*
X55775Y54958D02*Y53384D01*
G54D112*X12717Y80002D02*X22717D01*
Y70002D01*
X12717Y80002D02*Y70002D01*
Y80002D02*X52717D01*
Y70002D01*
X12717D02*X52717D01*
G54D111*X19721Y63060D02*X21295D01*
X19721Y66076D02*X21295D01*
G54D112*X63780Y92328D02*Y89328D01*
X58480Y92328D02*X69080D01*
Y98628D02*Y86028D01*
X58480D02*X69080D01*
X58480Y98628D02*Y86028D01*
Y98628D02*X69080D01*
X2797Y95356D02*X12797D01*
Y85356D01*
X2797Y95356D02*Y85356D01*
Y95356D02*X52797D01*
Y85356D01*
X2797D02*X52797D01*
X7964Y14764D02*G75*G03X7964Y14764I6800J0D01*G01*
X2764D02*G75*G03X2764Y14764I12000J0D01*G01*
X180865Y94227D02*X235640D01*
X180865D02*Y30227D01*
X235640D01*
X214657Y14764D02*G75*G03X214657Y14764I6800J0D01*G01*
X209457D02*G75*G03X209457Y14764I12000J0D01*G01*
X138029Y62361D02*X147829D01*
Y75741D02*Y62361D01*
X136029Y75741D02*X147829D01*
X136029D02*Y64361D01*
X138029Y62361D02*X136029Y64361D01*
X141929Y65051D02*G75*G03X141929Y65051I0J4000D01*G01*
X136029Y54572D02*X145829D01*
X136029D02*Y41192D01*
X147829D01*
Y52572D02*Y41192D01*
X145829Y54572D02*X147829Y52572D01*
X141929Y51882D02*G75*G03X141929Y51882I0J-4000D01*G01*
X149827Y81562D02*Y68762D01*
Y81562D02*X163727D01*
Y68762D01*
X149827D02*X163727D01*
G54D111*X159485Y90880D02*X161059D01*
X159485Y87864D02*X161059D01*
X159682Y99739D02*X161256D01*
X159682Y96723D02*X161256D01*
G54D112*X179110Y46990D02*Y34190D01*
X165210D02*X179110D01*
X165210Y46990D02*Y34190D01*
Y46990D02*X179110D01*
Y81562D02*Y68762D01*
X165210D02*X179110D01*
X165210Y81562D02*Y68762D01*
Y81562D02*X179110D01*
X149827Y46990D02*Y34190D01*
Y46990D02*X163727D01*
Y34190D01*
X149827D02*X163727D01*
X149827Y64633D02*Y51833D01*
Y64633D02*X163727D01*
Y51833D01*
X149827D02*X163727D01*
X179110Y64633D02*Y51833D01*
X165210D02*X179110D01*
X165210Y64633D02*Y51833D01*
Y64633D02*X179110D01*
X75393Y29531D02*X99803D01*
Y79137D02*Y29531D01*
X75393Y79137D02*X99803D01*
X75393D02*Y29531D01*
X99192Y32011D02*G75*G03X99192Y32011I-610J0D01*G01*
G54D114*X113385Y65751D02*Y66537D01*
X107875Y65751D02*Y66537D01*
G54D111*X140784Y83203D02*X142358D01*
X140784Y80187D02*X142358D01*
G54D112*X106219Y49805D02*G75*G03X106219Y49805I5000J0D01*G01*
G54D111*X110894Y37242D02*Y35668D01*
X113910Y37242D02*Y35668D01*
X142359Y33400D02*X143933D01*
X142359Y30384D02*X143933D01*
G54D112*X137056Y226538D02*Y216738D01*
X150436D01*
Y228538D02*Y216738D01*
X139056Y228538D02*X150436D01*
X137056Y226538D02*X139056Y228538D01*
X139746Y222638D02*G75*G03X139746Y222638I4000J0D01*G01*
X112137Y196931D02*Y176931D01*
X160137D01*
Y196931D01*
X112137D02*X133637D01*
X160137D02*X138637D01*
X133637D02*G75*G03X138637Y196931I2500J0D01*G01*
X114370Y263189D02*Y231693D01*
X173426Y263189D02*Y231693D01*
X114370D02*X173426D01*
X89274Y215826D02*Y201926D01*
X76474Y215826D02*X89274D01*
X76474D02*Y201926D01*
X89274D01*
X82027Y144044D02*Y130144D01*
X69227Y144044D02*X82027D01*
X69227D02*Y130144D01*
X82027D01*
X1367Y162455D02*X56142D01*
Y98455D02*Y162455D01*
X1367Y98455D02*X56142D01*
X76474Y198865D02*Y184965D01*
X89274D01*
Y198865D01*
X76474D01*
X1367Y231352D02*X56142D01*
Y167352D02*Y231352D01*
X1367Y167352D02*X56142D01*
X7964Y249016D02*G75*G03X7964Y249016I6800J0D01*G01*
X2764Y249016D02*G75*G03X2764Y249016I12000J0D01*G01*
G54D111*X34768Y58254D02*Y54254D01*
Y58254D02*X36768D01*
X34768Y56254D02*X36268D01*
X38468Y54254D02*X39468D01*
X38968Y58254D02*Y54254D01*
X37968Y57254D02*X38968Y58254D01*
X40668Y54754D02*X41168Y54254D01*
X40668Y57754D02*Y54754D01*
Y57754D02*X41168Y58254D01*
X42168D01*
X42668Y57754D01*
Y54754D01*
X42168Y54254D02*X42668Y54754D01*
X41168Y54254D02*X42168D01*
X40668Y55254D02*X42668Y57254D01*
X43868Y54754D02*X44368Y54254D01*
X43868Y57754D02*Y54754D01*
Y57754D02*X44368Y58254D01*
X45368D01*
X45868Y57754D01*
Y54754D01*
X45368Y54254D02*X45868Y54754D01*
X44368Y54254D02*X45368D01*
X43868Y55254D02*X45868Y57254D01*
X154942Y51089D02*Y47969D01*
X156112Y51089D02*X156502Y50699D01*
Y48359D01*
X156112Y47969D02*X156502Y48359D01*
X154552Y47969D02*X156112D01*
X154552Y51089D02*X156112D01*
X157828Y47969D02*X158608D01*
X158218Y51089D02*Y47969D01*
X157438Y50309D02*X158218Y51089D01*
X159544Y48359D02*X159934Y47969D01*
X159544Y50699D02*Y48359D01*
Y50699D02*X159934Y51089D01*
X160714D01*
X161104Y50699D01*
Y48359D01*
X160714Y47969D02*X161104Y48359D01*
X159934Y47969D02*X160714D01*
X159544Y48749D02*X161104Y50309D01*
X162040Y48359D02*X162430Y47969D01*
X162040Y50699D02*Y48359D01*
Y50699D02*X162430Y51089D01*
X163210D01*
X163600Y50699D01*
Y48359D01*
X163210Y47969D02*X163600Y48359D01*
X162430Y47969D02*X163210D01*
X162040Y48749D02*X163600Y50309D01*
X171083Y51162D02*Y48042D01*
X172253Y51162D02*X172643Y50772D01*
Y48432D01*
X172253Y48042D02*X172643Y48432D01*
X170693Y48042D02*X172253D01*
X170693Y51162D02*X172253D01*
X173969Y48042D02*X174749D01*
X174359Y51162D02*Y48042D01*
X173579Y50382D02*X174359Y51162D01*
X175685Y48432D02*X176075Y48042D01*
X175685Y50772D02*Y48432D01*
Y50772D02*X176075Y51162D01*
X176855D01*
X177245Y50772D01*
Y48432D01*
X176855Y48042D02*X177245Y48432D01*
X176075Y48042D02*X176855D01*
X175685Y48822D02*X177245Y50382D01*
X178571Y48042D02*X179351D01*
X178961Y51162D02*Y48042D01*
X178181Y50382D02*X178961Y51162D01*
X118622Y62609D02*Y61274D01*
X118177Y60829D02*X118622Y61274D01*
X115507Y60829D02*X118177D01*
X115507D02*X115062Y61274D01*
Y62609D02*Y61274D01*
X118622Y65012D02*Y64122D01*
X115062Y64567D02*X118622D01*
X115952Y63677D02*X115062Y64567D01*
X118177Y66080D02*X118622Y66525D01*
X115507Y66080D02*X118177D01*
X115507D02*X115062Y66525D01*
Y67415D02*Y66525D01*
Y67415D02*X115507Y67860D01*
X118177D01*
X118622Y67415D02*X118177Y67860D01*
X118622Y67415D02*Y66525D01*
X117732Y66080D02*X115952Y67860D01*
X118177Y68928D02*X118622Y69373D01*
X115507Y68928D02*X118177D01*
X115507D02*X115062Y69373D01*
Y70263D02*Y69373D01*
Y70263D02*X115507Y70708D01*
X118177D01*
X118622Y70263D02*X118177Y70708D01*
X118622Y70263D02*Y69373D01*
X117732Y68928D02*X115952Y70708D01*
X153618Y86412D02*Y82852D01*
X154953Y86412D02*X155398Y85967D01*
Y83297D01*
X154953Y82852D02*X155398Y83297D01*
X153173Y82852D02*X154953D01*
X153173Y86412D02*X154953D01*
X156911Y82852D02*X157801D01*
X157356Y86412D02*Y82852D01*
X156466Y85522D02*X157356Y86412D01*
X158869Y83297D02*X159314Y82852D01*
X158869Y85967D02*Y83297D01*
Y85967D02*X159314Y86412D01*
X160204D01*
X160649Y85967D01*
Y83297D01*
X160204Y82852D02*X160649Y83297D01*
X159314Y82852D02*X160204D01*
X158869Y83742D02*X160649Y85522D01*
X161717Y86412D02*X163497D01*
X161717D02*Y84632D01*
X162162Y85077D01*
X163052D01*
X163497Y84632D01*
Y83297D01*
X163052Y82852D02*X163497Y83297D01*
X162162Y82852D02*X163052D01*
X161717Y83297D02*X162162Y82852D01*
X220470Y109858D02*Y106738D01*
X222030D01*
X222966Y108298D02*X224136D01*
X222966Y106738D02*X224526D01*
X222966Y109858D02*Y106738D01*
Y109858D02*X224526D01*
X225852D02*Y106738D01*
X227022Y109858D02*X227412Y109468D01*
Y107128D01*
X227022Y106738D02*X227412Y107128D01*
X225462Y106738D02*X227022D01*
X225462Y109858D02*X227022D01*
X228738Y106738D02*X229518D01*
X229128Y109858D02*Y106738D01*
X228348Y109078D02*X229128Y109858D01*
X230454Y107128D02*X230844Y106738D01*
X230454Y109468D02*Y107128D01*
Y109468D02*X230844Y109858D01*
X231624D01*
X232014Y109468D01*
Y107128D01*
X231624Y106738D02*X232014Y107128D01*
X230844Y106738D02*X231624D01*
X230454Y107518D02*X232014Y109078D01*
X232950Y109858D02*X234510D01*
X232950D02*Y108298D01*
X233340Y108688D01*
X234120D01*
X234510Y108298D01*
Y107128D01*
X234120Y106738D02*X234510Y107128D01*
X233340Y106738D02*X234120D01*
X232950Y107128D02*X233340Y106738D01*
X202753Y109860D02*Y106740D01*
X204313D01*
X205249Y108300D02*X206419D01*
X205249Y106740D02*X206809D01*
X205249Y109860D02*Y106740D01*
Y109860D02*X206809D01*
X208135D02*Y106740D01*
X209305Y109860D02*X209695Y109470D01*
Y107130D01*
X209305Y106740D02*X209695Y107130D01*
X207745Y106740D02*X209305D01*
X207745Y109860D02*X209305D01*
X211021Y106740D02*X211801D01*
X211411Y109860D02*Y106740D01*
X210631Y109080D02*X211411Y109860D01*
X212737Y107130D02*X213127Y106740D01*
X212737Y109470D02*Y107130D01*
Y109470D02*X213127Y109860D01*
X213907D01*
X214297Y109470D01*
Y107130D01*
X213907Y106740D02*X214297Y107130D01*
X213127Y106740D02*X213907D01*
X212737Y107520D02*X214297Y109080D01*
X215233Y108300D02*X216793Y109860D01*
X215233Y108300D02*X217183D01*
X216793Y109860D02*Y106740D01*
X193437Y125276D02*X194772D01*
X192992Y125721D02*X193437Y125276D01*
X192992Y128391D02*Y125721D01*
Y128391D02*X193437Y128836D01*
X194772D01*
X196285Y125276D02*X197175D01*
X196730Y128836D02*Y125276D01*
X195840Y127946D02*X196730Y128836D01*
X198688Y125276D02*X199578D01*
X199133Y128836D02*Y125276D01*
X198243Y127946D02*X199133Y128836D01*
X185539Y110329D02*Y106329D01*
X187039Y110329D02*X187539Y109829D01*
Y106829D01*
X187039Y106329D02*X187539Y106829D01*
X185039Y106329D02*X187039D01*
X185039Y110329D02*X187039D01*
X188739Y109829D02*X189239Y110329D01*
X190239D01*
X190739Y109829D01*
Y106829D01*
X190239Y106329D02*X190739Y106829D01*
X189239Y106329D02*X190239D01*
X188739Y106829D02*X189239Y106329D01*
Y108329D02*X190739D01*
X181222Y99553D02*X182722D01*
Y96053D01*
X182222Y95553D02*X182722Y96053D01*
X181722Y95553D02*X182222D01*
X181222Y96053D02*X181722Y95553D01*
X184422D02*X185422D01*
X184922Y99553D02*Y95553D01*
X183922Y98553D02*X184922Y99553D01*
X186622Y96053D02*X187122Y95553D01*
X186622Y99053D02*Y96053D01*
Y99053D02*X187122Y99553D01*
X188122D01*
X188622Y99053D01*
Y96053D01*
X188122Y95553D02*X188622Y96053D01*
X187122Y95553D02*X188122D01*
X186622Y96553D02*X188622Y98553D01*
X190322Y95553D02*X191322D01*
X190822Y99553D02*Y95553D01*
X189822Y98553D02*X190822Y99553D01*
X161409Y112620D02*Y111060D01*
Y112620D02*X161799Y113010D01*
X162579D01*
X162969Y112620D02*X162579Y113010D01*
X162969Y112620D02*Y111450D01*
X161409D02*X164529D01*
X162969D02*X164529Y113010D01*
Y115116D02*Y114336D01*
X161409Y114726D02*X164529D01*
X162189Y113946D02*X161409Y114726D01*
X164529Y116052D02*X162969Y117612D01*
X161799D02*X162969D01*
X161409Y117222D02*X161799Y117612D01*
X161409Y117222D02*Y116442D01*
X161799Y116052D02*X161409Y116442D01*
X161799Y116052D02*X162579D01*
X162969Y116442D01*
Y117612D02*Y116442D01*
X180078Y114517D02*Y113347D01*
X179688Y112957D02*X180078Y113347D01*
X177348Y112957D02*X179688D01*
X177348D02*X176958Y113347D01*
Y114517D02*Y113347D01*
Y117013D02*Y115453D01*
X178518D01*
X178128Y115843D01*
Y116623D02*Y115843D01*
Y116623D02*X178518Y117013D01*
X179688D01*
X180078Y116623D02*X179688Y117013D01*
X180078Y116623D02*Y115843D01*
X179688Y115453D02*X180078Y115843D01*
X168755Y112875D02*X170090D01*
X168310Y113320D02*X168755Y112875D01*
X168310Y115990D02*Y113320D01*
Y115990D02*X168755Y116435D01*
X170090D01*
X171158Y115990D02*X171603Y116435D01*
X172493D01*
X172938Y115990D01*
Y113320D01*
X172493Y112875D02*X172938Y113320D01*
X171603Y112875D02*X172493D01*
X171158Y113320D02*X171603Y112875D01*
Y114655D02*X172938D01*
X131199Y61828D02*X134759D01*
Y63608D02*Y61828D01*
X132979Y66011D02*Y64676D01*
X134759Y66456D02*Y64676D01*
X131199D02*X134759D01*
X131199Y66456D02*Y64676D01*
Y67969D02*X134759D01*
X131199Y69304D02*X131644Y69749D01*
X134314D01*
X134759Y69304D02*X134314Y69749D01*
X134759Y69304D02*Y67524D01*
X131199Y69304D02*Y67524D01*
X134759Y72152D02*Y71262D01*
X131199Y71707D02*X134759D01*
X132089Y70817D02*X131199Y71707D01*
X134314Y73220D02*X134759Y73665D01*
X131644Y73220D02*X134314D01*
X131644D02*X131199Y73665D01*
Y74555D02*Y73665D01*
Y74555D02*X131644Y75000D01*
X134314D01*
X134759Y74555D02*X134314Y75000D01*
X134759Y74555D02*Y73665D01*
X133869Y73220D02*X132089Y75000D01*
X134759Y77403D02*Y76513D01*
X131199Y76958D02*X134759D01*
X132089Y76068D02*X131199Y76958D01*
X131214Y39766D02*X134774D01*
Y41546D02*Y39766D01*
X132994Y43949D02*Y42614D01*
X134774Y44394D02*Y42614D01*
X131214D02*X134774D01*
X131214Y44394D02*Y42614D01*
Y45907D02*X134774D01*
X131214Y47242D02*X131659Y47687D01*
X134329D01*
X134774Y47242D02*X134329Y47687D01*
X134774Y47242D02*Y45462D01*
X131214Y47242D02*Y45462D01*
X134774Y50090D02*Y49200D01*
X131214Y49645D02*X134774D01*
X132104Y48755D02*X131214Y49645D01*
X134329Y51158D02*X134774Y51603D01*
X131659Y51158D02*X134329D01*
X131659D02*X131214Y51603D01*
Y52493D02*Y51603D01*
Y52493D02*X131659Y52938D01*
X134329D01*
X134774Y52493D02*X134329Y52938D01*
X134774Y52493D02*Y51603D01*
X133884Y51158D02*X132104Y52938D01*
X131659Y54006D02*X131214Y54451D01*
Y55786D02*Y54451D01*
Y55786D02*X131659Y56231D01*
X132549D01*
X134774Y54006D02*X132549Y56231D01*
X134774D02*Y54006D01*
X167454Y32562D02*Y28562D01*
X168954Y32562D02*X169454Y32062D01*
Y29062D01*
X168954Y28562D02*X169454Y29062D01*
X166954Y28562D02*X168954D01*
X166954Y32562D02*X168954D01*
X171154Y28562D02*X172154D01*
X171654Y32562D02*Y28562D01*
X170654Y31562D02*X171654Y32562D01*
X173354Y29062D02*X173854Y28562D01*
X173354Y32062D02*Y29062D01*
Y32062D02*X173854Y32562D01*
X174854D01*
X175354Y32062D01*
Y29062D01*
X174854Y28562D02*X175354Y29062D01*
X173854Y28562D02*X174854D01*
X173354Y29562D02*X175354Y31562D01*
X176554Y32062D02*X177054Y32562D01*
X178554D01*
X179054Y32062D01*
Y31062D01*
X176554Y28562D02*X179054Y31062D01*
X176554Y28562D02*X179054D01*
X152492Y32440D02*Y28440D01*
X153992Y32440D02*X154492Y31940D01*
Y28940D01*
X153992Y28440D02*X154492Y28940D01*
X151992Y28440D02*X153992D01*
X151992Y32440D02*X153992D01*
X156192Y28440D02*X157192D01*
X156692Y32440D02*Y28440D01*
X155692Y31440D02*X156692Y32440D01*
X158392Y28940D02*X158892Y28440D01*
X158392Y31940D02*Y28940D01*
Y31940D02*X158892Y32440D01*
X159892D01*
X160392Y31940D01*
Y28940D01*
X159892Y28440D02*X160392Y28940D01*
X158892Y28440D02*X159892D01*
X158392Y29440D02*X160392Y31440D01*
X161592Y31940D02*X162092Y32440D01*
X163092D01*
X163592Y31940D01*
Y28940D01*
X163092Y28440D02*X163592Y28940D01*
X162092Y28440D02*X163092D01*
X161592Y28940D02*X162092Y28440D01*
Y30440D02*X163592D01*
X117127Y47624D02*Y47124D01*
X119627Y44624D01*
Y43624D01*
X117127Y44624D02*Y43624D01*
Y44624D02*X119627Y47124D01*
Y47624D02*Y47124D01*
X121327Y43624D02*X122327D01*
X121827Y47624D02*Y43624D01*
X120827Y46624D02*X121827Y47624D01*
X123527Y44124D02*X124027Y43624D01*
X123527Y47124D02*Y44124D01*
Y47124D02*X124027Y47624D01*
X125027D01*
X125527Y47124D01*
Y44124D01*
X125027Y43624D02*X125527Y44124D01*
X124027Y43624D02*X125027D01*
X123527Y44624D02*X125527Y46624D01*
X126727Y44124D02*X127227Y43624D01*
X126727Y47124D02*Y44124D01*
Y47124D02*X127227Y47624D01*
X128227D01*
X128727Y47124D01*
Y44124D01*
X128227Y43624D02*X128727Y44124D01*
X127227Y43624D02*X128227D01*
X126727Y44624D02*X128727Y46624D01*
X119568Y32673D02*Y31173D01*
X119068Y30673D02*X119568Y31173D01*
X116068Y30673D02*X119068D01*
X116068D02*X115568Y31173D01*
Y32673D02*Y31173D01*
X119568Y35373D02*Y34373D01*
X115568Y34873D02*X119568D01*
X116568Y33873D02*X115568Y34873D01*
X119068Y36573D02*X119568Y37073D01*
X116068Y36573D02*X119068D01*
X116068D02*X115568Y37073D01*
Y38073D02*Y37073D01*
Y38073D02*X116068Y38573D01*
X119068D01*
X119568Y38073D02*X119068Y38573D01*
X119568Y38073D02*Y37073D01*
X118568Y36573D02*X116568Y38573D01*
X119568Y41273D02*Y40273D01*
X115568Y40773D02*X119568D01*
X116568Y39773D02*X115568Y40773D01*
X137169Y28725D02*X139169D01*
X139669Y28225D01*
Y27225D01*
X139169Y26725D02*X139669Y27225D01*
X137669Y26725D02*X139169D01*
X137669Y28725D02*Y24725D01*
Y26725D02*X139669Y24725D01*
X141369D02*X142369D01*
X141869Y28725D02*Y24725D01*
X140869Y27725D02*X141869Y28725D01*
X143569Y25225D02*X144069Y24725D01*
X143569Y28225D02*Y25225D01*
Y28225D02*X144069Y28725D01*
X145069D01*
X145569Y28225D01*
Y25225D01*
X145069Y24725D02*X145569Y25225D01*
X144069Y24725D02*X145069D01*
X143569Y25725D02*X145569Y27725D01*
X146769Y28225D02*X147269Y28725D01*
X148769D01*
X149269Y28225D01*
Y27225D01*
X146769Y24725D02*X149269Y27225D01*
X146769Y24725D02*X149269D01*
X75590Y28159D02*Y25429D01*
X75980Y25039D01*
X76760D01*
X77150Y25429D01*
Y28159D02*Y25429D01*
X78476Y25039D02*X79256D01*
X78866Y28159D02*Y25039D01*
X78086Y27379D02*X78866Y28159D01*
X80192Y25429D02*X80582Y25039D01*
X80192Y27769D02*Y25429D01*
Y27769D02*X80582Y28159D01*
X81362D01*
X81752Y27769D01*
Y25429D01*
X81362Y25039D02*X81752Y25429D01*
X80582Y25039D02*X81362D01*
X80192Y25819D02*X81752Y27379D01*
X83078Y25039D02*X83858D01*
X83468Y28159D02*Y25039D01*
X82688Y27379D02*X83468Y28159D01*
X60645Y29297D02*X64645D01*
Y31297D02*Y29297D01*
X62645Y33997D02*Y32497D01*
X64645Y34497D02*Y32497D01*
X60645D02*X64645D01*
X60645Y34497D02*Y32497D01*
Y36197D02*X64645D01*
X60645Y37697D02*X61145Y38197D01*
X64145D01*
X64645Y37697D02*X64145Y38197D01*
X64645Y37697D02*Y35697D01*
X60645Y37697D02*Y35697D01*
X64645Y40897D02*Y39897D01*
X60645Y40397D02*X64645D01*
X61645Y39397D02*X60645Y40397D01*
X64145Y42097D02*X64645Y42597D01*
X61145Y42097D02*X64145D01*
X61145D02*X60645Y42597D01*
Y43597D02*Y42597D01*
Y43597D02*X61145Y44097D01*
X64145D01*
X64645Y43597D02*X64145Y44097D01*
X64645Y43597D02*Y42597D01*
X63645Y42097D02*X61645Y44097D01*
X61145Y45297D02*X60645Y45797D01*
Y46797D02*Y45797D01*
Y46797D02*X61145Y47297D01*
X64145D01*
X64645Y46797D02*X64145Y47297D01*
X64645Y46797D02*Y45797D01*
X64145Y45297D02*X64645Y45797D01*
X62645Y47297D02*Y45797D01*
X60646Y53612D02*Y51612D01*
Y53612D02*X61146Y54112D01*
X62146D01*
X62646Y53612D02*X62146Y54112D01*
X62646Y53612D02*Y52112D01*
X60646D02*X64646D01*
X62646D02*X64646Y54112D01*
Y56812D02*Y55812D01*
X60646Y56312D02*X64646D01*
X61646Y55312D02*X60646Y56312D01*
X64146Y58012D02*X64646Y58512D01*
X61146Y58012D02*X64146D01*
X61146D02*X60646Y58512D01*
Y59512D02*Y58512D01*
Y59512D02*X61146Y60012D01*
X64146D01*
X64646Y59512D02*X64146Y60012D01*
X64646Y59512D02*Y58512D01*
X63646Y58012D02*X61646Y60012D01*
X60646Y63212D02*Y61212D01*
X62646D01*
X62146Y61712D01*
Y62712D02*Y61712D01*
Y62712D02*X62646Y63212D01*
X64146D01*
X64646Y62712D02*X64146Y63212D01*
X64646Y62712D02*Y61712D01*
X64146Y61212D02*X64646Y61712D01*
X14799Y61599D02*X16799D01*
X17299Y61099D01*
Y60099D01*
X16799Y59599D02*X17299Y60099D01*
X15299Y59599D02*X16799D01*
X15299Y61599D02*Y57599D01*
Y59599D02*X17299Y57599D01*
X18999D02*X19999D01*
X19499Y61599D02*Y57599D01*
X18499Y60599D02*X19499Y61599D01*
X21199Y58099D02*X21699Y57599D01*
X21199Y61099D02*Y58099D01*
Y61099D02*X21699Y61599D01*
X22699D01*
X23199Y61099D01*
Y58099D01*
X22699Y57599D02*X23199Y58099D01*
X21699Y57599D02*X22699D01*
X21199Y58599D02*X23199Y60599D01*
X24399Y61099D02*X24899Y61599D01*
X25899D01*
X26399Y61099D01*
Y58099D01*
X25899Y57599D02*X26399Y58099D01*
X24899Y57599D02*X25899D01*
X24399Y58099D02*X24899Y57599D01*
Y59599D02*X26399D01*
X58025Y79687D02*Y78352D01*
X54910D02*X58025D01*
X54465Y78797D02*X54910Y78352D01*
X54465Y79242D02*Y78797D01*
X54910Y79687D02*X54465Y79242D01*
Y76839D02*Y75949D01*
Y76394D02*X58025D01*
X57135Y77284D02*X58025Y76394D01*
X54910Y74881D02*X54465Y74436D01*
X54910Y74881D02*X57580D01*
X58025Y74436D01*
Y73546D01*
X57580Y73101D01*
X54910D02*X57580D01*
X54465Y73546D02*X54910Y73101D01*
X54465Y74436D02*Y73546D01*
X55355Y74881D02*X57135Y73101D01*
X54910Y72033D02*X54465Y71588D01*
X54910Y72033D02*X57580D01*
X58025Y71588D01*
Y70698D01*
X57580Y70253D01*
X54910D02*X57580D01*
X54465Y70698D02*X54910Y70253D01*
X54465Y71588D02*Y70698D01*
X55355Y72033D02*X57135Y70253D01*
X70373Y86764D02*X70763Y87154D01*
X70373Y86764D02*Y85594D01*
X70763Y85204D02*X70373Y85594D01*
X70763Y85204D02*X71543D01*
X71933Y85594D01*
Y86764D02*Y85594D01*
Y86764D02*X72323Y87154D01*
X73103D01*
X73493Y86764D02*X73103Y87154D01*
X73493Y86764D02*Y85594D01*
X73103Y85204D02*X73493Y85594D01*
X73103Y88090D02*X70763Y90430D01*
X70373Y91366D02*X73493D01*
Y92926D02*Y91366D01*
X71933Y95032D02*Y93862D01*
X73493Y95422D02*Y93862D01*
X70373D02*X73493D01*
X70373Y95422D02*Y93862D01*
Y96748D02*X73493D01*
X70373Y97918D02*X70763Y98308D01*
X73103D01*
X73493Y97918D02*X73103Y98308D01*
X73493Y97918D02*Y96358D01*
X70373Y97918D02*Y96358D01*
X73493Y100414D02*Y99634D01*
X70373Y100024D02*X73493D01*
X71153Y99244D02*X70373Y100024D01*
X114707Y92982D02*Y90982D01*
Y92982D02*X115207Y93482D01*
X116207D01*
X116707Y92982D02*X116207Y93482D01*
X116707Y92982D02*Y91482D01*
X114707D02*X118707D01*
X116707D02*X118707Y93482D01*
X115207Y94682D02*X114707Y95182D01*
Y96682D02*Y95182D01*
Y96682D02*X115207Y97182D01*
X116207D01*
X118707Y94682D02*X116207Y97182D01*
X118707D02*Y94682D01*
X115207Y98382D02*X114707Y98882D01*
Y99882D02*Y98882D01*
Y99882D02*X115207Y100382D01*
X118207D01*
X118707Y99882D02*X118207Y100382D01*
X118707Y99882D02*Y98882D01*
X118207Y98382D02*X118707Y98882D01*
X116707Y100382D02*Y98882D01*
X125927Y92786D02*Y90786D01*
Y92786D02*X126427Y93286D01*
X127427D01*
X127927Y92786D02*X127427Y93286D01*
X127927Y92786D02*Y91286D01*
X125927D02*X129927D01*
X127927D02*X129927Y93286D01*
X126427Y94486D02*X125927Y94986D01*
Y96486D02*Y94986D01*
Y96486D02*X126427Y96986D01*
X127427D01*
X129927Y94486D02*X127427Y96986D01*
X129927D02*Y94486D01*
X125927Y99686D02*X126427Y100186D01*
X125927Y99686D02*Y98686D01*
X126427Y98186D02*X125927Y98686D01*
X126427Y98186D02*X129427D01*
X129927Y98686D01*
X127927Y99686D02*X128427Y100186D01*
X127927Y99686D02*Y98186D01*
X129927Y99686D02*Y98686D01*
Y99686D02*X129427Y100186D01*
X128427D02*X129427D01*
X167257Y86768D02*Y82768D01*
X168757Y86768D02*X169257Y86268D01*
Y83268D01*
X168757Y82768D02*X169257Y83268D01*
X166757Y82768D02*X168757D01*
X166757Y86768D02*X168757D01*
X170957Y82768D02*X171957D01*
X171457Y86768D02*Y82768D01*
X170457Y85768D02*X171457Y86768D01*
X173157Y83268D02*X173657Y82768D01*
X173157Y86268D02*Y83268D01*
Y86268D02*X173657Y86768D01*
X174657D01*
X175157Y86268D01*
Y83268D01*
X174657Y82768D02*X175157Y83268D01*
X173657Y82768D02*X174657D01*
X173157Y83768D02*X175157Y85768D01*
X176357Y84768D02*X178357Y86768D01*
X176357Y84768D02*X178857D01*
X178357Y86768D02*Y82768D01*
X165713Y93600D02*X167493D01*
X167938Y93155D01*
Y92265D01*
X167493Y91820D02*X167938Y92265D01*
X166158Y91820D02*X167493D01*
X166158Y93600D02*Y90040D01*
Y91820D02*X167938Y90040D01*
X169451D02*X170341D01*
X169896Y93600D02*Y90040D01*
X169006Y92710D02*X169896Y93600D01*
X171409Y90485D02*X171854Y90040D01*
X171409Y93155D02*Y90485D01*
Y93155D02*X171854Y93600D01*
X172744D01*
X173189Y93155D01*
Y90485D01*
X172744Y90040D02*X173189Y90485D01*
X171854Y90040D02*X172744D01*
X171409Y90930D02*X173189Y92710D01*
X175592Y93600D02*X176037Y93155D01*
X174702Y93600D02*X175592D01*
X174257Y93155D02*X174702Y93600D01*
X174257Y93155D02*Y90485D01*
X174702Y90040D01*
X175592Y91820D02*X176037Y91375D01*
X174257Y91820D02*X175592D01*
X174702Y90040D02*X175592D01*
X176037Y90485D01*
Y91375D02*Y90485D01*
X166104Y101867D02*X167884D01*
X168329Y101422D01*
Y100532D01*
X167884Y100087D02*X168329Y100532D01*
X166549Y100087D02*X167884D01*
X166549Y101867D02*Y98307D01*
Y100087D02*X168329Y98307D01*
X169842D02*X170732D01*
X170287Y101867D02*Y98307D01*
X169397Y100977D02*X170287Y101867D01*
X171800Y98752D02*X172245Y98307D01*
X171800Y101422D02*Y98752D01*
Y101422D02*X172245Y101867D01*
X173135D01*
X173580Y101422D01*
Y98752D01*
X173135Y98307D02*X173580Y98752D01*
X172245Y98307D02*X173135D01*
X171800Y99197D02*X173580Y100977D01*
X174648Y98307D02*X176873Y100532D01*
Y101867D02*Y100532D01*
X174648Y101867D02*X176873D01*
X134265Y93698D02*Y91698D01*
Y93698D02*X134765Y94198D01*
X135765D01*
X136265Y93698D02*X135765Y94198D01*
X136265Y93698D02*Y92198D01*
X134265D02*X138265D01*
X136265D02*X138265Y94198D01*
X134765Y95398D02*X134265Y95898D01*
Y96898D02*Y95898D01*
Y96898D02*X134765Y97398D01*
X137765D01*
X138265Y96898D02*X137765Y97398D01*
X138265Y96898D02*Y95898D01*
X137765Y95398D02*X138265Y95898D01*
X136265Y97398D02*Y95898D01*
X138265Y100098D02*Y99098D01*
X134265Y99598D02*X138265D01*
X135265Y98598D02*X134265Y99598D01*
X135987Y88767D02*X137987D01*
X138487Y88267D01*
Y87267D01*
X137987Y86767D02*X138487Y87267D01*
X136487Y86767D02*X137987D01*
X136487Y88767D02*Y84767D01*
Y86767D02*X138487Y84767D01*
X140187D02*X141187D01*
X140687Y88767D02*Y84767D01*
X139687Y87767D02*X140687Y88767D01*
X142387Y85267D02*X142887Y84767D01*
X142387Y88267D02*Y85267D01*
Y88267D02*X142887Y88767D01*
X143887D01*
X144387Y88267D01*
Y85267D01*
X143887Y84767D02*X144387Y85267D01*
X142887Y84767D02*X143887D01*
X142387Y85767D02*X144387Y87767D01*
X146087Y84767D02*X147087D01*
X146587Y88767D02*Y84767D01*
X145587Y87767D02*X146587Y88767D01*
X142342Y93302D02*Y91302D01*
Y93302D02*X142842Y93802D01*
X143842D01*
X144342Y93302D02*X143842Y93802D01*
X144342Y93302D02*Y91802D01*
X142342D02*X146342D01*
X144342D02*X146342Y93802D01*
X142842Y95002D02*X142342Y95502D01*
Y96502D02*Y95502D01*
Y96502D02*X142842Y97002D01*
X145842D01*
X146342Y96502D02*X145842Y97002D01*
X146342Y96502D02*Y95502D01*
X145842Y95002D02*X146342Y95502D01*
X144342Y97002D02*Y95502D01*
X142842Y98202D02*X142342Y98702D01*
Y99702D02*Y98702D01*
Y99702D02*X142842Y100202D01*
X145842D01*
X146342Y99702D02*X145842Y100202D01*
X146342Y99702D02*Y98702D01*
X145842Y98202D02*X146342Y98702D01*
X144342Y100202D02*Y98702D01*
X152595Y105323D02*Y102203D01*
X154155D01*
X155091Y103763D02*X156261D01*
X155091Y102203D02*X156651D01*
X155091Y105323D02*Y102203D01*
Y105323D02*X156651D01*
X157977D02*Y102203D01*
X159147Y105323D02*X159537Y104933D01*
Y102593D01*
X159147Y102203D02*X159537Y102593D01*
X157587Y102203D02*X159147D01*
X157587Y105323D02*X159147D01*
X160473Y104933D02*X160863Y105323D01*
X162033D01*
X162423Y104933D01*
Y104153D01*
X160473Y102203D02*X162423Y104153D01*
X160473Y102203D02*X162423D01*
X106889Y148116D02*X110389D01*
X110889Y148616D01*
Y149616D02*Y148616D01*
Y149616D02*X110389Y150116D01*
X106889D02*X110389D01*
X107389Y151316D02*X106889Y151816D01*
Y152816D02*Y151816D01*
Y152816D02*X107389Y153316D01*
X110389D01*
X110889Y152816D02*X110389Y153316D01*
X110889Y152816D02*Y151816D01*
X110389Y151316D02*X110889Y151816D01*
X108889Y153316D02*Y151816D01*
X106889Y191028D02*X110389D01*
X110889Y191528D01*
Y192528D02*Y191528D01*
Y192528D02*X110389Y193028D01*
X106889D02*X110389D01*
X106889Y195728D02*X107389Y196228D01*
X106889Y195728D02*Y194728D01*
X107389Y194228D02*X106889Y194728D01*
X107389Y194228D02*X110389D01*
X110889Y194728D01*
X108889Y195728D02*X109389Y196228D01*
X108889Y195728D02*Y194228D01*
X110889Y195728D02*Y194728D01*
Y195728D02*X110389Y196228D01*
X109389D02*X110389D01*
X106890Y169572D02*X110390D01*
X110890Y170072D01*
Y171072D02*Y170072D01*
Y171072D02*X110390Y171572D01*
X106890D02*X110390D01*
X106890Y174772D02*Y172772D01*
X108890D01*
X108390Y173272D01*
Y174272D02*Y173272D01*
Y174272D02*X108890Y174772D01*
X110390D01*
X110890Y174272D02*X110390Y174772D01*
X110890Y174272D02*Y173272D01*
X110390Y172772D02*X110890Y173272D01*
X109072Y234101D02*Y232601D01*
Y234101D02*X112572D01*
X113072Y233601D02*X112572Y234101D01*
X113072Y233601D02*Y233101D01*
X112572Y232601D02*X113072Y233101D01*
Y236801D02*Y235801D01*
X109072Y236301D02*X113072D01*
X110072Y235301D02*X109072Y236301D01*
X106693Y125872D02*X110193D01*
X110693Y126372D01*
Y127372D02*Y126372D01*
Y127372D02*X110193Y127872D01*
X106693D02*X110193D01*
X107193Y129072D02*X106693Y129572D01*
Y131072D02*Y129572D01*
Y131072D02*X107193Y131572D01*
X108193D01*
X110693Y129072D02*X108193Y131572D01*
X110693D02*Y129072D01*
X138296Y215342D02*Y211342D01*
X140296D01*
X141496Y213342D02*X142996D01*
X141496Y211342D02*X143496D01*
X141496Y215342D02*Y211342D01*
Y215342D02*X143496D01*
X145196D02*Y211342D01*
X146696Y215342D02*X147196Y214842D01*
Y211842D01*
X146696Y211342D02*X147196Y211842D01*
X144696Y211342D02*X146696D01*
X144696Y215342D02*X146696D01*
X148896Y211342D02*X149896D01*
X149396Y215342D02*Y211342D01*
X148396Y214342D02*X149396Y215342D01*
X211075Y191614D02*X212410D01*
X210630Y192059D02*X211075Y191614D01*
X210630Y194729D02*Y192059D01*
Y194729D02*X211075Y195174D01*
X212410D01*
X213923Y191614D02*X214813D01*
X214368Y195174D02*Y191614D01*
X213478Y194284D02*X214368Y195174D01*
X215881Y194729D02*X216326Y195174D01*
X217661D01*
X218106Y194729D01*
Y193839D01*
X215881Y191614D02*X218106Y193839D01*
X215881Y191614D02*X218106D01*
X222597Y195766D02*X223932D01*
Y192651D01*
X223487Y192206D02*X223932Y192651D01*
X223042Y192206D02*X223487D01*
X222597Y192651D02*X223042Y192206D01*
X225000Y195321D02*X225445Y195766D01*
X226780D01*
X227225Y195321D01*
Y194431D01*
X225000Y192206D02*X227225Y194431D01*
X225000Y192206D02*X227225D01*
X194751Y233308D02*X196251D01*
X194251Y233808D02*X194751Y233308D01*
X194251Y236808D02*Y233808D01*
Y236808D02*X194751Y237308D01*
X196251D01*
X197951Y233308D02*X198951D01*
X198451Y237308D02*Y233308D01*
X197451Y236308D02*X198451Y237308D01*
X186972Y205127D02*X188532D01*
X188922Y204737D01*
Y203957D01*
X188532Y203567D02*X188922Y203957D01*
X187362Y203567D02*X188532D01*
X187362Y205127D02*Y202007D01*
Y203567D02*X188922Y202007D01*
X189858Y204737D02*X190248Y205127D01*
X191418D01*
X191808Y204737D01*
Y203957D01*
X189858Y202007D02*X191808Y203957D01*
X189858Y202007D02*X191808D01*
X192744Y204737D02*X193134Y205127D01*
X194304D01*
X194694Y204737D01*
Y203957D01*
X192744Y202007D02*X194694Y203957D01*
X192744Y202007D02*X194694D01*
X197789Y155596D02*Y152866D01*
X198179Y152476D01*
X198959D01*
X199349Y152866D01*
Y155596D02*Y152866D01*
X200285Y154036D02*X201845Y155596D01*
X200285Y154036D02*X202235D01*
X201845Y155596D02*Y152476D01*
X197045Y157125D02*X198215D01*
X196655Y157515D02*X197045Y157125D01*
X196655Y159855D02*Y157515D01*
Y159855D02*X197045Y160245D01*
X198215D01*
X199151Y159855D02*X199541Y160245D01*
X200711D01*
X201101Y159855D01*
Y159075D01*
X199151Y157125D02*X201101Y159075D01*
X199151Y157125D02*X201101D01*
X64377Y129365D02*X64822Y129810D01*
X64377Y129365D02*Y128030D01*
X64822Y127585D02*X64377Y128030D01*
X64822Y127585D02*X65712D01*
X66157Y128030D01*
Y129365D02*Y128030D01*
Y129365D02*X66602Y129810D01*
X67492D01*
X67937Y129365D02*X67492Y129810D01*
X67937Y129365D02*Y128030D01*
X67492Y127585D02*X67937Y128030D01*
X67492Y130878D02*X64822Y133548D01*
X64377Y135061D02*X67937D01*
X64377Y136396D02*X64822Y136841D01*
X67492D01*
X67937Y136396D02*X67492Y136841D01*
X67937Y136396D02*Y134616D01*
X64377Y136396D02*Y134616D01*
X67937Y137909D02*X66157Y139689D01*
X64822D02*X66157D01*
X64377Y139244D02*X64822Y139689D01*
X64377Y139244D02*Y138354D01*
X64822Y137909D02*X64377Y138354D01*
X64822Y137909D02*X65712D01*
X66157Y138354D01*
Y139689D02*Y138354D01*
X57860Y118434D02*X58305Y118879D01*
X57860Y118434D02*Y117099D01*
X58305Y116654D02*X57860Y117099D01*
X58305Y116654D02*X59195D01*
X59640Y117099D01*
Y118434D02*Y117099D01*
Y118434D02*X60085Y118879D01*
X60975D01*
X61420Y118434D02*X60975Y118879D01*
X61420Y118434D02*Y117099D01*
X60975Y116654D02*X61420Y117099D01*
X60975Y119947D02*X58305Y122617D01*
X57860Y125465D02*X58305Y125910D01*
X57860Y125465D02*Y124130D01*
X58305Y123685D02*X57860Y124130D01*
X58305Y123685D02*X59195D01*
X59640Y124130D01*
Y125465D02*Y124130D01*
Y125465D02*X60085Y125910D01*
X60975D01*
X61420Y125465D02*X60975Y125910D01*
X61420Y125465D02*Y124130D01*
X60975Y123685D02*X61420Y124130D01*
X60975Y126978D02*X58305Y129648D01*
X57860Y132051D02*Y130716D01*
Y132051D02*X60975D01*
X61420Y131606D02*X60975Y132051D01*
X61420Y131606D02*Y131161D01*
X60975Y130716D02*X61420Y131161D01*
Y134454D02*Y133564D01*
X57860Y134009D02*X61420D01*
X58750Y133119D02*X57860Y134009D01*
X58284Y105343D02*X58674Y105733D01*
X58284Y105343D02*Y104173D01*
X58674Y103783D02*X58284Y104173D01*
X58674Y103783D02*X59454D01*
X59844Y104173D01*
Y105343D02*Y104173D01*
Y105343D02*X60234Y105733D01*
X61014D01*
X61404Y105343D02*X61014Y105733D01*
X61404Y105343D02*Y104173D01*
X61014Y103783D02*X61404Y104173D01*
X61014Y106669D02*X58674Y109009D01*
X58284Y111115D02*Y109945D01*
Y111115D02*X61014D01*
X61404Y110725D02*X61014Y111115D01*
X61404Y110725D02*Y110335D01*
X61014Y109945D02*X61404Y110335D01*
X58674Y112051D02*X58284Y112441D01*
Y113221D02*Y112441D01*
Y113221D02*X58674Y113611D01*
X61014D01*
X61404Y113221D02*X61014Y113611D01*
X61404Y113221D02*Y112441D01*
X61014Y112051D02*X61404Y112441D01*
X59844Y113611D02*Y112441D01*
X70946Y204123D02*X71446Y204623D01*
X70946Y204123D02*Y202623D01*
X71446Y202123D02*X70946Y202623D01*
X71446Y202123D02*X72446D01*
X72946Y202623D01*
Y204123D02*Y202623D01*
Y204123D02*X73446Y204623D01*
X74446D01*
X74946Y204123D02*X74446Y204623D01*
X74946Y204123D02*Y202623D01*
X74446Y202123D02*X74946Y202623D01*
X74446Y205823D02*X71446Y208823D01*
X70946Y210523D02*X74946D01*
X70946Y212023D02*X71446Y212523D01*
X74446D01*
X74946Y212023D02*X74446Y212523D01*
X74946Y212023D02*Y210023D01*
X70946Y212023D02*Y210023D01*
X74446Y213723D02*X74946Y214223D01*
X73446Y213723D02*X74446D01*
X73446D02*X72946Y214223D01*
Y215223D02*Y214223D01*
Y215223D02*X73446Y215723D01*
X74446D01*
X74946Y215223D02*X74446Y215723D01*
X74946Y215223D02*Y214223D01*
X72446Y213723D02*X72946Y214223D01*
X71446Y213723D02*X72446D01*
X71446D02*X70946Y214223D01*
Y215223D02*Y214223D01*
Y215223D02*X71446Y215723D01*
X72446D01*
X72946Y215223D02*X72446Y215723D01*
X57859Y181428D02*X58304Y181873D01*
X57859Y181428D02*Y180093D01*
X58304Y179648D02*X57859Y180093D01*
X58304Y179648D02*X59194D01*
X59639Y180093D01*
Y181428D02*Y180093D01*
Y181428D02*X60084Y181873D01*
X60974D01*
X61419Y181428D02*X60974Y181873D01*
X61419Y181428D02*Y180093D01*
X60974Y179648D02*X61419Y180093D01*
X60974Y182941D02*X58304Y185611D01*
X57859Y188459D02*X58304Y188904D01*
X57859Y188459D02*Y187124D01*
X58304Y186679D02*X57859Y187124D01*
X58304Y186679D02*X59194D01*
X59639Y187124D01*
Y188459D02*Y187124D01*
Y188459D02*X60084Y188904D01*
X60974D01*
X61419Y188459D02*X60974Y188904D01*
X61419Y188459D02*Y187124D01*
X60974Y186679D02*X61419Y187124D01*
X60974Y189972D02*X58304Y192642D01*
X57859Y195045D02*Y193710D01*
Y195045D02*X60974D01*
X61419Y194600D02*X60974Y195045D01*
X61419Y194600D02*Y194155D01*
X60974Y193710D02*X61419Y194155D01*
X58304Y196113D02*X57859Y196558D01*
Y197893D02*Y196558D01*
Y197893D02*X58304Y198338D01*
X59194D01*
X61419Y196113D02*X59194Y198338D01*
X61419D02*Y196113D01*
X70947Y187193D02*X71447Y187693D01*
X70947Y187193D02*Y185693D01*
X71447Y185193D02*X70947Y185693D01*
X71447Y185193D02*X72447D01*
X72947Y185693D01*
Y187193D02*Y185693D01*
Y187193D02*X73447Y187693D01*
X74447D01*
X74947Y187193D02*X74447Y187693D01*
X74947Y187193D02*Y185693D01*
X74447Y185193D02*X74947Y185693D01*
X74447Y188893D02*X71447Y191893D01*
X70947Y193593D02*X74947D01*
X70947Y195093D02*X71447Y195593D01*
X74447D01*
X74947Y195093D02*X74447Y195593D01*
X74947Y195093D02*Y193093D01*
X70947Y195093D02*Y193093D01*
X74947Y196793D02*X72447Y199293D01*
X70947D02*X72447D01*
X70947D02*Y196793D01*
X169499Y197690D02*X173059D01*
X169499Y199025D02*X169944Y199470D01*
X172614D01*
X173059Y199025D02*X172614Y199470D01*
X173059Y199025D02*Y197245D01*
X169499Y199025D02*Y197245D01*
X171279Y200538D02*X169499Y202318D01*
X171279Y202763D02*Y200538D01*
X169499Y202318D02*X173059D01*
X169246Y184926D02*Y182196D01*
X169636Y181806D01*
X170416D01*
X170806Y182196D01*
Y184926D02*Y182196D01*
X171742Y181806D02*X173692Y183756D01*
Y184926D02*Y183756D01*
X171742Y184926D02*X173692D01*
X161256Y195876D02*X162816D01*
X163206Y195486D01*
Y194706D01*
X162816Y194316D02*X163206Y194706D01*
X161646Y194316D02*X162816D01*
X161646Y195876D02*Y192756D01*
Y194316D02*X163206Y192756D01*
X164142Y195486D02*X164532Y195876D01*
X165702D01*
X166092Y195486D01*
Y194706D01*
X164142Y192756D02*X166092Y194706D01*
X164142Y192756D02*X166092D01*
X167028D02*X168978Y194706D01*
Y195876D02*Y194706D01*
X167028Y195876D02*X168978D01*
X163225Y191349D02*X164785D01*
X165175Y190959D01*
Y190179D01*
X164785Y189789D02*X165175Y190179D01*
X163615Y189789D02*X164785D01*
X163615Y191349D02*Y188229D01*
Y189789D02*X165175Y188229D01*
X166111Y190959D02*X166501Y191349D01*
X167671D01*
X168061Y190959D01*
Y190179D01*
X166111Y188229D02*X168061Y190179D01*
X166111Y188229D02*X168061D01*
X168997Y188619D02*X169387Y188229D01*
X168997Y189399D02*Y188619D01*
Y189399D02*X169387Y189789D01*
X170167D01*
X170557Y189399D01*
Y188619D01*
X170167Y188229D02*X170557Y188619D01*
X169387Y188229D02*X170167D01*
X168997Y190179D02*X169387Y189789D01*
X168997Y190959D02*Y190179D01*
Y190959D02*X169387Y191349D01*
X170167D01*
X170557Y190959D01*
Y190179D01*
X170167Y189789D02*X170557Y190179D01*
X163378Y126795D02*Y125235D01*
Y126795D02*X163768Y127185D01*
X164548D01*
X164938Y126795D02*X164548Y127185D01*
X164938Y126795D02*Y125625D01*
X163378D02*X166498D01*
X164938D02*X166498Y127185D01*
X163768Y128121D02*X163378Y128511D01*
Y129681D02*Y128511D01*
Y129681D02*X163768Y130071D01*
X164548D01*
X166498Y128121D02*X164548Y130071D01*
X166498D02*Y128121D01*
X166108Y131007D02*X166498Y131397D01*
X163768Y131007D02*X166108D01*
X163768D02*X163378Y131397D01*
Y132177D02*Y131397D01*
Y132177D02*X163768Y132567D01*
X166108D01*
X166498Y132177D02*X166108Y132567D01*
X166498Y132177D02*Y131397D01*
X165718Y131007D02*X164158Y132567D01*
X167158Y156732D02*X168328D01*
X166768Y157122D02*X167158Y156732D01*
X166768Y159462D02*Y157122D01*
Y159462D02*X167158Y159852D01*
X168328D01*
X170434D02*X170824Y159462D01*
X169654Y159852D02*X170434D01*
X169264Y159462D02*X169654Y159852D01*
X169264Y159462D02*Y157122D01*
X169654Y156732D01*
X170434Y158292D02*X170824Y157902D01*
X169264Y158292D02*X170434D01*
X169654Y156732D02*X170434D01*
X170824Y157122D01*
Y157902D02*Y157122D01*
X171028Y214554D02*X173028D01*
X173528Y214054D01*
Y213054D01*
X173028Y212554D02*X173528Y213054D01*
X171528Y212554D02*X173028D01*
X171528Y214554D02*Y210554D01*
Y212554D02*X173528Y210554D01*
X175228D02*X176228D01*
X175728Y214554D02*Y210554D01*
X174728Y213554D02*X175728Y214554D01*
M02*
