M48
INCH
T76C0.020
T75C0.060
T74C0.020
T73C0.035
%
T74
X010872Y004981
X011372Y004981
X013524Y008917
X013051Y007047
X013150Y009213
X013445Y005827
T76
X002835Y017973
X001378Y018799
X002244Y018642
X000669Y018248
X000394Y018701
X001850Y019626
X001850Y020099
X002323Y019508
X002323Y019980
X001260Y016122
X001850Y016181
X004134Y015689
X004134Y016162
X004606Y015689
X004606Y016162
X004134Y016634
X004606Y016634
X004606Y017106
X006713Y016555
X006713Y017087
X006713Y017618
X001614Y021044
X001417Y020256
X001063Y021398
X002933Y022087
X005571Y022914
X005886Y022599
X006201Y022284
X003032Y021477
X003406Y022028
X007677Y019902
X007795Y020807
X008740Y020807
X007795Y019272
X008740Y019272
X008937Y020059
X022697Y004981
X022697Y007461
X022500Y009921
X014193Y013248
X017106Y018524
X014193Y015157
X013543Y012402
X020157Y010532
X020630Y018268
X017126Y010610
X016673Y010610
X018583Y008681
X016437Y007520
X018583Y009272
X017264Y004862
X016437Y005827
X015591Y005374
X015591Y006260
X015079Y006772
X015571Y006929
X017067Y003189
X016437Y004055
X015591Y003307
X016437Y003110
X020354Y003544
X014232Y003642
X001457Y013898
X002106Y014154
X008169Y010551
X005787Y011280
X007067Y010551
X001457Y013425
X002402Y012343
X000433Y011359
X002402Y011673
X004410Y012303
X003406Y012422
X006575Y012579
X007563Y012747
X008031Y013622
X006949Y013563
X008012Y012500
X007303Y012343
X009724Y012992
X013012Y008169
X013366Y004587
X013524Y003681
X010748Y003386
X011516Y004528
X012008Y003386
X011988Y004055
X011811Y006260
X011791Y005217
X012776Y005217
X012342Y006398
X006850Y009409
X002284Y008603
X006299Y009409
X009075Y007421
X008012Y006654
X008012Y006201
X009547Y006634
X009350Y003347
X006673Y003248
X006693Y005788
X006693Y005335
X009547Y005748
X008504Y004154
X009508Y004961
X008012Y005748
X009094Y005748
X006673Y003760
X006673Y004528
X008169Y003189
T73
X018586Y007973
X019586Y007473
X018586Y005973
X019586Y006473
X018586Y006973
X019586Y005473
X019586Y004473
X018586Y004973
X022315Y021634
X020315Y021634
X001772Y007500
X002772Y007500
X003772Y007500
X003780Y009036
X004772Y007500
X004780Y009036
X005114Y011295
X004114Y011795
X005114Y012295
X000780Y009036
X001780Y009036
X002780Y009036
X005114Y018185
X005114Y020185
X005114Y021185
X005114Y019185
X004114Y018685
X004114Y020685
X004114Y019685
X004114Y021685
X005114Y013295
X004114Y013795
X004114Y012795
X004114Y014795
X005114Y014295
X004055Y017736
X002717Y014823
T75
X021201Y014622
X021201Y017575
X015866Y023957
X012913Y023957
M30
