G04 start of page 10 for group -4078 idx -4078 *
G04 Title: (unknown), bottomsilk *
G04 Creator: pcb 20110918 *
G04 CreationDate: Wed 12 Sep 2012 14:20:39 GMT UTC *
G04 For: rob *
G04 Format: Gerber/RS-274X *
G04 PCB-Dimensions: 236220 263780 *
G04 PCB-Coordinate-Origin: lower left *
%MOIN*%
%FSLAX25Y25*%
%LNBOTTOMSILK*%
%ADD120C,0.0200*%
%ADD119C,0.0080*%
%ADD118C,0.0100*%
%ADD117C,0.0079*%
%ADD116C,0.0001*%
G54D116*G36*
X28543Y254725D02*X113780Y254922D01*
Y232087D01*
X28543D01*
Y254725D01*
G37*
G54D117*X62599Y140946D02*Y130514D01*
X67914Y142128D02*Y148822D01*
X68111Y130514D02*Y140946D01*
X56693Y130514D02*X68111D01*
X75000Y158270D02*Y145079D01*
X67914Y148822D02*X68504Y149412D01*
X69685Y145079D02*Y158270D01*
X80315Y145079D02*X69685D01*
X80315Y158270D02*Y145079D01*
X56693Y140946D02*Y130514D01*
X13780Y133663D02*X12795Y132680D01*
X13780Y136419D02*Y133663D01*
X18111Y140750D02*X13780Y136419D01*
X25985Y140750D02*X18111D01*
X13386Y141735D02*X11024Y139373D01*
X68111Y140946D02*X56693Y140947D01*
X69685Y158272D02*X80315Y158268D01*
X70079Y178742D02*Y159648D01*
X83071Y159451D02*Y178742D01*
X70079Y159451D02*X83071D01*
X75985Y219293D02*Y178939D01*
X56693Y219293D02*X75985D01*
X56693Y178939D02*Y219293D01*
X77756Y179727D02*Y180514D01*
X77757Y180513D02*X76970Y181300D01*
X75985Y178939D02*X56693D01*
X83071Y178742D02*X70079D01*
G54D118*X67913Y92323D02*X68504Y91733D01*
G54D117*X164173Y114567D02*X159448D01*
X168110Y119292D02*Y118504D01*
X164173Y114567D01*
X159448D02*X159055Y114174D01*
X136417Y157285D02*Y157286D01*
X135630Y158073D01*
Y166538D01*
X136220Y167128D01*
X146457Y152364D02*Y152365D01*
X147047Y152955D01*
Y161814D01*
X146654Y162207D01*
X179724Y81892D02*Y78940D01*
X183465Y75199D01*
X187008D01*
X179528Y70868D02*Y68703D01*
X179724Y81892D02*X179134Y82482D01*
X179528Y70868D02*X179134Y71262D01*
X179528Y68703D02*X183268Y64963D01*
X212598Y52561D02*X233071D01*
Y77758D02*X212598D01*
Y52561D01*
X216142Y101577D02*X230906D01*
Y120868D01*
X233071Y52561D02*Y77758D01*
X230118Y100592D02*Y78939D01*
X230906Y120868D02*X216142D01*
Y101577D01*
X183268Y64963D02*X188188D01*
X193307Y59844D01*
X197047D01*
X200984Y55907D01*
Y50396D01*
X201575Y49805D01*
X187008Y75199D02*X192323Y69884D01*
X201378D01*
G54D118*X173069Y108435D02*Y127435D01*
X204069D01*
Y108435D01*
X173069D02*X186069D01*
X204069D02*X191069D01*
G75*G03X186069Y108435I-2500J0D01*G01*
X204069Y148301D02*Y129301D01*
X173069D02*X204069D01*
X173069Y148301D02*Y129301D01*
X191069Y148301D02*X204069D01*
X173069D02*X186069D01*
G75*G03X191069Y148301I2500J0D01*G01*
G54D117*X194256Y105250D02*X195830D01*
X194256Y102234D02*X195830D01*
X176808D02*X178382D01*
X176808Y105250D02*X178382D01*
G54D118*X124856Y131828D02*X138756D01*
X124856Y144628D02*Y131828D01*
Y144628D02*X138756D01*
Y131828D01*
G54D117*X120634Y147903D02*X122208D01*
X120634Y150919D02*X122208D01*
G54D119*X144290Y177756D02*Y176970D01*
X138780Y177756D02*Y176970D01*
G54D118*X133763Y174061D02*Y160161D01*
X120963D02*X133763D01*
X120963Y174061D02*Y160161D01*
Y174061D02*X133763D01*
G54D117*X140712Y163911D02*X142286D01*
X140712Y160895D02*X142286D01*
X140713Y169030D02*X142287D01*
X140713Y166014D02*X142287D01*
X123980Y177234D02*X125554D01*
X123980Y180250D02*X125554D01*
X153186Y113518D02*X154760D01*
X153186Y110502D02*X154760D01*
X121493Y123101D02*X123067D01*
X121493Y126117D02*X123067D01*
X121493Y116604D02*X123067D01*
X121493Y119620D02*X123067D01*
X135201Y116604D02*X136775D01*
X135201Y119620D02*X136775D01*
X135201Y110500D02*X136775D01*
X135201Y113516D02*X136775D01*
X129461Y109808D02*Y108234D01*
X126445Y109808D02*Y108234D01*
X153186Y107219D02*X154760D01*
X153186Y104203D02*X154760D01*
X161287Y109682D02*Y108108D01*
X164303Y109682D02*Y108108D01*
G54D119*X162792Y175888D02*Y158566D01*
X149018Y175888D02*Y158566D01*
G54D117*X170406Y179690D02*Y178116D01*
X167390Y179690D02*Y178116D01*
G54D118*X144811Y147181D02*X163811D01*
Y116181D01*
X144811D02*X163811D01*
X144811Y147181D02*Y134181D01*
Y129181D02*Y116181D01*
Y129181D02*G75*G03X144811Y134181I0J2500D01*G01*
G54D117*X220012Y161059D02*Y159485D01*
X216996Y161059D02*Y159485D01*
X226902Y160988D02*Y159414D01*
X223886Y160988D02*Y159414D01*
G54D118*X204069Y192789D02*Y173789D01*
X173069D02*X204069D01*
X173069Y192789D02*Y173789D01*
X191069Y192789D02*X204069D01*
X173069D02*X186069D01*
G75*G03X191069Y192789I2500J0D01*G01*
X173069Y152923D02*Y171923D01*
X204069D01*
Y152923D01*
X173069D02*X186069D01*
X204069D02*X191069D01*
G75*G03X186069Y152923I-2500J0D01*G01*
G54D117*X70209Y87437D02*Y85863D01*
X67193Y87437D02*Y85863D01*
G54D118*X51598Y91674D02*Y78874D01*
X65498D01*
Y91674D02*Y78874D01*
X51598Y91674D02*X65498D01*
G54D119*X202756Y51577D02*Y46853D01*
X210236Y51577D02*Y46853D01*
X202756Y70867D02*Y66143D01*
X210236Y70867D02*Y66143D01*
X199804Y80317D02*X204528D01*
X199804Y87797D02*X204528D01*
X199802Y89963D02*X204526D01*
X199802Y97443D02*X204526D01*
X220275Y60828D02*X224999D01*
X220275Y53348D02*X224999D01*
X220275Y62797D02*X224999D01*
X220275Y70277D02*X224999D01*
G54D117*X218862Y48297D02*X220436D01*
X218862Y51313D02*X220436D01*
X218862Y73100D02*X220436D01*
X218862Y76116D02*X220436D01*
X194358Y32911D02*Y31337D01*
X197374Y32911D02*Y31337D01*
G54D118*X120258Y99286D02*Y80634D01*
Y99286D02*X151390D01*
Y80634D01*
X120258D02*X133324D01*
X138324D02*X151390D01*
X138324D02*G75*G03X133324Y80634I-2500J0D01*G01*
G54D117*X117059Y95903D02*Y94329D01*
X114043Y95903D02*Y94329D01*
X145634Y78675D02*X147208D01*
X145634Y75659D02*X147208D01*
X134879D02*X136453D01*
X134879Y78675D02*X136453D01*
X164437Y88155D02*Y86581D01*
X167453Y88155D02*Y86581D01*
X156169Y90517D02*Y88943D01*
X159185Y90517D02*Y88943D01*
G54D119*X179921Y28546D02*X184645D01*
X179921Y36026D02*X184645D01*
X179921Y37798D02*X184645D01*
X179921Y45278D02*X184645D01*
X179133Y60238D02*Y59452D01*
X173623Y60238D02*Y59452D01*
G54D117*X160169Y41376D02*Y39802D01*
X157153Y41376D02*Y39802D01*
X75721Y87437D02*Y85863D01*
X72705Y87437D02*Y85863D01*
X123658Y75659D02*X125232D01*
X123658Y78675D02*X125232D01*
G54D118*X121835Y49190D02*X134901D01*
X139901D02*X152967D01*
X121835D02*Y27978D01*
X152967D01*
Y49190D02*Y27978D01*
X134901Y49190D02*G75*G03X139901Y49190I2500J0D01*G01*
G54D117*X111185Y69163D02*X112759D01*
X111185Y72179D02*X112759D01*
X114043Y85470D02*Y83896D01*
X117059Y85470D02*Y83896D01*
X110563Y79887D02*Y78313D01*
X107547Y79887D02*Y78313D01*
G54D120*X169784Y228419D02*Y220007D01*
G54D118*X162784Y218307D01*
X138484D02*X162784D01*
X138484Y230119D02*Y218307D01*
Y230119D02*X162784D01*
X169784Y228419D02*X162784Y230119D01*
X160415Y210918D02*Y191918D01*
X129415D02*X160415D01*
X129415Y210918D02*Y191918D01*
X147415Y210918D02*X160415D01*
X129415D02*X142415D01*
G75*G03X147415Y210918I2500J0D01*G01*
G54D119*X63976Y200790D02*X68700D01*
X63976Y208270D02*X68700D01*
X63976Y210632D02*X68700D01*
X63976Y218112D02*X68700D01*
G54D118*X89274Y201926D02*X76474D01*
X89274Y215826D02*Y201926D01*
X76474Y215826D02*X89274D01*
X76474Y201926D02*Y215826D01*
Y198865D02*X89274D01*
X76474D02*Y184965D01*
X89274D01*
Y198865D02*Y184965D01*
G54D117*X63846Y136453D02*Y134879D01*
X66862Y136453D02*Y134879D01*
X113422Y183730D02*X114996D01*
X113422Y186746D02*X114996D01*
X114800Y154399D02*X116374D01*
X114800Y157415D02*X116374D01*
X135271Y101643D02*X136845D01*
X135271Y104659D02*X136845D01*
X115587Y138651D02*X117161D01*
X115587Y141667D02*X117161D01*
X113422Y177234D02*X114996D01*
X113422Y180250D02*X114996D01*
G54D118*X18542Y139495D02*Y127695D01*
X32442D01*
Y139495D02*Y127695D01*
X27042Y139495D02*X32442D01*
X18542D02*X23942D01*
G75*G03X26942Y139495I1500J0D01*G01*
X27328Y97061D02*X24728Y98261D01*
X44928Y97061D02*X27328D01*
X44928Y108061D02*Y97061D01*
X27328Y108061D02*X44928D01*
X24728Y106861D02*X27328Y108061D01*
G54D120*X24728Y98261D02*Y106861D01*
G54D118*X82027Y130144D02*X69227D01*
X82027Y144044D02*Y130144D01*
X69227Y144044D02*X82027D01*
X69227Y130144D02*Y144044D01*
X55332Y128478D02*X68132D01*
X55332D02*Y114578D01*
X68132D01*
Y128478D02*Y114578D01*
G54D117*X58138Y136453D02*Y134879D01*
X61154Y136453D02*Y134879D01*
X60988Y145603D02*X62562D01*
X60988Y142587D02*X62562D01*
G54D118*X19917Y126171D02*X22517Y124971D01*
X2317Y126171D02*X19917D01*
X2317D02*Y115171D01*
X19917D01*
X22517Y116371D02*X19917Y115171D01*
G54D120*X22517Y124971D02*Y116371D01*
G54D117*X7517Y145800D02*X9091D01*
X7517Y142784D02*X9091D01*
X7641Y131628D02*X9215D01*
X7641Y128612D02*X9215D01*
X6854Y135304D02*X8428D01*
X6854Y138320D02*X8428D01*
X54886Y99478D02*X56460D01*
X54886Y102494D02*X56460D01*
X54886Y105382D02*X56460D01*
X54886Y108398D02*X56460D01*
G54D119*X63976Y180120D02*X68700D01*
X63976Y187600D02*X68700D01*
X63976Y189371D02*X68700D01*
X63976Y196851D02*X68700D01*
G54D118*X20807Y189693D02*X33873D01*
X2741D02*X15807D01*
X33873Y210905D02*Y189693D01*
X2741Y210905D02*X33873D01*
X2741D02*Y189693D01*
X20807D02*G75*G03X15807Y189693I-2500J0D01*G01*
G54D117*X7414Y217949D02*Y216375D01*
X4398Y217949D02*Y216375D01*
X31532Y182941D02*X33106D01*
X31532Y185957D02*X33106D01*
G54D118*X64012Y179066D02*Y150566D01*
X22612Y179066D02*X64012D01*
X22612D02*Y150566D01*
X64012D01*
G54D119*X4135Y166142D02*Y165356D01*
X9645Y166142D02*Y165356D01*
G54D117*X141505Y50514D02*Y54014D01*
X142005Y54514D01*
X143005D01*
X143505Y54014D01*
Y50514D02*Y54014D01*
X145205Y54514D02*X146205D01*
X145705Y50514D02*Y54514D01*
X144705Y51514D02*X145705Y50514D01*
X147405Y54014D02*X147905Y54514D01*
X147405Y51014D02*Y54014D01*
Y51014D02*X147905Y50514D01*
X148905D01*
X149405Y51014D01*
Y54014D01*
X148905Y54514D02*X149405Y54014D01*
X147905Y54514D02*X148905D01*
X147405Y53514D02*X149405Y51514D01*
X150605Y54014D02*X151105Y54514D01*
X150605Y51014D02*Y54014D01*
Y51014D02*X151105Y50514D01*
X152105D01*
X152605Y51014D01*
Y54014D01*
X152105Y54514D02*X152605Y54014D01*
X151105Y54514D02*X152105D01*
X150605Y53514D02*X152605Y51514D01*
X169687Y46672D02*Y50672D01*
Y46672D02*X171687D01*
X169687Y48672D02*X171187D01*
X173387Y50672D02*X174387D01*
X173887Y46672D02*Y50672D01*
X172887Y47672D02*X173887Y46672D01*
X175587Y50172D02*X176087Y50672D01*
X175587Y47172D02*Y50172D01*
Y47172D02*X176087Y46672D01*
X177087D01*
X177587Y47172D01*
Y50172D01*
X177087Y50672D02*X177587Y50172D01*
X176087Y50672D02*X177087D01*
X175587Y49672D02*X177587Y47672D01*
X178787Y47172D02*X179287Y46672D01*
X180787D01*
X181287Y47172D01*
Y48172D01*
X178787Y50672D02*X181287Y48172D01*
X178787Y50672D02*X181287D01*
X165826Y44692D02*Y46192D01*
X165326Y46692D02*X165826Y46192D01*
X162326Y46692D02*X165326D01*
X162326D02*X161826Y46192D01*
Y44692D02*Y46192D01*
X165826Y41992D02*Y42992D01*
X161826Y42492D02*X165826D01*
X162826Y43492D02*X161826Y42492D01*
X165326Y40792D02*X165826Y40292D01*
X162326Y40792D02*X165326D01*
X162326D02*X161826Y40292D01*
Y39292D02*Y40292D01*
Y39292D02*X162326Y38792D01*
X165326D01*
X165826Y39292D02*X165326Y38792D01*
X165826Y39292D02*Y40292D01*
X164826Y40792D02*X162826Y38792D01*
X162326Y37592D02*X161826Y37092D01*
Y35592D02*Y37092D01*
Y35592D02*X162326Y35092D01*
X163326D01*
X165826Y37592D02*X163326Y35092D01*
X165826D02*Y37592D01*
X109788Y67207D02*X111288D01*
X109288Y66707D02*X109788Y67207D01*
X109288Y63707D02*Y66707D01*
Y63707D02*X109788Y63207D01*
X111288D01*
X112488Y67207D02*X114988Y64707D01*
Y63207D02*Y64707D01*
X112488Y63207D02*X114988D01*
X120239Y69900D02*X122239D01*
X122739Y70400D01*
Y71400D01*
X122239Y71900D02*X122739Y71400D01*
X120739Y71900D02*X122239D01*
X120739Y69900D02*Y73900D01*
Y71900D02*X122739Y73900D01*
X124439D02*X125439D01*
X124939Y69900D02*Y73900D01*
X123939Y70900D02*X124939Y69900D01*
X126639D02*X128639D01*
X126639D02*Y71900D01*
X127139Y71400D01*
X128139D01*
X128639Y71900D01*
Y73400D01*
X128139Y73900D02*X128639Y73400D01*
X127139Y73900D02*X128139D01*
X126639Y73400D02*X127139Y73900D01*
X108085Y89107D02*Y91107D01*
Y89107D02*X108585Y88607D01*
X109585D01*
X110085Y89107D02*X109585Y88607D01*
X110085Y89107D02*Y90607D01*
X108085D02*X112085D01*
X110085D02*X112085Y88607D01*
X108085Y85907D02*X108585Y85407D01*
X108085Y85907D02*Y86907D01*
X108585Y87407D02*X108085Y86907D01*
X108585Y87407D02*X111585D01*
X112085Y86907D01*
X110085Y85907D02*X110585Y85407D01*
X110085Y85907D02*Y87407D01*
X112085Y85907D02*Y86907D01*
Y85907D02*X111585Y85407D01*
X110585D02*X111585D01*
X101787Y81430D02*Y83430D01*
Y81430D02*X102287Y80930D01*
X103287D01*
X103787Y81430D02*X103287Y80930D01*
X103787Y81430D02*Y82930D01*
X101787D02*X105787D01*
X103787D02*X105787Y80930D01*
Y78230D02*Y79230D01*
X101787Y78730D02*X105787D01*
X102787Y79730D02*X101787Y78730D01*
X105287Y77030D02*X105787Y76530D01*
X102287Y77030D02*X105287D01*
X102287D02*X101787Y76530D01*
Y75530D02*Y76530D01*
Y75530D02*X102287Y75030D01*
X105287D01*
X105787Y75530D02*X105287Y75030D01*
X105787Y75530D02*Y76530D01*
X104787Y77030D02*X102787Y75030D01*
X164189Y79531D02*Y81531D01*
Y79531D02*X164689Y79031D01*
X165689D01*
X166189Y79531D02*X165689Y79031D01*
X166189Y79531D02*Y81031D01*
X164189D02*X168189D01*
X166189D02*X168189Y79031D01*
X164189Y75831D02*Y77831D01*
X166189D01*
X165689Y77331D01*
Y76331D02*Y77331D01*
Y76331D02*X166189Y75831D01*
X167689D01*
X168189Y76331D02*X167689Y75831D01*
X168189Y76331D02*Y77331D01*
X167689Y77831D02*X168189Y77331D01*
X144059Y69900D02*X146059D01*
X146559Y70400D01*
Y71400D01*
X146059Y71900D02*X146559Y71400D01*
X144559Y71900D02*X146059D01*
X144559Y69900D02*Y73900D01*
Y71900D02*X146559Y73900D01*
X147759D02*X149759Y71900D01*
Y70400D02*Y71900D01*
X149259Y69900D02*X149759Y70400D01*
X148259Y69900D02*X149259D01*
X147759Y70400D02*X148259Y69900D01*
X147759Y70400D02*Y71400D01*
X148259Y71900D01*
X149759D01*
X131066Y69899D02*X133066D01*
X133566Y70399D01*
Y71399D01*
X133066Y71899D02*X133566Y71399D01*
X131566Y71899D02*X133066D01*
X131566Y69899D02*Y73899D01*
Y71899D02*X133566Y73899D01*
X135266D02*X136266D01*
X135766Y69899D02*Y73899D01*
X134766Y70899D02*X135766Y69899D01*
X137466Y70399D02*X137966Y69899D01*
X139466D01*
X139966Y70399D01*
Y71399D01*
X137466Y73899D02*X139966Y71399D01*
X137466Y73899D02*X139966D01*
X54188Y73346D02*X54688Y73846D01*
X52688Y73346D02*X54188D01*
X52188Y73846D02*X52688Y73346D01*
X52188Y73846D02*Y74846D01*
X52688Y75346D01*
X54188D01*
X54688Y75846D01*
Y76846D01*
X54188Y77346D02*X54688Y76846D01*
X52688Y77346D02*X54188D01*
X52188Y76846D02*X52688Y77346D01*
X55888Y76846D02*X58888Y73846D01*
X60088D02*Y76846D01*
Y73846D02*X60588Y73346D01*
X61588D01*
X62088Y73846D01*
Y76846D01*
X61588Y77346D02*X62088Y76846D01*
X60588Y77346D02*X61588D01*
X60088Y76846D02*X60588Y77346D01*
X61088Y76346D02*X62088Y77346D01*
X63788D02*X64788D01*
X64288Y73346D02*Y77346D01*
X63288Y74346D02*X64288Y73346D01*
X155924Y81697D02*Y83697D01*
Y81697D02*X156424Y81197D01*
X157424D01*
X157924Y81697D02*X157424Y81197D01*
X157924Y81697D02*Y83197D01*
X155924D02*X159924D01*
X157924D02*X159924Y81197D01*
Y78497D02*Y79497D01*
X155924Y78997D02*X159924D01*
X156924Y79997D02*X155924Y78997D01*
Y75797D02*X156424Y75297D01*
X155924Y75797D02*Y76797D01*
X156424Y77297D02*X155924Y76797D01*
X156424Y77297D02*X159424D01*
X159924Y76797D01*
X157924Y75797D02*X158424Y75297D01*
X157924Y75797D02*Y77297D01*
X159924Y75797D02*Y76797D01*
Y75797D02*X159424Y75297D01*
X158424D02*X159424D01*
X174993Y75411D02*Y76971D01*
Y75411D02*X175383Y75021D01*
X176163D01*
X176553Y75411D02*X176163Y75021D01*
X176553Y75411D02*Y76581D01*
X174993D02*X178113D01*
X176553D02*X178113Y75021D01*
Y72915D02*Y73695D01*
X174993Y73305D02*X178113D01*
X175773Y74085D02*X174993Y73305D01*
X177723Y71979D02*X178113Y71589D01*
X175383Y71979D02*X177723D01*
X175383D02*X174993Y71589D01*
Y70809D02*Y71589D01*
Y70809D02*X175383Y70419D01*
X177723D01*
X178113Y70809D02*X177723Y70419D01*
X178113Y70809D02*Y71589D01*
X177333Y71979D02*X175773Y70419D01*
X176553Y69483D02*X174993Y67923D01*
X176553Y67533D02*Y69483D01*
X174993Y67923D02*X178113D01*
X174794Y86633D02*Y88193D01*
Y86633D02*X175184Y86243D01*
X175964D01*
X176354Y86633D02*X175964Y86243D01*
X176354Y86633D02*Y87803D01*
X174794D02*X177914D01*
X176354D02*X177914Y86243D01*
Y84137D02*Y84917D01*
X174794Y84527D02*X177914D01*
X175574Y85307D02*X174794Y84527D01*
X177914Y82031D02*Y82811D01*
X174794Y82421D02*X177914D01*
X175574Y83201D02*X174794Y82421D01*
X177914Y79925D02*Y80705D01*
X174794Y80315D02*X177914D01*
X175574Y81095D02*X174794Y80315D01*
X217913Y102970D02*X219913D01*
X220413Y103470D01*
Y104470D01*
X219913Y104970D02*X220413Y104470D01*
X218413Y104970D02*X219913D01*
X218413Y102970D02*Y106970D01*
Y104970D02*X220413Y106970D01*
X222113D02*X223113D01*
X222613Y102970D02*Y106970D01*
X221613Y103970D02*X222613Y102970D01*
X224813Y106970D02*X225813D01*
X225313Y102970D02*Y106970D01*
X224313Y103970D02*X225313Y102970D01*
X227013Y106470D02*X227513Y106970D01*
X227013Y103470D02*Y106470D01*
Y103470D02*X227513Y102970D01*
X228513D01*
X229013Y103470D01*
Y106470D01*
X228513Y106970D02*X229013Y106470D01*
X227513Y106970D02*X228513D01*
X227013Y105970D02*X229013Y103970D01*
X205664Y109925D02*Y112595D01*
Y109925D02*X206109Y109480D01*
X206999D01*
X207444Y109925D01*
Y112595D01*
X206999Y113040D02*X207444Y112595D01*
X206109Y113040D02*X206999D01*
X205664Y112595D02*X206109Y113040D01*
X206554Y112150D02*X207444Y113040D01*
X208512Y111260D02*X210292Y109480D01*
X208512Y111260D02*X210737D01*
X210292Y109480D02*Y113040D01*
X217985Y109072D02*X219985D01*
X220485Y109572D01*
Y110572D01*
X219985Y111072D02*X220485Y110572D01*
X218485Y111072D02*X219985D01*
X218485Y109072D02*Y113072D01*
Y111072D02*X220485Y113072D01*
X222185D02*X223185D01*
X222685Y109072D02*Y113072D01*
X221685Y110072D02*X222685Y109072D01*
X224885Y113072D02*X225885D01*
X225385Y109072D02*Y113072D01*
X224385Y110072D02*X225385Y109072D01*
X227085Y109572D02*X227585Y109072D01*
X229085D01*
X229585Y109572D01*
Y110572D01*
X227085Y113072D02*X229585Y110572D01*
X227085Y113072D02*X229585D01*
X212008Y92339D02*Y96339D01*
Y92339D02*X214008D01*
X212008Y94339D02*X213508D01*
X215708Y96339D02*X216708D01*
X216208Y92339D02*Y96339D01*
X215208Y93339D02*X216208Y92339D01*
X217908Y95839D02*X218408Y96339D01*
X217908Y92839D02*Y95839D01*
Y92839D02*X218408Y92339D01*
X219408D01*
X219908Y92839D01*
Y95839D01*
X219408Y96339D02*X219908Y95839D01*
X218408Y96339D02*X219408D01*
X217908Y95339D02*X219908Y93339D01*
X221108Y94339D02*X223108Y92339D01*
X221108Y94339D02*X223608D01*
X223108Y92339D02*Y96339D01*
X181101Y85253D02*Y89253D01*
Y85253D02*X183101D01*
X181101Y87253D02*X182601D01*
X184801Y89253D02*X185801D01*
X185301Y85253D02*Y89253D01*
X184301Y86253D02*X185301Y85253D01*
X187001Y88753D02*X187501Y89253D01*
X187001Y85753D02*Y88753D01*
Y85753D02*X187501Y85253D01*
X188501D01*
X189001Y85753D01*
Y88753D01*
X188501Y89253D02*X189001Y88753D01*
X187501Y89253D02*X188501D01*
X187001Y88253D02*X189001Y86253D01*
X190201Y85753D02*X190701Y85253D01*
X191701D01*
X192201Y85753D01*
Y88753D01*
X191701Y89253D02*X192201Y88753D01*
X190701Y89253D02*X191701D01*
X190201Y88753D02*X190701Y89253D01*
Y87253D02*X192201D01*
X225036Y48025D02*X226596D01*
X226986Y48415D01*
Y49195D01*
X226596Y49585D02*X226986Y49195D01*
X225426Y49585D02*X226596D01*
X225426Y48025D02*Y51145D01*
Y49585D02*X226986Y51145D01*
X228312D02*X229092D01*
X228702Y48025D02*Y51145D01*
X227922Y48805D02*X228702Y48025D01*
X230028Y50755D02*X230418Y51145D01*
X230028Y48415D02*Y50755D01*
Y48415D02*X230418Y48025D01*
X231198D01*
X231588Y48415D01*
Y50755D01*
X231198Y51145D02*X231588Y50755D01*
X230418Y51145D02*X231198D01*
X230028Y50365D02*X231588Y48805D01*
X232524Y50755D02*X232914Y51145D01*
X232524Y48415D02*Y50755D01*
Y48415D02*X232914Y48025D01*
X233694D01*
X234084Y48415D01*
Y50755D01*
X233694Y51145D02*X234084Y50755D01*
X232914Y51145D02*X233694D01*
X232524Y50365D02*X234084Y48805D01*
X217950Y115175D02*X219950D01*
X220450Y115675D01*
Y116675D01*
X219950Y117175D02*X220450Y116675D01*
X218450Y117175D02*X219950D01*
X218450Y115175D02*Y119175D01*
Y117175D02*X220450Y119175D01*
X222150D02*X223150D01*
X222650Y115175D02*Y119175D01*
X221650Y116175D02*X222650Y115175D01*
X224350Y118675D02*X224850Y119175D01*
X224350Y115675D02*Y118675D01*
Y115675D02*X224850Y115175D01*
X225850D01*
X226350Y115675D01*
Y118675D01*
X225850Y119175D02*X226350Y118675D01*
X224850Y119175D02*X225850D01*
X224350Y118175D02*X226350Y116175D01*
X227550Y118675D02*X228050Y119175D01*
X227550Y117675D02*Y118675D01*
Y117675D02*X228050Y117175D01*
X229050D01*
X229550Y117675D01*
Y118675D01*
X229050Y119175D02*X229550Y118675D01*
X228050Y119175D02*X229050D01*
X227550Y116675D02*X228050Y117175D01*
X227550Y115675D02*Y116675D01*
Y115675D02*X228050Y115175D01*
X229050D01*
X229550Y115675D01*
Y116675D01*
X229050Y117175D02*X229550Y116675D01*
X165962Y126309D02*Y128309D01*
Y126309D02*X166462Y125809D01*
X167462D01*
X167962Y126309D02*X167462Y125809D01*
X167962Y126309D02*Y127809D01*
X165962D02*X169962D01*
X167962D02*X169962Y125809D01*
Y123109D02*Y124109D01*
X165962Y123609D02*X169962D01*
X166962Y124609D02*X165962Y123609D01*
X169962Y120409D02*Y121409D01*
X165962Y120909D02*X169962D01*
X166962Y121909D02*X165962Y120909D01*
X200753Y101789D02*X202753D01*
X203253Y102289D01*
Y103289D01*
X202753Y103789D02*X203253Y103289D01*
X201253Y103789D02*X202753D01*
X201253Y101789D02*Y105789D01*
Y103789D02*X203253Y105789D01*
X204453Y102289D02*X204953Y101789D01*
X206453D01*
X206953Y102289D01*
Y103289D01*
X204453Y105789D02*X206953Y103289D01*
X204453Y105789D02*X206953D01*
X208653D02*X209653D01*
X209153Y101789D02*Y105789D01*
X208153Y102789D02*X209153Y101789D01*
X172799Y96671D02*X174799D01*
X175299Y97171D01*
Y98171D01*
X174799Y98671D02*X175299Y98171D01*
X173299Y98671D02*X174799D01*
X173299Y96671D02*Y100671D01*
Y98671D02*X175299Y100671D01*
X176499Y97171D02*X176999Y96671D01*
X178499D01*
X178999Y97171D01*
Y98171D01*
X176499Y100671D02*X178999Y98171D01*
X176499Y100671D02*X178999D01*
X180199Y98671D02*X182199Y96671D01*
X180199Y98671D02*X182699D01*
X182199Y96671D02*Y100671D01*
X166157Y111546D02*Y113546D01*
Y111546D02*X166657Y111046D01*
X167657D01*
X168157Y111546D02*X167657Y111046D01*
X168157Y111546D02*Y113046D01*
X166157D02*X170157D01*
X168157D02*X170157Y111046D01*
X166657Y109846D02*X166157Y109346D01*
Y108346D02*Y109346D01*
Y108346D02*X166657Y107846D01*
X169657D01*
X170157Y108346D02*X169657Y107846D01*
X170157Y108346D02*Y109346D01*
X169657Y109846D02*X170157Y109346D01*
X168157Y107846D02*Y109346D01*
Y106646D02*X166157Y104646D01*
X168157Y104146D02*Y106646D01*
X166157Y104646D02*X170157D01*
X171691Y63728D02*Y65393D01*
X171136Y65948D02*X171691Y65393D01*
X167806Y65948D02*X171136D01*
X167806D02*X167251Y65393D01*
Y63728D02*Y65393D01*
X171691Y60731D02*Y61841D01*
X167251Y61286D02*X171691D01*
X168361Y62396D02*X167251Y61286D01*
X171136Y59399D02*X171691Y58844D01*
X167806Y59399D02*X171136D01*
X167806D02*X167251Y58844D01*
Y57734D02*Y58844D01*
Y57734D02*X167806Y57179D01*
X171136D01*
X171691Y57734D02*X171136Y57179D01*
X171691Y57734D02*Y58844D01*
X170581Y59399D02*X168361Y57179D01*
X167806Y55847D02*X167251Y55292D01*
Y54182D02*Y55292D01*
Y54182D02*X167806Y53627D01*
X171136D01*
X171691Y54182D02*X171136Y53627D01*
X171691Y54182D02*Y55292D01*
X171136Y55847D02*X171691Y55292D01*
X169471Y53627D02*Y55292D01*
X177165Y23640D02*Y27640D01*
Y23640D02*X179165D01*
X177165Y25640D02*X178665D01*
X180865Y27640D02*X181865D01*
X181365Y23640D02*Y27640D01*
X180365Y24640D02*X181365Y23640D01*
X183065Y27140D02*X183565Y27640D01*
X183065Y24140D02*Y27140D01*
Y24140D02*X183565Y23640D01*
X184565D01*
X185065Y24140D01*
Y27140D01*
X184565Y27640D02*X185065Y27140D01*
X183565Y27640D02*X184565D01*
X183065Y26640D02*X185065Y24640D01*
X186765Y27640D02*X187765D01*
X187265Y23640D02*Y27640D01*
X186265Y24640D02*X187265Y23640D01*
X199032Y36154D02*Y38154D01*
Y36154D02*X199532Y35654D01*
X200532D01*
X201032Y36154D02*X200532Y35654D01*
X201032Y36154D02*Y37654D01*
X199032D02*X203032D01*
X201032D02*X203032Y35654D01*
Y32954D02*Y33954D01*
X199032Y33454D02*X203032D01*
X200032Y34454D02*X199032Y33454D01*
X202532Y31754D02*X203032Y31254D01*
X199532Y31754D02*X202532D01*
X199532D02*X199032Y31254D01*
Y30254D02*Y31254D01*
Y30254D02*X199532Y29754D01*
X202532D01*
X203032Y30254D02*X202532Y29754D01*
X203032Y30254D02*Y31254D01*
X202032Y31754D02*X200032Y29754D01*
X203032Y28554D02*X201032Y26554D01*
X199532D02*X201032D01*
X199032Y27054D02*X199532Y26554D01*
X199032Y27054D02*Y28054D01*
X199532Y28554D02*X199032Y28054D01*
X199532Y28554D02*X200532D01*
X201032Y28054D01*
Y26554D02*Y28054D01*
X77181Y91344D02*X77681Y90844D01*
X77181Y91344D02*Y92844D01*
X77681Y93344D02*X77181Y92844D01*
X77681Y93344D02*X78681D01*
X79181Y92844D01*
Y91344D02*Y92844D01*
Y91344D02*X79681Y90844D01*
X80681D01*
X81181Y91344D02*X80681Y90844D01*
X81181Y91344D02*Y92844D01*
X80681Y93344D02*X81181Y92844D01*
X80681Y89644D02*X77681Y86644D01*
X77181Y83444D02*Y85444D01*
Y83444D02*X77681Y82944D01*
X78681D01*
X79181Y83444D02*X78681Y82944D01*
X79181Y83444D02*Y84944D01*
X77181D02*X81181D01*
X79181D02*X81181Y82944D01*
X77181Y79744D02*Y81744D01*
X79181D01*
X78681Y81244D01*
Y80244D02*Y81244D01*
Y80244D02*X79181Y79744D01*
X80681D01*
X81181Y80244D02*X80681Y79744D01*
X81181Y80244D02*Y81244D01*
X80681Y81744D02*X81181Y81244D01*
X56689Y93324D02*X57189Y93824D01*
X55189Y93324D02*X56689D01*
X54689Y93824D02*X55189Y93324D01*
X54689Y93824D02*Y94824D01*
X55189Y95324D01*
X56689D01*
X57189Y95824D01*
Y96824D01*
X56689Y97324D02*X57189Y96824D01*
X55189Y97324D02*X56689D01*
X54689Y96824D02*X55189Y97324D01*
X58389Y96824D02*X61389Y93824D01*
X62589Y93324D02*X64589D01*
X65089Y93824D01*
Y94824D01*
X64589Y95324D02*X65089Y94824D01*
X63089Y95324D02*X64589D01*
X63089Y93324D02*Y97324D01*
Y95324D02*X65089Y97324D01*
X67789Y93324D02*X68289Y93824D01*
X66789Y93324D02*X67789D01*
X66289Y93824D02*X66789Y93324D01*
X66289Y93824D02*Y96824D01*
X66789Y97324D01*
X67789Y95324D02*X68289Y95824D01*
X66289Y95324D02*X67789D01*
X66789Y97324D02*X67789D01*
X68289Y96824D01*
Y95824D02*Y96824D01*
X108087Y98627D02*Y100627D01*
Y98627D02*X108587Y98127D01*
X109587D01*
X110087Y98627D02*X109587Y98127D01*
X110087Y98627D02*Y100127D01*
X108087D02*X112087D01*
X110087D02*X112087Y98127D01*
X110087Y96927D02*X108087Y94927D01*
X110087Y94427D02*Y96927D01*
X108087Y94927D02*X112087D01*
X62864Y99032D02*X63364Y99532D01*
X61364Y99032D02*X62864D01*
X60864Y99532D02*X61364Y99032D01*
X60864Y99532D02*Y100532D01*
X61364Y101032D01*
X62864D01*
X63364Y101532D01*
Y102532D01*
X62864Y103032D02*X63364Y102532D01*
X61364Y103032D02*X62864D01*
X60864Y102532D02*X61364Y103032D01*
X64564Y102532D02*X67564Y99532D01*
X68764Y99032D02*X70764D01*
X71264Y99532D01*
Y100532D01*
X70764Y101032D02*X71264Y100532D01*
X69264Y101032D02*X70764D01*
X69264Y99032D02*Y103032D01*
Y101032D02*X71264Y103032D01*
X72964D02*X73964D01*
X73464Y99032D02*Y103032D01*
X72464Y100032D02*X73464Y99032D01*
X62862Y105134D02*X63362Y105634D01*
X61362Y105134D02*X62862D01*
X60862Y105634D02*X61362Y105134D01*
X60862Y105634D02*Y106634D01*
X61362Y107134D01*
X62862D01*
X63362Y107634D01*
Y108634D01*
X62862Y109134D02*X63362Y108634D01*
X61362Y109134D02*X62862D01*
X60862Y108634D02*X61362Y109134D01*
X64562Y108634D02*X67562Y105634D01*
X68762Y105134D02*X70762D01*
X71262Y105634D01*
Y106634D01*
X70762Y107134D02*X71262Y106634D01*
X69262Y107134D02*X70762D01*
X69262Y105134D02*Y109134D01*
Y107134D02*X71262Y109134D01*
X72462Y105634D02*X72962Y105134D01*
X74462D01*
X74962Y105634D01*
Y106634D01*
X72462Y109134D02*X74962Y106634D01*
X72462Y109134D02*X74962D01*
X120438Y100489D02*Y103219D01*
X120828Y103609D01*
X121608D01*
X121998Y103219D01*
Y100489D02*Y103219D01*
X123324Y103609D02*X124104D01*
X123714Y100489D02*Y103609D01*
X122934Y101269D02*X123714Y100489D01*
X124686Y109777D02*Y111277D01*
X124186Y111777D02*X124686Y111277D01*
X121186Y111777D02*X124186D01*
X121186D02*X120686Y111277D01*
Y109777D02*Y111277D01*
X124186Y108577D02*X124686Y108077D01*
X123186Y108577D02*X124186D01*
X123186D02*X122686Y108077D01*
Y107077D02*Y108077D01*
Y107077D02*X123186Y106577D01*
X124186D01*
X124686Y107077D02*X124186Y106577D01*
X124686Y107077D02*Y108077D01*
X122186Y108577D02*X122686Y108077D01*
X121186Y108577D02*X122186D01*
X121186D02*X120686Y108077D01*
Y107077D02*Y108077D01*
Y107077D02*X121186Y106577D01*
X122186D01*
X122686Y107077D02*X122186Y106577D01*
X111882Y126853D02*X113382D01*
X111382Y126353D02*X111882Y126853D01*
X111382Y123353D02*Y126353D01*
Y123353D02*X111882Y122853D01*
X113382D01*
X114582Y126853D02*X116582Y124853D01*
Y123353D02*Y124853D01*
X116082Y122853D02*X116582Y123353D01*
X115082Y122853D02*X116082D01*
X114582Y123353D02*X115082Y122853D01*
X114582Y123353D02*Y124353D01*
X115082Y124853D01*
X116582D01*
X134878Y121080D02*X136878D01*
X137378Y121580D01*
Y122580D01*
X136878Y123080D02*X137378Y122580D01*
X135378Y123080D02*X136878D01*
X135378Y121080D02*Y125080D01*
Y123080D02*X137378Y125080D01*
X138578Y124580D02*X139078Y125080D01*
X138578Y123580D02*Y124580D01*
Y123580D02*X139078Y123080D01*
X140078D01*
X140578Y123580D01*
Y124580D01*
X140078Y125080D02*X140578Y124580D01*
X139078Y125080D02*X140078D01*
X138578Y122580D02*X139078Y123080D01*
X138578Y121580D02*Y122580D01*
Y121580D02*X139078Y121080D01*
X140078D01*
X140578Y121580D01*
Y122580D01*
X140078Y123080D02*X140578Y122580D01*
X110987Y116159D02*X112987D01*
X113487Y116659D01*
Y117659D01*
X112987Y118159D02*X113487Y117659D01*
X111487Y118159D02*X112987D01*
X111487Y116159D02*Y120159D01*
Y118159D02*X113487Y120159D01*
X114687Y116659D02*X115187Y116159D01*
X116187D01*
X116687Y116659D01*
Y119659D01*
X116187Y120159D02*X116687Y119659D01*
X115187Y120159D02*X116187D01*
X114687Y119659D02*X115187Y120159D01*
Y118159D02*X116687D01*
X145354Y113178D02*Y114678D01*
X144854Y115178D02*X145354Y114678D01*
X141854Y115178D02*X144854D01*
X141854D02*X141354Y114678D01*
Y113178D02*Y114678D01*
X145354Y110478D02*Y111478D01*
X141354Y110978D02*X145354D01*
X142354Y111978D02*X141354Y110978D01*
X143354Y109278D02*X141354Y107278D01*
X143354Y106778D02*Y109278D01*
X141354Y107278D02*X145354D01*
X141502Y101003D02*X143502D01*
X144002Y101503D01*
Y102503D01*
X143502Y103003D02*X144002Y102503D01*
X142002Y103003D02*X143502D01*
X142002Y101003D02*Y105003D01*
Y103003D02*X144002Y105003D01*
X145202D02*X147702Y102503D01*
Y101003D02*Y102503D01*
X145202Y101003D02*X147702D01*
X152792Y97853D02*X154792D01*
X155292Y98353D01*
Y99353D01*
X154792Y99853D02*X155292Y99353D01*
X153292Y99853D02*X154792D01*
X153292Y97853D02*Y101853D01*
Y99853D02*X155292Y101853D01*
X156992D02*X157992D01*
X157492Y97853D02*Y101853D01*
X156492Y98853D02*X157492Y97853D01*
X159192Y101853D02*X161692Y99353D01*
Y97853D02*Y99353D01*
X159192Y97853D02*X161692D01*
X141783Y213042D02*Y216602D01*
X143118Y213042D02*X143563Y213487D01*
Y216157D01*
X143118Y216602D02*X143563Y216157D01*
X141338Y216602D02*X143118D01*
X141338Y213042D02*X143118D01*
X145076Y216602D02*X145966D01*
X145521Y213042D02*Y216602D01*
X144631Y213932D02*X145521Y213042D01*
X138241Y188111D02*X139576D01*
X137796Y187666D02*X138241Y188111D01*
X137796Y184996D02*Y187666D01*
Y184996D02*X138241Y184551D01*
X139576D01*
X141089Y188111D02*X141979D01*
X141534Y184551D02*Y188111D01*
X140644Y185441D02*X141534Y184551D01*
X143047Y184996D02*X143492Y184551D01*
X144382D01*
X144827Y184996D01*
Y187666D01*
X144382Y188111D02*X144827Y187666D01*
X143492Y188111D02*X144382D01*
X143047Y187666D02*X143492Y188111D01*
Y186331D02*X144827D01*
X122180Y206913D02*Y209583D01*
Y206913D02*X122625Y206468D01*
X123515D01*
X123960Y206913D01*
Y209583D01*
X123515Y210028D02*X123960Y209583D01*
X122625Y210028D02*X123515D01*
X122180Y209583D02*X122625Y210028D01*
X123070Y209138D02*X123960Y210028D01*
X125028D02*X127253Y207803D01*
Y206468D02*Y207803D01*
X125028Y206468D02*X127253D01*
X121600Y185710D02*X123100D01*
X121100Y185210D02*X121600Y185710D01*
X121100Y182210D02*Y185210D01*
Y182210D02*X121600Y181710D01*
X123100D01*
X124800Y185710D02*X125800D01*
X125300Y181710D02*Y185710D01*
X124300Y182710D02*X125300Y181710D01*
X127000Y185210D02*X127500Y185710D01*
X127000Y182210D02*Y185210D01*
Y182210D02*X127500Y181710D01*
X128500D01*
X129000Y182210D01*
Y185210D01*
X128500Y185710D02*X129000Y185210D01*
X127500Y185710D02*X128500D01*
X127000Y184710D02*X129000Y182710D01*
X111292Y192601D02*X112792D01*
X110792Y192101D02*X111292Y192601D01*
X110792Y189101D02*Y192101D01*
Y189101D02*X111292Y188601D01*
X112792D01*
X113992Y190601D02*X115992Y188601D01*
X113992Y190601D02*X116492D01*
X115992Y188601D02*Y192601D01*
X137167Y150300D02*X138947D01*
X139392Y150745D01*
Y151635D01*
X138947Y152080D02*X139392Y151635D01*
X137612Y152080D02*X138947D01*
X137612Y150300D02*Y153860D01*
Y152080D02*X139392Y153860D01*
X140460Y150745D02*X140905Y150300D01*
X142240D01*
X142685Y150745D01*
Y151635D01*
X140460Y153860D02*X142685Y151635D01*
X140460Y153860D02*X142685D01*
X143753D02*X145533Y152080D01*
Y150745D02*Y152080D01*
X145088Y150300D02*X145533Y150745D01*
X144198Y150300D02*X145088D01*
X143753Y150745D02*X144198Y150300D01*
X143753Y150745D02*Y151635D01*
X144198Y152080D01*
X145533D01*
X107319Y147459D02*X109319D01*
X109819Y147959D01*
Y148959D01*
X109319Y149459D02*X109819Y148959D01*
X107819Y149459D02*X109319D01*
X107819Y147459D02*Y151459D01*
Y149459D02*X109819Y151459D01*
X111519D02*X112519D01*
X112019Y147459D02*Y151459D01*
X111019Y148459D02*X112019Y147459D01*
X113719Y150959D02*X114219Y151459D01*
X113719Y149959D02*Y150959D01*
Y149959D02*X114219Y149459D01*
X115219D01*
X115719Y149959D01*
Y150959D01*
X115219Y151459D02*X115719Y150959D01*
X114219Y151459D02*X115219D01*
X113719Y148959D02*X114219Y149459D01*
X113719Y147959D02*Y148959D01*
Y147959D02*X114219Y147459D01*
X115219D01*
X115719Y147959D01*
Y148959D01*
X115219Y149459D02*X115719Y148959D01*
X112760Y132892D02*X114760D01*
X115260Y133392D01*
Y134392D01*
X114760Y134892D02*X115260Y134392D01*
X113260Y134892D02*X114760D01*
X113260Y132892D02*Y136892D01*
Y134892D02*X115260Y136892D01*
X116460Y133392D02*X116960Y132892D01*
X118460D01*
X118960Y133392D01*
Y134392D01*
X116460Y136892D02*X118960Y134392D01*
X116460Y136892D02*X118960D01*
X137169Y155420D02*X138949D01*
X139394Y155865D01*
Y156755D01*
X138949Y157200D02*X139394Y156755D01*
X137614Y157200D02*X138949D01*
X137614Y155420D02*Y158980D01*
Y157200D02*X139394Y158980D01*
X140462Y155865D02*X140907Y155420D01*
X141797D01*
X142242Y155865D01*
Y158535D01*
X141797Y158980D02*X142242Y158535D01*
X140907Y158980D02*X141797D01*
X140462Y158535D02*X140907Y158980D01*
Y157200D02*X142242D01*
X143310Y155865D02*X143755Y155420D01*
X145090D01*
X145535Y155865D01*
Y156755D01*
X143310Y158980D02*X145535Y156755D01*
X143310Y158980D02*X145535D01*
X101146Y153758D02*X103146D01*
X103646Y154258D01*
Y155258D01*
X103146Y155758D02*X103646Y155258D01*
X101646Y155758D02*X103146D01*
X101646Y153758D02*Y157758D01*
Y155758D02*X103646Y157758D01*
X105346D02*X106346D01*
X105846Y153758D02*Y157758D01*
X104846Y154758D02*X105846Y153758D01*
X107546Y155758D02*X109546Y153758D01*
X107546Y155758D02*X110046D01*
X109546Y153758D02*Y157758D01*
X205690Y188821D02*Y191491D01*
Y188821D02*X206135Y188376D01*
X207025D01*
X207470Y188821D01*
Y191491D01*
X207025Y191936D02*X207470Y191491D01*
X206135Y191936D02*X207025D01*
X205690Y191491D02*X206135Y191936D01*
X206580Y191046D02*X207470Y191936D01*
X208538Y188821D02*X208983Y188376D01*
X209873D01*
X210318Y188821D01*
Y191491D01*
X209873Y191936D02*X210318Y191491D01*
X208983Y191936D02*X209873D01*
X208538Y191491D02*X208983Y191936D01*
Y190156D02*X210318D01*
X205664Y163074D02*Y165744D01*
Y163074D02*X206109Y162629D01*
X206999D01*
X207444Y163074D01*
Y165744D01*
X206999Y166189D02*X207444Y165744D01*
X206109Y166189D02*X206999D01*
X205664Y165744D02*X206109Y166189D01*
X206554Y165299D02*X207444Y166189D01*
X208512Y162629D02*X210292D01*
X208512D02*Y164409D01*
X208957Y163964D01*
X209847D01*
X210292Y164409D01*
Y165744D01*
X209847Y166189D02*X210292Y165744D01*
X208957Y166189D02*X209847D01*
X208512Y165744D02*X208957Y166189D01*
X205690Y130947D02*Y133617D01*
Y130947D02*X206135Y130502D01*
X207025D01*
X207470Y130947D01*
Y133617D01*
X207025Y134062D02*X207470Y133617D01*
X206135Y134062D02*X207025D01*
X205690Y133617D02*X206135Y134062D01*
X206580Y133172D02*X207470Y134062D01*
X208538Y130947D02*X208983Y130502D01*
X210318D01*
X210763Y130947D01*
Y131837D01*
X208538Y134062D02*X210763Y131837D01*
X208538Y134062D02*X210763D01*
X219503Y173037D02*Y175037D01*
Y173037D02*X220003Y172537D01*
X221003D01*
X221503Y173037D02*X221003Y172537D01*
X221503Y173037D02*Y174537D01*
X219503D02*X223503D01*
X221503D02*X223503Y172537D01*
X220003Y171337D02*X219503Y170837D01*
Y169837D02*Y170837D01*
Y169837D02*X220003Y169337D01*
X223003D01*
X223503Y169837D02*X223003Y169337D01*
X223503Y169837D02*Y170837D01*
X223003Y171337D02*X223503Y170837D01*
X221503Y169337D02*Y170837D01*
X219503Y166137D02*Y168137D01*
X221503D01*
X221003Y167637D01*
Y166637D02*Y167637D01*
Y166637D02*X221503Y166137D01*
X223003D01*
X223503Y166637D02*X223003Y166137D01*
X223503Y166637D02*Y167637D01*
X223003Y168137D02*X223503Y167637D01*
X230001Y172338D02*Y173838D01*
X229501Y174338D02*X230001Y173838D01*
X226501Y174338D02*X229501D01*
X226501D02*X226001Y173838D01*
Y172338D02*Y173838D01*
X230001Y169638D02*Y170638D01*
X226001Y170138D02*X230001D01*
X227001Y171138D02*X226001Y170138D01*
Y166438D02*Y168438D01*
X228001D01*
X227501Y167938D01*
Y166938D02*Y167938D01*
Y166938D02*X228001Y166438D01*
X229501D01*
X230001Y166938D02*X229501Y166438D01*
X230001Y166938D02*Y167938D01*
X229501Y168438D02*X230001Y167938D01*
X72820Y160624D02*X73210Y161014D01*
X71650Y160624D02*X72820D01*
X71260Y161014D02*X71650Y160624D01*
X71260Y161014D02*Y161794D01*
X71650Y162184D01*
X72820D01*
X73210Y162574D01*
Y163354D01*
X72820Y163744D02*X73210Y163354D01*
X71650Y163744D02*X72820D01*
X71260Y163354D02*X71650Y163744D01*
X74146Y163354D02*X76486Y161014D01*
X77422Y160624D02*Y163744D01*
Y160624D02*X78982D01*
X77422Y162184D02*X78592D01*
X79918Y161014D02*X80308Y160624D01*
X81478D01*
X81868Y161014D01*
Y161794D01*
X79918Y163744D02*X81868Y161794D01*
X79918Y163744D02*X81868D01*
X69465Y126919D02*X69855Y126529D01*
X69465Y126919D02*Y128089D01*
X69855Y128479D02*X69465Y128089D01*
X69855Y128479D02*X70635D01*
X71025Y128089D01*
Y126919D02*Y128089D01*
Y126919D02*X71415Y126529D01*
X72195D01*
X72585Y126919D02*X72195Y126529D01*
X72585Y126919D02*Y128089D01*
X72195Y128479D02*X72585Y128089D01*
X72195Y125593D02*X69855Y123253D01*
X69465Y121927D02*X72585D01*
X69465Y120757D02*X69855Y120367D01*
X72195D01*
X72585Y120757D02*X72195Y120367D01*
X72585Y120757D02*Y122317D01*
X69465Y120757D02*Y122317D01*
Y118261D02*X69855Y117871D01*
X69465Y118261D02*Y119041D01*
X69855Y119431D02*X69465Y119041D01*
X69855Y119431D02*X72195D01*
X72585Y119041D01*
X71025Y118261D02*X71415Y117871D01*
X71025Y118261D02*Y119431D01*
X72585Y118261D02*Y119041D01*
Y118261D02*X72195Y117871D01*
X71415D02*X72195D01*
X65387Y160878D02*X65777Y160488D01*
X65387Y160878D02*Y162048D01*
X65777Y162438D02*X65387Y162048D01*
X65777Y162438D02*X66557D01*
X66947Y162048D01*
Y160878D02*Y162048D01*
Y160878D02*X67337Y160488D01*
X68117D01*
X68507Y160878D02*X68117Y160488D01*
X68507Y160878D02*Y162048D01*
X68117Y162438D02*X68507Y162048D01*
X68117Y159552D02*X65777Y157212D01*
X65387Y156276D02*X68117D01*
X68507Y155886D01*
Y155106D02*Y155886D01*
Y155106D02*X68117Y154716D01*
X65387D02*X68117D01*
X68507Y152610D02*Y153390D01*
X65387Y153000D02*X68507D01*
X66167Y153780D02*X65387Y153000D01*
X70858Y155492D02*X71248Y155102D01*
X70858Y155492D02*Y156662D01*
X71248Y157052D02*X70858Y156662D01*
X71248Y157052D02*X72028D01*
X72418Y156662D01*
Y155492D02*Y156662D01*
Y155492D02*X72808Y155102D01*
X73588D01*
X73978Y155492D02*X73588Y155102D01*
X73978Y155492D02*Y156662D01*
X73588Y157052D02*X73978Y156662D01*
X73588Y154166D02*X71248Y151826D01*
X70858Y149330D02*Y150890D01*
Y149330D02*X71248Y148940D01*
X72028D01*
X72418Y149330D02*X72028Y148940D01*
X72418Y149330D02*Y150500D01*
X70858D02*X73978D01*
X72418D02*X73978Y148940D01*
X73588Y148004D02*X73978Y147614D01*
X72808Y148004D02*X73588D01*
X72808D02*X72418Y147614D01*
Y146834D02*Y147614D01*
Y146834D02*X72808Y146444D01*
X73588D01*
X73978Y146834D02*X73588Y146444D01*
X73978Y146834D02*Y147614D01*
X72028Y148004D02*X72418Y147614D01*
X71248Y148004D02*X72028D01*
X71248D02*X70858Y147614D01*
Y146834D02*Y147614D01*
Y146834D02*X71248Y146444D01*
X72028D01*
X72418Y146834D02*X72028Y146444D01*
X76174Y155491D02*X76564Y155101D01*
X76174Y155491D02*Y156661D01*
X76564Y157051D02*X76174Y156661D01*
X76564Y157051D02*X77344D01*
X77734Y156661D01*
Y155491D02*Y156661D01*
Y155491D02*X78124Y155101D01*
X78904D01*
X79294Y155491D02*X78904Y155101D01*
X79294Y155491D02*Y156661D01*
X78904Y157051D02*X79294Y156661D01*
X78904Y154165D02*X76564Y151825D01*
X76174Y149329D02*Y150889D01*
Y149329D02*X76564Y148939D01*
X77344D01*
X77734Y149329D02*X77344Y148939D01*
X77734Y149329D02*Y150499D01*
X76174D02*X79294D01*
X77734D02*X79294Y148939D01*
X77734Y148003D02*X76174Y146443D01*
X77734Y146053D02*Y148003D01*
X76174Y146443D02*X79294D01*
X27409Y123042D02*X27854Y123487D01*
X26074Y123042D02*X27409D01*
X25629Y123487D02*X26074Y123042D01*
X25629Y123487D02*Y124377D01*
X26074Y124822D01*
X27409D01*
X27854Y125267D01*
Y126157D01*
X27409Y126602D02*X27854Y126157D01*
X26074Y126602D02*X27409D01*
X25629Y126157D02*X26074Y126602D01*
X28922Y126157D02*X31592Y123487D01*
X32660Y123042D02*Y126157D01*
X33105Y126602D01*
X33995D01*
X34440Y126157D01*
Y123042D02*Y126157D01*
X35508Y124822D02*X37288Y123042D01*
X35508Y124822D02*X37733D01*
X37288Y123042D02*Y126602D01*
X28515Y140852D02*X28960Y141297D01*
X27180Y140852D02*X28515D01*
X26735Y141297D02*X27180Y140852D01*
X26735Y141297D02*Y142187D01*
X27180Y142632D01*
X28515D01*
X28960Y143077D01*
Y143967D01*
X28515Y144412D02*X28960Y143967D01*
X27180Y144412D02*X28515D01*
X26735Y143967D02*X27180Y144412D01*
X30028Y143967D02*X32698Y141297D01*
X34211Y144412D02*X35546D01*
X33766Y143967D02*X34211Y144412D01*
X33766Y141297D02*Y143967D01*
Y141297D02*X34211Y140852D01*
X35546D01*
X37949D02*X38394Y141297D01*
X37059Y140852D02*X37949D01*
X36614Y141297D02*X37059Y140852D01*
X36614Y141297D02*Y143967D01*
X37059Y144412D01*
X37949Y142632D02*X38394Y143077D01*
X36614Y142632D02*X37949D01*
X37059Y144412D02*X37949D01*
X38394Y143967D01*
Y143077D02*Y143967D01*
X54868Y146452D02*X55258Y146842D01*
X53698Y146452D02*X54868D01*
X53308Y146842D02*X53698Y146452D01*
X53308Y146842D02*Y147622D01*
X53698Y148012D01*
X54868D01*
X55258Y148402D01*
Y149182D01*
X54868Y149572D02*X55258Y149182D01*
X53698Y149572D02*X54868D01*
X53308Y149182D02*X53698Y149572D01*
X56194Y149182D02*X58534Y146842D01*
X59470Y146452D02*X61030D01*
X61420Y146842D01*
Y147622D01*
X61030Y148012D02*X61420Y147622D01*
X59860Y148012D02*X61030D01*
X59860Y146452D02*Y149572D01*
Y148012D02*X61420Y149572D01*
X62356D02*X64306Y147622D01*
Y146452D02*Y147622D01*
X62356Y146452D02*X64306D01*
X83286Y142316D02*X83676Y141926D01*
X83286Y142316D02*Y143486D01*
X83676Y143876D02*X83286Y143486D01*
X83676Y143876D02*X84456D01*
X84846Y143486D01*
Y142316D02*Y143486D01*
Y142316D02*X85236Y141926D01*
X86016D01*
X86406Y142316D02*X86016Y141926D01*
X86406Y142316D02*Y143486D01*
X86016Y143876D02*X86406Y143486D01*
X86016Y140990D02*X83676Y138650D01*
X83286Y137324D02*X86406D01*
X83286Y136154D02*X83676Y135764D01*
X86016D01*
X86406Y136154D02*X86016Y135764D01*
X86406Y136154D02*Y137714D01*
X83286Y136154D02*Y137714D01*
X83676Y134828D02*X83286Y134438D01*
Y133658D02*Y134438D01*
Y133658D02*X83676Y133268D01*
X86016D01*
X86406Y133658D02*X86016Y133268D01*
X86406Y133658D02*Y134438D01*
X86016Y134828D02*X86406Y134438D01*
X84846Y133268D02*Y134438D01*
X24396Y111138D02*X24786Y111528D01*
X23226Y111138D02*X24396D01*
X22836Y111528D02*X23226Y111138D01*
X22836Y111528D02*Y112308D01*
X23226Y112698D01*
X24396D01*
X24786Y113088D01*
Y113868D01*
X24396Y114258D02*X24786Y113868D01*
X23226Y114258D02*X24396D01*
X22836Y113868D02*X23226Y114258D01*
X25722Y113868D02*X28062Y111528D01*
X29388Y111138D02*Y114258D01*
X30558Y111138D02*X30948Y111528D01*
Y113868D01*
X30558Y114258D02*X30948Y113868D01*
X28998Y114258D02*X30558D01*
X28998Y111138D02*X30558D01*
X32274Y114258D02*X33054D01*
X32664Y111138D02*Y114258D01*
X31884Y111918D02*X32664Y111138D01*
X14160Y95389D02*X14550Y95779D01*
X12990Y95389D02*X14160D01*
X12600Y95779D02*X12990Y95389D01*
X12600Y95779D02*Y96559D01*
X12990Y96949D01*
X14160D01*
X14550Y97339D01*
Y98119D01*
X14160Y98509D02*X14550Y98119D01*
X12990Y98509D02*X14160D01*
X12600Y98119D02*X12990Y98509D01*
X15486Y98119D02*X17826Y95779D01*
X19152Y95389D02*Y98509D01*
X20322Y95389D02*X20712Y95779D01*
Y98119D01*
X20322Y98509D02*X20712Y98119D01*
X18762Y98509D02*X20322D01*
X18762Y95389D02*X20322D01*
X21648Y95779D02*X22038Y95389D01*
X23208D01*
X23598Y95779D01*
Y96559D01*
X21648Y98509D02*X23598Y96559D01*
X21648Y98509D02*X23598D01*
X10819Y169309D02*X11209Y168919D01*
X10819Y169309D02*Y170479D01*
X11209Y170869D02*X10819Y170479D01*
X11209Y170869D02*X11989D01*
X12379Y170479D01*
Y169309D02*Y170479D01*
Y169309D02*X12769Y168919D01*
X13549D01*
X13939Y169309D02*X13549Y168919D01*
X13939Y169309D02*Y170479D01*
X13549Y170869D02*X13939Y170479D01*
X13549Y167983D02*X11209Y165643D01*
X13939Y163147D02*Y164317D01*
X13549Y164707D02*X13939Y164317D01*
X11209Y164707D02*X13549D01*
X11209D02*X10819Y164317D01*
Y163147D02*Y164317D01*
X11209Y162211D02*X10819Y161821D01*
Y160651D02*Y161821D01*
Y160651D02*X11209Y160261D01*
X11989D01*
X13939Y162211D02*X11989Y160261D01*
X13939D02*Y162211D01*
X4914Y155886D02*X5304Y155496D01*
X4914Y155886D02*Y157056D01*
X5304Y157446D02*X4914Y157056D01*
X5304Y157446D02*X6084D01*
X6474Y157056D01*
Y155886D02*Y157056D01*
Y155886D02*X6864Y155496D01*
X7644D01*
X8034Y155886D02*X7644Y155496D01*
X8034Y155886D02*Y157056D01*
X7644Y157446D02*X8034Y157056D01*
X7644Y154560D02*X5304Y152220D01*
X4914Y149724D02*Y151284D01*
Y149724D02*X5304Y149334D01*
X6084D01*
X6474Y149724D02*X6084Y149334D01*
X6474Y149724D02*Y150894D01*
X4914D02*X8034D01*
X6474D02*X8034Y149334D01*
X5304Y148398D02*X4914Y148008D01*
Y147228D02*Y148008D01*
Y147228D02*X5304Y146838D01*
X7644D01*
X8034Y147228D02*X7644Y146838D01*
X8034Y147228D02*Y148008D01*
X7644Y148398D02*X8034Y148008D01*
X6474Y146838D02*Y148008D01*
X15770Y142119D02*X16160Y142509D01*
X14600Y142119D02*X15770D01*
X14210Y142509D02*X14600Y142119D01*
X14210Y142509D02*Y143289D01*
X14600Y143679D01*
X15770D01*
X16160Y144069D01*
Y144849D01*
X15770Y145239D02*X16160Y144849D01*
X14600Y145239D02*X15770D01*
X14210Y144849D02*X14600Y145239D01*
X17096Y144849D02*X19436Y142509D01*
X20762Y145239D02*X21932D01*
X20372Y144849D02*X20762Y145239D01*
X20372Y142509D02*Y144849D01*
Y142509D02*X20762Y142119D01*
X21932D01*
X22868Y143679D02*X24428Y142119D01*
X22868Y143679D02*X24818D01*
X24428Y142119D02*Y145239D01*
X115540Y165202D02*X118540D01*
X115540D02*X115040Y164702D01*
Y163702D02*Y164702D01*
Y163702D02*X115540Y163202D01*
X118540D01*
X119040Y163702D02*X118540Y163202D01*
X119040Y163702D02*Y164702D01*
X118540Y165202D02*X119040Y164702D01*
X118040Y164202D02*X119040Y163202D01*
Y160502D02*Y161502D01*
X115040Y161002D02*X119040D01*
X116040Y162002D02*X115040Y161002D01*
X72818Y165151D02*X73208Y165541D01*
X71648Y165151D02*X72818D01*
X71258Y165541D02*X71648Y165151D01*
X71258Y165541D02*Y166321D01*
X71648Y166711D01*
X72818D01*
X73208Y167101D01*
Y167881D01*
X72818Y168271D02*X73208Y167881D01*
X71648Y168271D02*X72818D01*
X71258Y167881D02*X71648Y168271D01*
X74144Y167881D02*X76484Y165541D01*
X77420Y165151D02*Y168271D01*
Y165151D02*X78980D01*
X77420Y166711D02*X78590D01*
X80306Y168271D02*X81086D01*
X80696Y165151D02*Y168271D01*
X79916Y165931D02*X80696Y165151D01*
X24560Y212402D02*X24950Y212792D01*
X23390Y212402D02*X24560D01*
X23000Y212792D02*X23390Y212402D01*
X23000Y212792D02*Y213572D01*
X23390Y213962D01*
X24560D01*
X24950Y214352D01*
Y215132D01*
X24560Y215522D02*X24950Y215132D01*
X23390Y215522D02*X24560D01*
X23000Y215132D02*X23390Y215522D01*
X25886Y215132D02*X28226Y212792D01*
X29162Y212402D02*Y215132D01*
X29552Y215522D01*
X30332D01*
X30722Y215132D01*
Y212402D02*Y215132D01*
X31658Y212792D02*X32048Y212402D01*
X33218D01*
X33608Y212792D01*
Y213572D01*
X31658Y215522D02*X33608Y213572D01*
X31658Y215522D02*X33608D01*
X3953Y233666D02*X4453Y233166D01*
X3953Y233666D02*Y235166D01*
X4453Y235666D02*X3953Y235166D01*
X4453Y235666D02*X5453D01*
X5953Y235166D01*
Y233666D02*Y235166D01*
Y233666D02*X6453Y233166D01*
X7453D01*
X7953Y233666D02*X7453Y233166D01*
X7953Y233666D02*Y235166D01*
X7453Y235666D02*X7953Y235166D01*
X7453Y231966D02*X4453Y228966D01*
X7953Y225766D02*Y227266D01*
X7453Y227766D02*X7953Y227266D01*
X4453Y227766D02*X7453D01*
X4453D02*X3953Y227266D01*
Y225766D02*Y227266D01*
X4453Y224566D02*X3953Y224066D01*
Y223066D02*Y224066D01*
Y223066D02*X4453Y222566D01*
X7453D01*
X7953Y223066D02*X7453Y222566D01*
X7953Y223066D02*Y224066D01*
X7453Y224566D02*X7953Y224066D01*
X5953Y222566D02*Y224066D01*
X17689Y184158D02*X18134Y184603D01*
X16354Y184158D02*X17689D01*
X15909Y184603D02*X16354Y184158D01*
X15909Y184603D02*Y185493D01*
X16354Y185938D01*
X17689D01*
X18134Y186383D01*
Y187273D01*
X17689Y187718D02*X18134Y187273D01*
X16354Y187718D02*X17689D01*
X15909Y187273D02*X16354Y187718D01*
X19202Y187273D02*X21872Y184603D01*
X23385Y187718D02*X24720D01*
X22940Y187273D02*X23385Y187718D01*
X22940Y184603D02*Y187273D01*
Y184603D02*X23385Y184158D01*
X24720D01*
X26233Y187718D02*X27123D01*
X26678Y184158D02*Y187718D01*
X25788Y185048D02*X26678Y184158D01*
X72819Y169876D02*X73209Y170266D01*
X71649Y169876D02*X72819D01*
X71259Y170266D02*X71649Y169876D01*
X71259Y170266D02*Y171046D01*
X71649Y171436D01*
X72819D01*
X73209Y171826D01*
Y172606D01*
X72819Y172996D02*X73209Y172606D01*
X71649Y172996D02*X72819D01*
X71259Y172606D02*X71649Y172996D01*
X74145Y172606D02*X76485Y170266D01*
X77421Y169876D02*Y172996D01*
Y169876D02*X78981D01*
X77421Y171436D02*X78591D01*
X79917D02*X81477Y169876D01*
X79917Y171436D02*X81867D01*
X81477Y169876D02*Y172996D01*
X72819Y174404D02*X73209Y174794D01*
X71649Y174404D02*X72819D01*
X71259Y174794D02*X71649Y174404D01*
X71259Y174794D02*Y175574D01*
X71649Y175964D01*
X72819D01*
X73209Y176354D01*
Y177134D01*
X72819Y177524D02*X73209Y177134D01*
X71649Y177524D02*X72819D01*
X71259Y177134D02*X71649Y177524D01*
X74145Y177134D02*X76485Y174794D01*
X77421Y174404D02*Y177524D01*
Y174404D02*X78981D01*
X77421Y175964D02*X78591D01*
X79917Y174794D02*X80307Y174404D01*
X81087D01*
X81477Y174794D01*
Y177134D01*
X81087Y177524D02*X81477Y177134D01*
X80307Y177524D02*X81087D01*
X79917Y177134D02*X80307Y177524D01*
Y175964D02*X81477D01*
X90610Y213053D02*X91000Y212663D01*
X90610Y213053D02*Y214223D01*
X91000Y214613D02*X90610Y214223D01*
X91000Y214613D02*X91780D01*
X92170Y214223D01*
Y213053D02*Y214223D01*
Y213053D02*X92560Y212663D01*
X93340D01*
X93730Y213053D02*X93340Y212663D01*
X93730Y213053D02*Y214223D01*
X93340Y214613D02*X93730Y214223D01*
X93340Y211727D02*X91000Y209387D01*
X90610Y208061D02*X93730D01*
X90610Y206891D02*X91000Y206501D01*
X93340D01*
X93730Y206891D02*X93340Y206501D01*
X93730Y206891D02*Y208451D01*
X90610Y206891D02*Y208451D01*
Y204005D02*Y205565D01*
X92170D01*
X91780Y205175D01*
Y204395D02*Y205175D01*
Y204395D02*X92170Y204005D01*
X93340D01*
X93730Y204395D02*X93340Y204005D01*
X93730Y204395D02*Y205175D01*
X93340Y205565D02*X93730Y205175D01*
X90608Y196123D02*X90998Y195733D01*
X90608Y196123D02*Y197293D01*
X90998Y197683D02*X90608Y197293D01*
X90998Y197683D02*X91778D01*
X92168Y197293D01*
Y196123D02*Y197293D01*
Y196123D02*X92558Y195733D01*
X93338D01*
X93728Y196123D02*X93338Y195733D01*
X93728Y196123D02*Y197293D01*
X93338Y197683D02*X93728Y197293D01*
X93338Y194797D02*X90998Y192457D01*
X90608Y191131D02*X93728D01*
X90608Y189961D02*X90998Y189571D01*
X93338D01*
X93728Y189961D02*X93338Y189571D01*
X93728Y189961D02*Y191521D01*
X90608Y189961D02*Y191521D01*
X92168Y188635D02*X90608Y187075D01*
X92168Y186685D02*Y188635D01*
X90608Y187075D02*X93728D01*
X100160Y176789D02*X102160D01*
X102660Y177289D01*
Y178289D01*
X102160Y178789D02*X102660Y178289D01*
X100660Y178789D02*X102160D01*
X100660Y176789D02*Y180789D01*
Y178789D02*X102660Y180789D01*
X104360D02*X105360D01*
X104860Y176789D02*Y180789D01*
X103860Y177789D02*X104860Y176789D01*
X106560Y177289D02*X107060Y176789D01*
X108060D01*
X108560Y177289D01*
Y180289D01*
X108060Y180789D02*X108560Y180289D01*
X107060Y180789D02*X108060D01*
X106560Y180289D02*X107060Y180789D01*
Y178789D02*X108560D01*
X132753Y126706D02*Y130266D01*
X134088Y126706D02*X134533Y127151D01*
Y129821D01*
X134088Y130266D02*X134533Y129821D01*
X132308Y130266D02*X134088D01*
X132308Y126706D02*X134088D01*
X135601Y127151D02*X136046Y126706D01*
X137381D01*
X137826Y127151D01*
Y128041D01*
X135601Y130266D02*X137826Y128041D01*
X135601Y130266D02*X137826D01*
X166945Y192061D02*Y194061D01*
Y192061D02*X167445Y191561D01*
X168445D01*
X168945Y192061D02*X168445Y191561D01*
X168945Y192061D02*Y193561D01*
X166945D02*X170945D01*
X168945D02*X170945Y191561D01*
X167445Y190361D02*X166945Y189861D01*
Y188361D02*Y189861D01*
Y188361D02*X167445Y187861D01*
X168445D01*
X170945Y190361D02*X168445Y187861D01*
X170945D02*Y190361D01*
X166945Y184661D02*Y186661D01*
X168945D01*
X168445Y186161D01*
Y185161D02*Y186161D01*
Y185161D02*X168945Y184661D01*
X170445D01*
X170945Y185161D02*X170445Y184661D01*
X170945Y185161D02*Y186161D01*
X170445Y186661D02*X170945Y186161D01*
X140394Y146673D02*X143064D01*
X140394D02*X139949Y146228D01*
Y145338D02*Y146228D01*
Y145338D02*X140394Y144893D01*
X143064D01*
X143509Y145338D02*X143064Y144893D01*
X143509Y145338D02*Y146228D01*
X143064Y146673D02*X143509Y146228D01*
X142619Y145783D02*X143509Y144893D01*
X139949Y142490D02*X140394Y142045D01*
X139949Y142490D02*Y143380D01*
X140394Y143825D02*X139949Y143380D01*
X140394Y143825D02*X143064D01*
X143509Y143380D01*
X141729Y142490D02*X142174Y142045D01*
X141729Y142490D02*Y143825D01*
X143509Y142490D02*Y143380D01*
Y142490D02*X143064Y142045D01*
X142174D02*X143064D01*
X164275Y168988D02*Y170768D01*
Y168988D02*X164720Y168543D01*
X165610D01*
X166055Y168988D02*X165610Y168543D01*
X166055Y168988D02*Y170323D01*
X164275D02*X167835D01*
X166055D02*X167835Y168543D01*
X164720Y167475D02*X164275Y167030D01*
Y166140D02*Y167030D01*
Y166140D02*X164720Y165695D01*
X167390D01*
X167835Y166140D02*X167390Y165695D01*
X167835Y166140D02*Y167030D01*
X167390Y167475D02*X167835Y167030D01*
X166055Y165695D02*Y167030D01*
X167390Y164627D02*X167835Y164182D01*
X164720Y164627D02*X167390D01*
X164720D02*X164275Y164182D01*
Y163292D02*Y164182D01*
Y163292D02*X164720Y162847D01*
X167390D01*
X167835Y163292D02*X167390Y162847D01*
X167835Y163292D02*Y164182D01*
X166945Y164627D02*X165165Y162847D01*
M02*
