G04 start of page 7 for group -4063 idx -4063 *
G04 Title: (unknown), componentmask *
G04 Creator: pcb 20110918 *
G04 CreationDate: Wed 12 Sep 2012 14:20:39 GMT UTC *
G04 For: rob *
G04 Format: Gerber/RS-274X *
G04 PCB-Dimensions: 236220 263780 *
G04 PCB-Coordinate-Origin: lower left *
%MOIN*%
%FSLAX25Y25*%
%LNTOPMASK*%
%ADD93R,0.0494X0.0494*%
%ADD92R,0.0440X0.0440*%
%ADD91R,0.0612X0.0612*%
%ADD90R,0.0630X0.0630*%
%ADD89R,0.0300X0.0300*%
%ADD88R,0.0840X0.0840*%
%ADD87R,0.0700X0.0700*%
%ADD86R,0.0218X0.0218*%
%ADD85R,0.0381X0.0381*%
%ADD84R,0.0848X0.0848*%
%ADD83C,0.1360*%
%ADD82C,0.0453*%
%ADD81C,0.2270*%
%ADD80C,0.1280*%
%ADD79C,0.0001*%
%ADD78C,0.0700*%
G54D78*X185865Y79727D03*
X195865Y74727D03*
X185865Y59727D03*
X195865Y64727D03*
X185865Y69727D03*
X195865Y54727D03*
G54D79*G36*
X192365Y48227D02*Y41227D01*
X199365D01*
Y48227D01*
X192365D01*
G37*
G54D78*X185865Y49727D03*
G54D80*X220865Y39727D03*
Y84727D03*
G54D81*X221457Y14764D03*
G54D79*G36*
X106455Y52069D02*Y47541D01*
X110983D01*
Y52069D01*
X106455D01*
G37*
G54D82*X113719Y49805D03*
G54D83*X212005Y146220D03*
Y175748D03*
X158662Y239567D03*
X129134D03*
G54D79*G36*
X219650Y219840D02*Y212840D01*
X226650D01*
Y219840D01*
X219650D01*
G37*
G54D78*X203150Y216340D03*
G54D81*X221457Y249016D03*
G54D79*G36*
X14217Y78502D02*Y71502D01*
X21217D01*
Y78502D01*
X14217D01*
G37*
G54D78*X27717Y75002D03*
G54D81*X14764Y14764D03*
G54D78*X37717Y75002D03*
X37797Y90356D03*
X47717Y75002D03*
X47797Y90356D03*
X51142Y112955D03*
X41142Y117955D03*
X51142Y122955D03*
G54D80*X16142Y107955D03*
G54D79*G36*
X4297Y93856D02*Y86856D01*
X11297D01*
Y93856D01*
X4297D01*
G37*
G54D78*X17797Y90356D03*
X27797D03*
X51142Y181852D03*
Y201852D03*
Y211852D03*
Y191852D03*
X41142Y186852D03*
Y206852D03*
Y196852D03*
G54D79*G36*
X37642Y220352D02*Y213352D01*
X44642D01*
Y220352D01*
X37642D01*
G37*
G54D80*X16142Y221852D03*
Y176852D03*
G54D78*X51142Y132955D03*
X41142Y137955D03*
Y127955D03*
G54D79*G36*
X37642Y151455D02*Y144455D01*
X44642D01*
Y151455D01*
X37642D01*
G37*
G54D78*X51142Y142955D03*
G54D80*X16142Y152955D03*
G54D81*X14764Y249016D03*
G54D84*X37157Y33710D02*X43118D01*
X37157Y49214D02*X43157D01*
G54D85*X56799Y40356D02*X57767D01*
X56799Y46190D02*X57767D01*
X56799Y51254D02*X57767D01*
X56799Y57088D02*X57767D01*
G54D86*X71161Y77365D02*X74507D01*
X71161Y74806D02*X74507D01*
X71161Y72247D02*X74507D01*
X71161Y69688D02*X74507D01*
X71161Y67129D02*X74507D01*
X71161Y64570D02*X74507D01*
X71161Y62011D02*X74507D01*
X71161Y59452D02*X74507D01*
G54D85*X17591Y65052D02*Y64084D01*
X23425Y65052D02*Y64084D01*
G54D86*X71161Y56893D02*X74507D01*
X71161Y54334D02*X74507D01*
X71161Y51775D02*X74507D01*
X71161Y49216D02*X74507D01*
X71161Y46657D02*X74507D01*
X71161Y44098D02*X74507D01*
X71161Y41539D02*X74507D01*
X71161Y38980D02*X74507D01*
X71161Y36421D02*X74507D01*
X71161Y33862D02*X74507D01*
X71161Y31303D02*X74507D01*
G54D87*X137886Y224756D02*Y220520D01*
X149606Y224756D02*Y220520D01*
G54D88*X152937Y191931D02*X154937D01*
G54D89*X171919Y178545D02*X178419D01*
X171919Y173545D02*X178419D01*
X171919Y168545D02*X178419D01*
X171919Y163545D02*X178419D01*
G54D85*X173300Y156982D02*Y156014D01*
X179134Y156982D02*Y156014D01*
X164477Y173356D02*X165445D01*
X164477Y167522D02*X165445D01*
X164477Y185167D02*X165445D01*
X164477Y179333D02*X165445D01*
G54D90*X178321Y200199D02*X181521D01*
G54D91*X191339Y193308D02*Y192522D01*
X198425Y193308D02*Y192522D01*
G54D90*X178321Y188599D02*X181521D01*
G54D85*X198228Y185722D02*Y184754D01*
X192394Y185722D02*Y184754D01*
X179439Y215748D02*X180407D01*
X179439Y209914D02*X180407D01*
G54D89*X192419Y163545D02*X198919D01*
X192419Y168545D02*X198919D01*
X192419Y173545D02*X198919D01*
X192419Y178545D02*X198919D01*
G54D91*X193110Y156890D02*Y156104D01*
X186024Y156890D02*Y156104D01*
G54D88*X117337Y148624D02*X119337D01*
X117337Y138624D02*X119337D01*
X117337Y160277D02*X119337D01*
G54D92*X78974Y188165D02*Y187565D01*
X86774Y188165D02*Y187565D01*
X82874Y196365D02*Y195765D01*
X86774Y213226D02*Y212626D01*
X78974Y213226D02*Y212626D01*
X82874Y205026D02*Y204426D01*
G54D88*X152937Y148624D02*X154937D01*
X152937Y181931D02*X154937D01*
X152937Y160277D02*X154937D01*
X152937Y170277D02*X154937D01*
X117337Y191931D02*X119337D01*
X117337Y181931D02*X119337D01*
X117337Y170277D02*X119337D01*
G54D85*X164477Y153671D02*X165445D01*
X164477Y147837D02*X165445D01*
G54D88*X117337Y126970D02*X119337D01*
X152937Y138624D02*X154937D01*
G54D85*X164477Y141859D02*X165445D01*
X164477Y136025D02*X165445D01*
G54D88*X117337Y116970D02*X119337D01*
G54D85*X116248Y109056D02*X117216D01*
X116248Y103222D02*X117216D01*
X127666Y109056D02*X128634D01*
X143807Y103222D02*X144775D01*
X127666D02*X128634D01*
X135933Y109057D02*X136901D01*
X135933Y103223D02*X136901D01*
G54D88*X152937Y126970D02*X154937D01*
G54D85*X143807Y109056D02*X144775D01*
G54D88*X152937Y116970D02*X154937D01*
G54D85*X154402Y108556D02*Y107588D01*
X160236Y108556D02*Y107588D01*
G54D91*X166930Y121063D02*Y120277D01*
X174016Y121063D02*Y120277D01*
G54D92*X79527Y141444D02*Y140844D01*
X75627Y133244D02*Y132644D01*
X71727Y141444D02*Y140844D01*
G54D93*X66536Y100202D02*Y98234D01*
X61024Y100202D02*Y98234D01*
Y86422D02*Y84454D01*
X66536Y86422D02*Y84454D01*
G54D90*X198425Y118728D02*Y115528D01*
G54D87*X225244Y126183D02*X229480D01*
X210283D02*X214519D01*
X225244Y114463D02*X229480D01*
X210283D02*X214519D01*
G54D91*X181890Y127363D02*Y126577D01*
X188976Y127363D02*Y126577D01*
G54D89*X192419Y134411D02*X198919D01*
X192419Y139411D02*X198919D01*
X192419Y144411D02*X198919D01*
X192419Y149411D02*X198919D01*
X171919D02*X178419D01*
X171919Y144411D02*X178419D01*
X171919Y139411D02*X178419D01*
X171919Y134411D02*X178419D01*
G54D85*X175197Y127847D02*Y126879D01*
X169363Y127847D02*Y126879D01*
G54D90*X186825Y118728D02*Y115528D01*
G54D87*X139811Y42022D02*X144047D01*
G54D85*X146063Y32376D02*Y31408D01*
X140229Y32376D02*Y31408D01*
X111918Y39372D02*X112886D01*
X111918Y33538D02*X112886D01*
G54D86*X100689Y31303D02*X104035D01*
X100689Y33862D02*X104035D01*
X100689Y36421D02*X104035D01*
X100689Y38980D02*X104035D01*
X100689Y41539D02*X104035D01*
X100689Y44098D02*X104035D01*
X100689Y46657D02*X104035D01*
X100689Y49216D02*X104035D01*
X100689Y51775D02*X104035D01*
X100689Y54334D02*X104035D01*
X100689Y56893D02*X104035D01*
X100689Y59452D02*X104035D01*
X100689Y62011D02*X104035D01*
X100689Y64570D02*X104035D01*
X100689Y67129D02*X104035D01*
X100689Y69688D02*X104035D01*
X100689Y72247D02*X104035D01*
X100689Y74806D02*X104035D01*
X100689Y77365D02*X104035D01*
G54D91*X110237Y69687D02*X111023D01*
X110237Y62601D02*X111023D01*
G54D87*X139811Y63191D02*X144047D01*
X139811Y53742D02*X144047D01*
G54D92*X152327Y40590D02*X152927D01*
X152327Y58233D02*X152927D01*
G54D87*X139811Y74911D02*X144047D01*
G54D92*X152327Y75162D02*X152927D01*
G54D85*X163189Y89856D02*Y88888D01*
X157355Y89856D02*Y88888D01*
G54D92*X160527Y71262D02*X161127D01*
X160527Y79062D02*X161127D01*
X167810D02*X168410D01*
X167810Y71262D02*X168410D01*
X176010Y75162D02*X176610D01*
G54D85*X138654Y82179D02*Y81211D01*
G54D92*X176010Y40590D02*X176610D01*
X176010Y58233D02*X176610D01*
X160527Y54333D02*X161127D01*
X160527Y62133D02*X161127D01*
X167810D02*X168410D01*
X167810Y54333D02*X168410D01*
X167810Y36690D02*X168410D01*
X160527D02*X161127D01*
X167810Y44490D02*X168410D01*
X160527D02*X161127D01*
G54D85*X163386Y98715D02*Y97747D01*
X157552Y98715D02*Y97747D01*
X144488Y82179D02*Y81211D01*
M02*
