*
%FSLAX26Y26*%
%MOIN*%
%ADD10R,0.051181X0.059055*%
%ADD11R,0.028307X0.037992*%
%ADD12R,0.037992X0.028307*%
%ADD13R,0.039409X0.059094*%
%ADD14R,0.034016X0.040000*%
%ADD15R,0.040000X0.034016*%
%ADD16R,0.059055X0.051181*%
%ADD17R,0.045276X0.011811*%
%ADD18R,0.102362X0.060000*%
%ADD19R,0.094016X0.074016*%
%ADD20R,0.085000X0.020000*%
%ADD21R,0.052992X0.085000*%
%ADD22R,0.085000X0.052992*%
%ADD23R,0.060000X0.102362*%
%ADD24R,0.134606X0.075000*%
%IPPOS*%
%LNcp.gbx*%
%LPD*%
G75*
G54D10*
X01669300Y01206700D03*
X01740160D03*
X01931100Y01564970D03*
X01860240D03*
G54D11*
X01544020Y01080720D03*
X01602360D03*
G54D12*
X01799230Y02157480D03*
Y02099140D03*
G54D11*
X01733000Y01564980D03*
X01791340D03*
X01751970Y01273630D03*
X01693630D03*
G54D12*
X01442910Y01090560D03*
Y01032220D03*
X01364170Y01090570D03*
Y01032230D03*
X01281500Y01090560D03*
Y01032220D03*
X01167320Y01090560D03*
Y01032220D03*
X01649610Y01536710D03*
Y01478370D03*
Y01418590D03*
Y01360250D03*
Y01851670D03*
Y01793330D03*
Y01733560D03*
Y01675220D03*
G54D11*
X01982280Y01852380D03*
X01923940D03*
X01460630Y00318920D03*
X01402290D03*
X01444880Y00816950D03*
X01386540D03*
X01633860Y00982310D03*
X01575520D03*
X01631890Y00893720D03*
X01573550D03*
G54D12*
X00572830Y00512540D03*
Y00570880D03*
G54D11*
X00175910Y00645680D03*
X00234250D03*
G54D12*
X01124020Y00393720D03*
Y00335380D03*
G54D13*
X00665360Y00992180D03*
X00610240D03*
Y00854380D03*
X00665360D03*
G54D14*
X00789740Y01878650D03*
X00867740D03*
X00828740Y01960650D03*
X00867740Y02129260D03*
X00789740D03*
X00828740Y02047260D03*
X00795270Y01411440D03*
X00717270D03*
X00756270Y01329440D03*
G54D12*
X00572830Y00403560D03*
Y00461900D03*
G54D15*
X01681100Y00621330D03*
Y00543330D03*
X01763100Y00582330D03*
X01608270Y00543330D03*
Y00621330D03*
X01526270Y00582330D03*
X01681100Y00790620D03*
Y00712620D03*
X01763100Y00751620D03*
X01608270Y00366900D03*
Y00444900D03*
X01526270Y00405900D03*
X01681100Y00444900D03*
Y00366900D03*
X01763100Y00405900D03*
X01608270Y00712620D03*
Y00790620D03*
X01526270Y00751620D03*
G54D16*
X01106300Y00696870D03*
Y00626010D03*
G54D17*
X01023620Y00313030D03*
Y00338620D03*
Y00364210D03*
Y00389800D03*
Y00415390D03*
Y00440980D03*
Y00466570D03*
Y00492160D03*
Y00517750D03*
Y00543340D03*
Y00568930D03*
Y00594520D03*
Y00620110D03*
Y00645700D03*
Y00671290D03*
Y00696880D03*
Y00722470D03*
Y00748060D03*
Y00773650D03*
X00728340D03*
Y00748060D03*
Y00722470D03*
Y00696880D03*
Y00671290D03*
Y00645700D03*
Y00620110D03*
Y00594520D03*
Y00568930D03*
Y00543340D03*
Y00517750D03*
Y00492160D03*
Y00466570D03*
Y00440980D03*
Y00415390D03*
Y00389800D03*
Y00364210D03*
Y00338620D03*
Y00313030D03*
G54D18*
X02124010Y01261830D03*
Y01144630D03*
G54D19*
X01183370Y01269700D03*
Y01169700D03*
X01539370D03*
Y01269700D03*
G54D18*
X01419290Y00537420D03*
Y00420220D03*
G54D19*
X01183370Y01702770D03*
Y01602770D03*
X01539370D03*
Y01702770D03*
X01183370Y01919310D03*
Y01819310D03*
X01539370D03*
Y01919310D03*
G54D18*
X01419290Y00631910D03*
Y00749110D03*
X02273620Y01261830D03*
Y01144630D03*
G54D20*
X01751690Y01785450D03*
Y01735450D03*
Y01685450D03*
Y01635450D03*
X01956690D03*
Y01685450D03*
Y01735450D03*
Y01785450D03*
X01751690Y01494110D03*
Y01444110D03*
Y01394110D03*
Y01344110D03*
X01956690D03*
Y01394110D03*
Y01444110D03*
Y01494110D03*
G54D19*
X01183370Y01486240D03*
Y01386240D03*
X01539370D03*
Y01486240D03*
G54D21*
X01868250Y01171280D03*
X01984250D03*
G54D22*
X01799210Y01885990D03*
Y02001990D03*
G54D23*
X01378860Y02226380D03*
X01496060D03*
G54D10*
X01818900Y01269700D03*
X01889760D03*
X01913390Y01929150D03*
X01984250D03*
G54D24*
X00401375Y00337100D03*
Y00492140D03*
G54D10*
X01669300Y04080720D03*
X01740160D03*
X01931100Y04438990D03*
X01860240D03*
G54D11*
X01544020Y03954740D03*
X01602360D03*
G54D12*
X01799230Y05031500D03*
Y04973160D03*
G54D11*
X01733000Y04439000D03*
X01791340D03*
X01751970Y04147650D03*
X01693630D03*
G54D12*
X01442910Y03964581D03*
Y03906240D03*
X01364170Y03964590D03*
Y03906250D03*
X01281500Y03964581D03*
Y03906240D03*
X01167320Y03964581D03*
Y03906240D03*
X01649610Y04410731D03*
Y04352390D03*
Y04292610D03*
Y04234270D03*
Y04725690D03*
Y04667350D03*
Y04607581D03*
Y04549240D03*
G54D11*
X01982280Y04726400D03*
X01923940D03*
X01460630Y03192940D03*
X01402290D03*
X01444880Y03690970D03*
X01386540D03*
X01633860Y03856330D03*
X01575520D03*
X01631890Y03767740D03*
X01573550D03*
G54D12*
X00572830Y03386560D03*
Y03444900D03*
G54D11*
X00175910Y03519700D03*
X00234250D03*
G54D12*
X01124020Y03267740D03*
Y03209400D03*
G54D13*
X00665360Y03866200D03*
X00610240D03*
Y03728400D03*
X00665360D03*
G54D14*
X00789740Y04752670D03*
X00867740D03*
X00828740Y04834670D03*
X00867740Y05003281D03*
X00789740D03*
X00828740Y04921281D03*
X00795270Y04285460D03*
X00717270D03*
X00756270Y04203460D03*
G54D12*
X00572830Y03277581D03*
Y03335920D03*
G54D15*
X01681100Y03495350D03*
Y03417350D03*
X01763100Y03456350D03*
X01608270Y03417350D03*
Y03495350D03*
X01526270Y03456350D03*
X01681100Y03664640D03*
Y03586640D03*
X01763100Y03625640D03*
X01608270Y03240920D03*
Y03318920D03*
X01526270Y03279920D03*
X01681100Y03318920D03*
Y03240920D03*
X01763100Y03279920D03*
X01608270Y03586640D03*
Y03664640D03*
X01526270Y03625640D03*
G54D16*
X01106300Y03570890D03*
Y03500031D03*
G54D17*
X01023620Y03187050D03*
Y03212640D03*
Y03238231D03*
Y03263820D03*
Y03289410D03*
Y03315000D03*
Y03340590D03*
Y03366181D03*
Y03391770D03*
Y03417360D03*
Y03442950D03*
Y03468540D03*
Y03494131D03*
Y03519720D03*
Y03545310D03*
Y03570900D03*
Y03596490D03*
Y03622081D03*
Y03647670D03*
X00728340D03*
Y03622081D03*
Y03596490D03*
Y03570900D03*
Y03545310D03*
Y03519720D03*
Y03494131D03*
Y03468540D03*
Y03442950D03*
Y03417360D03*
Y03391770D03*
Y03366181D03*
Y03340590D03*
Y03315000D03*
Y03289410D03*
Y03263820D03*
Y03238231D03*
Y03212640D03*
Y03187050D03*
G54D18*
X02124010Y04135850D03*
Y04018650D03*
G54D19*
X01183370Y04143720D03*
Y04043720D03*
X01539370D03*
Y04143720D03*
G54D18*
X01419290Y03411440D03*
Y03294240D03*
G54D19*
X01183370Y04576790D03*
Y04476790D03*
X01539370D03*
Y04576790D03*
X01183370Y04793331D03*
Y04693331D03*
X01539370D03*
Y04793331D03*
G54D18*
X01419290Y03505931D03*
Y03623131D03*
X02273620Y04135850D03*
Y04018650D03*
G54D20*
X01751690Y04659470D03*
Y04609470D03*
Y04559470D03*
Y04509470D03*
X01956690D03*
Y04559470D03*
Y04609470D03*
Y04659470D03*
X01751690Y04368131D03*
Y04318131D03*
Y04268131D03*
Y04218131D03*
X01956690D03*
Y04268131D03*
Y04318131D03*
Y04368131D03*
G54D19*
X01183370Y04360260D03*
Y04260260D03*
X01539370D03*
Y04360260D03*
G54D21*
X01868250Y04045300D03*
X01984250D03*
G54D22*
X01799210Y04760010D03*
Y04876010D03*
G54D23*
X01378860Y05100400D03*
X01496060D03*
G54D10*
X01818900Y04143720D03*
X01889760D03*
X01913390Y04803170D03*
X01984250D03*
G54D24*
X00401375Y03211120D03*
Y03366160D03*
G54D10*
X04267720Y01206700D03*
X04338581D03*
X04529520Y01564970D03*
X04458660D03*
G54D11*
X04142440Y01080720D03*
X04200781D03*
G54D12*
X04397650Y02157480D03*
Y02099140D03*
G54D11*
X04331420Y01564980D03*
X04389760D03*
X04350390Y01273630D03*
X04292050D03*
G54D12*
X04041330Y01090560D03*
Y01032220D03*
X03962590Y01090570D03*
Y01032230D03*
X03879920Y01090560D03*
Y01032220D03*
X03765740Y01090560D03*
Y01032220D03*
X04248030Y01536710D03*
Y01478370D03*
Y01418590D03*
Y01360250D03*
Y01851670D03*
Y01793330D03*
Y01733560D03*
Y01675220D03*
G54D11*
X04580700Y01852380D03*
X04522360D03*
X04059050Y00318920D03*
X04000710D03*
X04043300Y00816950D03*
X03984960D03*
X04232281Y00982310D03*
X04173940D03*
X04230310Y00893720D03*
X04171970D03*
G54D12*
X03171250Y00512540D03*
Y00570880D03*
G54D11*
X02774331Y00645680D03*
X02832670D03*
G54D12*
X03722440Y00393720D03*
Y00335380D03*
G54D13*
X03263781Y00992180D03*
X03208660D03*
Y00854380D03*
X03263781D03*
G54D14*
X03388160Y01878650D03*
X03466160D03*
X03427160Y01960650D03*
X03466160Y02129260D03*
X03388160D03*
X03427160Y02047260D03*
X03393690Y01411440D03*
X03315690D03*
X03354690Y01329440D03*
G54D12*
X03171250Y00403560D03*
Y00461900D03*
G54D15*
X04279520Y00621330D03*
Y00543330D03*
X04361520Y00582330D03*
X04206690Y00543330D03*
Y00621330D03*
X04124690Y00582330D03*
X04279520Y00790620D03*
Y00712620D03*
X04361520Y00751620D03*
X04206690Y00366900D03*
Y00444900D03*
X04124690Y00405900D03*
X04279520Y00444900D03*
Y00366900D03*
X04361520Y00405900D03*
X04206690Y00712620D03*
Y00790620D03*
X04124690Y00751620D03*
G54D16*
X03704720Y00696870D03*
Y00626010D03*
G54D17*
X03622040Y00313030D03*
Y00338620D03*
Y00364210D03*
Y00389800D03*
Y00415390D03*
Y00440980D03*
Y00466570D03*
Y00492160D03*
Y00517750D03*
Y00543340D03*
Y00568930D03*
Y00594520D03*
Y00620110D03*
Y00645700D03*
Y00671290D03*
Y00696880D03*
Y00722470D03*
Y00748060D03*
Y00773650D03*
X03326760D03*
Y00748060D03*
Y00722470D03*
Y00696880D03*
Y00671290D03*
Y00645700D03*
Y00620110D03*
Y00594520D03*
Y00568930D03*
Y00543340D03*
Y00517750D03*
Y00492160D03*
Y00466570D03*
Y00440980D03*
Y00415390D03*
Y00389800D03*
Y00364210D03*
Y00338620D03*
Y00313030D03*
G54D18*
X04722430Y01261830D03*
Y01144630D03*
G54D19*
X03781790Y01269700D03*
Y01169700D03*
X04137790D03*
Y01269700D03*
G54D18*
X04017710Y00537420D03*
Y00420220D03*
G54D19*
X03781790Y01702770D03*
Y01602770D03*
X04137790D03*
Y01702770D03*
X03781790Y01919310D03*
Y01819310D03*
X04137790D03*
Y01919310D03*
G54D18*
X04017710Y00631910D03*
Y00749110D03*
X04872040Y01261830D03*
Y01144630D03*
G54D20*
X04350110Y01785450D03*
Y01735450D03*
Y01685450D03*
Y01635450D03*
X04555110D03*
Y01685450D03*
Y01735450D03*
Y01785450D03*
X04350110Y01494110D03*
Y01444110D03*
Y01394110D03*
Y01344110D03*
X04555110D03*
Y01394110D03*
Y01444110D03*
Y01494110D03*
G54D19*
X03781790Y01486240D03*
Y01386240D03*
X04137790D03*
Y01486240D03*
G54D21*
X04466670Y01171280D03*
X04582670D03*
G54D22*
X04397631Y01885990D03*
Y02001990D03*
G54D23*
X03977281Y02226380D03*
X04094481D03*
G54D10*
X04417320Y01269700D03*
X04488181D03*
X04511810Y01929150D03*
X04582670D03*
G54D24*
X02999795Y00337100D03*
Y00492140D03*
G54D10*
X04267720Y04080720D03*
X04338581D03*
X04529520Y04438990D03*
X04458660D03*
G54D11*
X04142440Y03954740D03*
X04200781D03*
G54D12*
X04397650Y05031500D03*
Y04973160D03*
G54D11*
X04331420Y04439000D03*
X04389760D03*
X04350390Y04147650D03*
X04292050D03*
G54D12*
X04041330Y03964581D03*
Y03906240D03*
X03962590Y03964590D03*
Y03906250D03*
X03879920Y03964581D03*
Y03906240D03*
X03765740Y03964581D03*
Y03906240D03*
X04248030Y04410731D03*
Y04352390D03*
Y04292610D03*
Y04234270D03*
Y04725690D03*
Y04667350D03*
Y04607581D03*
Y04549240D03*
G54D11*
X04580700Y04726400D03*
X04522360D03*
X04059050Y03192940D03*
X04000710D03*
X04043300Y03690970D03*
X03984960D03*
X04232281Y03856330D03*
X04173940D03*
X04230310Y03767740D03*
X04171970D03*
G54D12*
X03171250Y03386560D03*
Y03444900D03*
G54D11*
X02774331Y03519700D03*
X02832670D03*
G54D12*
X03722440Y03267740D03*
Y03209400D03*
G54D13*
X03263781Y03866200D03*
X03208660D03*
Y03728400D03*
X03263781D03*
G54D14*
X03388160Y04752670D03*
X03466160D03*
X03427160Y04834670D03*
X03466160Y05003281D03*
X03388160D03*
X03427160Y04921281D03*
X03393690Y04285460D03*
X03315690D03*
X03354690Y04203460D03*
G54D12*
X03171250Y03277581D03*
Y03335920D03*
G54D15*
X04279520Y03495350D03*
Y03417350D03*
X04361520Y03456350D03*
X04206690Y03417350D03*
Y03495350D03*
X04124690Y03456350D03*
X04279520Y03664640D03*
Y03586640D03*
X04361520Y03625640D03*
X04206690Y03240920D03*
Y03318920D03*
X04124690Y03279920D03*
X04279520Y03318920D03*
Y03240920D03*
X04361520Y03279920D03*
X04206690Y03586640D03*
Y03664640D03*
X04124690Y03625640D03*
G54D16*
X03704720Y03570890D03*
Y03500031D03*
G54D17*
X03622040Y03187050D03*
Y03212640D03*
Y03238231D03*
Y03263820D03*
Y03289410D03*
Y03315000D03*
Y03340590D03*
Y03366181D03*
Y03391770D03*
Y03417360D03*
Y03442950D03*
Y03468540D03*
Y03494131D03*
Y03519720D03*
Y03545310D03*
Y03570900D03*
Y03596490D03*
Y03622081D03*
Y03647670D03*
X03326760D03*
Y03622081D03*
Y03596490D03*
Y03570900D03*
Y03545310D03*
Y03519720D03*
Y03494131D03*
Y03468540D03*
Y03442950D03*
Y03417360D03*
Y03391770D03*
Y03366181D03*
Y03340590D03*
Y03315000D03*
Y03289410D03*
Y03263820D03*
Y03238231D03*
Y03212640D03*
Y03187050D03*
G54D18*
X04722430Y04135850D03*
Y04018650D03*
G54D19*
X03781790Y04143720D03*
Y04043720D03*
X04137790D03*
Y04143720D03*
G54D18*
X04017710Y03411440D03*
Y03294240D03*
G54D19*
X03781790Y04576790D03*
Y04476790D03*
X04137790D03*
Y04576790D03*
X03781790Y04793331D03*
Y04693331D03*
X04137790D03*
Y04793331D03*
G54D18*
X04017710Y03505931D03*
Y03623131D03*
X04872040Y04135850D03*
Y04018650D03*
G54D20*
X04350110Y04659470D03*
Y04609470D03*
Y04559470D03*
Y04509470D03*
X04555110D03*
Y04559470D03*
Y04609470D03*
Y04659470D03*
X04350110Y04368131D03*
Y04318131D03*
Y04268131D03*
Y04218131D03*
X04555110D03*
Y04268131D03*
Y04318131D03*
Y04368131D03*
G54D19*
X03781790Y04360260D03*
Y04260260D03*
X04137790D03*
Y04360260D03*
G54D21*
X04466670Y04045300D03*
X04582670D03*
G54D22*
X04397631Y04760010D03*
Y04876010D03*
G54D23*
X03977281Y05100400D03*
X04094481D03*
G54D10*
X04417320Y04143720D03*
X04488181D03*
X04511810Y04803170D03*
X04582670D03*
G54D24*
X02999795Y03211120D03*
Y03366160D03*
G54D10*
X06866141Y01206700D03*
X06937001D03*
X07127941Y01564970D03*
X07057081D03*
G54D11*
X06740861Y01080720D03*
X06799201D03*
G54D12*
X06996071Y02157480D03*
Y02099140D03*
G54D11*
X06929841Y01564980D03*
X06988181D03*
X06948811Y01273630D03*
X06890471D03*
G54D12*
X06639751Y01090560D03*
Y01032220D03*
X06561011Y01090570D03*
Y01032230D03*
X06478341Y01090560D03*
Y01032220D03*
X06364161Y01090560D03*
Y01032220D03*
X06846451Y01536710D03*
Y01478370D03*
Y01418590D03*
Y01360250D03*
Y01851670D03*
Y01793330D03*
Y01733560D03*
Y01675220D03*
G54D11*
X07179121Y01852380D03*
X07120781D03*
X06657471Y00318920D03*
X06599131D03*
X06641721Y00816950D03*
X06583381D03*
X06830701Y00982310D03*
X06772361D03*
X06828731Y00893720D03*
X06770391D03*
G54D12*
X05769671Y00512540D03*
Y00570880D03*
G54D11*
X05372751Y00645680D03*
X05431091D03*
G54D12*
X06320861Y00393720D03*
Y00335380D03*
G54D13*
X05862201Y00992180D03*
X05807081D03*
Y00854380D03*
X05862201D03*
G54D14*
X05986581Y01878650D03*
X06064581D03*
X06025581Y01960650D03*
X06064581Y02129260D03*
X05986581D03*
X06025581Y02047260D03*
X05992111Y01411440D03*
X05914111D03*
X05953111Y01329440D03*
G54D12*
X05769671Y00403560D03*
Y00461900D03*
G54D15*
X06877941Y00621330D03*
Y00543330D03*
X06959941Y00582330D03*
X06805111Y00543330D03*
Y00621330D03*
X06723111Y00582330D03*
X06877941Y00790620D03*
Y00712620D03*
X06959941Y00751620D03*
X06805111Y00366900D03*
Y00444900D03*
X06723111Y00405900D03*
X06877941Y00444900D03*
Y00366900D03*
X06959941Y00405900D03*
X06805111Y00712620D03*
Y00790620D03*
X06723111Y00751620D03*
G54D16*
X06303141Y00696870D03*
Y00626010D03*
G54D17*
X06220461Y00313030D03*
Y00338620D03*
Y00364210D03*
Y00389800D03*
Y00415390D03*
Y00440980D03*
Y00466570D03*
Y00492160D03*
Y00517750D03*
Y00543340D03*
Y00568930D03*
Y00594520D03*
Y00620110D03*
Y00645700D03*
Y00671290D03*
Y00696880D03*
Y00722470D03*
Y00748060D03*
Y00773650D03*
X05925181D03*
Y00748060D03*
Y00722470D03*
Y00696880D03*
Y00671290D03*
Y00645700D03*
Y00620110D03*
Y00594520D03*
Y00568930D03*
Y00543340D03*
Y00517750D03*
Y00492160D03*
Y00466570D03*
Y00440980D03*
Y00415390D03*
Y00389800D03*
Y00364210D03*
Y00338620D03*
Y00313030D03*
G54D18*
X07320851Y01261830D03*
Y01144630D03*
G54D19*
X06380211Y01269700D03*
Y01169700D03*
X06736211D03*
Y01269700D03*
G54D18*
X06616131Y00537420D03*
Y00420220D03*
G54D19*
X06380211Y01702770D03*
Y01602770D03*
X06736211D03*
Y01702770D03*
X06380211Y01919310D03*
Y01819310D03*
X06736211D03*
Y01919310D03*
G54D18*
X06616131Y00631910D03*
Y00749110D03*
X07470461Y01261830D03*
Y01144630D03*
G54D20*
X06948531Y01785450D03*
Y01735450D03*
Y01685450D03*
Y01635450D03*
X07153531D03*
Y01685450D03*
Y01735450D03*
Y01785450D03*
X06948531Y01494110D03*
Y01444110D03*
Y01394110D03*
Y01344110D03*
X07153531D03*
Y01394110D03*
Y01444110D03*
Y01494110D03*
G54D19*
X06380211Y01486240D03*
Y01386240D03*
X06736211D03*
Y01486240D03*
G54D21*
X07065091Y01171280D03*
X07181091D03*
G54D22*
X06996051Y01885990D03*
Y02001990D03*
G54D23*
X06575701Y02226380D03*
X06692901D03*
G54D10*
X07015741Y01269700D03*
X07086601D03*
X07110231Y01929150D03*
X07181091D03*
G54D24*
X05598216Y00337100D03*
Y00492140D03*
G54D10*
X06866141Y04080720D03*
X06937001D03*
X07127941Y04438990D03*
X07057081D03*
G54D11*
X06740861Y03954740D03*
X06799201D03*
G54D12*
X06996071Y05031500D03*
Y04973160D03*
G54D11*
X06929841Y04439000D03*
X06988181D03*
X06948811Y04147650D03*
X06890471D03*
G54D12*
X06639751Y03964581D03*
Y03906240D03*
X06561011Y03964590D03*
Y03906250D03*
X06478341Y03964581D03*
Y03906240D03*
X06364161Y03964581D03*
Y03906240D03*
X06846451Y04410731D03*
Y04352390D03*
Y04292610D03*
Y04234270D03*
Y04725690D03*
Y04667350D03*
Y04607581D03*
Y04549240D03*
G54D11*
X07179121Y04726400D03*
X07120781D03*
X06657471Y03192940D03*
X06599131D03*
X06641721Y03690970D03*
X06583381D03*
X06830701Y03856330D03*
X06772361D03*
X06828731Y03767740D03*
X06770391D03*
G54D12*
X05769671Y03386560D03*
Y03444900D03*
G54D11*
X05372751Y03519700D03*
X05431091D03*
G54D12*
X06320861Y03267740D03*
Y03209400D03*
G54D13*
X05862201Y03866200D03*
X05807081D03*
Y03728400D03*
X05862201D03*
G54D14*
X05986581Y04752670D03*
X06064581D03*
X06025581Y04834670D03*
X06064581Y05003281D03*
X05986581D03*
X06025581Y04921281D03*
X05992111Y04285460D03*
X05914111D03*
X05953111Y04203460D03*
G54D12*
X05769671Y03277581D03*
Y03335920D03*
G54D15*
X06877941Y03495350D03*
Y03417350D03*
X06959941Y03456350D03*
X06805111Y03417350D03*
Y03495350D03*
X06723111Y03456350D03*
X06877941Y03664640D03*
Y03586640D03*
X06959941Y03625640D03*
X06805111Y03240920D03*
Y03318920D03*
X06723111Y03279920D03*
X06877941Y03318920D03*
Y03240920D03*
X06959941Y03279920D03*
X06805111Y03586640D03*
Y03664640D03*
X06723111Y03625640D03*
G54D16*
X06303141Y03570890D03*
Y03500031D03*
G54D17*
X06220461Y03187050D03*
Y03212640D03*
Y03238231D03*
Y03263820D03*
Y03289410D03*
Y03315000D03*
Y03340590D03*
Y03366181D03*
Y03391770D03*
Y03417360D03*
Y03442950D03*
Y03468540D03*
Y03494131D03*
Y03519720D03*
Y03545310D03*
Y03570900D03*
Y03596490D03*
Y03622081D03*
Y03647670D03*
X05925181D03*
Y03622081D03*
Y03596490D03*
Y03570900D03*
Y03545310D03*
Y03519720D03*
Y03494131D03*
Y03468540D03*
Y03442950D03*
Y03417360D03*
Y03391770D03*
Y03366181D03*
Y03340590D03*
Y03315000D03*
Y03289410D03*
Y03263820D03*
Y03238231D03*
Y03212640D03*
Y03187050D03*
G54D18*
X07320851Y04135850D03*
Y04018650D03*
G54D19*
X06380211Y04143720D03*
Y04043720D03*
X06736211D03*
Y04143720D03*
G54D18*
X06616131Y03411440D03*
Y03294240D03*
G54D19*
X06380211Y04576790D03*
Y04476790D03*
X06736211D03*
Y04576790D03*
X06380211Y04793331D03*
Y04693331D03*
X06736211D03*
Y04793331D03*
G54D18*
X06616131Y03505931D03*
Y03623131D03*
X07470461Y04135850D03*
Y04018650D03*
G54D20*
X06948531Y04659470D03*
Y04609470D03*
Y04559470D03*
Y04509470D03*
X07153531D03*
Y04559470D03*
Y04609470D03*
Y04659470D03*
X06948531Y04368131D03*
Y04318131D03*
Y04268131D03*
Y04218131D03*
X07153531D03*
Y04268131D03*
Y04318131D03*
Y04368131D03*
G54D19*
X06380211Y04360260D03*
Y04260260D03*
X06736211D03*
Y04360260D03*
G54D21*
X07065091Y04045300D03*
X07181091D03*
G54D22*
X06996051Y04760010D03*
Y04876010D03*
G54D23*
X06575701Y05100400D03*
X06692901D03*
G54D10*
X07015741Y04143720D03*
X07086601D03*
X07110231Y04803170D03*
X07181091D03*
G54D24*
X05598216Y03211120D03*
Y03366160D03*
G54D10*
X09464561Y01206700D03*
X09535421D03*
X09726361Y01564970D03*
X09655501D03*
G54D11*
X09339281Y01080720D03*
X09397621D03*
G54D12*
X09594491Y02157480D03*
Y02099140D03*
G54D11*
X09528261Y01564980D03*
X09586601D03*
X09547231Y01273630D03*
X09488891D03*
G54D12*
X09238171Y01090560D03*
Y01032220D03*
X09159431Y01090570D03*
Y01032230D03*
X09076761Y01090560D03*
Y01032220D03*
X08962581Y01090560D03*
Y01032220D03*
X09444871Y01536710D03*
Y01478370D03*
Y01418590D03*
Y01360250D03*
Y01851670D03*
Y01793330D03*
Y01733560D03*
Y01675220D03*
G54D11*
X09777541Y01852380D03*
X09719201D03*
X09255891Y00318920D03*
X09197551D03*
X09240141Y00816950D03*
X09181801D03*
X09429121Y00982310D03*
X09370781D03*
X09427151Y00893720D03*
X09368811D03*
G54D12*
X08368091Y00512540D03*
Y00570880D03*
G54D11*
X07971171Y00645680D03*
X08029511D03*
G54D12*
X08919281Y00393720D03*
Y00335380D03*
G54D13*
X08460621Y00992180D03*
X08405501D03*
Y00854380D03*
X08460621D03*
G54D14*
X08585001Y01878650D03*
X08663001D03*
X08624001Y01960650D03*
X08663001Y02129260D03*
X08585001D03*
X08624001Y02047260D03*
X08590531Y01411440D03*
X08512531D03*
X08551531Y01329440D03*
G54D12*
X08368091Y00403560D03*
Y00461900D03*
G54D15*
X09476361Y00621330D03*
Y00543330D03*
X09558361Y00582330D03*
X09403531Y00543330D03*
Y00621330D03*
X09321531Y00582330D03*
X09476361Y00790620D03*
Y00712620D03*
X09558361Y00751620D03*
X09403531Y00366900D03*
Y00444900D03*
X09321531Y00405900D03*
X09476361Y00444900D03*
Y00366900D03*
X09558361Y00405900D03*
X09403531Y00712620D03*
Y00790620D03*
X09321531Y00751620D03*
G54D16*
X08901561Y00696870D03*
Y00626010D03*
G54D17*
X08818881Y00313030D03*
Y00338620D03*
Y00364210D03*
Y00389800D03*
Y00415390D03*
Y00440980D03*
Y00466570D03*
Y00492160D03*
Y00517750D03*
Y00543340D03*
Y00568930D03*
Y00594520D03*
Y00620110D03*
Y00645700D03*
Y00671290D03*
Y00696880D03*
Y00722470D03*
Y00748060D03*
Y00773650D03*
X08523601D03*
Y00748060D03*
Y00722470D03*
Y00696880D03*
Y00671290D03*
Y00645700D03*
Y00620110D03*
Y00594520D03*
Y00568930D03*
Y00543340D03*
Y00517750D03*
Y00492160D03*
Y00466570D03*
Y00440980D03*
Y00415390D03*
Y00389800D03*
Y00364210D03*
Y00338620D03*
Y00313030D03*
G54D18*
X09919271Y01261830D03*
Y01144630D03*
G54D19*
X08978631Y01269700D03*
Y01169700D03*
X09334631D03*
Y01269700D03*
G54D18*
X09214551Y00537420D03*
Y00420220D03*
G54D19*
X08978631Y01702770D03*
Y01602770D03*
X09334631D03*
Y01702770D03*
X08978631Y01919310D03*
Y01819310D03*
X09334631D03*
Y01919310D03*
G54D18*
X09214551Y00631910D03*
Y00749110D03*
X10068881Y01261830D03*
Y01144630D03*
G54D20*
X09546951Y01785450D03*
Y01735450D03*
Y01685450D03*
Y01635450D03*
X09751951D03*
Y01685450D03*
Y01735450D03*
Y01785450D03*
X09546951Y01494110D03*
Y01444110D03*
Y01394110D03*
Y01344110D03*
X09751951D03*
Y01394110D03*
Y01444110D03*
Y01494110D03*
G54D19*
X08978631Y01486240D03*
Y01386240D03*
X09334631D03*
Y01486240D03*
G54D21*
X09663511Y01171280D03*
X09779511D03*
G54D22*
X09594471Y01885990D03*
Y02001990D03*
G54D23*
X09174121Y02226380D03*
X09291321D03*
G54D10*
X09614161Y01269700D03*
X09685021D03*
X09708651Y01929150D03*
X09779511D03*
G54D24*
X08196636Y00337100D03*
Y00492140D03*
G54D10*
X09464561Y04080720D03*
X09535421D03*
X09726361Y04438990D03*
X09655501D03*
G54D11*
X09339281Y03954740D03*
X09397621D03*
G54D12*
X09594491Y05031500D03*
Y04973160D03*
G54D11*
X09528261Y04439000D03*
X09586601D03*
X09547231Y04147650D03*
X09488891D03*
G54D12*
X09238171Y03964581D03*
Y03906240D03*
X09159431Y03964590D03*
Y03906250D03*
X09076761Y03964581D03*
Y03906240D03*
X08962581Y03964581D03*
Y03906240D03*
X09444871Y04410731D03*
Y04352390D03*
Y04292610D03*
Y04234270D03*
Y04725690D03*
Y04667350D03*
Y04607581D03*
Y04549240D03*
G54D11*
X09777541Y04726400D03*
X09719201D03*
X09255891Y03192940D03*
X09197551D03*
X09240141Y03690970D03*
X09181801D03*
X09429121Y03856330D03*
X09370781D03*
X09427151Y03767740D03*
X09368811D03*
G54D12*
X08368091Y03386560D03*
Y03444900D03*
G54D11*
X07971171Y03519700D03*
X08029511D03*
G54D12*
X08919281Y03267740D03*
Y03209400D03*
G54D13*
X08460621Y03866200D03*
X08405501D03*
Y03728400D03*
X08460621D03*
G54D14*
X08585001Y04752670D03*
X08663001D03*
X08624001Y04834670D03*
X08663001Y05003281D03*
X08585001D03*
X08624001Y04921281D03*
X08590531Y04285460D03*
X08512531D03*
X08551531Y04203460D03*
G54D12*
X08368091Y03277581D03*
Y03335920D03*
G54D15*
X09476361Y03495350D03*
Y03417350D03*
X09558361Y03456350D03*
X09403531Y03417350D03*
Y03495350D03*
X09321531Y03456350D03*
X09476361Y03664640D03*
Y03586640D03*
X09558361Y03625640D03*
X09403531Y03240920D03*
Y03318920D03*
X09321531Y03279920D03*
X09476361Y03318920D03*
Y03240920D03*
X09558361Y03279920D03*
X09403531Y03586640D03*
Y03664640D03*
X09321531Y03625640D03*
G54D16*
X08901561Y03570890D03*
Y03500031D03*
G54D17*
X08818881Y03187050D03*
Y03212640D03*
Y03238231D03*
Y03263820D03*
Y03289410D03*
Y03315000D03*
Y03340590D03*
Y03366181D03*
Y03391770D03*
Y03417360D03*
Y03442950D03*
Y03468540D03*
Y03494131D03*
Y03519720D03*
Y03545310D03*
Y03570900D03*
Y03596490D03*
Y03622081D03*
Y03647670D03*
X08523601D03*
Y03622081D03*
Y03596490D03*
Y03570900D03*
Y03545310D03*
Y03519720D03*
Y03494131D03*
Y03468540D03*
Y03442950D03*
Y03417360D03*
Y03391770D03*
Y03366181D03*
Y03340590D03*
Y03315000D03*
Y03289410D03*
Y03263820D03*
Y03238231D03*
Y03212640D03*
Y03187050D03*
G54D18*
X09919271Y04135850D03*
Y04018650D03*
G54D19*
X08978631Y04143720D03*
Y04043720D03*
X09334631D03*
Y04143720D03*
G54D18*
X09214551Y03411440D03*
Y03294240D03*
G54D19*
X08978631Y04576790D03*
Y04476790D03*
X09334631D03*
Y04576790D03*
X08978631Y04793331D03*
Y04693331D03*
X09334631D03*
Y04793331D03*
G54D18*
X09214551Y03505931D03*
Y03623131D03*
X10068881Y04135850D03*
Y04018650D03*
G54D20*
X09546951Y04659470D03*
Y04609470D03*
Y04559470D03*
Y04509470D03*
X09751951D03*
Y04559470D03*
Y04609470D03*
Y04659470D03*
X09546951Y04368131D03*
Y04318131D03*
Y04268131D03*
Y04218131D03*
X09751951D03*
Y04268131D03*
Y04318131D03*
Y04368131D03*
G54D19*
X08978631Y04360260D03*
Y04260260D03*
X09334631D03*
Y04360260D03*
G54D21*
X09663511Y04045300D03*
X09779511D03*
G54D22*
X09594471Y04760010D03*
Y04876010D03*
G54D23*
X09174121Y05100400D03*
X09291321D03*
G54D10*
X09614161Y04143720D03*
X09685021D03*
X09708651Y04803170D03*
X09779511D03*
G54D24*
X08196636Y03211120D03*
Y03366160D03*
M02*
