*
%FSLAX26Y26*%
%MOIN*%
%ADD10C,0.067000*%
%ADD11R,0.067000X0.067000*%
%ADD12C,0.134000*%
%ADD13C,0.227000*%
%ADD14R,0.045276X0.045276*%
%ADD15C,0.045300*%
%ADD16C,0.136000*%
%ADD17R,0.144803X0.084803*%
%ADD18R,0.044874X0.035189*%
%ADD19R,0.052276X0.018811*%
%ADD20R,0.038189X0.047874*%
%ADD21R,0.070000X0.112362*%
%ADD22R,0.101016X0.081016*%
%ADD23R,0.092000X0.027000*%
%ADD24R,0.095000X0.062992*%
%ADD25R,0.058181X0.066055*%
%ADD26R,0.041016X0.047000*%
%ADD27R,0.043409X0.063094*%
%ADD28R,0.059992X0.092000*%
%ADD29R,0.112362X0.070000*%
%ADD30R,0.069055X0.061181*%
%ADD31R,0.047000X0.041016*%
%ADD32C,0.017654*%
%ADD33C,0.037339*%
%ADD34C,0.137795*%
%ADD35C,0.124016*%
%IPPOS*%
%LNcr.gbx*%
%LPD*%
G75*
G54D10*
X01858650Y00797270D03*
X01958650Y00747270D03*
X01858650Y00597270D03*
X01958650Y00647270D03*
X01858650Y00697270D03*
X01958650Y00547270D03*
G54D11*
Y00447270D03*
G54D10*
X01858650Y00497270D03*
G54D12*
X02208650Y00397270D03*
Y00847270D03*
G54D13*
X02214570Y00147640D03*
G54D14*
X01087190Y00498050D03*
G54D15*
X01137190D03*
G54D16*
X02120050Y01462200D03*
Y01757480D03*
X01586620Y02395670D03*
X01291340D03*
G54D11*
X02231500Y02163400D03*
G54D10*
X02031500D03*
G54D13*
X02214570Y02490160D03*
G54D11*
X00177170Y00750020D03*
G54D10*
X00277170D03*
G54D13*
X00147640Y00147640D03*
G54D10*
X00377170Y00750020D03*
X00377970Y00903560D03*
X00477170Y00750020D03*
X00477970Y00903560D03*
X00511420Y01129550D03*
X00411420Y01179550D03*
X00511420Y01229550D03*
G54D12*
X00161420Y01079550D03*
G54D11*
X00077970Y00903560D03*
G54D10*
X00177970D03*
X00277970D03*
X00511420Y01818520D03*
Y02018520D03*
Y02118520D03*
Y01918520D03*
X00411420Y01868520D03*
Y02068520D03*
Y01968520D03*
G54D11*
Y02168520D03*
G54D12*
X00161420Y02218520D03*
Y01768520D03*
G54D10*
X00511420Y01329550D03*
X00411420Y01379550D03*
Y01279550D03*
G54D11*
Y01479550D03*
G54D10*
X00511420Y01429550D03*
G54D12*
X00161420Y01529550D03*
G54D13*
X00147640Y02490160D03*
G54D17*
X00401570Y00337100D03*
Y00492140D03*
G54D18*
X00572830Y00403560D03*
Y00461900D03*
Y00512540D03*
Y00570880D03*
G54D19*
X00728340Y00773650D03*
Y00748060D03*
Y00722470D03*
Y00696880D03*
Y00671290D03*
Y00645700D03*
Y00620110D03*
Y00594520D03*
G54D20*
X00175910Y00645680D03*
X00234250D03*
G54D19*
X00728340Y00568930D03*
Y00543340D03*
Y00517750D03*
Y00492160D03*
Y00466570D03*
Y00440980D03*
Y00415390D03*
Y00389800D03*
Y00364210D03*
Y00338620D03*
Y00313030D03*
G54D21*
X01378860Y02226380D03*
X01496060D03*
G54D22*
X01539370Y01919310D03*
G54D23*
X01751690Y01785450D03*
Y01735450D03*
Y01685450D03*
Y01635450D03*
G54D20*
X01733000Y01564980D03*
X01791340D03*
G54D18*
X01649610Y01733560D03*
Y01675220D03*
Y01851670D03*
Y01793330D03*
G54D24*
X01799210Y02001990D03*
G54D25*
X01913390Y01929150D03*
X01984250D03*
G54D24*
X01799210Y01885990D03*
G54D20*
X01982280Y01852380D03*
X01923940D03*
G54D18*
X01799230Y02157480D03*
Y02099140D03*
G54D23*
X01956690Y01635450D03*
Y01685450D03*
Y01735450D03*
Y01785450D03*
G54D25*
X01931100Y01564970D03*
X01860240D03*
G54D22*
X01183370Y01486240D03*
Y01386240D03*
Y01602770D03*
G54D26*
X00789740Y01878650D03*
X00867740D03*
X00828740Y01960650D03*
X00867740Y02129260D03*
X00789740D03*
X00828740Y02047260D03*
G54D22*
X01539370Y01486240D03*
Y01819310D03*
Y01602770D03*
Y01702770D03*
X01183370Y01919310D03*
Y01819310D03*
Y01702770D03*
G54D18*
X01649610Y01536710D03*
Y01478370D03*
G54D22*
X01183370Y01269700D03*
X01539370Y01386240D03*
G54D18*
X01649610Y01418590D03*
Y01360250D03*
G54D22*
X01183370Y01169700D03*
G54D18*
X01167320Y01090560D03*
Y01032220D03*
X01281500Y01090560D03*
X01442910Y01032220D03*
X01281500D03*
X01364170Y01090570D03*
Y01032230D03*
G54D22*
X01539370Y01269700D03*
G54D18*
X01442910Y01090560D03*
G54D22*
X01539370Y01169700D03*
G54D20*
X01544020Y01080720D03*
X01602360D03*
G54D25*
X01669300Y01206700D03*
X01740160D03*
G54D26*
X00795270Y01411440D03*
X00756270Y01329440D03*
X00717270Y01411440D03*
G54D27*
X00665360Y00992180D03*
X00610240D03*
Y00854380D03*
X00665360D03*
G54D28*
X01984250Y01171280D03*
G54D29*
X02273620Y01261830D03*
X02124010D03*
X02273620Y01144630D03*
X02124010D03*
G54D25*
X01818900Y01269700D03*
X01889760D03*
G54D23*
X01956690Y01344110D03*
Y01394110D03*
Y01444110D03*
Y01494110D03*
X01751690D03*
Y01444110D03*
Y01394110D03*
Y01344110D03*
G54D20*
X01751970Y01273630D03*
X01693630D03*
G54D28*
X01868250Y01171280D03*
G54D29*
X01419290Y00420220D03*
G54D20*
X01460630Y00318920D03*
X01402290D03*
G54D18*
X01124020Y00393720D03*
Y00335380D03*
G54D19*
X01023620Y00313030D03*
Y00338620D03*
Y00364210D03*
Y00389800D03*
Y00415390D03*
Y00440980D03*
Y00466570D03*
Y00492160D03*
Y00517750D03*
Y00543340D03*
Y00568930D03*
Y00594520D03*
Y00620110D03*
Y00645700D03*
Y00671290D03*
Y00696880D03*
Y00722470D03*
Y00748060D03*
Y00773650D03*
G54D30*
X01106300Y00696870D03*
Y00626010D03*
G54D29*
X01419290Y00631910D03*
Y00537420D03*
G54D31*
X01526270Y00405900D03*
Y00582330D03*
G54D29*
X01419290Y00749110D03*
G54D31*
X01526270Y00751620D03*
G54D20*
X01631890Y00893720D03*
X01573550D03*
G54D31*
X01608270Y00712620D03*
Y00790620D03*
X01681100D03*
Y00712620D03*
X01763100Y00751620D03*
G54D20*
X01386540Y00816950D03*
G54D31*
X01763100Y00405900D03*
Y00582330D03*
X01608270Y00543330D03*
Y00621330D03*
X01681100D03*
Y00543330D03*
Y00366900D03*
X01608270D03*
X01681100Y00444900D03*
X01608270D03*
G54D20*
X01633860Y00982310D03*
X01575520D03*
X01444880Y00816950D03*
G54D32*
X01087100Y00498000D03*
X01137190Y00498050D03*
X00283470Y01797260D03*
X00137800Y01879940D03*
X00224410Y01864190D03*
X00066930Y01824820D03*
X00039370Y01870100D03*
X00185040Y01962620D03*
Y02009860D03*
X00232290Y01950810D03*
Y01998050D03*
X00125990Y01617230D03*
X00185040Y01618130D03*
X00413390Y01568920D03*
Y01616160D03*
X00460630Y01568920D03*
Y01616160D03*
X00413390Y01663410D03*
X00460630D03*
Y01710650D03*
X00671260Y01655520D03*
Y01708670D03*
Y01761820D03*
X00161420Y02104350D03*
X00141740Y02025610D03*
X00106300Y02139780D03*
X00293310Y02208680D03*
X00557090Y02291360D03*
X00588590Y02259860D03*
X00620080Y02228370D03*
X00303150Y02147660D03*
X00340550Y02202780D03*
X00767720Y01990180D03*
X00779530Y02080730D03*
X00874020D03*
X00779530Y01927190D03*
X00874020D03*
X00893700Y02005930D03*
X02269680Y00498050D03*
Y00746080D03*
X02250000Y00992140D03*
X01419290Y01324820D03*
X01710630Y01852380D03*
X01419290Y01515750D03*
X01354330Y01240180D03*
X02015750Y01053170D03*
X02062990Y01826790D03*
X01712600Y01061030D03*
X01667320D03*
X01858270Y00868130D03*
X01643700Y00751990D03*
X01858270Y00927180D03*
X01726380Y00486240D03*
X01643700Y00582700D03*
X01559060Y00537420D03*
Y00626000D03*
X01507870Y00677180D03*
X01557090Y00692930D03*
X01706690Y00318920D03*
X01643700Y00405530D03*
X01559060Y00330730D03*
X01643700Y00311040D03*
X02035430Y00354350D03*
X01423230Y00364190D03*
X00145670Y01389770D03*
X00210630Y01415380D03*
X00816930Y01055140D03*
X00578740Y01127970D03*
X00706690Y01055140D03*
X00145670Y01342520D03*
X00240160Y01234270D03*
X00043310Y01135850D03*
X00240160Y01167340D03*
X00440950Y01230340D03*
X00340550Y01242150D03*
X00657480Y01257890D03*
X00756270Y01274730D03*
X00803150Y01362230D03*
X00694880Y01356320D03*
X00801180Y01250020D03*
X00730320Y01234270D03*
X00972440Y01299230D03*
X01301180Y00816950D03*
X01352360Y00891750D03*
X01305120Y00704740D03*
X01314960Y00921280D03*
X01336610Y00458680D03*
X01344490Y00582700D03*
X01352360Y00368130D03*
X01074800Y00338600D03*
X01151570Y00452770D03*
X01200790Y00338600D03*
X01198820Y00405530D03*
X01181100Y00626000D03*
X01179130Y00521670D03*
X01277560D03*
X01234250Y00639780D03*
X00685040Y00940950D03*
X00228350Y00860260D03*
X00629920Y00940950D03*
X00907480Y00742130D03*
X00801180Y00665370D03*
Y00620100D03*
X00954720Y00663400D03*
X00935040Y00334660D03*
X00667320Y00324820D03*
X00669290Y00578760D03*
Y00533480D03*
X00954720Y00574820D03*
X00850390Y00415370D03*
X00950790Y00496080D03*
X00801180Y00574820D03*
X00909450D03*
X00667320Y00376000D03*
Y00452770D03*
X00816930Y00318920D03*
G54D33*
X01858650Y00797270D03*
X01958650Y00747270D03*
X01858650Y00597270D03*
X01958650Y00647270D03*
X01858650Y00697270D03*
X01958650Y00547270D03*
X01958600Y00447200D03*
X01858650Y00497270D03*
X02231500Y02163400D03*
X02031500D03*
X00177100Y00750000D03*
X00277170Y00750020D03*
X00377170D03*
X00377970Y00903560D03*
X00477170Y00750020D03*
X00477970Y00903560D03*
X00511420Y01129550D03*
X00411420Y01179550D03*
X00511420Y01229550D03*
X00077900Y00903500D03*
X00177970Y00903560D03*
X00277970D03*
X00511420Y01818520D03*
Y02018520D03*
Y02118520D03*
Y01918520D03*
X00411420Y01868520D03*
Y02068520D03*
Y01968520D03*
X00411400Y02168500D03*
X00511420Y01329550D03*
X00411420Y01379550D03*
Y01279550D03*
X00411400Y01479500D03*
X00511420Y01429550D03*
X00405510Y01773640D03*
X00271660Y01482300D03*
G54D10*
X01858650Y03671290D03*
X01958650Y03621290D03*
X01858650Y03471290D03*
X01958650Y03521290D03*
X01858650Y03571290D03*
X01958650Y03421290D03*
G54D11*
Y03321290D03*
G54D10*
X01858650Y03371290D03*
G54D12*
X02208650Y03271290D03*
Y03721290D03*
G54D13*
X02214570Y03021660D03*
G54D14*
X01087190Y03372070D03*
G54D15*
X01137190D03*
G54D16*
X02120050Y04336220D03*
Y04631500D03*
X01586620Y05269690D03*
X01291340D03*
G54D11*
X02231500Y05037420D03*
G54D10*
X02031500D03*
G54D13*
X02214570Y05364181D03*
G54D11*
X00177170Y03624040D03*
G54D10*
X00277170D03*
G54D13*
X00147640Y03021660D03*
G54D10*
X00377170Y03624040D03*
X00377970Y03777581D03*
X00477170Y03624040D03*
X00477970Y03777581D03*
X00511420Y04003570D03*
X00411420Y04053570D03*
X00511420Y04103570D03*
G54D12*
X00161420Y03953570D03*
G54D11*
X00077970Y03777581D03*
G54D10*
X00177970D03*
X00277970D03*
X00511420Y04692540D03*
Y04892540D03*
Y04992540D03*
Y04792540D03*
X00411420Y04742540D03*
Y04942540D03*
Y04842540D03*
G54D11*
Y05042540D03*
G54D12*
X00161420Y05092540D03*
Y04642540D03*
G54D10*
X00511420Y04203570D03*
X00411420Y04253570D03*
Y04153570D03*
G54D11*
Y04353570D03*
G54D10*
X00511420Y04303570D03*
G54D12*
X00161420Y04403570D03*
G54D13*
X00147640Y05364181D03*
G54D17*
X00401570Y03211120D03*
Y03366160D03*
G54D18*
X00572830Y03277581D03*
Y03335920D03*
Y03386560D03*
Y03444900D03*
G54D19*
X00728340Y03647670D03*
Y03622081D03*
Y03596490D03*
Y03570900D03*
Y03545310D03*
Y03519720D03*
Y03494131D03*
Y03468540D03*
G54D20*
X00175910Y03519700D03*
X00234250D03*
G54D19*
X00728340Y03442950D03*
Y03417360D03*
Y03391770D03*
Y03366181D03*
Y03340590D03*
Y03315000D03*
Y03289410D03*
Y03263820D03*
Y03238231D03*
Y03212640D03*
Y03187050D03*
G54D21*
X01378860Y05100400D03*
X01496060D03*
G54D22*
X01539370Y04793331D03*
G54D23*
X01751690Y04659470D03*
Y04609470D03*
Y04559470D03*
Y04509470D03*
G54D20*
X01733000Y04439000D03*
X01791340D03*
G54D18*
X01649610Y04607581D03*
Y04549240D03*
Y04725690D03*
Y04667350D03*
G54D24*
X01799210Y04876010D03*
G54D25*
X01913390Y04803170D03*
X01984250D03*
G54D24*
X01799210Y04760010D03*
G54D20*
X01982280Y04726400D03*
X01923940D03*
G54D18*
X01799230Y05031500D03*
Y04973160D03*
G54D23*
X01956690Y04509470D03*
Y04559470D03*
Y04609470D03*
Y04659470D03*
G54D25*
X01931100Y04438990D03*
X01860240D03*
G54D22*
X01183370Y04360260D03*
Y04260260D03*
Y04476790D03*
G54D26*
X00789740Y04752670D03*
X00867740D03*
X00828740Y04834670D03*
X00867740Y05003281D03*
X00789740D03*
X00828740Y04921281D03*
G54D22*
X01539370Y04360260D03*
Y04693331D03*
Y04476790D03*
Y04576790D03*
X01183370Y04793331D03*
Y04693331D03*
Y04576790D03*
G54D18*
X01649610Y04410731D03*
Y04352390D03*
G54D22*
X01183370Y04143720D03*
X01539370Y04260260D03*
G54D18*
X01649610Y04292610D03*
Y04234270D03*
G54D22*
X01183370Y04043720D03*
G54D18*
X01167320Y03964581D03*
Y03906240D03*
X01281500Y03964581D03*
X01442910Y03906240D03*
X01281500D03*
X01364170Y03964590D03*
Y03906250D03*
G54D22*
X01539370Y04143720D03*
G54D18*
X01442910Y03964581D03*
G54D22*
X01539370Y04043720D03*
G54D20*
X01544020Y03954740D03*
X01602360D03*
G54D25*
X01669300Y04080720D03*
X01740160D03*
G54D26*
X00795270Y04285460D03*
X00756270Y04203460D03*
X00717270Y04285460D03*
G54D27*
X00665360Y03866200D03*
X00610240D03*
Y03728400D03*
X00665360D03*
G54D28*
X01984250Y04045300D03*
G54D29*
X02273620Y04135850D03*
X02124010D03*
X02273620Y04018650D03*
X02124010D03*
G54D25*
X01818900Y04143720D03*
X01889760D03*
G54D23*
X01956690Y04218131D03*
Y04268131D03*
Y04318131D03*
Y04368131D03*
X01751690D03*
Y04318131D03*
Y04268131D03*
Y04218131D03*
G54D20*
X01751970Y04147650D03*
X01693630D03*
G54D28*
X01868250Y04045300D03*
G54D29*
X01419290Y03294240D03*
G54D20*
X01460630Y03192940D03*
X01402290D03*
G54D18*
X01124020Y03267740D03*
Y03209400D03*
G54D19*
X01023620Y03187050D03*
Y03212640D03*
Y03238231D03*
Y03263820D03*
Y03289410D03*
Y03315000D03*
Y03340590D03*
Y03366181D03*
Y03391770D03*
Y03417360D03*
Y03442950D03*
Y03468540D03*
Y03494131D03*
Y03519720D03*
Y03545310D03*
Y03570900D03*
Y03596490D03*
Y03622081D03*
Y03647670D03*
G54D30*
X01106300Y03570890D03*
Y03500031D03*
G54D29*
X01419290Y03505931D03*
Y03411440D03*
G54D31*
X01526270Y03279920D03*
Y03456350D03*
G54D29*
X01419290Y03623131D03*
G54D31*
X01526270Y03625640D03*
G54D20*
X01631890Y03767740D03*
X01573550D03*
G54D31*
X01608270Y03586640D03*
Y03664640D03*
X01681100D03*
Y03586640D03*
X01763100Y03625640D03*
G54D20*
X01386540Y03690970D03*
G54D31*
X01763100Y03279920D03*
Y03456350D03*
X01608270Y03417350D03*
Y03495350D03*
X01681100D03*
Y03417350D03*
Y03240920D03*
X01608270D03*
X01681100Y03318920D03*
X01608270D03*
G54D20*
X01633860Y03856330D03*
X01575520D03*
X01444880Y03690970D03*
G54D32*
X01087100Y03372020D03*
X01137190Y03372070D03*
X00283470Y04671281D03*
X00137800Y04753960D03*
X00224410Y04738210D03*
X00066930Y04698840D03*
X00039370Y04744120D03*
X00185040Y04836640D03*
Y04883881D03*
X00232290Y04824831D03*
Y04872070D03*
X00125990Y04491250D03*
X00185040Y04492150D03*
X00413390Y04442940D03*
Y04490181D03*
X00460630Y04442940D03*
Y04490181D03*
X00413390Y04537431D03*
X00460630D03*
Y04584670D03*
X00671260Y04529540D03*
Y04582690D03*
Y04635840D03*
X00161420Y04978370D03*
X00141740Y04899631D03*
X00106300Y05013800D03*
X00293310Y05082700D03*
X00557090Y05165381D03*
X00588590Y05133881D03*
X00620080Y05102390D03*
X00303150Y05021681D03*
X00340550Y05076800D03*
X00767720Y04864200D03*
X00779530Y04954750D03*
X00874020D03*
X00779530Y04801210D03*
X00874020D03*
X00893700Y04879950D03*
X02269680Y03372070D03*
Y03620100D03*
X02250000Y03866160D03*
X01419290Y04198840D03*
X01710630Y04726400D03*
X01419290Y04389770D03*
X01354330Y04114200D03*
X02015750Y03927190D03*
X02062990Y04700810D03*
X01712600Y03935050D03*
X01667320D03*
X01858270Y03742150D03*
X01643700Y03626010D03*
X01858270Y03801200D03*
X01726380Y03360260D03*
X01643700Y03456720D03*
X01559060Y03411440D03*
Y03500020D03*
X01507870Y03551200D03*
X01557090Y03566950D03*
X01706690Y03192940D03*
X01643700Y03279550D03*
X01559060Y03204750D03*
X01643700Y03185060D03*
X02035430Y03228370D03*
X01423230Y03238210D03*
X00145670Y04263790D03*
X00210630Y04289400D03*
X00816930Y03929160D03*
X00578740Y04001990D03*
X00706690Y03929160D03*
X00145670Y04216540D03*
X00240160Y04108290D03*
X00043310Y04009870D03*
X00240160Y04041360D03*
X00440950Y04104360D03*
X00340550Y04116170D03*
X00657480Y04131910D03*
X00756270Y04148750D03*
X00803150Y04236250D03*
X00694880Y04230340D03*
X00801180Y04124040D03*
X00730320Y04108290D03*
X00972440Y04173250D03*
X01301180Y03690970D03*
X01352360Y03765770D03*
X01305120Y03578760D03*
X01314960Y03795300D03*
X01336610Y03332700D03*
X01344490Y03456720D03*
X01352360Y03242150D03*
X01074800Y03212620D03*
X01151570Y03326790D03*
X01200790Y03212620D03*
X01198820Y03279550D03*
X01181100Y03500020D03*
X01179130Y03395690D03*
X01277560D03*
X01234250Y03513800D03*
X00685040Y03814970D03*
X00228350Y03734281D03*
X00629920Y03814970D03*
X00907480Y03616150D03*
X00801180Y03539390D03*
Y03494120D03*
X00954720Y03537420D03*
X00935040Y03208681D03*
X00667320Y03198840D03*
X00669290Y03452781D03*
Y03407500D03*
X00954720Y03448840D03*
X00850390Y03289390D03*
X00950790Y03370100D03*
X00801180Y03448840D03*
X00909450D03*
X00667320Y03250020D03*
Y03326790D03*
X00816930Y03192940D03*
G54D33*
X01858650Y03671290D03*
X01958650Y03621290D03*
X01858650Y03471290D03*
X01958650Y03521290D03*
X01858650Y03571290D03*
X01958650Y03421290D03*
X01958600Y03321220D03*
X01858650Y03371290D03*
X02231500Y05037420D03*
X02031500D03*
X00177100Y03624020D03*
X00277170Y03624040D03*
X00377170D03*
X00377970Y03777581D03*
X00477170Y03624040D03*
X00477970Y03777581D03*
X00511420Y04003570D03*
X00411420Y04053570D03*
X00511420Y04103570D03*
X00077900Y03777520D03*
X00177970Y03777581D03*
X00277970D03*
X00511420Y04692540D03*
Y04892540D03*
Y04992540D03*
Y04792540D03*
X00411420Y04742540D03*
Y04942540D03*
Y04842540D03*
X00411400Y05042520D03*
X00511420Y04203570D03*
X00411420Y04253570D03*
Y04153570D03*
X00411400Y04353520D03*
X00511420Y04303570D03*
X00405510Y04647660D03*
X00271660Y04356320D03*
G54D10*
X04457070Y00797270D03*
X04557070Y00747270D03*
X04457070Y00597270D03*
X04557070Y00647270D03*
X04457070Y00697270D03*
X04557070Y00547270D03*
G54D11*
Y00447270D03*
G54D10*
X04457070Y00497270D03*
G54D12*
X04807070Y00397270D03*
Y00847270D03*
G54D13*
X04812990Y00147640D03*
G54D14*
X03685610Y00498050D03*
G54D15*
X03735610D03*
G54D16*
X04718470Y01462200D03*
Y01757480D03*
X04185040Y02395670D03*
X03889760D03*
G54D11*
X04829920Y02163400D03*
G54D10*
X04629920D03*
G54D13*
X04812990Y02490160D03*
G54D11*
X02775590Y00750020D03*
G54D10*
X02875590D03*
G54D13*
X02746060Y00147640D03*
G54D10*
X02975590Y00750020D03*
X02976390Y00903560D03*
X03075590Y00750020D03*
X03076390Y00903560D03*
X03109840Y01129550D03*
X03009840Y01179550D03*
X03109840Y01229550D03*
G54D12*
X02759840Y01079550D03*
G54D11*
X02676390Y00903560D03*
G54D10*
X02776390D03*
X02876390D03*
X03109840Y01818520D03*
Y02018520D03*
Y02118520D03*
Y01918520D03*
X03009840Y01868520D03*
Y02068520D03*
Y01968520D03*
G54D11*
Y02168520D03*
G54D12*
X02759840Y02218520D03*
Y01768520D03*
G54D10*
X03109840Y01329550D03*
X03009840Y01379550D03*
Y01279550D03*
G54D11*
Y01479550D03*
G54D10*
X03109840Y01429550D03*
G54D12*
X02759840Y01529550D03*
G54D13*
X02746060Y02490160D03*
G54D17*
X02999990Y00337100D03*
Y00492140D03*
G54D18*
X03171250Y00403560D03*
Y00461900D03*
Y00512540D03*
Y00570880D03*
G54D19*
X03326760Y00773650D03*
Y00748060D03*
Y00722470D03*
Y00696880D03*
Y00671290D03*
Y00645700D03*
Y00620110D03*
Y00594520D03*
G54D20*
X02774331Y00645680D03*
X02832670D03*
G54D19*
X03326760Y00568930D03*
Y00543340D03*
Y00517750D03*
Y00492160D03*
Y00466570D03*
Y00440980D03*
Y00415390D03*
Y00389800D03*
Y00364210D03*
Y00338620D03*
Y00313030D03*
G54D21*
X03977281Y02226380D03*
X04094481D03*
G54D22*
X04137790Y01919310D03*
G54D23*
X04350110Y01785450D03*
Y01735450D03*
Y01685450D03*
Y01635450D03*
G54D20*
X04331420Y01564980D03*
X04389760D03*
G54D18*
X04248030Y01733560D03*
Y01675220D03*
Y01851670D03*
Y01793330D03*
G54D24*
X04397631Y02001990D03*
G54D25*
X04511810Y01929150D03*
X04582670D03*
G54D24*
X04397631Y01885990D03*
G54D20*
X04580700Y01852380D03*
X04522360D03*
G54D18*
X04397650Y02157480D03*
Y02099140D03*
G54D23*
X04555110Y01635450D03*
Y01685450D03*
Y01735450D03*
Y01785450D03*
G54D25*
X04529520Y01564970D03*
X04458660D03*
G54D22*
X03781790Y01486240D03*
Y01386240D03*
Y01602770D03*
G54D26*
X03388160Y01878650D03*
X03466160D03*
X03427160Y01960650D03*
X03466160Y02129260D03*
X03388160D03*
X03427160Y02047260D03*
G54D22*
X04137790Y01486240D03*
Y01819310D03*
Y01602770D03*
Y01702770D03*
X03781790Y01919310D03*
Y01819310D03*
Y01702770D03*
G54D18*
X04248030Y01536710D03*
Y01478370D03*
G54D22*
X03781790Y01269700D03*
X04137790Y01386240D03*
G54D18*
X04248030Y01418590D03*
Y01360250D03*
G54D22*
X03781790Y01169700D03*
G54D18*
X03765740Y01090560D03*
Y01032220D03*
X03879920Y01090560D03*
X04041330Y01032220D03*
X03879920D03*
X03962590Y01090570D03*
Y01032230D03*
G54D22*
X04137790Y01269700D03*
G54D18*
X04041330Y01090560D03*
G54D22*
X04137790Y01169700D03*
G54D20*
X04142440Y01080720D03*
X04200781D03*
G54D25*
X04267720Y01206700D03*
X04338581D03*
G54D26*
X03393690Y01411440D03*
X03354690Y01329440D03*
X03315690Y01411440D03*
G54D27*
X03263781Y00992180D03*
X03208660D03*
Y00854380D03*
X03263781D03*
G54D28*
X04582670Y01171280D03*
G54D29*
X04872040Y01261830D03*
X04722430D03*
X04872040Y01144630D03*
X04722430D03*
G54D25*
X04417320Y01269700D03*
X04488181D03*
G54D23*
X04555110Y01344110D03*
Y01394110D03*
Y01444110D03*
Y01494110D03*
X04350110D03*
Y01444110D03*
Y01394110D03*
Y01344110D03*
G54D20*
X04350390Y01273630D03*
X04292050D03*
G54D28*
X04466670Y01171280D03*
G54D29*
X04017710Y00420220D03*
G54D20*
X04059050Y00318920D03*
X04000710D03*
G54D18*
X03722440Y00393720D03*
Y00335380D03*
G54D19*
X03622040Y00313030D03*
Y00338620D03*
Y00364210D03*
Y00389800D03*
Y00415390D03*
Y00440980D03*
Y00466570D03*
Y00492160D03*
Y00517750D03*
Y00543340D03*
Y00568930D03*
Y00594520D03*
Y00620110D03*
Y00645700D03*
Y00671290D03*
Y00696880D03*
Y00722470D03*
Y00748060D03*
Y00773650D03*
G54D30*
X03704720Y00696870D03*
Y00626010D03*
G54D29*
X04017710Y00631910D03*
Y00537420D03*
G54D31*
X04124690Y00405900D03*
Y00582330D03*
G54D29*
X04017710Y00749110D03*
G54D31*
X04124690Y00751620D03*
G54D20*
X04230310Y00893720D03*
X04171970D03*
G54D31*
X04206690Y00712620D03*
Y00790620D03*
X04279520D03*
Y00712620D03*
X04361520Y00751620D03*
G54D20*
X03984960Y00816950D03*
G54D31*
X04361520Y00405900D03*
Y00582330D03*
X04206690Y00543330D03*
Y00621330D03*
X04279520D03*
Y00543330D03*
Y00366900D03*
X04206690D03*
X04279520Y00444900D03*
X04206690D03*
G54D20*
X04232281Y00982310D03*
X04173940D03*
X04043300Y00816950D03*
G54D32*
X03685520Y00498000D03*
X03735610Y00498050D03*
X02881890Y01797260D03*
X02736220Y01879940D03*
X02822831Y01864190D03*
X02665350Y01824820D03*
X02637790Y01870100D03*
X02783460Y01962620D03*
Y02009860D03*
X02830710Y01950810D03*
Y01998050D03*
X02724410Y01617230D03*
X02783460Y01618130D03*
X03011810Y01568920D03*
Y01616160D03*
X03059050Y01568920D03*
Y01616160D03*
X03011810Y01663410D03*
X03059050D03*
Y01710650D03*
X03269681Y01655520D03*
Y01708670D03*
Y01761820D03*
X02759840Y02104350D03*
X02740160Y02025610D03*
X02704720Y02139780D03*
X02891731Y02208680D03*
X03155510Y02291360D03*
X03187010Y02259860D03*
X03218500Y02228370D03*
X02901570Y02147660D03*
X02938970Y02202780D03*
X03366140Y01990180D03*
X03377950Y02080730D03*
X03472440D03*
X03377950Y01927190D03*
X03472440D03*
X03492120Y02005930D03*
X04868100Y00498050D03*
Y00746080D03*
X04848420Y00992140D03*
X04017710Y01324820D03*
X04309050Y01852380D03*
X04017710Y01515750D03*
X03952750Y01240180D03*
X04614170Y01053170D03*
X04661410Y01826790D03*
X04311020Y01061030D03*
X04265740D03*
X04456690Y00868130D03*
X04242120Y00751990D03*
X04456690Y00927180D03*
X04324800Y00486240D03*
X04242120Y00582700D03*
X04157481Y00537420D03*
Y00626000D03*
X04106290Y00677180D03*
X04155510Y00692930D03*
X04305110Y00318920D03*
X04242120Y00405530D03*
X04157481Y00330730D03*
X04242120Y00311040D03*
X04633850Y00354350D03*
X04021650Y00364190D03*
X02744090Y01389770D03*
X02809050Y01415380D03*
X03415350Y01055140D03*
X03177160Y01127970D03*
X03305110Y01055140D03*
X02744090Y01342520D03*
X02838581Y01234270D03*
X02641731Y01135850D03*
X02838581Y01167340D03*
X03039370Y01230340D03*
X02938970Y01242150D03*
X03255900Y01257890D03*
X03354690Y01274730D03*
X03401570Y01362230D03*
X03293300Y01356320D03*
X03399600Y01250020D03*
X03328740Y01234270D03*
X03570860Y01299230D03*
X03899600Y00816950D03*
X03950781Y00891750D03*
X03903540Y00704740D03*
X03913381Y00921280D03*
X03935031Y00458680D03*
X03942910Y00582700D03*
X03950781Y00368130D03*
X03673220Y00338600D03*
X03749990Y00452770D03*
X03799210Y00338600D03*
X03797240Y00405530D03*
X03779520Y00626000D03*
X03777550Y00521670D03*
X03875981D03*
X03832670Y00639780D03*
X03283460Y00940950D03*
X02826770Y00860260D03*
X03228340Y00940950D03*
X03505900Y00742130D03*
X03399600Y00665370D03*
Y00620100D03*
X03553140Y00663400D03*
X03533460Y00334660D03*
X03265740Y00324820D03*
X03267710Y00578760D03*
Y00533480D03*
X03553140Y00574820D03*
X03448810Y00415370D03*
X03549210Y00496080D03*
X03399600Y00574820D03*
X03507870D03*
X03265740Y00376000D03*
Y00452770D03*
X03415350Y00318920D03*
G54D33*
X04457070Y00797270D03*
X04557070Y00747270D03*
X04457070Y00597270D03*
X04557070Y00647270D03*
X04457070Y00697270D03*
X04557070Y00547270D03*
X04557020Y00447200D03*
X04457070Y00497270D03*
X04829920Y02163400D03*
X04629920D03*
X02775520Y00750000D03*
X02875590Y00750020D03*
X02975590D03*
X02976390Y00903560D03*
X03075590Y00750020D03*
X03076390Y00903560D03*
X03109840Y01129550D03*
X03009840Y01179550D03*
X03109840Y01229550D03*
X02676320Y00903500D03*
X02776390Y00903560D03*
X02876390D03*
X03109840Y01818520D03*
Y02018520D03*
Y02118520D03*
Y01918520D03*
X03009840Y01868520D03*
Y02068520D03*
Y01968520D03*
X03009820Y02168500D03*
X03109840Y01329550D03*
X03009840Y01379550D03*
Y01279550D03*
X03009820Y01479500D03*
X03109840Y01429550D03*
X03003931Y01773640D03*
X02870081Y01482300D03*
G54D10*
X04457070Y03671290D03*
X04557070Y03621290D03*
X04457070Y03471290D03*
X04557070Y03521290D03*
X04457070Y03571290D03*
X04557070Y03421290D03*
G54D11*
Y03321290D03*
G54D10*
X04457070Y03371290D03*
G54D12*
X04807070Y03271290D03*
Y03721290D03*
G54D13*
X04812990Y03021660D03*
G54D14*
X03685610Y03372070D03*
G54D15*
X03735610D03*
G54D16*
X04718470Y04336220D03*
Y04631500D03*
X04185040Y05269690D03*
X03889760D03*
G54D11*
X04829920Y05037420D03*
G54D10*
X04629920D03*
G54D13*
X04812990Y05364181D03*
G54D11*
X02775590Y03624040D03*
G54D10*
X02875590D03*
G54D13*
X02746060Y03021660D03*
G54D10*
X02975590Y03624040D03*
X02976390Y03777581D03*
X03075590Y03624040D03*
X03076390Y03777581D03*
X03109840Y04003570D03*
X03009840Y04053570D03*
X03109840Y04103570D03*
G54D12*
X02759840Y03953570D03*
G54D11*
X02676390Y03777581D03*
G54D10*
X02776390D03*
X02876390D03*
X03109840Y04692540D03*
Y04892540D03*
Y04992540D03*
Y04792540D03*
X03009840Y04742540D03*
Y04942540D03*
Y04842540D03*
G54D11*
Y05042540D03*
G54D12*
X02759840Y05092540D03*
Y04642540D03*
G54D10*
X03109840Y04203570D03*
X03009840Y04253570D03*
Y04153570D03*
G54D11*
Y04353570D03*
G54D10*
X03109840Y04303570D03*
G54D12*
X02759840Y04403570D03*
G54D13*
X02746060Y05364181D03*
G54D17*
X02999990Y03211120D03*
Y03366160D03*
G54D18*
X03171250Y03277581D03*
Y03335920D03*
Y03386560D03*
Y03444900D03*
G54D19*
X03326760Y03647670D03*
Y03622081D03*
Y03596490D03*
Y03570900D03*
Y03545310D03*
Y03519720D03*
Y03494131D03*
Y03468540D03*
G54D20*
X02774331Y03519700D03*
X02832670D03*
G54D19*
X03326760Y03442950D03*
Y03417360D03*
Y03391770D03*
Y03366181D03*
Y03340590D03*
Y03315000D03*
Y03289410D03*
Y03263820D03*
Y03238231D03*
Y03212640D03*
Y03187050D03*
G54D21*
X03977281Y05100400D03*
X04094481D03*
G54D22*
X04137790Y04793331D03*
G54D23*
X04350110Y04659470D03*
Y04609470D03*
Y04559470D03*
Y04509470D03*
G54D20*
X04331420Y04439000D03*
X04389760D03*
G54D18*
X04248030Y04607581D03*
Y04549240D03*
Y04725690D03*
Y04667350D03*
G54D24*
X04397631Y04876010D03*
G54D25*
X04511810Y04803170D03*
X04582670D03*
G54D24*
X04397631Y04760010D03*
G54D20*
X04580700Y04726400D03*
X04522360D03*
G54D18*
X04397650Y05031500D03*
Y04973160D03*
G54D23*
X04555110Y04509470D03*
Y04559470D03*
Y04609470D03*
Y04659470D03*
G54D25*
X04529520Y04438990D03*
X04458660D03*
G54D22*
X03781790Y04360260D03*
Y04260260D03*
Y04476790D03*
G54D26*
X03388160Y04752670D03*
X03466160D03*
X03427160Y04834670D03*
X03466160Y05003281D03*
X03388160D03*
X03427160Y04921281D03*
G54D22*
X04137790Y04360260D03*
Y04693331D03*
Y04476790D03*
Y04576790D03*
X03781790Y04793331D03*
Y04693331D03*
Y04576790D03*
G54D18*
X04248030Y04410731D03*
Y04352390D03*
G54D22*
X03781790Y04143720D03*
X04137790Y04260260D03*
G54D18*
X04248030Y04292610D03*
Y04234270D03*
G54D22*
X03781790Y04043720D03*
G54D18*
X03765740Y03964581D03*
Y03906240D03*
X03879920Y03964581D03*
X04041330Y03906240D03*
X03879920D03*
X03962590Y03964590D03*
Y03906250D03*
G54D22*
X04137790Y04143720D03*
G54D18*
X04041330Y03964581D03*
G54D22*
X04137790Y04043720D03*
G54D20*
X04142440Y03954740D03*
X04200781D03*
G54D25*
X04267720Y04080720D03*
X04338581D03*
G54D26*
X03393690Y04285460D03*
X03354690Y04203460D03*
X03315690Y04285460D03*
G54D27*
X03263781Y03866200D03*
X03208660D03*
Y03728400D03*
X03263781D03*
G54D28*
X04582670Y04045300D03*
G54D29*
X04872040Y04135850D03*
X04722430D03*
X04872040Y04018650D03*
X04722430D03*
G54D25*
X04417320Y04143720D03*
X04488181D03*
G54D23*
X04555110Y04218131D03*
Y04268131D03*
Y04318131D03*
Y04368131D03*
X04350110D03*
Y04318131D03*
Y04268131D03*
Y04218131D03*
G54D20*
X04350390Y04147650D03*
X04292050D03*
G54D28*
X04466670Y04045300D03*
G54D29*
X04017710Y03294240D03*
G54D20*
X04059050Y03192940D03*
X04000710D03*
G54D18*
X03722440Y03267740D03*
Y03209400D03*
G54D19*
X03622040Y03187050D03*
Y03212640D03*
Y03238231D03*
Y03263820D03*
Y03289410D03*
Y03315000D03*
Y03340590D03*
Y03366181D03*
Y03391770D03*
Y03417360D03*
Y03442950D03*
Y03468540D03*
Y03494131D03*
Y03519720D03*
Y03545310D03*
Y03570900D03*
Y03596490D03*
Y03622081D03*
Y03647670D03*
G54D30*
X03704720Y03570890D03*
Y03500031D03*
G54D29*
X04017710Y03505931D03*
Y03411440D03*
G54D31*
X04124690Y03279920D03*
Y03456350D03*
G54D29*
X04017710Y03623131D03*
G54D31*
X04124690Y03625640D03*
G54D20*
X04230310Y03767740D03*
X04171970D03*
G54D31*
X04206690Y03586640D03*
Y03664640D03*
X04279520D03*
Y03586640D03*
X04361520Y03625640D03*
G54D20*
X03984960Y03690970D03*
G54D31*
X04361520Y03279920D03*
Y03456350D03*
X04206690Y03417350D03*
Y03495350D03*
X04279520D03*
Y03417350D03*
Y03240920D03*
X04206690D03*
X04279520Y03318920D03*
X04206690D03*
G54D20*
X04232281Y03856330D03*
X04173940D03*
X04043300Y03690970D03*
G54D32*
X03685520Y03372020D03*
X03735610Y03372070D03*
X02881890Y04671281D03*
X02736220Y04753960D03*
X02822831Y04738210D03*
X02665350Y04698840D03*
X02637790Y04744120D03*
X02783460Y04836640D03*
Y04883881D03*
X02830710Y04824831D03*
Y04872070D03*
X02724410Y04491250D03*
X02783460Y04492150D03*
X03011810Y04442940D03*
Y04490181D03*
X03059050Y04442940D03*
Y04490181D03*
X03011810Y04537431D03*
X03059050D03*
Y04584670D03*
X03269681Y04529540D03*
Y04582690D03*
Y04635840D03*
X02759840Y04978370D03*
X02740160Y04899631D03*
X02704720Y05013800D03*
X02891731Y05082700D03*
X03155510Y05165381D03*
X03187010Y05133881D03*
X03218500Y05102390D03*
X02901570Y05021681D03*
X02938970Y05076800D03*
X03366140Y04864200D03*
X03377950Y04954750D03*
X03472440D03*
X03377950Y04801210D03*
X03472440D03*
X03492120Y04879950D03*
X04868100Y03372070D03*
Y03620100D03*
X04848420Y03866160D03*
X04017710Y04198840D03*
X04309050Y04726400D03*
X04017710Y04389770D03*
X03952750Y04114200D03*
X04614170Y03927190D03*
X04661410Y04700810D03*
X04311020Y03935050D03*
X04265740D03*
X04456690Y03742150D03*
X04242120Y03626010D03*
X04456690Y03801200D03*
X04324800Y03360260D03*
X04242120Y03456720D03*
X04157481Y03411440D03*
Y03500020D03*
X04106290Y03551200D03*
X04155510Y03566950D03*
X04305110Y03192940D03*
X04242120Y03279550D03*
X04157481Y03204750D03*
X04242120Y03185060D03*
X04633850Y03228370D03*
X04021650Y03238210D03*
X02744090Y04263790D03*
X02809050Y04289400D03*
X03415350Y03929160D03*
X03177160Y04001990D03*
X03305110Y03929160D03*
X02744090Y04216540D03*
X02838581Y04108290D03*
X02641731Y04009870D03*
X02838581Y04041360D03*
X03039370Y04104360D03*
X02938970Y04116170D03*
X03255900Y04131910D03*
X03354690Y04148750D03*
X03401570Y04236250D03*
X03293300Y04230340D03*
X03399600Y04124040D03*
X03328740Y04108290D03*
X03570860Y04173250D03*
X03899600Y03690970D03*
X03950781Y03765770D03*
X03903540Y03578760D03*
X03913381Y03795300D03*
X03935031Y03332700D03*
X03942910Y03456720D03*
X03950781Y03242150D03*
X03673220Y03212620D03*
X03749990Y03326790D03*
X03799210Y03212620D03*
X03797240Y03279550D03*
X03779520Y03500020D03*
X03777550Y03395690D03*
X03875981D03*
X03832670Y03513800D03*
X03283460Y03814970D03*
X02826770Y03734281D03*
X03228340Y03814970D03*
X03505900Y03616150D03*
X03399600Y03539390D03*
Y03494120D03*
X03553140Y03537420D03*
X03533460Y03208681D03*
X03265740Y03198840D03*
X03267710Y03452781D03*
Y03407500D03*
X03553140Y03448840D03*
X03448810Y03289390D03*
X03549210Y03370100D03*
X03399600Y03448840D03*
X03507870D03*
X03265740Y03250020D03*
Y03326790D03*
X03415350Y03192940D03*
G54D33*
X04457070Y03671290D03*
X04557070Y03621290D03*
X04457070Y03471290D03*
X04557070Y03521290D03*
X04457070Y03571290D03*
X04557070Y03421290D03*
X04557020Y03321220D03*
X04457070Y03371290D03*
X04829920Y05037420D03*
X04629920D03*
X02775520Y03624020D03*
X02875590Y03624040D03*
X02975590D03*
X02976390Y03777581D03*
X03075590Y03624040D03*
X03076390Y03777581D03*
X03109840Y04003570D03*
X03009840Y04053570D03*
X03109840Y04103570D03*
X02676320Y03777520D03*
X02776390Y03777581D03*
X02876390D03*
X03109840Y04692540D03*
Y04892540D03*
Y04992540D03*
Y04792540D03*
X03009840Y04742540D03*
Y04942540D03*
Y04842540D03*
X03009820Y05042520D03*
X03109840Y04203570D03*
X03009840Y04253570D03*
Y04153570D03*
X03009820Y04353520D03*
X03109840Y04303570D03*
X03003931Y04647660D03*
X02870081Y04356320D03*
G54D10*
X07055491Y00797270D03*
X07155491Y00747270D03*
X07055491Y00597270D03*
X07155491Y00647270D03*
X07055491Y00697270D03*
X07155491Y00547270D03*
G54D11*
Y00447270D03*
G54D10*
X07055491Y00497270D03*
G54D12*
X07405491Y00397270D03*
Y00847270D03*
G54D13*
X07411411Y00147640D03*
G54D14*
X06284031Y00498050D03*
G54D15*
X06334031D03*
G54D16*
X07316891Y01462200D03*
Y01757480D03*
X06783461Y02395670D03*
X06488181D03*
G54D11*
X07428341Y02163400D03*
G54D10*
X07228341D03*
G54D13*
X07411411Y02490160D03*
G54D11*
X05374011Y00750020D03*
G54D10*
X05474011D03*
G54D13*
X05344481Y00147640D03*
G54D10*
X05574011Y00750020D03*
X05574811Y00903560D03*
X05674011Y00750020D03*
X05674811Y00903560D03*
X05708261Y01129550D03*
X05608261Y01179550D03*
X05708261Y01229550D03*
G54D12*
X05358261Y01079550D03*
G54D11*
X05274811Y00903560D03*
G54D10*
X05374811D03*
X05474811D03*
X05708261Y01818520D03*
Y02018520D03*
Y02118520D03*
Y01918520D03*
X05608261Y01868520D03*
Y02068520D03*
Y01968520D03*
G54D11*
Y02168520D03*
G54D12*
X05358261Y02218520D03*
Y01768520D03*
G54D10*
X05708261Y01329550D03*
X05608261Y01379550D03*
Y01279550D03*
G54D11*
Y01479550D03*
G54D10*
X05708261Y01429550D03*
G54D12*
X05358261Y01529550D03*
G54D13*
X05344481Y02490160D03*
G54D17*
X05598411Y00337100D03*
Y00492140D03*
G54D18*
X05769671Y00403560D03*
Y00461900D03*
Y00512540D03*
Y00570880D03*
G54D19*
X05925181Y00773650D03*
Y00748060D03*
Y00722470D03*
Y00696880D03*
Y00671290D03*
Y00645700D03*
Y00620110D03*
Y00594520D03*
G54D20*
X05372751Y00645680D03*
X05431091D03*
G54D19*
X05925181Y00568930D03*
Y00543340D03*
Y00517750D03*
Y00492160D03*
Y00466570D03*
Y00440980D03*
Y00415390D03*
Y00389800D03*
Y00364210D03*
Y00338620D03*
Y00313030D03*
G54D21*
X06575701Y02226380D03*
X06692901D03*
G54D22*
X06736211Y01919310D03*
G54D23*
X06948531Y01785450D03*
Y01735450D03*
Y01685450D03*
Y01635450D03*
G54D20*
X06929841Y01564980D03*
X06988181D03*
G54D18*
X06846451Y01733560D03*
Y01675220D03*
Y01851670D03*
Y01793330D03*
G54D24*
X06996051Y02001990D03*
G54D25*
X07110231Y01929150D03*
X07181091D03*
G54D24*
X06996051Y01885990D03*
G54D20*
X07179121Y01852380D03*
X07120781D03*
G54D18*
X06996071Y02157480D03*
Y02099140D03*
G54D23*
X07153531Y01635450D03*
Y01685450D03*
Y01735450D03*
Y01785450D03*
G54D25*
X07127941Y01564970D03*
X07057081D03*
G54D22*
X06380211Y01486240D03*
Y01386240D03*
Y01602770D03*
G54D26*
X05986581Y01878650D03*
X06064581D03*
X06025581Y01960650D03*
X06064581Y02129260D03*
X05986581D03*
X06025581Y02047260D03*
G54D22*
X06736211Y01486240D03*
Y01819310D03*
Y01602770D03*
Y01702770D03*
X06380211Y01919310D03*
Y01819310D03*
Y01702770D03*
G54D18*
X06846451Y01536710D03*
Y01478370D03*
G54D22*
X06380211Y01269700D03*
X06736211Y01386240D03*
G54D18*
X06846451Y01418590D03*
Y01360250D03*
G54D22*
X06380211Y01169700D03*
G54D18*
X06364161Y01090560D03*
Y01032220D03*
X06478341Y01090560D03*
X06639751Y01032220D03*
X06478341D03*
X06561011Y01090570D03*
Y01032230D03*
G54D22*
X06736211Y01269700D03*
G54D18*
X06639751Y01090560D03*
G54D22*
X06736211Y01169700D03*
G54D20*
X06740861Y01080720D03*
X06799201D03*
G54D25*
X06866141Y01206700D03*
X06937001D03*
G54D26*
X05992111Y01411440D03*
X05953111Y01329440D03*
X05914111Y01411440D03*
G54D27*
X05862201Y00992180D03*
X05807081D03*
Y00854380D03*
X05862201D03*
G54D28*
X07181091Y01171280D03*
G54D29*
X07470461Y01261830D03*
X07320851D03*
X07470461Y01144630D03*
X07320851D03*
G54D25*
X07015741Y01269700D03*
X07086601D03*
G54D23*
X07153531Y01344110D03*
Y01394110D03*
Y01444110D03*
Y01494110D03*
X06948531D03*
Y01444110D03*
Y01394110D03*
Y01344110D03*
G54D20*
X06948811Y01273630D03*
X06890471D03*
G54D28*
X07065091Y01171280D03*
G54D29*
X06616131Y00420220D03*
G54D20*
X06657471Y00318920D03*
X06599131D03*
G54D18*
X06320861Y00393720D03*
Y00335380D03*
G54D19*
X06220461Y00313030D03*
Y00338620D03*
Y00364210D03*
Y00389800D03*
Y00415390D03*
Y00440980D03*
Y00466570D03*
Y00492160D03*
Y00517750D03*
Y00543340D03*
Y00568930D03*
Y00594520D03*
Y00620110D03*
Y00645700D03*
Y00671290D03*
Y00696880D03*
Y00722470D03*
Y00748060D03*
Y00773650D03*
G54D30*
X06303141Y00696870D03*
Y00626010D03*
G54D29*
X06616131Y00631910D03*
Y00537420D03*
G54D31*
X06723111Y00405900D03*
Y00582330D03*
G54D29*
X06616131Y00749110D03*
G54D31*
X06723111Y00751620D03*
G54D20*
X06828731Y00893720D03*
X06770391D03*
G54D31*
X06805111Y00712620D03*
Y00790620D03*
X06877941D03*
Y00712620D03*
X06959941Y00751620D03*
G54D20*
X06583381Y00816950D03*
G54D31*
X06959941Y00405900D03*
Y00582330D03*
X06805111Y00543330D03*
Y00621330D03*
X06877941D03*
Y00543330D03*
Y00366900D03*
X06805111D03*
X06877941Y00444900D03*
X06805111D03*
G54D20*
X06830701Y00982310D03*
X06772361D03*
X06641721Y00816950D03*
G54D32*
X06283941Y00498000D03*
X06334031Y00498050D03*
X05480311Y01797260D03*
X05334641Y01879940D03*
X05421251Y01864190D03*
X05263771Y01824820D03*
X05236211Y01870100D03*
X05381881Y01962620D03*
Y02009860D03*
X05429131Y01950810D03*
Y01998050D03*
X05322831Y01617230D03*
X05381881Y01618130D03*
X05610231Y01568920D03*
Y01616160D03*
X05657471Y01568920D03*
Y01616160D03*
X05610231Y01663410D03*
X05657471D03*
Y01710650D03*
X05868101Y01655520D03*
Y01708670D03*
Y01761820D03*
X05358261Y02104350D03*
X05338581Y02025610D03*
X05303141Y02139780D03*
X05490151Y02208680D03*
X05753931Y02291360D03*
X05785431Y02259860D03*
X05816921Y02228370D03*
X05499991Y02147660D03*
X05537391Y02202780D03*
X05964561Y01990180D03*
X05976371Y02080730D03*
X06070861D03*
X05976371Y01927190D03*
X06070861D03*
X06090541Y02005930D03*
X07466521Y00498050D03*
Y00746080D03*
X07446841Y00992140D03*
X06616131Y01324820D03*
X06907471Y01852380D03*
X06616131Y01515750D03*
X06551171Y01240180D03*
X07212591Y01053170D03*
X07259831Y01826790D03*
X06909441Y01061030D03*
X06864161D03*
X07055111Y00868130D03*
X06840541Y00751990D03*
X07055111Y00927180D03*
X06923221Y00486240D03*
X06840541Y00582700D03*
X06755901Y00537420D03*
Y00626000D03*
X06704711Y00677180D03*
X06753931Y00692930D03*
X06903531Y00318920D03*
X06840541Y00405530D03*
X06755901Y00330730D03*
X06840541Y00311040D03*
X07232271Y00354350D03*
X06620071Y00364190D03*
X05342511Y01389770D03*
X05407471Y01415380D03*
X06013771Y01055140D03*
X05775581Y01127970D03*
X05903531Y01055140D03*
X05342511Y01342520D03*
X05437001Y01234270D03*
X05240151Y01135850D03*
X05437001Y01167340D03*
X05637791Y01230340D03*
X05537391Y01242150D03*
X05854321Y01257890D03*
X05953111Y01274730D03*
X05999991Y01362230D03*
X05891721Y01356320D03*
X05998021Y01250020D03*
X05927161Y01234270D03*
X06169281Y01299230D03*
X06498021Y00816950D03*
X06549201Y00891750D03*
X06501961Y00704740D03*
X06511801Y00921280D03*
X06533451Y00458680D03*
X06541331Y00582700D03*
X06549201Y00368130D03*
X06271641Y00338600D03*
X06348411Y00452770D03*
X06397631Y00338600D03*
X06395661Y00405530D03*
X06377941Y00626000D03*
X06375971Y00521670D03*
X06474401D03*
X06431091Y00639780D03*
X05881881Y00940950D03*
X05425191Y00860260D03*
X05826761Y00940950D03*
X06104321Y00742130D03*
X05998021Y00665370D03*
Y00620100D03*
X06151561Y00663400D03*
X06131881Y00334660D03*
X05864161Y00324820D03*
X05866131Y00578760D03*
Y00533480D03*
X06151561Y00574820D03*
X06047231Y00415370D03*
X06147631Y00496080D03*
X05998021Y00574820D03*
X06106291D03*
X05864161Y00376000D03*
Y00452770D03*
X06013771Y00318920D03*
G54D33*
X07055491Y00797270D03*
X07155491Y00747270D03*
X07055491Y00597270D03*
X07155491Y00647270D03*
X07055491Y00697270D03*
X07155491Y00547270D03*
X07155441Y00447200D03*
X07055491Y00497270D03*
X07428341Y02163400D03*
X07228341D03*
X05373941Y00750000D03*
X05474011Y00750020D03*
X05574011D03*
X05574811Y00903560D03*
X05674011Y00750020D03*
X05674811Y00903560D03*
X05708261Y01129550D03*
X05608261Y01179550D03*
X05708261Y01229550D03*
X05274741Y00903500D03*
X05374811Y00903560D03*
X05474811D03*
X05708261Y01818520D03*
Y02018520D03*
Y02118520D03*
Y01918520D03*
X05608261Y01868520D03*
Y02068520D03*
Y01968520D03*
X05608241Y02168500D03*
X05708261Y01329550D03*
X05608261Y01379550D03*
Y01279550D03*
X05608241Y01479500D03*
X05708261Y01429550D03*
X05602351Y01773640D03*
X05468501Y01482300D03*
G54D10*
X07055491Y03671290D03*
X07155491Y03621290D03*
X07055491Y03471290D03*
X07155491Y03521290D03*
X07055491Y03571290D03*
X07155491Y03421290D03*
G54D11*
Y03321290D03*
G54D10*
X07055491Y03371290D03*
G54D12*
X07405491Y03271290D03*
Y03721290D03*
G54D13*
X07411411Y03021660D03*
G54D14*
X06284031Y03372070D03*
G54D15*
X06334031D03*
G54D16*
X07316891Y04336220D03*
Y04631500D03*
X06783461Y05269690D03*
X06488181D03*
G54D11*
X07428341Y05037420D03*
G54D10*
X07228341D03*
G54D13*
X07411411Y05364181D03*
G54D11*
X05374011Y03624040D03*
G54D10*
X05474011D03*
G54D13*
X05344481Y03021660D03*
G54D10*
X05574011Y03624040D03*
X05574811Y03777581D03*
X05674011Y03624040D03*
X05674811Y03777581D03*
X05708261Y04003570D03*
X05608261Y04053570D03*
X05708261Y04103570D03*
G54D12*
X05358261Y03953570D03*
G54D11*
X05274811Y03777581D03*
G54D10*
X05374811D03*
X05474811D03*
X05708261Y04692540D03*
Y04892540D03*
Y04992540D03*
Y04792540D03*
X05608261Y04742540D03*
Y04942540D03*
Y04842540D03*
G54D11*
Y05042540D03*
G54D12*
X05358261Y05092540D03*
Y04642540D03*
G54D10*
X05708261Y04203570D03*
X05608261Y04253570D03*
Y04153570D03*
G54D11*
Y04353570D03*
G54D10*
X05708261Y04303570D03*
G54D12*
X05358261Y04403570D03*
G54D13*
X05344481Y05364181D03*
G54D17*
X05598411Y03211120D03*
Y03366160D03*
G54D18*
X05769671Y03277581D03*
Y03335920D03*
Y03386560D03*
Y03444900D03*
G54D19*
X05925181Y03647670D03*
Y03622081D03*
Y03596490D03*
Y03570900D03*
Y03545310D03*
Y03519720D03*
Y03494131D03*
Y03468540D03*
G54D20*
X05372751Y03519700D03*
X05431091D03*
G54D19*
X05925181Y03442950D03*
Y03417360D03*
Y03391770D03*
Y03366181D03*
Y03340590D03*
Y03315000D03*
Y03289410D03*
Y03263820D03*
Y03238231D03*
Y03212640D03*
Y03187050D03*
G54D21*
X06575701Y05100400D03*
X06692901D03*
G54D22*
X06736211Y04793331D03*
G54D23*
X06948531Y04659470D03*
Y04609470D03*
Y04559470D03*
Y04509470D03*
G54D20*
X06929841Y04439000D03*
X06988181D03*
G54D18*
X06846451Y04607581D03*
Y04549240D03*
Y04725690D03*
Y04667350D03*
G54D24*
X06996051Y04876010D03*
G54D25*
X07110231Y04803170D03*
X07181091D03*
G54D24*
X06996051Y04760010D03*
G54D20*
X07179121Y04726400D03*
X07120781D03*
G54D18*
X06996071Y05031500D03*
Y04973160D03*
G54D23*
X07153531Y04509470D03*
Y04559470D03*
Y04609470D03*
Y04659470D03*
G54D25*
X07127941Y04438990D03*
X07057081D03*
G54D22*
X06380211Y04360260D03*
Y04260260D03*
Y04476790D03*
G54D26*
X05986581Y04752670D03*
X06064581D03*
X06025581Y04834670D03*
X06064581Y05003281D03*
X05986581D03*
X06025581Y04921281D03*
G54D22*
X06736211Y04360260D03*
Y04693331D03*
Y04476790D03*
Y04576790D03*
X06380211Y04793331D03*
Y04693331D03*
Y04576790D03*
G54D18*
X06846451Y04410731D03*
Y04352390D03*
G54D22*
X06380211Y04143720D03*
X06736211Y04260260D03*
G54D18*
X06846451Y04292610D03*
Y04234270D03*
G54D22*
X06380211Y04043720D03*
G54D18*
X06364161Y03964581D03*
Y03906240D03*
X06478341Y03964581D03*
X06639751Y03906240D03*
X06478341D03*
X06561011Y03964590D03*
Y03906250D03*
G54D22*
X06736211Y04143720D03*
G54D18*
X06639751Y03964581D03*
G54D22*
X06736211Y04043720D03*
G54D20*
X06740861Y03954740D03*
X06799201D03*
G54D25*
X06866141Y04080720D03*
X06937001D03*
G54D26*
X05992111Y04285460D03*
X05953111Y04203460D03*
X05914111Y04285460D03*
G54D27*
X05862201Y03866200D03*
X05807081D03*
Y03728400D03*
X05862201D03*
G54D28*
X07181091Y04045300D03*
G54D29*
X07470461Y04135850D03*
X07320851D03*
X07470461Y04018650D03*
X07320851D03*
G54D25*
X07015741Y04143720D03*
X07086601D03*
G54D23*
X07153531Y04218131D03*
Y04268131D03*
Y04318131D03*
Y04368131D03*
X06948531D03*
Y04318131D03*
Y04268131D03*
Y04218131D03*
G54D20*
X06948811Y04147650D03*
X06890471D03*
G54D28*
X07065091Y04045300D03*
G54D29*
X06616131Y03294240D03*
G54D20*
X06657471Y03192940D03*
X06599131D03*
G54D18*
X06320861Y03267740D03*
Y03209400D03*
G54D19*
X06220461Y03187050D03*
Y03212640D03*
Y03238231D03*
Y03263820D03*
Y03289410D03*
Y03315000D03*
Y03340590D03*
Y03366181D03*
Y03391770D03*
Y03417360D03*
Y03442950D03*
Y03468540D03*
Y03494131D03*
Y03519720D03*
Y03545310D03*
Y03570900D03*
Y03596490D03*
Y03622081D03*
Y03647670D03*
G54D30*
X06303141Y03570890D03*
Y03500031D03*
G54D29*
X06616131Y03505931D03*
Y03411440D03*
G54D31*
X06723111Y03279920D03*
Y03456350D03*
G54D29*
X06616131Y03623131D03*
G54D31*
X06723111Y03625640D03*
G54D20*
X06828731Y03767740D03*
X06770391D03*
G54D31*
X06805111Y03586640D03*
Y03664640D03*
X06877941D03*
Y03586640D03*
X06959941Y03625640D03*
G54D20*
X06583381Y03690970D03*
G54D31*
X06959941Y03279920D03*
Y03456350D03*
X06805111Y03417350D03*
Y03495350D03*
X06877941D03*
Y03417350D03*
Y03240920D03*
X06805111D03*
X06877941Y03318920D03*
X06805111D03*
G54D20*
X06830701Y03856330D03*
X06772361D03*
X06641721Y03690970D03*
G54D32*
X06283941Y03372020D03*
X06334031Y03372070D03*
X05480311Y04671281D03*
X05334641Y04753960D03*
X05421251Y04738210D03*
X05263771Y04698840D03*
X05236211Y04744120D03*
X05381881Y04836640D03*
Y04883881D03*
X05429131Y04824831D03*
Y04872070D03*
X05322831Y04491250D03*
X05381881Y04492150D03*
X05610231Y04442940D03*
Y04490181D03*
X05657471Y04442940D03*
Y04490181D03*
X05610231Y04537431D03*
X05657471D03*
Y04584670D03*
X05868101Y04529540D03*
Y04582690D03*
Y04635840D03*
X05358261Y04978370D03*
X05338581Y04899631D03*
X05303141Y05013800D03*
X05490151Y05082700D03*
X05753931Y05165381D03*
X05785431Y05133881D03*
X05816921Y05102390D03*
X05499991Y05021681D03*
X05537391Y05076800D03*
X05964561Y04864200D03*
X05976371Y04954750D03*
X06070861D03*
X05976371Y04801210D03*
X06070861D03*
X06090541Y04879950D03*
X07466521Y03372070D03*
Y03620100D03*
X07446841Y03866160D03*
X06616131Y04198840D03*
X06907471Y04726400D03*
X06616131Y04389770D03*
X06551171Y04114200D03*
X07212591Y03927190D03*
X07259831Y04700810D03*
X06909441Y03935050D03*
X06864161D03*
X07055111Y03742150D03*
X06840541Y03626010D03*
X07055111Y03801200D03*
X06923221Y03360260D03*
X06840541Y03456720D03*
X06755901Y03411440D03*
Y03500020D03*
X06704711Y03551200D03*
X06753931Y03566950D03*
X06903531Y03192940D03*
X06840541Y03279550D03*
X06755901Y03204750D03*
X06840541Y03185060D03*
X07232271Y03228370D03*
X06620071Y03238210D03*
X05342511Y04263790D03*
X05407471Y04289400D03*
X06013771Y03929160D03*
X05775581Y04001990D03*
X05903531Y03929160D03*
X05342511Y04216540D03*
X05437001Y04108290D03*
X05240151Y04009870D03*
X05437001Y04041360D03*
X05637791Y04104360D03*
X05537391Y04116170D03*
X05854321Y04131910D03*
X05953111Y04148750D03*
X05999991Y04236250D03*
X05891721Y04230340D03*
X05998021Y04124040D03*
X05927161Y04108290D03*
X06169281Y04173250D03*
X06498021Y03690970D03*
X06549201Y03765770D03*
X06501961Y03578760D03*
X06511801Y03795300D03*
X06533451Y03332700D03*
X06541331Y03456720D03*
X06549201Y03242150D03*
X06271641Y03212620D03*
X06348411Y03326790D03*
X06397631Y03212620D03*
X06395661Y03279550D03*
X06377941Y03500020D03*
X06375971Y03395690D03*
X06474401D03*
X06431091Y03513800D03*
X05881881Y03814970D03*
X05425191Y03734281D03*
X05826761Y03814970D03*
X06104321Y03616150D03*
X05998021Y03539390D03*
Y03494120D03*
X06151561Y03537420D03*
X06131881Y03208681D03*
X05864161Y03198840D03*
X05866131Y03452781D03*
Y03407500D03*
X06151561Y03448840D03*
X06047231Y03289390D03*
X06147631Y03370100D03*
X05998021Y03448840D03*
X06106291D03*
X05864161Y03250020D03*
Y03326790D03*
X06013771Y03192940D03*
G54D33*
X07055491Y03671290D03*
X07155491Y03621290D03*
X07055491Y03471290D03*
X07155491Y03521290D03*
X07055491Y03571290D03*
X07155491Y03421290D03*
X07155441Y03321220D03*
X07055491Y03371290D03*
X07428341Y05037420D03*
X07228341D03*
X05373941Y03624020D03*
X05474011Y03624040D03*
X05574011D03*
X05574811Y03777581D03*
X05674011Y03624040D03*
X05674811Y03777581D03*
X05708261Y04003570D03*
X05608261Y04053570D03*
X05708261Y04103570D03*
X05274741Y03777520D03*
X05374811Y03777581D03*
X05474811D03*
X05708261Y04692540D03*
Y04892540D03*
Y04992540D03*
Y04792540D03*
X05608261Y04742540D03*
Y04942540D03*
Y04842540D03*
X05608241Y05042520D03*
X05708261Y04203570D03*
X05608261Y04253570D03*
Y04153570D03*
X05608241Y04353520D03*
X05708261Y04303570D03*
X05602351Y04647660D03*
X05468501Y04356320D03*
G54D10*
X09653911Y00797270D03*
X09753911Y00747270D03*
X09653911Y00597270D03*
X09753911Y00647270D03*
X09653911Y00697270D03*
X09753911Y00547270D03*
G54D11*
Y00447270D03*
G54D10*
X09653911Y00497270D03*
G54D12*
X10003911Y00397270D03*
Y00847270D03*
G54D13*
X10009831Y00147640D03*
G54D14*
X08882451Y00498050D03*
G54D15*
X08932451D03*
G54D16*
X09915311Y01462200D03*
Y01757480D03*
X09381881Y02395670D03*
X09086601D03*
G54D11*
X10026761Y02163400D03*
G54D10*
X09826761D03*
G54D13*
X10009831Y02490160D03*
G54D11*
X07972431Y00750020D03*
G54D10*
X08072431D03*
G54D13*
X07942901Y00147640D03*
G54D10*
X08172431Y00750020D03*
X08173231Y00903560D03*
X08272431Y00750020D03*
X08273231Y00903560D03*
X08306681Y01129550D03*
X08206681Y01179550D03*
X08306681Y01229550D03*
G54D12*
X07956681Y01079550D03*
G54D11*
X07873231Y00903560D03*
G54D10*
X07973231D03*
X08073231D03*
X08306681Y01818520D03*
Y02018520D03*
Y02118520D03*
Y01918520D03*
X08206681Y01868520D03*
Y02068520D03*
Y01968520D03*
G54D11*
Y02168520D03*
G54D12*
X07956681Y02218520D03*
Y01768520D03*
G54D10*
X08306681Y01329550D03*
X08206681Y01379550D03*
Y01279550D03*
G54D11*
Y01479550D03*
G54D10*
X08306681Y01429550D03*
G54D12*
X07956681Y01529550D03*
G54D13*
X07942901Y02490160D03*
G54D17*
X08196831Y00337100D03*
Y00492140D03*
G54D18*
X08368091Y00403560D03*
Y00461900D03*
Y00512540D03*
Y00570880D03*
G54D19*
X08523601Y00773650D03*
Y00748060D03*
Y00722470D03*
Y00696880D03*
Y00671290D03*
Y00645700D03*
Y00620110D03*
Y00594520D03*
G54D20*
X07971171Y00645680D03*
X08029511D03*
G54D19*
X08523601Y00568930D03*
Y00543340D03*
Y00517750D03*
Y00492160D03*
Y00466570D03*
Y00440980D03*
Y00415390D03*
Y00389800D03*
Y00364210D03*
Y00338620D03*
Y00313030D03*
G54D21*
X09174121Y02226380D03*
X09291321D03*
G54D22*
X09334631Y01919310D03*
G54D23*
X09546951Y01785450D03*
Y01735450D03*
Y01685450D03*
Y01635450D03*
G54D20*
X09528261Y01564980D03*
X09586601D03*
G54D18*
X09444871Y01733560D03*
Y01675220D03*
Y01851670D03*
Y01793330D03*
G54D24*
X09594471Y02001990D03*
G54D25*
X09708651Y01929150D03*
X09779511D03*
G54D24*
X09594471Y01885990D03*
G54D20*
X09777541Y01852380D03*
X09719201D03*
G54D18*
X09594491Y02157480D03*
Y02099140D03*
G54D23*
X09751951Y01635450D03*
Y01685450D03*
Y01735450D03*
Y01785450D03*
G54D25*
X09726361Y01564970D03*
X09655501D03*
G54D22*
X08978631Y01486240D03*
Y01386240D03*
Y01602770D03*
G54D26*
X08585001Y01878650D03*
X08663001D03*
X08624001Y01960650D03*
X08663001Y02129260D03*
X08585001D03*
X08624001Y02047260D03*
G54D22*
X09334631Y01486240D03*
Y01819310D03*
Y01602770D03*
Y01702770D03*
X08978631Y01919310D03*
Y01819310D03*
Y01702770D03*
G54D18*
X09444871Y01536710D03*
Y01478370D03*
G54D22*
X08978631Y01269700D03*
X09334631Y01386240D03*
G54D18*
X09444871Y01418590D03*
Y01360250D03*
G54D22*
X08978631Y01169700D03*
G54D18*
X08962581Y01090560D03*
Y01032220D03*
X09076761Y01090560D03*
X09238171Y01032220D03*
X09076761D03*
X09159431Y01090570D03*
Y01032230D03*
G54D22*
X09334631Y01269700D03*
G54D18*
X09238171Y01090560D03*
G54D22*
X09334631Y01169700D03*
G54D20*
X09339281Y01080720D03*
X09397621D03*
G54D25*
X09464561Y01206700D03*
X09535421D03*
G54D26*
X08590531Y01411440D03*
X08551531Y01329440D03*
X08512531Y01411440D03*
G54D27*
X08460621Y00992180D03*
X08405501D03*
Y00854380D03*
X08460621D03*
G54D28*
X09779511Y01171280D03*
G54D29*
X10068881Y01261830D03*
X09919271D03*
X10068881Y01144630D03*
X09919271D03*
G54D25*
X09614161Y01269700D03*
X09685021D03*
G54D23*
X09751951Y01344110D03*
Y01394110D03*
Y01444110D03*
Y01494110D03*
X09546951D03*
Y01444110D03*
Y01394110D03*
Y01344110D03*
G54D20*
X09547231Y01273630D03*
X09488891D03*
G54D28*
X09663511Y01171280D03*
G54D29*
X09214551Y00420220D03*
G54D20*
X09255891Y00318920D03*
X09197551D03*
G54D18*
X08919281Y00393720D03*
Y00335380D03*
G54D19*
X08818881Y00313030D03*
Y00338620D03*
Y00364210D03*
Y00389800D03*
Y00415390D03*
Y00440980D03*
Y00466570D03*
Y00492160D03*
Y00517750D03*
Y00543340D03*
Y00568930D03*
Y00594520D03*
Y00620110D03*
Y00645700D03*
Y00671290D03*
Y00696880D03*
Y00722470D03*
Y00748060D03*
Y00773650D03*
G54D30*
X08901561Y00696870D03*
Y00626010D03*
G54D29*
X09214551Y00631910D03*
Y00537420D03*
G54D31*
X09321531Y00405900D03*
Y00582330D03*
G54D29*
X09214551Y00749110D03*
G54D31*
X09321531Y00751620D03*
G54D20*
X09427151Y00893720D03*
X09368811D03*
G54D31*
X09403531Y00712620D03*
Y00790620D03*
X09476361D03*
Y00712620D03*
X09558361Y00751620D03*
G54D20*
X09181801Y00816950D03*
G54D31*
X09558361Y00405900D03*
Y00582330D03*
X09403531Y00543330D03*
Y00621330D03*
X09476361D03*
Y00543330D03*
Y00366900D03*
X09403531D03*
X09476361Y00444900D03*
X09403531D03*
G54D20*
X09429121Y00982310D03*
X09370781D03*
X09240141Y00816950D03*
G54D32*
X08882361Y00498000D03*
X08932451Y00498050D03*
X08078731Y01797260D03*
X07933061Y01879940D03*
X08019671Y01864190D03*
X07862191Y01824820D03*
X07834631Y01870100D03*
X07980301Y01962620D03*
Y02009860D03*
X08027551Y01950810D03*
Y01998050D03*
X07921251Y01617230D03*
X07980301Y01618130D03*
X08208651Y01568920D03*
Y01616160D03*
X08255891Y01568920D03*
Y01616160D03*
X08208651Y01663410D03*
X08255891D03*
Y01710650D03*
X08466521Y01655520D03*
Y01708670D03*
Y01761820D03*
X07956681Y02104350D03*
X07937001Y02025610D03*
X07901561Y02139780D03*
X08088571Y02208680D03*
X08352351Y02291360D03*
X08383851Y02259860D03*
X08415341Y02228370D03*
X08098411Y02147660D03*
X08135811Y02202780D03*
X08562981Y01990180D03*
X08574791Y02080730D03*
X08669281D03*
X08574791Y01927190D03*
X08669281D03*
X08688961Y02005930D03*
X10064941Y00498050D03*
Y00746080D03*
X10045261Y00992140D03*
X09214551Y01324820D03*
X09505891Y01852380D03*
X09214551Y01515750D03*
X09149591Y01240180D03*
X09811011Y01053170D03*
X09858251Y01826790D03*
X09507861Y01061030D03*
X09462581D03*
X09653531Y00868130D03*
X09438961Y00751990D03*
X09653531Y00927180D03*
X09521641Y00486240D03*
X09438961Y00582700D03*
X09354321Y00537420D03*
Y00626000D03*
X09303131Y00677180D03*
X09352351Y00692930D03*
X09501951Y00318920D03*
X09438961Y00405530D03*
X09354321Y00330730D03*
X09438961Y00311040D03*
X09830691Y00354350D03*
X09218491Y00364190D03*
X07940931Y01389770D03*
X08005891Y01415380D03*
X08612191Y01055140D03*
X08374001Y01127970D03*
X08501951Y01055140D03*
X07940931Y01342520D03*
X08035421Y01234270D03*
X07838571Y01135850D03*
X08035421Y01167340D03*
X08236211Y01230340D03*
X08135811Y01242150D03*
X08452741Y01257890D03*
X08551531Y01274730D03*
X08598411Y01362230D03*
X08490141Y01356320D03*
X08596441Y01250020D03*
X08525581Y01234270D03*
X08767701Y01299230D03*
X09096441Y00816950D03*
X09147621Y00891750D03*
X09100381Y00704740D03*
X09110221Y00921280D03*
X09131871Y00458680D03*
X09139751Y00582700D03*
X09147621Y00368130D03*
X08870061Y00338600D03*
X08946831Y00452770D03*
X08996051Y00338600D03*
X08994081Y00405530D03*
X08976361Y00626000D03*
X08974391Y00521670D03*
X09072821D03*
X09029511Y00639780D03*
X08480301Y00940950D03*
X08023611Y00860260D03*
X08425181Y00940950D03*
X08702741Y00742130D03*
X08596441Y00665370D03*
Y00620100D03*
X08749981Y00663400D03*
X08730301Y00334660D03*
X08462581Y00324820D03*
X08464551Y00578760D03*
Y00533480D03*
X08749981Y00574820D03*
X08645651Y00415370D03*
X08746051Y00496080D03*
X08596441Y00574820D03*
X08704711D03*
X08462581Y00376000D03*
Y00452770D03*
X08612191Y00318920D03*
G54D33*
X09653911Y00797270D03*
X09753911Y00747270D03*
X09653911Y00597270D03*
X09753911Y00647270D03*
X09653911Y00697270D03*
X09753911Y00547270D03*
X09753861Y00447200D03*
X09653911Y00497270D03*
X10026761Y02163400D03*
X09826761D03*
X07972361Y00750000D03*
X08072431Y00750020D03*
X08172431D03*
X08173231Y00903560D03*
X08272431Y00750020D03*
X08273231Y00903560D03*
X08306681Y01129550D03*
X08206681Y01179550D03*
X08306681Y01229550D03*
X07873161Y00903500D03*
X07973231Y00903560D03*
X08073231D03*
X08306681Y01818520D03*
Y02018520D03*
Y02118520D03*
Y01918520D03*
X08206681Y01868520D03*
Y02068520D03*
Y01968520D03*
X08206661Y02168500D03*
X08306681Y01329550D03*
X08206681Y01379550D03*
Y01279550D03*
X08206661Y01479500D03*
X08306681Y01429550D03*
X08200771Y01773640D03*
X08066921Y01482300D03*
G54D10*
X09653911Y03671290D03*
X09753911Y03621290D03*
X09653911Y03471290D03*
X09753911Y03521290D03*
X09653911Y03571290D03*
X09753911Y03421290D03*
G54D11*
Y03321290D03*
G54D10*
X09653911Y03371290D03*
G54D12*
X10003911Y03271290D03*
Y03721290D03*
G54D13*
X10009831Y03021660D03*
G54D14*
X08882451Y03372070D03*
G54D15*
X08932451D03*
G54D16*
X09915311Y04336220D03*
Y04631500D03*
X09381881Y05269690D03*
X09086601D03*
G54D11*
X10026761Y05037420D03*
G54D10*
X09826761D03*
G54D13*
X10009831Y05364181D03*
G54D11*
X07972431Y03624040D03*
G54D10*
X08072431D03*
G54D13*
X07942901Y03021660D03*
G54D10*
X08172431Y03624040D03*
X08173231Y03777581D03*
X08272431Y03624040D03*
X08273231Y03777581D03*
X08306681Y04003570D03*
X08206681Y04053570D03*
X08306681Y04103570D03*
G54D12*
X07956681Y03953570D03*
G54D11*
X07873231Y03777581D03*
G54D10*
X07973231D03*
X08073231D03*
X08306681Y04692540D03*
Y04892540D03*
Y04992540D03*
Y04792540D03*
X08206681Y04742540D03*
Y04942540D03*
Y04842540D03*
G54D11*
Y05042540D03*
G54D12*
X07956681Y05092540D03*
Y04642540D03*
G54D10*
X08306681Y04203570D03*
X08206681Y04253570D03*
Y04153570D03*
G54D11*
Y04353570D03*
G54D10*
X08306681Y04303570D03*
G54D12*
X07956681Y04403570D03*
G54D13*
X07942901Y05364181D03*
G54D17*
X08196831Y03211120D03*
Y03366160D03*
G54D18*
X08368091Y03277581D03*
Y03335920D03*
Y03386560D03*
Y03444900D03*
G54D19*
X08523601Y03647670D03*
Y03622081D03*
Y03596490D03*
Y03570900D03*
Y03545310D03*
Y03519720D03*
Y03494131D03*
Y03468540D03*
G54D20*
X07971171Y03519700D03*
X08029511D03*
G54D19*
X08523601Y03442950D03*
Y03417360D03*
Y03391770D03*
Y03366181D03*
Y03340590D03*
Y03315000D03*
Y03289410D03*
Y03263820D03*
Y03238231D03*
Y03212640D03*
Y03187050D03*
G54D21*
X09174121Y05100400D03*
X09291321D03*
G54D22*
X09334631Y04793331D03*
G54D23*
X09546951Y04659470D03*
Y04609470D03*
Y04559470D03*
Y04509470D03*
G54D20*
X09528261Y04439000D03*
X09586601D03*
G54D18*
X09444871Y04607581D03*
Y04549240D03*
Y04725690D03*
Y04667350D03*
G54D24*
X09594471Y04876010D03*
G54D25*
X09708651Y04803170D03*
X09779511D03*
G54D24*
X09594471Y04760010D03*
G54D20*
X09777541Y04726400D03*
X09719201D03*
G54D18*
X09594491Y05031500D03*
Y04973160D03*
G54D23*
X09751951Y04509470D03*
Y04559470D03*
Y04609470D03*
Y04659470D03*
G54D25*
X09726361Y04438990D03*
X09655501D03*
G54D22*
X08978631Y04360260D03*
Y04260260D03*
Y04476790D03*
G54D26*
X08585001Y04752670D03*
X08663001D03*
X08624001Y04834670D03*
X08663001Y05003281D03*
X08585001D03*
X08624001Y04921281D03*
G54D22*
X09334631Y04360260D03*
Y04693331D03*
Y04476790D03*
Y04576790D03*
X08978631Y04793331D03*
Y04693331D03*
Y04576790D03*
G54D18*
X09444871Y04410731D03*
Y04352390D03*
G54D22*
X08978631Y04143720D03*
X09334631Y04260260D03*
G54D18*
X09444871Y04292610D03*
Y04234270D03*
G54D22*
X08978631Y04043720D03*
G54D18*
X08962581Y03964581D03*
Y03906240D03*
X09076761Y03964581D03*
X09238171Y03906240D03*
X09076761D03*
X09159431Y03964590D03*
Y03906250D03*
G54D22*
X09334631Y04143720D03*
G54D18*
X09238171Y03964581D03*
G54D22*
X09334631Y04043720D03*
G54D20*
X09339281Y03954740D03*
X09397621D03*
G54D25*
X09464561Y04080720D03*
X09535421D03*
G54D26*
X08590531Y04285460D03*
X08551531Y04203460D03*
X08512531Y04285460D03*
G54D27*
X08460621Y03866200D03*
X08405501D03*
Y03728400D03*
X08460621D03*
G54D28*
X09779511Y04045300D03*
G54D29*
X10068881Y04135850D03*
X09919271D03*
X10068881Y04018650D03*
X09919271D03*
G54D25*
X09614161Y04143720D03*
X09685021D03*
G54D23*
X09751951Y04218131D03*
Y04268131D03*
Y04318131D03*
Y04368131D03*
X09546951D03*
Y04318131D03*
Y04268131D03*
Y04218131D03*
G54D20*
X09547231Y04147650D03*
X09488891D03*
G54D28*
X09663511Y04045300D03*
G54D29*
X09214551Y03294240D03*
G54D20*
X09255891Y03192940D03*
X09197551D03*
G54D18*
X08919281Y03267740D03*
Y03209400D03*
G54D19*
X08818881Y03187050D03*
Y03212640D03*
Y03238231D03*
Y03263820D03*
Y03289410D03*
Y03315000D03*
Y03340590D03*
Y03366181D03*
Y03391770D03*
Y03417360D03*
Y03442950D03*
Y03468540D03*
Y03494131D03*
Y03519720D03*
Y03545310D03*
Y03570900D03*
Y03596490D03*
Y03622081D03*
Y03647670D03*
G54D30*
X08901561Y03570890D03*
Y03500031D03*
G54D29*
X09214551Y03505931D03*
Y03411440D03*
G54D31*
X09321531Y03279920D03*
Y03456350D03*
G54D29*
X09214551Y03623131D03*
G54D31*
X09321531Y03625640D03*
G54D20*
X09427151Y03767740D03*
X09368811D03*
G54D31*
X09403531Y03586640D03*
Y03664640D03*
X09476361D03*
Y03586640D03*
X09558361Y03625640D03*
G54D20*
X09181801Y03690970D03*
G54D31*
X09558361Y03279920D03*
Y03456350D03*
X09403531Y03417350D03*
Y03495350D03*
X09476361D03*
Y03417350D03*
Y03240920D03*
X09403531D03*
X09476361Y03318920D03*
X09403531D03*
G54D20*
X09429121Y03856330D03*
X09370781D03*
X09240141Y03690970D03*
G54D32*
X08882361Y03372020D03*
X08932451Y03372070D03*
X08078731Y04671281D03*
X07933061Y04753960D03*
X08019671Y04738210D03*
X07862191Y04698840D03*
X07834631Y04744120D03*
X07980301Y04836640D03*
Y04883881D03*
X08027551Y04824831D03*
Y04872070D03*
X07921251Y04491250D03*
X07980301Y04492150D03*
X08208651Y04442940D03*
Y04490181D03*
X08255891Y04442940D03*
Y04490181D03*
X08208651Y04537431D03*
X08255891D03*
Y04584670D03*
X08466521Y04529540D03*
Y04582690D03*
Y04635840D03*
X07956681Y04978370D03*
X07937001Y04899631D03*
X07901561Y05013800D03*
X08088571Y05082700D03*
X08352351Y05165381D03*
X08383851Y05133881D03*
X08415341Y05102390D03*
X08098411Y05021681D03*
X08135811Y05076800D03*
X08562981Y04864200D03*
X08574791Y04954750D03*
X08669281D03*
X08574791Y04801210D03*
X08669281D03*
X08688961Y04879950D03*
X10064941Y03372070D03*
Y03620100D03*
X10045261Y03866160D03*
X09214551Y04198840D03*
X09505891Y04726400D03*
X09214551Y04389770D03*
X09149591Y04114200D03*
X09811011Y03927190D03*
X09858251Y04700810D03*
X09507861Y03935050D03*
X09462581D03*
X09653531Y03742150D03*
X09438961Y03626010D03*
X09653531Y03801200D03*
X09521641Y03360260D03*
X09438961Y03456720D03*
X09354321Y03411440D03*
Y03500020D03*
X09303131Y03551200D03*
X09352351Y03566950D03*
X09501951Y03192940D03*
X09438961Y03279550D03*
X09354321Y03204750D03*
X09438961Y03185060D03*
X09830691Y03228370D03*
X09218491Y03238210D03*
X07940931Y04263790D03*
X08005891Y04289400D03*
X08612191Y03929160D03*
X08374001Y04001990D03*
X08501951Y03929160D03*
X07940931Y04216540D03*
X08035421Y04108290D03*
X07838571Y04009870D03*
X08035421Y04041360D03*
X08236211Y04104360D03*
X08135811Y04116170D03*
X08452741Y04131910D03*
X08551531Y04148750D03*
X08598411Y04236250D03*
X08490141Y04230340D03*
X08596441Y04124040D03*
X08525581Y04108290D03*
X08767701Y04173250D03*
X09096441Y03690970D03*
X09147621Y03765770D03*
X09100381Y03578760D03*
X09110221Y03795300D03*
X09131871Y03332700D03*
X09139751Y03456720D03*
X09147621Y03242150D03*
X08870061Y03212620D03*
X08946831Y03326790D03*
X08996051Y03212620D03*
X08994081Y03279550D03*
X08976361Y03500020D03*
X08974391Y03395690D03*
X09072821D03*
X09029511Y03513800D03*
X08480301Y03814970D03*
X08023611Y03734281D03*
X08425181Y03814970D03*
X08702741Y03616150D03*
X08596441Y03539390D03*
Y03494120D03*
X08749981Y03537420D03*
X08730301Y03208681D03*
X08462581Y03198840D03*
X08464551Y03452781D03*
Y03407500D03*
X08749981Y03448840D03*
X08645651Y03289390D03*
X08746051Y03370100D03*
X08596441Y03448840D03*
X08704711D03*
X08462581Y03250020D03*
Y03326790D03*
X08612191Y03192940D03*
G54D33*
X09653911Y03671290D03*
X09753911Y03621290D03*
X09653911Y03471290D03*
X09753911Y03521290D03*
X09653911Y03571290D03*
X09753911Y03421290D03*
X09753861Y03321220D03*
X09653911Y03371290D03*
X10026761Y05037420D03*
X09826761D03*
X07972361Y03624020D03*
X08072431Y03624040D03*
X08172431D03*
X08173231Y03777581D03*
X08272431Y03624040D03*
X08273231Y03777581D03*
X08306681Y04003570D03*
X08206681Y04053570D03*
X08306681Y04103570D03*
X07873161Y03777520D03*
X07973231Y03777581D03*
X08073231D03*
X08306681Y04692540D03*
Y04892540D03*
Y04992540D03*
Y04792540D03*
X08206681Y04742540D03*
Y04942540D03*
Y04842540D03*
X08206661Y05042520D03*
X08306681Y04203570D03*
X08206681Y04253570D03*
Y04153570D03*
X08206661Y04353520D03*
X08306681Y04303570D03*
X08200771Y04647660D03*
X08066921Y04356320D03*
G54D34*
X00000000Y05748041D03*
X10393682Y05118120D03*
X09370060Y-00236220D03*
X-00236220Y01181102D03*
G54D35*
Y05748041D03*
X10393682D03*
Y-00236220D03*
X-00236220D03*
M02*
