*
%FSLAX26Y26*%
%MOIN*%
%ADD10C,0.010000*%
%IPPOS*%
%LNpro.gbx*%
%LPD*%
G75*
G54D10*
X02362200Y02145670D02*
Y00000000D01*
X01299220D01*
X01220470Y00078740D01*
X01141730D01*
X01062990Y00000000D01*
X00000000D01*
Y00413380D01*
X00078740Y00492130D01*
Y00570870D01*
X00000000Y00649610D01*
Y02637800D01*
X00708660D02*
X02362200D01*
Y02381880D01*
X02283460Y02303150D01*
X00000000Y02637800D02*
X00472440D01*
X00551180Y02559060D01*
X00629920D01*
X00708660Y02637800D01*
X02283460Y02303150D02*
Y02224410D01*
X02362200Y02145670D01*
Y05019690D02*
Y02874020D01*
X01299220D01*
X01220470Y02952760D01*
X01141730D01*
X01062990Y02874020D01*
X00000000D01*
Y03287400D01*
X00078740Y03366150D01*
Y03444890D01*
X00000000Y03523631D01*
Y05511820D01*
X00708660D02*
X02362200D01*
Y05255900D01*
X02283460Y05177170D01*
X00000000Y05511820D02*
X00472440D01*
X00551180Y05433081D01*
X00629920D01*
X00708660Y05511820D01*
X02283460Y05177170D02*
Y05098431D01*
X02362200Y05019690D01*
X04960620Y02145670D02*
Y00000000D01*
X03897640D01*
X03818890Y00078740D01*
X03740150D01*
X03661410Y00000000D01*
X02598420D01*
Y00413380D01*
X02677160Y00492130D01*
Y00570870D01*
X02598420Y00649610D01*
Y02637800D01*
X03307081D02*
X04960620D01*
Y02381880D01*
X04881881Y02303150D01*
X02598420Y02637800D02*
X03070860D01*
X03149600Y02559060D01*
X03228340D01*
X03307081Y02637800D01*
X04881881Y02303150D02*
Y02224410D01*
X04960620Y02145670D01*
Y05019690D02*
Y02874020D01*
X03897640D01*
X03818890Y02952760D01*
X03740150D01*
X03661410Y02874020D01*
X02598420D01*
Y03287400D01*
X02677160Y03366150D01*
Y03444890D01*
X02598420Y03523631D01*
Y05511820D01*
X03307081D02*
X04960620D01*
Y05255900D01*
X04881881Y05177170D01*
X02598420Y05511820D02*
X03070860D01*
X03149600Y05433081D01*
X03228340D01*
X03307081Y05511820D01*
X04881881Y05177170D02*
Y05098431D01*
X04960620Y05019690D01*
X07559041Y02145670D02*
Y00000000D01*
X06496061D01*
X06417311Y00078740D01*
X06338571D01*
X06259831Y00000000D01*
X05196841D01*
Y00413380D01*
X05275581Y00492130D01*
Y00570870D01*
X05196841Y00649610D01*
Y02637800D01*
X05905501D02*
X07559041D01*
Y02381880D01*
X07480301Y02303150D01*
X05196841Y02637800D02*
X05669281D01*
X05748021Y02559060D01*
X05826761D01*
X05905501Y02637800D01*
X07480301Y02303150D02*
Y02224410D01*
X07559041Y02145670D01*
Y05019690D02*
Y02874020D01*
X06496061D01*
X06417311Y02952760D01*
X06338571D01*
X06259831Y02874020D01*
X05196841D01*
Y03287400D01*
X05275581Y03366150D01*
Y03444890D01*
X05196841Y03523631D01*
Y05511820D01*
X05905501D02*
X07559041D01*
Y05255900D01*
X07480301Y05177170D01*
X05196841Y05511820D02*
X05669281D01*
X05748021Y05433081D01*
X05826761D01*
X05905501Y05511820D01*
X07480301Y05177170D02*
Y05098431D01*
X07559041Y05019690D01*
X10157461Y02145670D02*
Y00000000D01*
X09094481D01*
X09015731Y00078740D01*
X08936991D01*
X08858251Y00000000D01*
X07795261D01*
Y00413380D01*
X07874001Y00492130D01*
Y00570870D01*
X07795261Y00649610D01*
Y02637800D01*
X08503921D02*
X10157461D01*
Y02381880D01*
X10078721Y02303150D01*
X07795261Y02637800D02*
X08267701D01*
X08346441Y02559060D01*
X08425181D01*
X08503921Y02637800D01*
X10078721Y02303150D02*
Y02224410D01*
X10157461Y02145670D01*
Y05019690D02*
Y02874020D01*
X09094481D01*
X09015731Y02952760D01*
X08936991D01*
X08858251Y02874020D01*
X07795261D01*
Y03287400D01*
X07874001Y03366150D01*
Y03444890D01*
X07795261Y03523631D01*
Y05511820D01*
X08503921D02*
X10157461D01*
Y05255900D01*
X10078721Y05177170D01*
X07795261Y05511820D02*
X08267701D01*
X08346441Y05433081D01*
X08425181D01*
X08503921Y05511820D01*
X10078721Y05177170D02*
Y05098431D01*
X10157461Y05019690D01*
X10551162Y-00393701D02*
X-00393701D01*
Y05905521D02*
X10551162D01*
X-00393701Y-00393701D02*
Y05905521D01*
X10551162D02*
Y-00393701D01*
M02*
