*
%FSLAX26Y26*%
%MOIN*%
%ADD10R,0.037992X0.028307*%
%ADD11R,0.028307X0.037992*%
%ADD12R,0.040000X0.034016*%
%ADD13R,0.059055X0.051181*%
%ADD14R,0.122008X0.055984*%
%ADD15R,0.122008X0.212008*%
%ADD16R,0.052992X0.085000*%
%ADD17R,0.034016X0.040000*%
%ADD18R,0.059055X0.012992*%
%ADD19R,0.040000X0.024016*%
%ADD20R,0.051181X0.074803*%
%ADD21R,0.085000X0.020000*%
%ADD22R,0.141772X0.070906*%
%ADD23R,0.104331X0.068898*%
%ADD24R,0.020000X0.085000*%
%ADD25R,0.074803X0.051181*%
%IPPOS*%
%LNsp.gbx*%
%LPD*%
G75*
G54D10*
X00687010Y00895670D03*
Y00837330D03*
X00742130Y00895670D03*
Y00837330D03*
X00653540Y01327490D03*
Y01385830D03*
G54D11*
X00588580Y01440950D03*
X00646920D03*
G54D12*
X00625980Y00891740D03*
Y00813740D03*
X00543980Y00852740D03*
G54D10*
X00596460Y01327490D03*
Y01385830D03*
G54D11*
X00585900Y01068900D03*
X00527560D03*
X00585900Y01009860D03*
X00527560D03*
X00105580Y01368120D03*
X00047240D03*
X00055110Y01301200D03*
X00113450D03*
X00053870Y01442920D03*
X00112210D03*
X00352360Y01844490D03*
X00294020D03*
G54D10*
X00059060Y02200790D03*
Y02142450D03*
X02253940Y01631180D03*
Y01572840D03*
G54D11*
X01389050Y01120080D03*
X01330710D03*
G54D10*
X02185040Y01631890D03*
Y01573550D03*
X01627950Y01059780D03*
Y01118120D03*
G54D11*
X01385830Y00771670D03*
X01327490D03*
X01510560Y01057110D03*
X01568900D03*
X01389050Y01181120D03*
X01330710D03*
X01251970D03*
X01193630D03*
X01251970Y01246090D03*
X01193630D03*
X01192910Y01401590D03*
X01134570D03*
X01276840Y01787420D03*
X01218500D03*
X01510560Y01120100D03*
X01568900D03*
G54D10*
X01576770Y00868130D03*
Y00926470D03*
G54D11*
X01435040Y00771670D03*
X01493380D03*
G54D10*
X01155510Y00980330D03*
Y00921990D03*
X01659450Y00844510D03*
Y00902850D03*
X01090550Y00820170D03*
Y00761830D03*
X01155510Y00817660D03*
Y00876000D03*
G54D11*
X01243380Y01494110D03*
X01185040D03*
X01389750Y01031510D03*
X01331410D03*
X01171260Y01787420D03*
X01112920D03*
X01273620Y00771670D03*
X01215280D03*
X01185040Y01559070D03*
X01126700D03*
X01385830Y01675220D03*
X01444170D03*
X01385820Y01624030D03*
X01444160D03*
G54D10*
X01279530Y01119380D03*
Y01061040D03*
G54D11*
X01148890Y00706710D03*
X01090550D03*
G54D10*
X01688980Y01818200D03*
Y01759860D03*
G54D11*
X01805120Y01037420D03*
X01746780D03*
X01921260D03*
X01979600D03*
X01171260Y01852380D03*
X01112920D03*
G54D10*
X01958660Y00292070D03*
Y00350410D03*
G54D11*
X02225660Y00746080D03*
X02167320D03*
X02225660Y00498050D03*
X02167320D03*
G54D10*
X01586610Y00435060D03*
Y00376720D03*
G54D13*
X00068900Y01622060D03*
Y01692920D03*
G54D14*
X00311120Y01557660D03*
Y01647660D03*
Y01738660D03*
G54D15*
X00555120Y01647660D03*
G54D16*
X00295280Y01025610D03*
X00411280D03*
X00177170Y01206710D03*
X00061170D03*
G54D17*
X00867740Y01878650D03*
X00789740D03*
X00828740Y01960650D03*
G54D18*
X00066930Y01913430D03*
Y01939020D03*
Y01964610D03*
Y01990200D03*
Y02015780D03*
Y02041370D03*
Y02066960D03*
Y02092550D03*
X00299210D03*
Y02066960D03*
Y02041370D03*
Y02015780D03*
Y01990200D03*
Y01964610D03*
Y01939020D03*
Y01913430D03*
G54D17*
X00656320Y01174780D03*
X00578320D03*
X00617320Y01256780D03*
X00789740Y02129260D03*
X00867740D03*
X00828740Y02047260D03*
G54D19*
X00295420Y01374950D03*
Y01335950D03*
Y01296950D03*
X00213420D03*
Y01335950D03*
Y01374950D03*
G54D17*
X00717270Y01411440D03*
X00795270D03*
X00756270Y01329440D03*
G54D20*
X00604330Y01931110D03*
X00722430D03*
X00604330Y01838600D03*
X00722430D03*
X00604330Y02143720D03*
X00722430D03*
X00604330Y02045300D03*
X00722430D03*
G54D13*
X01763780Y00563020D03*
Y00633880D03*
G54D20*
X02080690Y00937030D03*
X01962590D03*
X02080710Y00840570D03*
X01962610D03*
X02285420Y00665370D03*
X02167320D03*
X01881880Y00415380D03*
X01763780D03*
X01881880Y00322860D03*
X01763780D03*
G54D21*
X01988190Y01463010D03*
Y01413010D03*
Y01363010D03*
Y01313010D03*
X01783190D03*
Y01363010D03*
Y01413010D03*
Y01463010D03*
Y01104350D03*
Y01154350D03*
Y01204350D03*
Y01254350D03*
X01988190D03*
Y01204350D03*
Y01154350D03*
Y01104350D03*
X01551650Y02089180D03*
Y02039180D03*
Y01989180D03*
Y01939180D03*
X01346650D03*
Y01989180D03*
Y02039180D03*
Y02089180D03*
X01783190Y01549230D03*
Y01599230D03*
Y01649230D03*
Y01699230D03*
X01988190D03*
Y01649230D03*
Y01599230D03*
Y01549230D03*
Y01907890D03*
Y01857890D03*
Y01807890D03*
Y01757890D03*
X01783190D03*
Y01807890D03*
Y01857890D03*
Y01907890D03*
G54D22*
X01559050Y01543330D03*
Y01801210D03*
G54D23*
X01625985Y02242130D03*
X01456695D03*
G54D17*
X01312630Y01630610D03*
X01234630D03*
X01273630Y01712610D03*
G54D18*
X01242100Y00822830D03*
Y00848420D03*
Y00874010D03*
Y00899600D03*
Y00925190D03*
Y00950780D03*
Y00976370D03*
X01474380D03*
Y00950780D03*
Y00925190D03*
Y00899600D03*
Y00874010D03*
Y00848420D03*
Y00822830D03*
G54D12*
X01277560Y01343280D03*
Y01421280D03*
X01359560Y01382280D03*
G54D13*
X01415350Y01738200D03*
Y01809060D03*
G54D24*
X01468110Y01419310D03*
X01518110D03*
X01568110D03*
X01618110D03*
Y01214310D03*
X01568110D03*
X01518110D03*
X01468110D03*
G54D25*
X02064960Y00626000D03*
Y00744100D03*
G54D20*
X02167320Y00570880D03*
X02285420D03*
G54D18*
X01490150Y00475400D03*
Y00449810D03*
Y00424220D03*
Y00398630D03*
Y00373050D03*
Y00347460D03*
Y00321870D03*
Y00296280D03*
X01257870D03*
Y00321870D03*
Y00347460D03*
Y00373050D03*
Y00398630D03*
Y00424220D03*
Y00449810D03*
Y00475400D03*
G54D25*
X02064960Y00433100D03*
Y00551200D03*
G54D10*
X00687010Y03769690D03*
Y03711350D03*
X00742130Y03769690D03*
Y03711350D03*
X00653540Y04201510D03*
Y04259850D03*
G54D11*
X00588580Y04314970D03*
X00646920D03*
G54D12*
X00625980Y03765760D03*
Y03687760D03*
X00543980Y03726760D03*
G54D10*
X00596460Y04201510D03*
Y04259850D03*
G54D11*
X00585900Y03942920D03*
X00527560D03*
X00585900Y03883880D03*
X00527560D03*
X00105580Y04242140D03*
X00047240D03*
X00055110Y04175220D03*
X00113450D03*
X00053870Y04316940D03*
X00112210D03*
X00352360Y04718510D03*
X00294020D03*
G54D10*
X00059060Y05074810D03*
Y05016470D03*
X02253940Y04505200D03*
Y04446860D03*
G54D11*
X01389050Y03994100D03*
X01330710D03*
G54D10*
X02185040Y04505910D03*
Y04447570D03*
X01627950Y03933800D03*
Y03992140D03*
G54D11*
X01385830Y03645690D03*
X01327490D03*
X01510560Y03931130D03*
X01568900D03*
X01389050Y04055140D03*
X01330710D03*
X01251970D03*
X01193630D03*
X01251970Y04120110D03*
X01193630D03*
X01192910Y04275610D03*
X01134570D03*
X01276840Y04661440D03*
X01218500D03*
X01510560Y03994120D03*
X01568900D03*
G54D10*
X01576770Y03742150D03*
Y03800490D03*
G54D11*
X01435040Y03645690D03*
X01493380D03*
G54D10*
X01155510Y03854350D03*
Y03796010D03*
X01659450Y03718531D03*
Y03776870D03*
X01090550Y03694190D03*
Y03635850D03*
X01155510Y03691681D03*
Y03750020D03*
G54D11*
X01243380Y04368130D03*
X01185040D03*
X01389750Y03905530D03*
X01331410D03*
X01171260Y04661440D03*
X01112920D03*
X01273620Y03645690D03*
X01215280D03*
X01185040Y04433090D03*
X01126700D03*
X01385830Y04549240D03*
X01444170D03*
X01385820Y04498050D03*
X01444160D03*
G54D10*
X01279530Y03993400D03*
Y03935060D03*
G54D11*
X01148890Y03580730D03*
X01090550D03*
G54D10*
X01688980Y04692220D03*
Y04633881D03*
G54D11*
X01805120Y03911440D03*
X01746780D03*
X01921260D03*
X01979600D03*
X01171260Y04726400D03*
X01112920D03*
G54D10*
X01958660Y03166090D03*
Y03224431D03*
G54D11*
X02225660Y03620100D03*
X02167320D03*
X02225660Y03372070D03*
X02167320D03*
G54D10*
X01586610Y03309081D03*
Y03250740D03*
G54D13*
X00068900Y04496081D03*
Y04566940D03*
G54D14*
X00311120Y04431681D03*
Y04521681D03*
Y04612681D03*
G54D15*
X00555120Y04521681D03*
G54D16*
X00295280Y03899631D03*
X00411280D03*
X00177170Y04080731D03*
X00061170D03*
G54D17*
X00867740Y04752670D03*
X00789740D03*
X00828740Y04834670D03*
G54D18*
X00066930Y04787450D03*
Y04813040D03*
Y04838631D03*
Y04864220D03*
Y04889800D03*
Y04915390D03*
Y04940981D03*
Y04966570D03*
X00299210D03*
Y04940981D03*
Y04915390D03*
Y04889800D03*
Y04864220D03*
Y04838631D03*
Y04813040D03*
Y04787450D03*
G54D17*
X00656320Y04048800D03*
X00578320D03*
X00617320Y04130800D03*
X00789740Y05003281D03*
X00867740D03*
X00828740Y04921281D03*
G54D19*
X00295420Y04248970D03*
Y04209970D03*
Y04170970D03*
X00213420D03*
Y04209970D03*
Y04248970D03*
G54D17*
X00717270Y04285460D03*
X00795270D03*
X00756270Y04203460D03*
G54D20*
X00604330Y04805130D03*
X00722430D03*
X00604330Y04712620D03*
X00722430D03*
X00604330Y05017740D03*
X00722430D03*
X00604330Y04919320D03*
X00722430D03*
G54D13*
X01763780Y03437040D03*
Y03507900D03*
G54D20*
X02080690Y03811050D03*
X01962590D03*
X02080710Y03714590D03*
X01962610D03*
X02285420Y03539390D03*
X02167320D03*
X01881880Y03289400D03*
X01763780D03*
X01881880Y03196880D03*
X01763780D03*
G54D21*
X01988190Y04337031D03*
Y04287031D03*
Y04237031D03*
Y04187031D03*
X01783190D03*
Y04237031D03*
Y04287031D03*
Y04337031D03*
Y03978370D03*
Y04028370D03*
Y04078370D03*
Y04128370D03*
X01988190D03*
Y04078370D03*
Y04028370D03*
Y03978370D03*
X01551650Y04963200D03*
Y04913200D03*
Y04863200D03*
Y04813200D03*
X01346650D03*
Y04863200D03*
Y04913200D03*
Y04963200D03*
X01783190Y04423250D03*
Y04473250D03*
Y04523250D03*
Y04573250D03*
X01988190D03*
Y04523250D03*
Y04473250D03*
Y04423250D03*
Y04781910D03*
Y04731910D03*
Y04681910D03*
Y04631910D03*
X01783190D03*
Y04681910D03*
Y04731910D03*
Y04781910D03*
G54D22*
X01559050Y04417350D03*
Y04675231D03*
G54D23*
X01625985Y05116150D03*
X01456695D03*
G54D17*
X01312630Y04504631D03*
X01234630D03*
X01273630Y04586631D03*
G54D18*
X01242100Y03696850D03*
Y03722440D03*
Y03748031D03*
Y03773620D03*
Y03799210D03*
Y03824800D03*
Y03850390D03*
X01474380D03*
Y03824800D03*
Y03799210D03*
Y03773620D03*
Y03748031D03*
Y03722440D03*
Y03696850D03*
G54D12*
X01277560Y04217300D03*
Y04295300D03*
X01359560Y04256300D03*
G54D13*
X01415350Y04612220D03*
Y04683081D03*
G54D24*
X01468110Y04293331D03*
X01518110D03*
X01568110D03*
X01618110D03*
Y04088331D03*
X01568110D03*
X01518110D03*
X01468110D03*
G54D25*
X02064960Y03500020D03*
Y03618120D03*
G54D20*
X02167320Y03444900D03*
X02285420D03*
G54D18*
X01490150Y03349420D03*
Y03323831D03*
Y03298240D03*
Y03272650D03*
Y03247070D03*
Y03221481D03*
Y03195890D03*
Y03170300D03*
X01257870D03*
Y03195890D03*
Y03221481D03*
Y03247070D03*
Y03272650D03*
Y03298240D03*
Y03323831D03*
Y03349420D03*
G54D25*
X02064960Y03307120D03*
Y03425220D03*
G54D10*
X03285430Y00895670D03*
Y00837330D03*
X03340550Y00895670D03*
Y00837330D03*
X03251960Y01327490D03*
Y01385830D03*
G54D11*
X03187000Y01440950D03*
X03245340D03*
G54D12*
X03224400Y00891740D03*
Y00813740D03*
X03142400Y00852740D03*
G54D10*
X03194880Y01327490D03*
Y01385830D03*
G54D11*
X03184320Y01068900D03*
X03125981D03*
X03184320Y01009860D03*
X03125981D03*
X02704000Y01368120D03*
X02645660D03*
X02653531Y01301200D03*
X02711870D03*
X02652290Y01442920D03*
X02710631D03*
X02950781Y01844490D03*
X02892440D03*
G54D10*
X02657480Y02200790D03*
Y02142450D03*
X04852360Y01631180D03*
Y01572840D03*
G54D11*
X03987470Y01120080D03*
X03929131D03*
G54D10*
X04783460Y01631890D03*
Y01573550D03*
X04226370Y01059780D03*
Y01118120D03*
G54D11*
X03984250Y00771670D03*
X03925910D03*
X04108981Y01057110D03*
X04167320D03*
X03987470Y01181120D03*
X03929131D03*
X03850390D03*
X03792050D03*
X03850390Y01246090D03*
X03792050D03*
X03791331Y01401590D03*
X03732990D03*
X03875260Y01787420D03*
X03816920D03*
X04108981Y01120100D03*
X04167320D03*
G54D10*
X04175190Y00868130D03*
Y00926470D03*
G54D11*
X04033460Y00771670D03*
X04091800D03*
G54D10*
X03753930Y00980330D03*
Y00921990D03*
X04257870Y00844510D03*
Y00902850D03*
X03688970Y00820170D03*
Y00761830D03*
X03753930Y00817660D03*
Y00876000D03*
G54D11*
X03841800Y01494110D03*
X03783460D03*
X03988170Y01031510D03*
X03929831D03*
X03769681Y01787420D03*
X03711340D03*
X03872040Y00771670D03*
X03813700D03*
X03783460Y01559070D03*
X03725120D03*
X03984250Y01675220D03*
X04042590D03*
X03984240Y01624030D03*
X04042581D03*
G54D10*
X03877950Y01119380D03*
Y01061040D03*
G54D11*
X03747310Y00706710D03*
X03688970D03*
G54D10*
X04287400Y01818200D03*
Y01759860D03*
G54D11*
X04403540Y01037420D03*
X04345200D03*
X04519681D03*
X04578020D03*
X03769681Y01852380D03*
X03711340D03*
G54D10*
X04557080Y00292070D03*
Y00350410D03*
G54D11*
X04824081Y00746080D03*
X04765740D03*
X04824081Y00498050D03*
X04765740D03*
G54D10*
X04185030Y00435060D03*
Y00376720D03*
G54D13*
X02667320Y01622060D03*
Y01692920D03*
G54D14*
X02909540Y01557660D03*
Y01647660D03*
Y01738660D03*
G54D15*
X03153540Y01647660D03*
G54D16*
X02893700Y01025610D03*
X03009700D03*
X02775590Y01206710D03*
X02659590D03*
G54D17*
X03466160Y01878650D03*
X03388160D03*
X03427160Y01960650D03*
G54D18*
X02665350Y01913430D03*
Y01939020D03*
Y01964610D03*
Y01990200D03*
Y02015780D03*
Y02041370D03*
Y02066960D03*
Y02092550D03*
X02897631D03*
Y02066960D03*
Y02041370D03*
Y02015780D03*
Y01990200D03*
Y01964610D03*
Y01939020D03*
Y01913430D03*
G54D17*
X03254740Y01174780D03*
X03176740D03*
X03215740Y01256780D03*
X03388160Y02129260D03*
X03466160D03*
X03427160Y02047260D03*
G54D19*
X02893840Y01374950D03*
Y01335950D03*
Y01296950D03*
X02811840D03*
Y01335950D03*
Y01374950D03*
G54D17*
X03315690Y01411440D03*
X03393690D03*
X03354690Y01329440D03*
G54D20*
X03202750Y01931110D03*
X03320850D03*
X03202750Y01838600D03*
X03320850D03*
X03202750Y02143720D03*
X03320850D03*
X03202750Y02045300D03*
X03320850D03*
G54D13*
X04362200Y00563020D03*
Y00633880D03*
G54D20*
X04679110Y00937030D03*
X04561010D03*
X04679131Y00840570D03*
X04561031D03*
X04883840Y00665370D03*
X04765740D03*
X04480300Y00415380D03*
X04362200D03*
X04480300Y00322860D03*
X04362200D03*
G54D21*
X04586610Y01463010D03*
Y01413010D03*
Y01363010D03*
Y01313010D03*
X04381610D03*
Y01363010D03*
Y01413010D03*
Y01463010D03*
Y01104350D03*
Y01154350D03*
Y01204350D03*
Y01254350D03*
X04586610D03*
Y01204350D03*
Y01154350D03*
Y01104350D03*
X04150070Y02089180D03*
Y02039180D03*
Y01989180D03*
Y01939180D03*
X03945070D03*
Y01989180D03*
Y02039180D03*
Y02089180D03*
X04381610Y01549230D03*
Y01599230D03*
Y01649230D03*
Y01699230D03*
X04586610D03*
Y01649230D03*
Y01599230D03*
Y01549230D03*
Y01907890D03*
Y01857890D03*
Y01807890D03*
Y01757890D03*
X04381610D03*
Y01807890D03*
Y01857890D03*
Y01907890D03*
G54D22*
X04157470Y01543330D03*
Y01801210D03*
G54D23*
X04224405Y02242130D03*
X04055115D03*
G54D17*
X03911050Y01630610D03*
X03833050D03*
X03872050Y01712610D03*
G54D18*
X03840520Y00822830D03*
Y00848420D03*
Y00874010D03*
Y00899600D03*
Y00925190D03*
Y00950780D03*
Y00976370D03*
X04072800D03*
Y00950780D03*
Y00925190D03*
Y00899600D03*
Y00874010D03*
Y00848420D03*
Y00822830D03*
G54D12*
X03875981Y01343280D03*
Y01421280D03*
X03957981Y01382280D03*
G54D13*
X04013770Y01738200D03*
Y01809060D03*
G54D24*
X04066531Y01419310D03*
X04116531D03*
X04166531D03*
X04216531D03*
Y01214310D03*
X04166531D03*
X04116531D03*
X04066531D03*
G54D25*
X04663380Y00626000D03*
Y00744100D03*
G54D20*
X04765740Y00570880D03*
X04883840D03*
G54D18*
X04088570Y00475400D03*
Y00449810D03*
Y00424220D03*
Y00398630D03*
Y00373050D03*
Y00347460D03*
Y00321870D03*
Y00296280D03*
X03856290D03*
Y00321870D03*
Y00347460D03*
Y00373050D03*
Y00398630D03*
Y00424220D03*
Y00449810D03*
Y00475400D03*
G54D25*
X04663380Y00433100D03*
Y00551200D03*
G54D10*
X03285430Y03769690D03*
Y03711350D03*
X03340550Y03769690D03*
Y03711350D03*
X03251960Y04201510D03*
Y04259850D03*
G54D11*
X03187000Y04314970D03*
X03245340D03*
G54D12*
X03224400Y03765760D03*
Y03687760D03*
X03142400Y03726760D03*
G54D10*
X03194880Y04201510D03*
Y04259850D03*
G54D11*
X03184320Y03942920D03*
X03125981D03*
X03184320Y03883880D03*
X03125981D03*
X02704000Y04242140D03*
X02645660D03*
X02653531Y04175220D03*
X02711870D03*
X02652290Y04316940D03*
X02710631D03*
X02950781Y04718510D03*
X02892440D03*
G54D10*
X02657480Y05074810D03*
Y05016470D03*
X04852360Y04505200D03*
Y04446860D03*
G54D11*
X03987470Y03994100D03*
X03929131D03*
G54D10*
X04783460Y04505910D03*
Y04447570D03*
X04226370Y03933800D03*
Y03992140D03*
G54D11*
X03984250Y03645690D03*
X03925910D03*
X04108981Y03931130D03*
X04167320D03*
X03987470Y04055140D03*
X03929131D03*
X03850390D03*
X03792050D03*
X03850390Y04120110D03*
X03792050D03*
X03791331Y04275610D03*
X03732990D03*
X03875260Y04661440D03*
X03816920D03*
X04108981Y03994120D03*
X04167320D03*
G54D10*
X04175190Y03742150D03*
Y03800490D03*
G54D11*
X04033460Y03645690D03*
X04091800D03*
G54D10*
X03753930Y03854350D03*
Y03796010D03*
X04257870Y03718531D03*
Y03776870D03*
X03688970Y03694190D03*
Y03635850D03*
X03753930Y03691681D03*
Y03750020D03*
G54D11*
X03841800Y04368130D03*
X03783460D03*
X03988170Y03905530D03*
X03929831D03*
X03769681Y04661440D03*
X03711340D03*
X03872040Y03645690D03*
X03813700D03*
X03783460Y04433090D03*
X03725120D03*
X03984250Y04549240D03*
X04042590D03*
X03984240Y04498050D03*
X04042581D03*
G54D10*
X03877950Y03993400D03*
Y03935060D03*
G54D11*
X03747310Y03580730D03*
X03688970D03*
G54D10*
X04287400Y04692220D03*
Y04633881D03*
G54D11*
X04403540Y03911440D03*
X04345200D03*
X04519681D03*
X04578020D03*
X03769681Y04726400D03*
X03711340D03*
G54D10*
X04557080Y03166090D03*
Y03224431D03*
G54D11*
X04824081Y03620100D03*
X04765740D03*
X04824081Y03372070D03*
X04765740D03*
G54D10*
X04185030Y03309081D03*
Y03250740D03*
G54D13*
X02667320Y04496081D03*
Y04566940D03*
G54D14*
X02909540Y04431681D03*
Y04521681D03*
Y04612681D03*
G54D15*
X03153540Y04521681D03*
G54D16*
X02893700Y03899631D03*
X03009700D03*
X02775590Y04080731D03*
X02659590D03*
G54D17*
X03466160Y04752670D03*
X03388160D03*
X03427160Y04834670D03*
G54D18*
X02665350Y04787450D03*
Y04813040D03*
Y04838631D03*
Y04864220D03*
Y04889800D03*
Y04915390D03*
Y04940981D03*
Y04966570D03*
X02897631D03*
Y04940981D03*
Y04915390D03*
Y04889800D03*
Y04864220D03*
Y04838631D03*
Y04813040D03*
Y04787450D03*
G54D17*
X03254740Y04048800D03*
X03176740D03*
X03215740Y04130800D03*
X03388160Y05003281D03*
X03466160D03*
X03427160Y04921281D03*
G54D19*
X02893840Y04248970D03*
Y04209970D03*
Y04170970D03*
X02811840D03*
Y04209970D03*
Y04248970D03*
G54D17*
X03315690Y04285460D03*
X03393690D03*
X03354690Y04203460D03*
G54D20*
X03202750Y04805130D03*
X03320850D03*
X03202750Y04712620D03*
X03320850D03*
X03202750Y05017740D03*
X03320850D03*
X03202750Y04919320D03*
X03320850D03*
G54D13*
X04362200Y03437040D03*
Y03507900D03*
G54D20*
X04679110Y03811050D03*
X04561010D03*
X04679131Y03714590D03*
X04561031D03*
X04883840Y03539390D03*
X04765740D03*
X04480300Y03289400D03*
X04362200D03*
X04480300Y03196880D03*
X04362200D03*
G54D21*
X04586610Y04337031D03*
Y04287031D03*
Y04237031D03*
Y04187031D03*
X04381610D03*
Y04237031D03*
Y04287031D03*
Y04337031D03*
Y03978370D03*
Y04028370D03*
Y04078370D03*
Y04128370D03*
X04586610D03*
Y04078370D03*
Y04028370D03*
Y03978370D03*
X04150070Y04963200D03*
Y04913200D03*
Y04863200D03*
Y04813200D03*
X03945070D03*
Y04863200D03*
Y04913200D03*
Y04963200D03*
X04381610Y04423250D03*
Y04473250D03*
Y04523250D03*
Y04573250D03*
X04586610D03*
Y04523250D03*
Y04473250D03*
Y04423250D03*
Y04781910D03*
Y04731910D03*
Y04681910D03*
Y04631910D03*
X04381610D03*
Y04681910D03*
Y04731910D03*
Y04781910D03*
G54D22*
X04157470Y04417350D03*
Y04675231D03*
G54D23*
X04224405Y05116150D03*
X04055115D03*
G54D17*
X03911050Y04504631D03*
X03833050D03*
X03872050Y04586631D03*
G54D18*
X03840520Y03696850D03*
Y03722440D03*
Y03748031D03*
Y03773620D03*
Y03799210D03*
Y03824800D03*
Y03850390D03*
X04072800D03*
Y03824800D03*
Y03799210D03*
Y03773620D03*
Y03748031D03*
Y03722440D03*
Y03696850D03*
G54D12*
X03875981Y04217300D03*
Y04295300D03*
X03957981Y04256300D03*
G54D13*
X04013770Y04612220D03*
Y04683081D03*
G54D24*
X04066531Y04293331D03*
X04116531D03*
X04166531D03*
X04216531D03*
Y04088331D03*
X04166531D03*
X04116531D03*
X04066531D03*
G54D25*
X04663380Y03500020D03*
Y03618120D03*
G54D20*
X04765740Y03444900D03*
X04883840D03*
G54D18*
X04088570Y03349420D03*
Y03323831D03*
Y03298240D03*
Y03272650D03*
Y03247070D03*
Y03221481D03*
Y03195890D03*
Y03170300D03*
X03856290D03*
Y03195890D03*
Y03221481D03*
Y03247070D03*
Y03272650D03*
Y03298240D03*
Y03323831D03*
Y03349420D03*
G54D25*
X04663380Y03307120D03*
Y03425220D03*
G54D10*
X05883851Y00895670D03*
Y00837330D03*
X05938971Y00895670D03*
Y00837330D03*
X05850381Y01327490D03*
Y01385830D03*
G54D11*
X05785421Y01440950D03*
X05843761D03*
G54D12*
X05822821Y00891740D03*
Y00813740D03*
X05740821Y00852740D03*
G54D10*
X05793301Y01327490D03*
Y01385830D03*
G54D11*
X05782741Y01068900D03*
X05724401D03*
X05782741Y01009860D03*
X05724401D03*
X05302421Y01368120D03*
X05244081D03*
X05251951Y01301200D03*
X05310291D03*
X05250711Y01442920D03*
X05309051D03*
X05549201Y01844490D03*
X05490861D03*
G54D10*
X05255901Y02200790D03*
Y02142450D03*
X07450781Y01631180D03*
Y01572840D03*
G54D11*
X06585891Y01120080D03*
X06527551D03*
G54D10*
X07381881Y01631890D03*
Y01573550D03*
X06824791Y01059780D03*
Y01118120D03*
G54D11*
X06582671Y00771670D03*
X06524331D03*
X06707401Y01057110D03*
X06765741D03*
X06585891Y01181120D03*
X06527551D03*
X06448811D03*
X06390471D03*
X06448811Y01246090D03*
X06390471D03*
X06389751Y01401590D03*
X06331411D03*
X06473681Y01787420D03*
X06415341D03*
X06707401Y01120100D03*
X06765741D03*
G54D10*
X06773611Y00868130D03*
Y00926470D03*
G54D11*
X06631881Y00771670D03*
X06690221D03*
G54D10*
X06352351Y00980330D03*
Y00921990D03*
X06856291Y00844510D03*
Y00902850D03*
X06287391Y00820170D03*
Y00761830D03*
X06352351Y00817660D03*
Y00876000D03*
G54D11*
X06440221Y01494110D03*
X06381881D03*
X06586591Y01031510D03*
X06528251D03*
X06368101Y01787420D03*
X06309761D03*
X06470461Y00771670D03*
X06412121D03*
X06381881Y01559070D03*
X06323541D03*
X06582671Y01675220D03*
X06641011D03*
X06582661Y01624030D03*
X06641001D03*
G54D10*
X06476371Y01119380D03*
Y01061040D03*
G54D11*
X06345731Y00706710D03*
X06287391D03*
G54D10*
X06885821Y01818200D03*
Y01759860D03*
G54D11*
X07001961Y01037420D03*
X06943621D03*
X07118101D03*
X07176441D03*
X06368101Y01852380D03*
X06309761D03*
G54D10*
X07155501Y00292070D03*
Y00350410D03*
G54D11*
X07422501Y00746080D03*
X07364161D03*
X07422501Y00498050D03*
X07364161D03*
G54D10*
X06783451Y00435060D03*
Y00376720D03*
G54D13*
X05265741Y01622060D03*
Y01692920D03*
G54D14*
X05507961Y01557660D03*
Y01647660D03*
Y01738660D03*
G54D15*
X05751961Y01647660D03*
G54D16*
X05492121Y01025610D03*
X05608121D03*
X05374011Y01206710D03*
X05258011D03*
G54D17*
X06064581Y01878650D03*
X05986581D03*
X06025581Y01960650D03*
G54D18*
X05263771Y01913430D03*
Y01939020D03*
Y01964610D03*
Y01990200D03*
Y02015780D03*
Y02041370D03*
Y02066960D03*
Y02092550D03*
X05496051D03*
Y02066960D03*
Y02041370D03*
Y02015780D03*
Y01990200D03*
Y01964610D03*
Y01939020D03*
Y01913430D03*
G54D17*
X05853161Y01174780D03*
X05775161D03*
X05814161Y01256780D03*
X05986581Y02129260D03*
X06064581D03*
X06025581Y02047260D03*
G54D19*
X05492261Y01374950D03*
Y01335950D03*
Y01296950D03*
X05410261D03*
Y01335950D03*
Y01374950D03*
G54D17*
X05914111Y01411440D03*
X05992111D03*
X05953111Y01329440D03*
G54D20*
X05801171Y01931110D03*
X05919271D03*
X05801171Y01838600D03*
X05919271D03*
X05801171Y02143720D03*
X05919271D03*
X05801171Y02045300D03*
X05919271D03*
G54D13*
X06960621Y00563020D03*
Y00633880D03*
G54D20*
X07277531Y00937030D03*
X07159431D03*
X07277551Y00840570D03*
X07159451D03*
X07482261Y00665370D03*
X07364161D03*
X07078721Y00415380D03*
X06960621D03*
X07078721Y00322860D03*
X06960621D03*
G54D21*
X07185031Y01463010D03*
Y01413010D03*
Y01363010D03*
Y01313010D03*
X06980031D03*
Y01363010D03*
Y01413010D03*
Y01463010D03*
Y01104350D03*
Y01154350D03*
Y01204350D03*
Y01254350D03*
X07185031D03*
Y01204350D03*
Y01154350D03*
Y01104350D03*
X06748491Y02089180D03*
Y02039180D03*
Y01989180D03*
Y01939180D03*
X06543491D03*
Y01989180D03*
Y02039180D03*
Y02089180D03*
X06980031Y01549230D03*
Y01599230D03*
Y01649230D03*
Y01699230D03*
X07185031D03*
Y01649230D03*
Y01599230D03*
Y01549230D03*
Y01907890D03*
Y01857890D03*
Y01807890D03*
Y01757890D03*
X06980031D03*
Y01807890D03*
Y01857890D03*
Y01907890D03*
G54D22*
X06755891Y01543330D03*
Y01801210D03*
G54D23*
X06822826Y02242130D03*
X06653536D03*
G54D17*
X06509471Y01630610D03*
X06431471D03*
X06470471Y01712610D03*
G54D18*
X06438941Y00822830D03*
Y00848420D03*
Y00874010D03*
Y00899600D03*
Y00925190D03*
Y00950780D03*
Y00976370D03*
X06671221D03*
Y00950780D03*
Y00925190D03*
Y00899600D03*
Y00874010D03*
Y00848420D03*
Y00822830D03*
G54D12*
X06474401Y01343280D03*
Y01421280D03*
X06556401Y01382280D03*
G54D13*
X06612191Y01738200D03*
Y01809060D03*
G54D24*
X06664951Y01419310D03*
X06714951D03*
X06764951D03*
X06814951D03*
Y01214310D03*
X06764951D03*
X06714951D03*
X06664951D03*
G54D25*
X07261801Y00626000D03*
Y00744100D03*
G54D20*
X07364161Y00570880D03*
X07482261D03*
G54D18*
X06686991Y00475400D03*
Y00449810D03*
Y00424220D03*
Y00398630D03*
Y00373050D03*
Y00347460D03*
Y00321870D03*
Y00296280D03*
X06454711D03*
Y00321870D03*
Y00347460D03*
Y00373050D03*
Y00398630D03*
Y00424220D03*
Y00449810D03*
Y00475400D03*
G54D25*
X07261801Y00433100D03*
Y00551200D03*
G54D10*
X05883851Y03769690D03*
Y03711350D03*
X05938971Y03769690D03*
Y03711350D03*
X05850381Y04201510D03*
Y04259850D03*
G54D11*
X05785421Y04314970D03*
X05843761D03*
G54D12*
X05822821Y03765760D03*
Y03687760D03*
X05740821Y03726760D03*
G54D10*
X05793301Y04201510D03*
Y04259850D03*
G54D11*
X05782741Y03942920D03*
X05724401D03*
X05782741Y03883880D03*
X05724401D03*
X05302421Y04242140D03*
X05244081D03*
X05251951Y04175220D03*
X05310291D03*
X05250711Y04316940D03*
X05309051D03*
X05549201Y04718510D03*
X05490861D03*
G54D10*
X05255901Y05074810D03*
Y05016470D03*
X07450781Y04505200D03*
Y04446860D03*
G54D11*
X06585891Y03994100D03*
X06527551D03*
G54D10*
X07381881Y04505910D03*
Y04447570D03*
X06824791Y03933800D03*
Y03992140D03*
G54D11*
X06582671Y03645690D03*
X06524331D03*
X06707401Y03931130D03*
X06765741D03*
X06585891Y04055140D03*
X06527551D03*
X06448811D03*
X06390471D03*
X06448811Y04120110D03*
X06390471D03*
X06389751Y04275610D03*
X06331411D03*
X06473681Y04661440D03*
X06415341D03*
X06707401Y03994120D03*
X06765741D03*
G54D10*
X06773611Y03742150D03*
Y03800490D03*
G54D11*
X06631881Y03645690D03*
X06690221D03*
G54D10*
X06352351Y03854350D03*
Y03796010D03*
X06856291Y03718531D03*
Y03776870D03*
X06287391Y03694190D03*
Y03635850D03*
X06352351Y03691681D03*
Y03750020D03*
G54D11*
X06440221Y04368130D03*
X06381881D03*
X06586591Y03905530D03*
X06528251D03*
X06368101Y04661440D03*
X06309761D03*
X06470461Y03645690D03*
X06412121D03*
X06381881Y04433090D03*
X06323541D03*
X06582671Y04549240D03*
X06641011D03*
X06582661Y04498050D03*
X06641001D03*
G54D10*
X06476371Y03993400D03*
Y03935060D03*
G54D11*
X06345731Y03580730D03*
X06287391D03*
G54D10*
X06885821Y04692220D03*
Y04633881D03*
G54D11*
X07001961Y03911440D03*
X06943621D03*
X07118101D03*
X07176441D03*
X06368101Y04726400D03*
X06309761D03*
G54D10*
X07155501Y03166090D03*
Y03224431D03*
G54D11*
X07422501Y03620100D03*
X07364161D03*
X07422501Y03372070D03*
X07364161D03*
G54D10*
X06783451Y03309081D03*
Y03250740D03*
G54D13*
X05265741Y04496081D03*
Y04566940D03*
G54D14*
X05507961Y04431681D03*
Y04521681D03*
Y04612681D03*
G54D15*
X05751961Y04521681D03*
G54D16*
X05492121Y03899631D03*
X05608121D03*
X05374011Y04080731D03*
X05258011D03*
G54D17*
X06064581Y04752670D03*
X05986581D03*
X06025581Y04834670D03*
G54D18*
X05263771Y04787450D03*
Y04813040D03*
Y04838631D03*
Y04864220D03*
Y04889800D03*
Y04915390D03*
Y04940981D03*
Y04966570D03*
X05496051D03*
Y04940981D03*
Y04915390D03*
Y04889800D03*
Y04864220D03*
Y04838631D03*
Y04813040D03*
Y04787450D03*
G54D17*
X05853161Y04048800D03*
X05775161D03*
X05814161Y04130800D03*
X05986581Y05003281D03*
X06064581D03*
X06025581Y04921281D03*
G54D19*
X05492261Y04248970D03*
Y04209970D03*
Y04170970D03*
X05410261D03*
Y04209970D03*
Y04248970D03*
G54D17*
X05914111Y04285460D03*
X05992111D03*
X05953111Y04203460D03*
G54D20*
X05801171Y04805130D03*
X05919271D03*
X05801171Y04712620D03*
X05919271D03*
X05801171Y05017740D03*
X05919271D03*
X05801171Y04919320D03*
X05919271D03*
G54D13*
X06960621Y03437040D03*
Y03507900D03*
G54D20*
X07277531Y03811050D03*
X07159431D03*
X07277551Y03714590D03*
X07159451D03*
X07482261Y03539390D03*
X07364161D03*
X07078721Y03289400D03*
X06960621D03*
X07078721Y03196880D03*
X06960621D03*
G54D21*
X07185031Y04337031D03*
Y04287031D03*
Y04237031D03*
Y04187031D03*
X06980031D03*
Y04237031D03*
Y04287031D03*
Y04337031D03*
Y03978370D03*
Y04028370D03*
Y04078370D03*
Y04128370D03*
X07185031D03*
Y04078370D03*
Y04028370D03*
Y03978370D03*
X06748491Y04963200D03*
Y04913200D03*
Y04863200D03*
Y04813200D03*
X06543491D03*
Y04863200D03*
Y04913200D03*
Y04963200D03*
X06980031Y04423250D03*
Y04473250D03*
Y04523250D03*
Y04573250D03*
X07185031D03*
Y04523250D03*
Y04473250D03*
Y04423250D03*
Y04781910D03*
Y04731910D03*
Y04681910D03*
Y04631910D03*
X06980031D03*
Y04681910D03*
Y04731910D03*
Y04781910D03*
G54D22*
X06755891Y04417350D03*
Y04675231D03*
G54D23*
X06822826Y05116150D03*
X06653536D03*
G54D17*
X06509471Y04504631D03*
X06431471D03*
X06470471Y04586631D03*
G54D18*
X06438941Y03696850D03*
Y03722440D03*
Y03748031D03*
Y03773620D03*
Y03799210D03*
Y03824800D03*
Y03850390D03*
X06671221D03*
Y03824800D03*
Y03799210D03*
Y03773620D03*
Y03748031D03*
Y03722440D03*
Y03696850D03*
G54D12*
X06474401Y04217300D03*
Y04295300D03*
X06556401Y04256300D03*
G54D13*
X06612191Y04612220D03*
Y04683081D03*
G54D24*
X06664951Y04293331D03*
X06714951D03*
X06764951D03*
X06814951D03*
Y04088331D03*
X06764951D03*
X06714951D03*
X06664951D03*
G54D25*
X07261801Y03500020D03*
Y03618120D03*
G54D20*
X07364161Y03444900D03*
X07482261D03*
G54D18*
X06686991Y03349420D03*
Y03323831D03*
Y03298240D03*
Y03272650D03*
Y03247070D03*
Y03221481D03*
Y03195890D03*
Y03170300D03*
X06454711D03*
Y03195890D03*
Y03221481D03*
Y03247070D03*
Y03272650D03*
Y03298240D03*
Y03323831D03*
Y03349420D03*
G54D25*
X07261801Y03307120D03*
Y03425220D03*
G54D10*
X08482271Y00895670D03*
Y00837330D03*
X08537391Y00895670D03*
Y00837330D03*
X08448801Y01327490D03*
Y01385830D03*
G54D11*
X08383841Y01440950D03*
X08442181D03*
G54D12*
X08421241Y00891740D03*
Y00813740D03*
X08339241Y00852740D03*
G54D10*
X08391721Y01327490D03*
Y01385830D03*
G54D11*
X08381161Y01068900D03*
X08322821D03*
X08381161Y01009860D03*
X08322821D03*
X07900841Y01368120D03*
X07842501D03*
X07850371Y01301200D03*
X07908711D03*
X07849131Y01442920D03*
X07907471D03*
X08147621Y01844490D03*
X08089281D03*
G54D10*
X07854321Y02200790D03*
Y02142450D03*
X10049201Y01631180D03*
Y01572840D03*
G54D11*
X09184311Y01120080D03*
X09125971D03*
G54D10*
X09980301Y01631890D03*
Y01573550D03*
X09423211Y01059780D03*
Y01118120D03*
G54D11*
X09181091Y00771670D03*
X09122751D03*
X09305821Y01057110D03*
X09364161D03*
X09184311Y01181120D03*
X09125971D03*
X09047231D03*
X08988891D03*
X09047231Y01246090D03*
X08988891D03*
X08988171Y01401590D03*
X08929831D03*
X09072101Y01787420D03*
X09013761D03*
X09305821Y01120100D03*
X09364161D03*
G54D10*
X09372031Y00868130D03*
Y00926470D03*
G54D11*
X09230301Y00771670D03*
X09288641D03*
G54D10*
X08950771Y00980330D03*
Y00921990D03*
X09454711Y00844510D03*
Y00902850D03*
X08885811Y00820170D03*
Y00761830D03*
X08950771Y00817660D03*
Y00876000D03*
G54D11*
X09038641Y01494110D03*
X08980301D03*
X09185011Y01031510D03*
X09126671D03*
X08966521Y01787420D03*
X08908181D03*
X09068881Y00771670D03*
X09010541D03*
X08980301Y01559070D03*
X08921961D03*
X09181091Y01675220D03*
X09239431D03*
X09181081Y01624030D03*
X09239421D03*
G54D10*
X09074791Y01119380D03*
Y01061040D03*
G54D11*
X08944151Y00706710D03*
X08885811D03*
G54D10*
X09484241Y01818200D03*
Y01759860D03*
G54D11*
X09600381Y01037420D03*
X09542041D03*
X09716521D03*
X09774861D03*
X08966521Y01852380D03*
X08908181D03*
G54D10*
X09753921Y00292070D03*
Y00350410D03*
G54D11*
X10020921Y00746080D03*
X09962581D03*
X10020921Y00498050D03*
X09962581D03*
G54D10*
X09381871Y00435060D03*
Y00376720D03*
G54D13*
X07864161Y01622060D03*
Y01692920D03*
G54D14*
X08106381Y01557660D03*
Y01647660D03*
Y01738660D03*
G54D15*
X08350381Y01647660D03*
G54D16*
X08090541Y01025610D03*
X08206541D03*
X07972431Y01206710D03*
X07856431D03*
G54D17*
X08663001Y01878650D03*
X08585001D03*
X08624001Y01960650D03*
G54D18*
X07862191Y01913430D03*
Y01939020D03*
Y01964610D03*
Y01990200D03*
Y02015780D03*
Y02041370D03*
Y02066960D03*
Y02092550D03*
X08094471D03*
Y02066960D03*
Y02041370D03*
Y02015780D03*
Y01990200D03*
Y01964610D03*
Y01939020D03*
Y01913430D03*
G54D17*
X08451581Y01174780D03*
X08373581D03*
X08412581Y01256780D03*
X08585001Y02129260D03*
X08663001D03*
X08624001Y02047260D03*
G54D19*
X08090681Y01374950D03*
Y01335950D03*
Y01296950D03*
X08008681D03*
Y01335950D03*
Y01374950D03*
G54D17*
X08512531Y01411440D03*
X08590531D03*
X08551531Y01329440D03*
G54D20*
X08399591Y01931110D03*
X08517691D03*
X08399591Y01838600D03*
X08517691D03*
X08399591Y02143720D03*
X08517691D03*
X08399591Y02045300D03*
X08517691D03*
G54D13*
X09559041Y00563020D03*
Y00633880D03*
G54D20*
X09875951Y00937030D03*
X09757851D03*
X09875971Y00840570D03*
X09757871D03*
X10080681Y00665370D03*
X09962581D03*
X09677141Y00415380D03*
X09559041D03*
X09677141Y00322860D03*
X09559041D03*
G54D21*
X09783451Y01463010D03*
Y01413010D03*
Y01363010D03*
Y01313010D03*
X09578451D03*
Y01363010D03*
Y01413010D03*
Y01463010D03*
Y01104350D03*
Y01154350D03*
Y01204350D03*
Y01254350D03*
X09783451D03*
Y01204350D03*
Y01154350D03*
Y01104350D03*
X09346911Y02089180D03*
Y02039180D03*
Y01989180D03*
Y01939180D03*
X09141911D03*
Y01989180D03*
Y02039180D03*
Y02089180D03*
X09578451Y01549230D03*
Y01599230D03*
Y01649230D03*
Y01699230D03*
X09783451D03*
Y01649230D03*
Y01599230D03*
Y01549230D03*
Y01907890D03*
Y01857890D03*
Y01807890D03*
Y01757890D03*
X09578451D03*
Y01807890D03*
Y01857890D03*
Y01907890D03*
G54D22*
X09354311Y01543330D03*
Y01801210D03*
G54D23*
X09421246Y02242130D03*
X09251956D03*
G54D17*
X09107891Y01630610D03*
X09029891D03*
X09068891Y01712610D03*
G54D18*
X09037361Y00822830D03*
Y00848420D03*
Y00874010D03*
Y00899600D03*
Y00925190D03*
Y00950780D03*
Y00976370D03*
X09269641D03*
Y00950780D03*
Y00925190D03*
Y00899600D03*
Y00874010D03*
Y00848420D03*
Y00822830D03*
G54D12*
X09072821Y01343280D03*
Y01421280D03*
X09154821Y01382280D03*
G54D13*
X09210611Y01738200D03*
Y01809060D03*
G54D24*
X09263371Y01419310D03*
X09313371D03*
X09363371D03*
X09413371D03*
Y01214310D03*
X09363371D03*
X09313371D03*
X09263371D03*
G54D25*
X09860221Y00626000D03*
Y00744100D03*
G54D20*
X09962581Y00570880D03*
X10080681D03*
G54D18*
X09285411Y00475400D03*
Y00449810D03*
Y00424220D03*
Y00398630D03*
Y00373050D03*
Y00347460D03*
Y00321870D03*
Y00296280D03*
X09053131D03*
Y00321870D03*
Y00347460D03*
Y00373050D03*
Y00398630D03*
Y00424220D03*
Y00449810D03*
Y00475400D03*
G54D25*
X09860221Y00433100D03*
Y00551200D03*
G54D10*
X08482271Y03769690D03*
Y03711350D03*
X08537391Y03769690D03*
Y03711350D03*
X08448801Y04201510D03*
Y04259850D03*
G54D11*
X08383841Y04314970D03*
X08442181D03*
G54D12*
X08421241Y03765760D03*
Y03687760D03*
X08339241Y03726760D03*
G54D10*
X08391721Y04201510D03*
Y04259850D03*
G54D11*
X08381161Y03942920D03*
X08322821D03*
X08381161Y03883880D03*
X08322821D03*
X07900841Y04242140D03*
X07842501D03*
X07850371Y04175220D03*
X07908711D03*
X07849131Y04316940D03*
X07907471D03*
X08147621Y04718510D03*
X08089281D03*
G54D10*
X07854321Y05074810D03*
Y05016470D03*
X10049201Y04505200D03*
Y04446860D03*
G54D11*
X09184311Y03994100D03*
X09125971D03*
G54D10*
X09980301Y04505910D03*
Y04447570D03*
X09423211Y03933800D03*
Y03992140D03*
G54D11*
X09181091Y03645690D03*
X09122751D03*
X09305821Y03931130D03*
X09364161D03*
X09184311Y04055140D03*
X09125971D03*
X09047231D03*
X08988891D03*
X09047231Y04120110D03*
X08988891D03*
X08988171Y04275610D03*
X08929831D03*
X09072101Y04661440D03*
X09013761D03*
X09305821Y03994120D03*
X09364161D03*
G54D10*
X09372031Y03742150D03*
Y03800490D03*
G54D11*
X09230301Y03645690D03*
X09288641D03*
G54D10*
X08950771Y03854350D03*
Y03796010D03*
X09454711Y03718531D03*
Y03776870D03*
X08885811Y03694190D03*
Y03635850D03*
X08950771Y03691681D03*
Y03750020D03*
G54D11*
X09038641Y04368130D03*
X08980301D03*
X09185011Y03905530D03*
X09126671D03*
X08966521Y04661440D03*
X08908181D03*
X09068881Y03645690D03*
X09010541D03*
X08980301Y04433090D03*
X08921961D03*
X09181091Y04549240D03*
X09239431D03*
X09181081Y04498050D03*
X09239421D03*
G54D10*
X09074791Y03993400D03*
Y03935060D03*
G54D11*
X08944151Y03580730D03*
X08885811D03*
G54D10*
X09484241Y04692220D03*
Y04633881D03*
G54D11*
X09600381Y03911440D03*
X09542041D03*
X09716521D03*
X09774861D03*
X08966521Y04726400D03*
X08908181D03*
G54D10*
X09753921Y03166090D03*
Y03224431D03*
G54D11*
X10020921Y03620100D03*
X09962581D03*
X10020921Y03372070D03*
X09962581D03*
G54D10*
X09381871Y03309081D03*
Y03250740D03*
G54D13*
X07864161Y04496081D03*
Y04566940D03*
G54D14*
X08106381Y04431681D03*
Y04521681D03*
Y04612681D03*
G54D15*
X08350381Y04521681D03*
G54D16*
X08090541Y03899631D03*
X08206541D03*
X07972431Y04080731D03*
X07856431D03*
G54D17*
X08663001Y04752670D03*
X08585001D03*
X08624001Y04834670D03*
G54D18*
X07862191Y04787450D03*
Y04813040D03*
Y04838631D03*
Y04864220D03*
Y04889800D03*
Y04915390D03*
Y04940981D03*
Y04966570D03*
X08094471D03*
Y04940981D03*
Y04915390D03*
Y04889800D03*
Y04864220D03*
Y04838631D03*
Y04813040D03*
Y04787450D03*
G54D17*
X08451581Y04048800D03*
X08373581D03*
X08412581Y04130800D03*
X08585001Y05003281D03*
X08663001D03*
X08624001Y04921281D03*
G54D19*
X08090681Y04248970D03*
Y04209970D03*
Y04170970D03*
X08008681D03*
Y04209970D03*
Y04248970D03*
G54D17*
X08512531Y04285460D03*
X08590531D03*
X08551531Y04203460D03*
G54D20*
X08399591Y04805130D03*
X08517691D03*
X08399591Y04712620D03*
X08517691D03*
X08399591Y05017740D03*
X08517691D03*
X08399591Y04919320D03*
X08517691D03*
G54D13*
X09559041Y03437040D03*
Y03507900D03*
G54D20*
X09875951Y03811050D03*
X09757851D03*
X09875971Y03714590D03*
X09757871D03*
X10080681Y03539390D03*
X09962581D03*
X09677141Y03289400D03*
X09559041D03*
X09677141Y03196880D03*
X09559041D03*
G54D21*
X09783451Y04337031D03*
Y04287031D03*
Y04237031D03*
Y04187031D03*
X09578451D03*
Y04237031D03*
Y04287031D03*
Y04337031D03*
Y03978370D03*
Y04028370D03*
Y04078370D03*
Y04128370D03*
X09783451D03*
Y04078370D03*
Y04028370D03*
Y03978370D03*
X09346911Y04963200D03*
Y04913200D03*
Y04863200D03*
Y04813200D03*
X09141911D03*
Y04863200D03*
Y04913200D03*
Y04963200D03*
X09578451Y04423250D03*
Y04473250D03*
Y04523250D03*
Y04573250D03*
X09783451D03*
Y04523250D03*
Y04473250D03*
Y04423250D03*
Y04781910D03*
Y04731910D03*
Y04681910D03*
Y04631910D03*
X09578451D03*
Y04681910D03*
Y04731910D03*
Y04781910D03*
G54D22*
X09354311Y04417350D03*
Y04675231D03*
G54D23*
X09421246Y05116150D03*
X09251956D03*
G54D17*
X09107891Y04504631D03*
X09029891D03*
X09068891Y04586631D03*
G54D18*
X09037361Y03696850D03*
Y03722440D03*
Y03748031D03*
Y03773620D03*
Y03799210D03*
Y03824800D03*
Y03850390D03*
X09269641D03*
Y03824800D03*
Y03799210D03*
Y03773620D03*
Y03748031D03*
Y03722440D03*
Y03696850D03*
G54D12*
X09072821Y04217300D03*
Y04295300D03*
X09154821Y04256300D03*
G54D13*
X09210611Y04612220D03*
Y04683081D03*
G54D24*
X09263371Y04293331D03*
X09313371D03*
X09363371D03*
X09413371D03*
Y04088331D03*
X09363371D03*
X09313371D03*
X09263371D03*
G54D25*
X09860221Y03500020D03*
Y03618120D03*
G54D20*
X09962581Y03444900D03*
X10080681D03*
G54D18*
X09285411Y03349420D03*
Y03323831D03*
Y03298240D03*
Y03272650D03*
Y03247070D03*
Y03221481D03*
Y03195890D03*
Y03170300D03*
X09053131D03*
Y03195890D03*
Y03221481D03*
Y03247070D03*
Y03272650D03*
Y03298240D03*
Y03323831D03*
Y03349420D03*
G54D25*
X09860221Y03307120D03*
Y03425220D03*
M02*
